<?xml version="1.0" encoding="UTF-8" standalone="no"?>
<!-- Created with Inkscape (http://www.inkscape.org/) -->

<svg
   xmlns:dc="http://purl.org/dc/elements/1.1/"
   xmlns:cc="http://creativecommons.org/ns#"
   xmlns:rdf="http://www.w3.org/1999/02/22-rdf-syntax-ns#"
   xmlns:svg="http://www.w3.org/2000/svg"
   xmlns="http://www.w3.org/2000/svg"
   xmlns:sodipodi="http://sodipodi.sourceforge.net/DTD/sodipodi-0.dtd"
   xmlns:inkscape="http://www.inkscape.org/namespaces/inkscape"
   version="1.1"
   id="svg815"
   width="260"
   height="246"
   viewBox="0 0 260 246"
   sodipodi:docname="fox.svg"
   inkscape:version="0.92.3 (2405546, 2018-03-11)">
  <metadata
     id="metadata821">
    <rdf:RDF>
      <cc:Work
         rdf:about="">
        <dc:format>image/svg+xml</dc:format>
        <dc:type
           rdf:resource="http://purl.org/dc/dcmitype/StillImage" />
        <dc:title></dc:title>
      </cc:Work>
    </rdf:RDF>
  </metadata>
  <defs
     id="defs819" />
  <sodipodi:namedview
     pagecolor="#ffffff"
     bordercolor="#666666"
     borderopacity="1"
     objecttolerance="10"
     gridtolerance="10"
     guidetolerance="10"
     inkscape:pageopacity="0"
     inkscape:pageshadow="2"
     inkscape:window-width="1366"
     inkscape:window-height="705"
     id="namedview817"
     showgrid="false"
     inkscape:zoom="1.3114616"
     inkscape:cx="202.61827"
     inkscape:cy="72.173848"
     inkscape:window-x="-8"
     inkscape:window-y="-8"
     inkscape:window-maximized="1"
     inkscape:current-layer="svg815" />
  <g
     id="g827"
     transform="translate(2.2873134,-4.0085817)">
    <path
       style="fill:#fdfcfb"
       d="M -1.3768656,126.67164 V 3.6716418 h 129.9999956 130 v 122.9999982 123 h -130 -129.9999956 z"
       id="path843"
       inkscape:connector-curvature="0" />
    <path
       style="fill:#fce0b8"
       d="m 31.024937,236.18591 c -6.907882,-1.50289 -14.594553,-5.12269 -19.318045,-9.09725 -4.0469193,-3.40525 -9.0620786,-12.06399 -9.0743735,-15.66702 -0.011787,-3.45419 0.4453556,-3.43593 4.5664042,0.1824 4.0956113,3.59599 10.8197113,4.84731 16.7737383,3.12149 5.544645,-1.60715 19.829614,-16.0872 25.57443,-25.92369 6.379357,-10.92297 18.448652,-19.59105 35.130249,-25.2303 8.086011,-2.7335 11.283311,-3.26322 22.21018,-3.67978 l 12.76439,-0.48662 0.57292,-2.61675 c 0.31511,-1.43921 1.8826,-6.80603 3.48331,-11.92625 1.60071,-5.12023 3.1827,-11.0125 3.51554,-13.09393 l 0.60515,-3.78442 -9.35285,-1.23679 c -5.14407,-0.68023 -11.89281,-1.87546 -14.99719,-2.65607 -3.10439,-0.78061 -6.778625,-1.41929 -8.164968,-1.41929 -1.386342,0 -6.946387,-1.84721 -12.355655,-4.10492 -18.328573,-7.64992 -19.564914,-8.0652 -20.682917,-6.9472 -1.769504,1.76951 -4.406618,1.17968 -6.473456,-1.44788 -1.081575,-1.375 -2.866091,-2.5 -3.965591,-2.5 -2.098503,0 -3.213069,-1.79709 -3.213069,-5.18066 0,-1.10939 -0.75328,-3.604499 -1.673955,-5.544678 -1.459792,-3.076283 -1.515764,-4.293481 -0.437492,-9.513956 1.498805,-7.256498 4.870803,-15.097139 9.196987,-21.385032 l 3.220748,-4.681196 -1.76184,-6.792856 c -3.256484,-12.55553 -1.764151,-32.338787 2.986362,-39.588985 1.598633,-2.439824 2.020077,-2.539752 8.824002,-2.092251 8.479915,0.557732 16.235856,4.104561 24.476843,11.193378 2.93241,2.522431 5.448035,4.586238 5.590275,4.586238 0.14224,0 2.917996,-1.322146 6.168346,-2.938102 3.25034,-1.615955 10.85972,-4.597792 16.90972,-6.626303 6.05,-2.028511 12.83954,-4.756365 15.08786,-6.061899 4.03176,-2.341123 9.80569,-3.1639772 10.80909,-1.540427 0.28325,0.458298 1.91249,0.62816 3.62054,0.377471 2.27572,-0.334004 3.63393,0.111359 5.08298,1.666731 1.08759,1.167391 3.02422,2.122529 4.30363,2.122529 1.2794,0 3.39937,0.815906 4.71104,1.813124 1.31167,0.997219 4.63486,2.638144 7.38486,3.646501 2.75,1.008357 7.65253,3.156758 10.89452,4.774225 5.778,2.882715 5.93925,2.904529 8.15721,1.1035 14.62601,-11.876619 20.35248,-14.588716 29.83744,-14.131218 5.62083,0.271115 6.20044,0.519699 7.4862,3.210679 4.51039,9.439838 5.56975,27.76182 2.2263,38.504361 l -1.89834,6.09936 2.54835,3.739734 c 7.83701,11.500882 12.84238,28.125811 9.78305,32.493608 -0.8441,1.205126 -1.53473,3.576014 -1.53473,5.268634 0,3.34221 -1.52518,5.47749 -3.91244,5.47749 -0.83183,0 -2.50019,1.2375 -3.70746,2.75 -1.99855,2.50386 -2.46427,2.64874 -5.20319,1.61871 -2.54905,-0.95863 -3.89865,-0.76021 -8.84254,1.3 -16.72875,6.97119 -21.26195,8.61116 -25.83437,9.34608 -2.75,0.442 -10.11692,1.74449 -16.37093,2.89442 -6.25401,1.14994 -12.44151,2.09079 -13.75,2.09079 -1.30849,0 -2.37907,0.26824 -2.37907,0.59609 0,0.8612 2.78524,10.63665 5.67105,19.90391 2.04766,6.57569 2.54761,10.49255 2.80806,22 0.36747,16.23611 0.91299,20.16347 3.75038,27 4.32105,10.41131 2.00517,20.71944 -6.24066,27.77756 -7.39872,6.33304 -15.00335,9.72244 -21.81371,9.72244 -7.40401,0 -10.16742,-1.00112 -17.00052,-6.1589 l -5.32539,-4.01974 -13.67461,4.51268 c -21.902165,7.22781 -30.840616,8.67956 -52.866893,8.58646 -11.59342,-0.049 -21.146857,-0.58841 -24.9059,-1.40623 z"
       id="path841"
       inkscape:connector-curvature="0" />
    <path
       style="fill:#f8d7b1"
       d="m 54.623134,235.78097 c -3.998722,-1.10575 -3.755135,-4.46624 0.505976,-6.98035 3.589369,-2.11778 3.917961,-4.10895 0.685007,-4.15094 -0.930041,-0.0121 -3.63577,-0.90453 -6.012731,-1.98323 -5.875826,-2.66653 -5.579827,-5.74534 0.77758,-8.08792 4.431919,-1.63307 6.584703,-3.90689 3.69893,-3.90689 -1.673931,0 -4.654762,-2.61354 -4.654762,-4.08122 0,-0.51609 0.919253,-1.72145 2.042785,-2.67857 2.034272,-1.73296 2.031592,-1.74229 -0.643059,-2.24021 -4.961851,-0.9237 -5.15817,-3.0808 -1.038936,-11.4155 4.49536,-9.09575 11.712155,-15.54955 24.13921,-21.5871 12.09884,-5.87809 21.123563,-8.10073 34.440576,-8.48213 l 11.44058,-0.32766 1.66952,-5.8438 c 7.65198,-26.78408 8.85835,-29.83478 10.96491,-27.72822 0.68744,0.68744 0.63771,3.57921 -0.15394,8.95 -0.64323,4.36392 -1.21274,14.23441 -1.26558,21.93441 -0.0945,13.76829 -0.034,14.17254 3.65393,24.42505 4.19773,11.66975 4.42162,13.26047 2.18164,15.50045 -2.01541,2.01541 -0.95736,5.5745 1.65719,5.5745 1.17871,0 2.42267,1.09116 3.13509,2.75 0.64957,1.5125 1.24188,2.86445 1.31623,3.00434 0.0743,0.13988 1.4695,-0.41131 3.10032,-1.22487 3.47557,-1.73384 7.0443,-8.2447 5.41315,-9.87585 -1.75767,-1.75767 -1.20435,-5.89895 2.0367,-15.24358 1.69968,-4.90052 3.4973,-11.38504 3.99471,-14.41004 0.91096,-5.53998 -0.38685,-28.75998 -2.02047,-36.14951 -0.44375,-2.00723 -0.46022,-4.2103 -0.0366,-4.89572 1.53627,-2.48573 3.69366,-0.004 5.3936,6.20339 0.95515,3.48801 2.87543,9.94184 4.26728,14.34184 2.09153,6.61187 2.68197,11.13751 3.40277,26.0819 0.71915,14.90982 1.24022,18.91399 2.97027,22.82507 6.1522,13.90807 2.41277,23.83667 -12.68162,33.67105 -5.41099,3.5254 -7.67062,4.3877 -12.39295,4.72928 -7.35402,0.53194 -11.56464,-0.88683 -18.82151,-6.34192 l -5.81966,-4.37472 -10.92984,3.84995 c -16.842095,5.93248 -32.302708,9.0781 -44.036691,8.95971 -5.433787,-0.0548 -11.004605,-0.41077 -12.379605,-0.79099 z m 30,-117.19847 c -19.137412,-8.11357 -19.953675,-8.36682 -23.117772,-7.17251 -2.678666,1.01109 -3.10315,0.83856 -5.424269,-2.20458 -1.385001,-1.81583 -3.285144,-3.24127 -4.222541,-3.16764 -1.215681,0.0955 -1.956624,-1.01302 -2.584189,-3.86613 -0.483907,-2.199998 -1.334825,-4.975853 -1.890928,-6.168564 -2.426864,-5.205057 2.898053,-21.926032 9.920038,-31.150294 1.649231,-2.166473 2.336493,-4.076205 1.979305,-5.5 -0.300951,-1.199627 -1.294934,-5.10614 -2.208853,-8.68114 -2.748101,-10.749826 -0.341114,-31.033921 4.301562,-36.25 4.253639,-4.7789941 20.421653,0.447422 31.770947,10.270166 2.529086,2.188909 5.26093,3.979834 6.07076,3.979834 0.809836,0 3.769816,-1.164179 6.577746,-2.587064 2.80793,-1.422885 9.69153,-4.089394 15.2969,-5.925575 5.60536,-1.836182 13.20344,-4.823732 16.88462,-6.639002 5.66371,-2.792904 6.99498,-3.111933 8.65629,-2.074425 1.07978,0.674336 3.54435,1.226066 5.47681,1.226066 2.30624,0 3.51357,0.470184 3.51357,1.368331 0,0.844641 1.56059,1.57765 4.07762,1.915254 2.24268,0.300808 4.83018,1.196466 5.75,1.990351 0.91981,0.793886 6.94442,3.691441 13.38802,6.439012 l 11.71564,4.995583 5.78436,-4.904672 c 7.44147,-6.30977 16.28142,-10.604165 23.51828,-11.425043 7.19784,-0.816452 8.16697,-0.05833 10.79272,8.442871 3.69255,11.955079 3.6773,21.929126 -0.0538,35.216604 -1.25083,4.454487 -1.20747,4.639147 2.34807,10 6.52195,9.833442 11.10615,24.288126 9.10182,28.699427 -0.4404,0.969255 -1.29381,3.787282 -1.89647,6.26228 -0.90849,3.73095 -1.46403,4.46111 -3.25073,4.27247 -1.34988,-0.14253 -2.37382,0.46199 -2.74076,1.61811 -0.99106,3.12254 -4.39107,5.65308 -5.75836,4.28579 -1.99182,-1.99182 -5.31972,-1.33886 -14.98151,2.93951 -8.17812,3.62136 -19.28829,7.88412 -20.54868,7.88412 -0.24238,0 -3.43443,-2.86464 -7.09345,-6.36588 -3.65902,-3.50123 -9.57777,-8.38183 -13.15277,-10.84577 -7.15703,-4.93273 -21.62938,-12.788348 -23.55989,-12.788348 -2.42506,0 -2.61437,3.359949 -0.28818,5.114601 3.35361,2.529637 0.91496,5.089187 -4.46362,4.684907 -4.84508,-0.36419 -7.21624,-3.15206 -4.43831,-5.21832 2.10139,-1.563045 2.32023,-4.581188 0.33216,-4.581188 -4.89441,0 -26.12674,13.481138 -35.71732,22.678158 -4.19934,4.02701 -8.249339,7.30801 -8.999999,7.2911 -0.75066,-0.0169 -5.639837,-1.84319 -10.864837,-4.0584 z"
       id="path839"
       inkscape:connector-curvature="0" />
    <path
       style="fill:#edb78c"
       d="m 60.123134,236.08358 c -1.1,-0.26939 -3.0125,-0.70586 -4.25,-0.96993 -3.325154,-0.70954 -2.73424,-3.61229 1.262379,-6.2012 1.918191,-1.24256 3.487621,-2.63383 3.487621,-3.09172 0,-0.45788 -1.9125,-1.40313 -4.25,-2.10056 -5.506919,-1.64305 -9.75,-3.84696 -9.75,-5.06425 0,-0.5304 2.925,-2.29063 6.5,-3.91161 3.575,-1.62098 6.5,-3.18312 6.5,-3.47141 0,-0.28829 -1.8,-1.00886 -4,-1.60126 -4.472655,-1.20436 -5.333248,-3.68628 -2,-5.76793 2.679832,-1.67358 2.530896,-3.23207 -0.30887,-3.23207 -1.269879,0 -3.099743,-0.5783 -4.066365,-1.28511 -1.666675,-1.2187 -1.645416,-1.58467 0.411385,-7.08196 2.680548,-7.16441 6.399696,-11.48238 15.233215,-17.68592 13.090555,-9.19313 28.827523,-13.94701 46.169421,-13.94701 h 9.52311 l 0.57689,-2.75 c 0.49374,-2.35365 2.10037,-7.83007 7.62766,-26 0.54376,-1.7875 1.44575,-3.25 2.00443,-3.25 0.6759,0 0.7336,3.26225 0.17244,9.75 -0.46382,5.3625 -0.80716,14.925 -0.76297,21.25 0.0739,10.57448 0.37568,12.33901 3.75,21.92505 4.2301,12.01722 4.35606,13.14378 1.73483,15.51596 -1.59909,1.44716 -1.74476,2.16814 -0.83949,4.15499 0.60244,1.3222 1.91155,2.404 2.90914,2.404 1.04063,0 2.51838,1.38539 3.46667,3.25 0.90907,1.7875 1.75967,3.37655 1.89023,3.53122 0.13056,0.15468 1.65594,-0.52032 3.38973,-1.5 4.0999,-2.31663 7.68093,-9.36186 6.18209,-12.16248 -1.63368,-3.05255 -1.2906,-6.16016 1.45298,-13.16092 4.72562,-12.05831 5.77246,-20.17554 4.53158,-35.13785 -0.60758,-7.32598 -1.35737,-14.73094 -1.6662,-16.45545 -0.86321,-4.82006 1.26175,-4.90741 2.94161,-0.12091 2.07708,5.91832 5.34546,16.48174 6.57685,21.25639 0.56738,2.2 1.28175,10.525 1.5875,18.5 0.62803,16.38173 0.90839,18.39415 3.59252,25.78751 2.24269,6.17742 2.48152,13.9319 0.56999,18.50683 -1.70086,4.07072 -11.20471,12.82741 -16.92992,15.59894 -3.16739,1.5333 -6.27633,2.10672 -11.42223,2.10672 -7.3221,0 -8.20129,-0.39827 -20.71673,-9.38469 -0.77838,-0.5589 -5.07108,0.43898 -11.65681,2.70973 -15.57766,5.37117 -30.341344,8.72141 -40.424686,9.17334 -4.95,0.22186 -9.9,0.18296 -11,-0.0864 z m 31.5,-115.0983 c -0.825,-0.29066 -7.306049,-2.99613 -14.402331,-6.01216 -10.978817,-4.66617 -13.259343,-5.32103 -15.297053,-4.39259 -3.489667,1.59 -3.90043,1.43455 -6.111447,-2.31284 -1.232,-2.08809 -2.719824,-3.34444 -3.848775,-3.25 -1.458883,0.12204 -1.907526,-0.67524 -2.164238,-3.84605 C 49.621176,98.971642 48.802908,96.42721 47.980916,95.517349 44.952044,92.164695 49.952931,76.3199 57.503792,65.3451 l 3.004868,-4.367427 -1.942763,-6.24211 c -1.361537,-4.374628 -1.941095,-9.132408 -1.937186,-15.903015 0.0057,-9.928452 0.852042,-14.803075 3.734918,-21.51258 l 1.654951,-3.851675 6.571287,0.371311 c 8.036619,0.45411 15.63856,3.925553 24.201403,11.051624 l 5.991184,4.985911 7.670336,-3.489062 c 4.21869,-1.918985 11.49534,-4.734195 16.17034,-6.256023 4.675,-1.521828 11.07467,-4.047987 14.22148,-5.613686 5.92807,-2.949514 9.77852,-3.642081 9.77852,-1.758828 0,0.708909 1.34689,0.860342 3.86629,0.434692 3.35636,-0.567053 3.93752,-0.380808 4.40638,1.412102 0.4314,1.649692 1.33924,2.065308 4.51127,2.065308 2.18414,0 4.49119,0.626586 5.12677,1.392413 0.63558,0.765827 2.60318,1.953497 4.37245,2.639267 1.76926,0.685769 7.35369,3.021931 12.40985,5.19147 l 9.19301,3.944616 6.30699,-5.251606 c 8.17261,-6.805044 15.62673,-10.214503 23.46159,-10.731152 5.59693,-0.369076 6.29248,-0.191974 7.67637,1.954571 0.83698,1.298232 2.27742,5.285421 3.20097,8.860421 2.15033,8.323716 1.61122,25.415011 -1.00174,31.758443 l -1.75412,4.258442 4.05223,6.241558 c 2.22872,3.432856 5.0268,8.491557 6.21795,11.241557 2.5159,5.808427 3.79831,16.859994 2.07967,17.922174 -0.61926,0.382723 -1.13282,2.131802 -1.14124,3.886843 -0.0194,4.040351 -1.20117,5.928871 -3.2243,5.152531 -1.02522,-0.39342 -1.79588,0.0749 -2.19558,1.33424 -0.33873,1.06725 -1.44603,2.69173 -2.46067,3.60997 -1.50125,1.3586 -2.30837,1.45831 -4.33397,0.53538 -2.07576,-0.94578 -3.55053,-0.68929 -8.87967,1.54434 -19.01152,7.96837 -23.02299,9.51452 -24.6853,9.51452 -1.00306,0 -3.93726,-2.44807 -6.52043,-5.44015 -7.11274,-8.23865 -32.79137,-24.559848 -38.64075,-24.559848 -2.4476,0 -3.83621,4.340548 -2.0696,6.469181 1.59391,1.920547 0.46542,3.530817 -2.47442,3.530817 -2.81728,0 -4.18249,-1.71751 -2.61287,-3.28713 1.44331,-1.443312 1.42809,-4.99765 -0.0276,-6.45338 -2.72297,-2.72297 -30.35118,14.04913 -39.13881,23.75978 -5.15645,5.69807 -6.996109,6.60657 -10.720676,5.29437 z"
       id="path837"
       inkscape:connector-curvature="0" />
    <path
       style="fill:#ee9759"
       d="m 57.873134,234.55286 c -1.7875,-0.51612 -3.25,-1.31574 -3.25,-1.77693 0,-0.46118 1.8,-2.0297 4,-3.48559 2.2,-1.45589 4,-3.03747 4,-3.51461 0,-0.47714 -3.004897,-1.93326 -6.677549,-3.23581 -3.672652,-1.30255 -6.842861,-2.87891 -7.044909,-3.50301 -0.202048,-0.6241 2.577849,-2.51296 6.177549,-4.19746 3.5997,-1.6845 6.544909,-3.44304 6.544909,-3.90787 0,-0.46482 -2.025,-1.38674 -4.5,-2.0487 -2.475,-0.66196 -4.5,-1.57685 -4.5,-2.03309 0,-0.45624 1.125,-1.8864 2.5,-3.17815 3.341132,-3.13883 3.152201,-4 -0.877555,-4 -5.265909,0 -5.863476,-1.64041 -3.106283,-8.52721 3.015608,-7.53226 10.605896,-14.7608 21.325694,-20.30932 12.612117,-6.52797 19.852766,-8.39704 35.1366,-9.07 l 13.47846,-0.59347 2.13769,-8 c 1.17573,-4.4 3.04541,-10.475 4.15486,-13.5 l 2.01716,-5.5 -0.13331,18.5 -0.13332,18.5 3.92596,11.24825 3.92595,11.24825 -2.2544,2.39971 c -2.13804,2.27584 -2.1735,2.55616 -0.68693,5.43088 0.86212,1.66714 2.5135,3.33143 3.66974,3.6984 1.15624,0.36698 2.74222,2.19887 3.52439,4.07087 1.49359,3.57466 2.76035,4.24078 4.0956,2.15364 0.43983,-0.6875 1.69969,-1.72581 2.79969,-2.30735 1.1,-0.58155 3.0866,-3.22373 4.41466,-5.87152 1.95703,-3.90178 2.19393,-5.1676 1.25,-6.67908 -1.7323,-2.77385 -1.45673,-4.96129 1.71004,-13.57383 4.48581,-12.19992 5.39056,-19.72621 4.17295,-34.71344 -0.57621,-7.09237 -1.04765,-13.35487 -1.04765,-13.91666 0,-2.23583 1.20943,0.48954 4.62445,10.4209 3.38396,9.84103 3.61705,11.37011 4.40415,28.89098 0.67583,15.04395 1.20305,19.34066 2.82222,23 4.49354,10.1555 3.61421,17.37045 -2.99032,24.53551 -6.29563,6.82995 -12.87644,10.56613 -20.11959,11.42266 -8.02992,0.94956 -11.21052,0.006 -18.78602,-5.5703 -3.62698,-2.67003 -6.86862,-4.34803 -7.82387,-4.04996 -0.89706,0.27993 -6.22515,2.09171 -11.84019,4.02619 -21.201571,7.30431 -41.449864,10.28641 -51.040826,7.51712 z m 21.260922,-119.4969 c -11.012076,-4.73971 -13.616751,-5.5046 -17.112948,-5.02539 -3.905157,0.53526 -4.222754,0.38162 -5.988326,-2.89685 -1.025451,-1.90414 -2.641733,-3.46208 -3.591739,-3.46208 -1.219566,0 -1.908726,-1.10227 -2.344562,-3.749998 -0.339504,-2.0625 -1.08327,-4.710806 -1.652814,-5.885125 -2.095016,-4.319627 1.903445,-16.590404 8.783616,-26.95582 l 3.727702,-5.61602 -1.915926,-7.146518 c -2.686764,-10.021792 -2.530612,-22.956818 0.390938,-32.383713 2.611079,-8.425109 3.977223,-9.22001 12.42548,-7.229857 7.31811,1.723925 13.55095,5.040909 20.785621,11.061664 l 6.179936,5.142999 8.651046,-4.028428 c 4.75808,-2.215635 12.47605,-5.245321 17.15105,-6.732634 4.675,-1.487313 10.38013,-3.777983 12.67807,-5.090377 4.40389,-2.515142 8.32193,-3.12638 8.32193,-1.298273 0,0.71518 1.37041,0.856368 4,0.412102 3.14779,-0.531817 4,-0.364939 4,0.783271 0,0.991586 1.5682,1.667096 4.89453,2.10835 2.69199,0.357105 5.42799,1.29206 6.07999,2.077678 0.65201,0.785618 2.83697,1.956173 4.85547,2.601234 2.01851,0.645061 7.58484,2.972811 12.36962,5.172777 l 8.69962,3.999938 5.30038,-4.668268 c 6.60529,-5.817544 17.67176,-11.323887 24.45152,-12.166334 4.76347,-0.591907 5.27759,-0.447063 6.83163,1.924692 4.74631,7.243794 6.52494,28.373664 3.17063,37.666662 -2.22229,6.156766 -2.06553,8.593096 0.79414,12.342319 3.57592,4.688279 8.38854,15.45686 9.45208,21.14973 0.70332,3.764672 0.58672,5.600598 -0.48764,7.678175 -0.77658,1.501751 -1.41197,4.102803 -1.41197,5.780114 0,2.33018 -0.44854,3.04966 -1.90122,3.04966 -1.10392,0 -2.74646,1.43256 -3.91673,3.41601 -1.85825,3.1495 -2.31631,3.37567 -5.87116,2.89886 -3.13305,-0.42023 -6.34901,0.53259 -17.15948,5.08399 -7.3171,3.08063 -14.19328,5.60114 -15.28039,5.60114 -1.13269,0 -4.35659,-2.57071 -7.55121,-6.02129 -6.22536,-6.72412 -17.71909,-14.716233 -29.93101,-20.812373 -7.45171,-3.719868 -8.28307,-3.928691 -10.22517,-2.568389 -1.87991,1.316736 -2.39041,1.299566 -4.61046,-0.155064 -2.4154,-1.582632 -2.78155,-1.481214 -11.27482,3.122929 -15.75599,8.541217 -27.3942,17.045497 -31.422626,22.961187 -1.634371,2.40005 -3.121249,3.45759 -4.85572,3.45364 -1.375,-0.003 -8.345085,-2.52147 -15.489078,-5.59632 z"
       id="path835"
       inkscape:connector-curvature="0" />
    <path
       style="fill:#fa6b12"
       d="m 60.623134,233.95078 c -4.140968,-0.74288 -4.329442,-1.91241 -0.672424,-4.17258 5.269078,-3.25647 5.363566,-4.88173 0.407183,-7.00384 -2.329117,-0.99723 -5.247259,-2.13362 -6.484759,-2.52532 -1.2375,-0.3917 -2.248717,-1.01935 -2.247149,-1.39479 0.0016,-0.37543 2.589068,-2.03261 5.75,-3.68261 5.875137,-3.06681 8.191523,-6.5 4.385573,-6.5 -1.104524,0 -3.232053,-0.4653 -4.727844,-1.034 l -2.719619,-1.03399 2.654519,-2.77073 c 4.137935,-4.31907 3.11319,-6.16128 -3.427267,-6.16128 -3.361284,0 -3.432076,-0.2921 -1.439489,-5.9397 3.62959,-10.28735 15.711817,-19.36781 34.214109,-25.71378 6.44101,-2.20916 10.25096,-2.77999 21.772683,-3.26212 l 13.96553,-0.5844 0.842,-3.5 c 0.4631,-1.925 1.60362,-5.975 2.53448,-9 l 1.69247,-5.5 0.57308,12 c 0.59071,12.36917 0.92833,13.95396 6.12217,28.73787 2.51104,7.1475 2.84135,9.0131 1.81481,10.25 -0.69022,0.83167 -1.87485,1.51213 -2.6325,1.51213 -0.75766,0 -1.37588,0.7875 -1.37382,1.75 0.006,2.60242 3.74408,8.25 5.46124,8.25 0.8219,0 2.41266,1.8 3.53502,4 2.32347,4.55437 2.97418,4.791 5.5,2 0.99549,-1.1 2.37498,-2 3.06554,-2 1.33952,0 6.43446,-9.39701 6.43446,-11.8676 0,-0.81121 -0.7635,-2.31858 -1.69667,-3.34972 -1.60476,-1.77323 -1.49167,-2.50882 2.08764,-13.57874 2.08137,-6.43717 4.23915,-12.91655 4.79508,-14.39864 0.55593,-1.48208 0.85399,-6.99493 0.66236,-12.25077 -0.19162,-5.25585 -0.0235,-9.55573 0.37366,-9.5553 1.0337,0.001 3.61208,9.53438 4.32758,16.00077 0.33472,3.025 0.74782,11.125 0.918,18 0.25586,10.33616 0.69625,13.36554 2.54403,17.5 1.43709,3.21554 2.25014,7.03865 2.27813,10.71222 0.0374,4.90802 -0.45436,6.46209 -3.49298,11.03857 -5.08496,7.65851 -12.85363,12.73752 -20.94661,13.69449 -9.33083,1.10334 -11.48455,0.2581 -22.94047,-9.00321 l -2.59025,-2.09403 -11.90975,4.04596 c -20.828588,7.07584 -39.266352,10.20484 -49.409746,8.38514 z m 31,-114.96169 c -0.825,-0.28857 -6.802605,-2.78527 -13.283566,-5.54822 -9.674363,-4.12437 -12.498268,-4.9277 -15.776414,-4.48801 -3.836343,0.51456 -4.071976,0.38045 -6.011614,-3.42156 -1.110321,-2.1764 -2.673435,-4.20832 -3.473586,-4.51537 -0.800151,-0.30705 -1.45482,-1.712187 -1.45482,-3.122536 0,-1.410349 -0.710666,-3.349548 -1.579258,-4.309331 -1.434573,-1.585185 -1.436829,-2.301017 -0.02462,-7.813392 1.710938,-6.678444 5.521439,-14.857982 9.21574,-19.782307 2.922098,-3.895016 2.935771,-4.789068 0.235148,-15.376332 -1.95839,-7.67747 -2.04964,-9.253893 -1.009526,-17.44039 2.269114,-17.859658 3.827693,-19.726171 14.24359,-17.057742 7.536811,1.930842 13.173956,5.067253 19.993709,11.12416 2.745587,2.43847 5.439788,4.433582 5.987117,4.433582 0.54732,0 3.751556,-1.391441 7.120526,-3.09209 3.36897,-1.70065 10.77627,-4.615604 16.46067,-6.477676 5.6844,-1.862072 12.63199,-4.549415 15.43907,-5.971874 4.75478,-2.409428 5.18956,-2.469004 6.35791,-0.871196 1.03667,1.417741 1.77701,1.532808 4.27016,0.663692 2.53757,-0.884602 3.27418,-0.749932 4.64312,0.848871 1.11703,1.304598 2.93769,1.900273 5.80811,1.900273 2.29958,0 4.89148,0.612707 5.75979,1.361571 1.47457,1.271733 24.96392,11.638429 26.3709,11.638429 0.35259,0 2.88747,-1.995112 5.63306,-4.433582 6.75533,-5.999688 13.16069,-9.608823 19.92733,-11.228163 8.00088,-1.914707 9.67895,-1.273849 11.5488,4.410525 3.94228,11.984557 3.97442,25.266124 0.0878,36.281975 l -1.51412,4.291479 3.95275,6.088883 c 2.17401,3.348886 4.91828,8.338883 6.09837,11.088883 2.56105,5.968102 3.74,14.90846 2.09964,15.922259 -0.61919,0.382676 -1.12579,2.061346 -1.12579,3.730378 0,2.047754 -0.5691,3.184571 -1.75,3.495751 -0.9625,0.25364 -2.51948,2.27255 -3.45995,4.48648 -1.49089,3.50967 -2.00331,3.92883 -4,3.27203 -3.77214,-1.24084 -6.018,-0.67656 -17.91414,4.50095 -16.89607,7.35361 -15.82913,7.33679 -22.29645,0.35132 -6.15185,-6.64473 -14.50005,-12.55205 -28.57946,-20.223286 -7.35111,-4.005289 -9.8393,-4.932623 -11,-4.099637 -3.08066,2.210856 -4.29677,2.319664 -7.1419,0.639005 l -2.91896,-1.724275 -10.14948,5.669101 c -5.58221,3.118006 -12.42779,7.203412 -15.21241,9.078682 -5.37771,3.62156 -16.577246,14.12895 -16.577246,15.55274 0,0.9202 -2.597152,1.0064 -5,0.16595 z"
       id="path833"
       inkscape:connector-curvature="0" />
    <path
       style="fill:#a15421"
       d="m 137.36758,232.1946 c -3.91913,-1.34734 -5.71215,-2.5446 -11.82257,-7.8944 l -4.42188,-3.87143 3.6266,0.6436 c 1.99464,0.35398 4.85552,0.17637 6.35753,-0.3947 2.3868,-0.90745 2.67967,-1.47729 2.32419,-4.52216 -0.22369,-1.91613 -0.24514,-3.48387 -0.0477,-3.48387 0.19748,0 2.8236,2.33086 5.83581,5.17968 l 5.47675,5.17969 5.58754,-5.42969 c 4.95648,-4.81645 5.51715,-5.12807 4.96428,-2.75914 -0.34279,1.46879 -0.36749,3.33706 -0.0549,4.1517 0.76415,1.99133 6.87408,3.04556 9.50147,1.63942 3.84942,-2.06014 3.31288,-0.009 -1.05177,4.02 -2.37226,2.19006 -6.1597,4.84624 -8.41653,5.90261 -5.14914,2.4102 -13.40987,3.16818 -17.85888,1.63869 z m -10.31756,-37.89607 c -3.76079,-3.76079 -6.30462,-11.30421 -6.67827,-19.80359 -0.28916,-6.57745 0.47152,-7.83904 3.2244,-5.34772 1.80818,1.63639 2.04129,1.65071 2.61312,0.16054 1.06126,-2.76559 2.28597,-1.83308 3.43294,2.61388 0.60289,2.3375 2.47986,8.18204 4.17105,12.98787 3.27514,9.30693 3.09023,10.93254 -1.37637,12.10058 -1.51729,0.39678 -3.05008,-0.37477 -5.38687,-2.71156 z m 27.03143,1.32705 c -1.81041,-2.00047 -1.77071,-2.29566 1.78207,-13.25 1.99856,-6.16217 3.94065,-12.28974 4.31576,-13.61683 0.64391,-2.27804 0.7395,-2.30599 1.71042,-0.5 1.55267,2.88809 1.6471,2.91321 3.16227,0.8411 1.34679,-1.84185 1.43936,-1.80151 2.12375,0.92532 1.29288,5.15123 -0.38961,16.69265 -3.11017,21.33494 -3.73144,6.36722 -6.86897,7.70765 -9.9841,4.26547 z M 140.37492,89.830216 c -3.5057,-2.115725 -3.7334,-5.874101 -0.40647,-6.709109 4.06009,-1.019017 9.87993,-0.06494 11.0534,1.812044 0.90636,1.449736 0.5703,2.195588 -1.89872,4.214037 -3.4805,2.845339 -4.97232,2.961815 -8.74821,0.683028 z M 92.131516,80.270933 c -2.767042,-2.767042 -3.057302,-4.726212 -1.403198,-9.471177 2.05774,-5.902837 7.645153,-6.559281 9.881232,-1.160909 1.98756,4.798405 0.13548,9.6693 -4.728034,12.434527 -0.714693,0.40635 -2.30614,-0.358581 -3.75,-1.802441 z m 99.855694,1.174193 c -4.41805,-2.021508 -5.83876,-10.2988 -2.36408,-13.773484 2.39711,-2.397109 2.92264,-2.442915 5.70097,-0.496899 6.62502,4.640345 3.62801,17.457218 -3.33689,14.270383 z M 67.991846,49.111615 c -1.877703,-2.865737 -3.022213,-12.70008 -1.967215,-16.903529 0.830573,-3.309264 3.566242,-3.275159 6.674189,0.0832 1.333373,1.440807 4.111814,3.696452 6.174314,5.012545 2.0625,1.316093 3.723097,2.949751 3.690215,3.630352 -0.05925,1.226367 -9.63931,9.80382 -11.727025,10.499725 -0.597146,0.199049 -1.877161,-0.845985 -2.844478,-2.322297 z M 212.22361,46.919072 c -6.10131,-5.227859 -6.84494,-7.359386 -3.15417,-9.041015 1.34548,-0.613038 4.21252,-2.71027 6.3712,-4.660515 2.15869,-1.950245 4.44399,-3.5459 5.07844,-3.5459 2.88541,0 3.9929,9.301238 1.92809,16.192968 -1.90345,6.353161 -3.81008,6.54981 -10.22356,1.054462 z"
       id="path831"
       inkscape:connector-curvature="0" />
    <path
       style="fill:#453c32"
       d="m 134.10832,230.57806 c -2.19185,-1.15147 -4.85432,-2.9331 -5.91659,-3.95918 -1.89767,-1.83302 -1.85839,-1.87727 2.25,-2.53422 2.32133,-0.3712 4.1814,-1.22458 4.1814,-1.91838 0,-0.68736 0.60842,-1.7547 1.35205,-2.37185 1.04521,-0.86745 2.06438,-0.44135 4.4909,1.87756 1.72636,1.64981 3.50875,2.99965 3.96086,2.99965 0.4521,0 2.11539,-1.35 3.69619,-3 3.46598,-3.61771 4.27834,-3.71321 5.44666,-0.6403 0.67011,1.76254 1.94111,2.52664 5.02231,3.01935 4.949,0.79137 4.58363,1.68969 -2.29086,5.6324 -6.63396,3.80475 -15.93973,4.18002 -22.19292,0.89497 z m -5.14335,-36.37954 c -2.57102,-1.80081 -5.2296,-8.20095 -6.4052,-15.41961 -0.97507,-5.98722 -0.47816,-7.80158 1.65239,-6.03338 1.08135,0.89744 1.75752,0.88339 2.8944,-0.0601 1.22479,-1.01648 1.63286,-0.8199 2.34055,1.12756 6.82588,18.7839 7.30836,21.85869 3.42991,21.85869 -0.99488,0 -2.7553,-0.6629 -3.91205,-1.47312 z m 24.35388,0.12257 c -0.41772,-1.08858 5.736,-21.10685 6.92952,-22.54195 0.17954,-0.21588 1.0123,0.17672 1.85059,0.87244 1.2171,1.0101 1.82637,1.01414 3.02417,0.0201 1.29645,-1.07596 1.5,-0.61909 1.5,3.36683 0,5.45837 -3.01711,13.95803 -6.13138,17.27301 -2.43057,2.58723 -6.35551,3.13968 -7.1729,1.00961 z M 141.26915,89.219391 c -3.29047,-3.049508 -3.2862,-3.353855 0.065,-4.627959 5.83066,-2.216814 9.67928,1.607087 5.46029,5.425222 -2.34128,2.118829 -2.38563,2.11243 -5.52524,-0.797263 z M 92.823134,79.471642 c -1.650813,-1.650813 -1.503782,-4.302994 0.322578,-5.818738 0.881062,-0.731217 1.273346,-2.048888 0.931049,-3.127371 -0.85103,-2.681357 2.438709,-3.721615 4.190981,-1.325241 1.803958,2.46706 1.715922,6.511606 -0.201312,9.248844 -1.738364,2.481862 -3.450125,2.815677 -5.243296,1.022506 z m 98.356696,-1.022506 c -1.97331,-2.817295 -2.01126,-8.155356 -0.0694,-9.766925 1.93306,-1.604305 4.90934,-0.486511 4.12776,1.550257 -0.32586,0.849182 0.10943,2.615212 0.96732,3.924513 1.20967,1.846186 1.31147,2.844537 0.45354,4.447603 -1.43708,2.685208 -3.53112,2.625799 -5.47919,-0.155448 z M 69.19999,47.477907 c -1.059255,-1.512298 -1.576856,-4.475984 -1.576856,-9.028771 0,-3.727622 0.215871,-6.777494 0.479714,-6.777494 0.263842,0 2.851342,1.798064 5.75,3.995697 2.898657,2.197634 5.607786,3.997634 6.020286,4 1.861648,0.01068 0.365968,2.139596 -4.173144,5.939956 l -4.923144,4.121889 z M 212.95503,45.2514 c -4.5266,-4.388991 -4.71054,-4.760661 -2.9111,-5.882382 1.05644,-0.658557 3.66371,-2.730103 5.79394,-4.603436 2.76793,-2.434135 4.18062,-3.098578 4.95069,-2.328505 1.64743,1.647424 0.57973,13.917977 -1.38171,15.879421 -1.49322,1.493213 -1.99783,1.253484 -6.45182,-3.065098 z"
       id="path829"
       inkscape:connector-curvature="0" />
  </g>
  <path
     style="fill:#d45500;fill-opacity:1;stroke-width:0.45895523"
     d="m 64.449857,230.03967 c -2.644866,-0.3414 -4.578215,-1.11999 -4.578215,-1.84371 0,-0.23279 0.750104,-1.00001 1.666898,-1.70494 6.634441,-5.10128 6.502279,-5.70847 -1.967603,-9.03975 -2.996217,-1.17843 -4.97728,-2.2109 -4.97728,-2.594 0,-0.35002 1.858768,-1.71933 4.130597,-3.04292 7.161603,-4.17242 9.030645,-6.68725 5.392724,-7.25601 -2.714433,-0.42439 -6.999068,-1.71783 -6.999068,-2.11287 0,-0.19757 0.215978,-0.49269 0.47995,-0.65583 1.193404,-0.73757 4.109603,-4.99947 4.109603,-6.00602 0,-1.35406 -0.95134,-1.7665 -5.022826,-2.1776 -1.626639,-0.16424 -3.10366,-0.53507 -3.282268,-0.82407 -0.178608,-0.28899 -0.01537,-1.57878 0.362754,-2.8662 3.387955,-11.53516 15.341158,-21.04986 34.854045,-27.74367 5.955807,-2.04312 11.177677,-2.77867 24.233812,-3.4136 l 11.4459,-0.55661 2.31523,-8.17402 c 1.49468,-5.27702 2.42408,-7.87959 2.62234,-7.34328 0.1689,0.4569 0.51959,5.16786 0.77931,10.46879 0.25971,5.30093 0.61999,10.05112 0.80062,10.55597 0.26817,0.74953 0.21615,0.81382 -0.28361,0.35048 -0.48895,-0.45332 -0.77942,-0.41594 -1.44442,0.18587 -0.45781,0.41432 -0.83238,1.03109 -0.83238,1.3706 0,0.94072 -0.86707,0.74168 -2.40446,-0.55195 -2.91665,-2.4542 -3.80568,-0.39719 -3.09345,7.15749 0.99186,10.52063 4.61957,18.24687 9.599,20.44379 1.0941,0.48271 1.69387,1.01807 1.55271,1.38594 -0.6808,1.77412 2.42757,6.8171 5.332,8.65059 1.19587,0.75492 2.44073,2.22097 3.66316,4.31406 1.01843,1.74379 2.16286,3.28994 2.54318,3.43589 0.41011,0.15737 1.51029,-0.42791 2.70366,-1.43833 1.10669,-0.93703 2.60755,-2.03273 3.33523,-2.43489 2.3738,-1.3119 6.968,-10.36558 6.40275,-12.61773 -0.25351,-1.01003 -0.18674,-1.05733 0.90602,-0.64187 1.55769,0.59223 3.27658,-0.30169 5.43994,-2.82908 2.11805,-2.47447 3.27835,-4.90013 4.33583,-9.06419 l 0.84857,-3.34144 0.27666,4.9747 c 0.23429,4.21274 0.56476,5.79864 2.15761,10.35413 2.29258,6.55663 2.83836,11.57658 1.68732,15.51922 -0.77209,2.6446 -3.60069,7.55318 -4.07769,7.07618 -0.1542,-0.1542 -1.4438,0.0864 -2.86577,0.5346 -2.22356,0.70092 -2.94889,0.73874 -5.18262,0.27021 -3.49314,-0.7327 -3.92187,-1.25084 -3.8451,-4.64699 0.0347,-1.53518 -0.10187,-2.79124 -0.30349,-2.79124 -0.20161,0 -2.55947,2.0653 -5.23969,4.58956 -2.68021,2.52425 -4.99625,4.58955 -5.14676,4.58955 -0.15051,0 -2.69875,-2.27952 -5.66275,-5.06561 l -5.3891,-5.06559 -0.13674,3.32401 c -0.0752,1.8282 -0.34934,3.58016 -0.60917,3.89324 -0.90644,1.09219 -5.17364,1.70879 -8.29318,1.19834 -2.63681,-0.43147 -4.22487,-0.30514 -2.75303,0.219 0.93659,0.33353 -18.99909,6.86613 -27.678028,9.06964 -14.105903,3.58137 -24.550588,4.86194 -31.908725,3.91216 z"
     id="path845"
     inkscape:connector-curvature="0" />
  <path
     style="fill:#d45500;fill-opacity:1;stroke-width:0.45895523"
     d="m 94.293284,114.96535 c -0.378638,-0.13846 -5.335355,-2.17238 -11.014926,-4.51982 -12.691543,-5.24559 -14.883721,-5.90479 -18.535295,-5.57368 -1.522029,0.13801 -3.13776,0.0527 -3.590514,-0.18962 -0.452755,-0.24231 -1.352157,-1.48443 -1.998671,-2.76026 -0.646515,-1.27584 -1.989818,-3.203152 -2.985118,-4.282927 -1.259788,-1.366709 -1.927442,-2.593813 -2.197356,-4.038586 -0.213246,-1.141453 -0.858868,-2.837701 -1.434715,-3.76944 -0.87239,-1.411558 -1.007633,-2.128171 -0.810965,-4.297069 0.479303,-5.285838 4.747964,-15.834887 8.875781,-21.934522 3.980221,-5.881538 3.997308,-6.06663 1.477571,-16.005769 -1.902579,-7.50475 -2.092351,-12.044538 -0.867937,-20.763094 1.217786,-8.67136 2.299789,-12.327677 4.181625,-14.13059 1.243305,-1.191162 1.728167,-1.349045 4.027335,-1.311399 3.452696,0.05653 9.086089,1.640309 13.636954,3.8339 3.672601,1.770255 7.05143,4.117672 13.72905,9.53816 1.943552,1.577659 3.864377,2.86847 4.268507,2.86847 0.40412,0 3.12711,-1.106938 6.05109,-2.459862 5.37478,-2.486912 10.51618,-4.498604 21.37975,-8.365319 3.28153,-1.168009 8.30287,-3.16042 11.15854,-4.427581 l 5.19213,-2.303929 1.34654,1.29007 1.34655,1.290071 2.95653,-0.587665 2.95653,-0.587665 1.79459,1.442166 c 1.54054,1.238018 2.34038,1.499683 5.65031,1.848481 3.47419,0.366107 4.60512,0.766359 11.4285,4.044706 8.18697,3.933492 19.67206,8.816527 20.73682,8.816527 0.36263,0 2.79745,-1.770561 5.41071,-3.93458 5.36995,-4.446811 8.83106,-6.882945 12.17523,-8.569647 3.29219,-1.660483 9.34385,-3.479989 12.72739,-3.826642 2.69549,-0.276161 3.01558,-0.208822 4.35178,0.91552 0.96675,0.81346 1.75235,2.155123 2.38268,4.069142 4.1004,12.451091 3.97095,25.487335 -0.3783,38.094914 l -0.9154,2.653558 2.43177,3.771818 c 5.89679,9.146257 8.42841,14.520944 9.71043,20.615447 0.91629,4.355875 0.84497,6.926772 -0.24878,8.967466 -0.50485,0.941942 -0.91791,2.51256 -0.91791,3.490263 0,1.508723 -0.3065,2.065193 -2.0261,3.678439 -1.11436,1.045436 -2.6663,3.191608 -3.44877,4.769268 -1.52176,3.06826 -1.69922,3.15542 -4.82285,2.36888 -2.86255,-0.7208 -5.91706,0.18892 -18.13686,5.40165 -7.82856,3.3395 -10.98436,4.46614 -12.96506,4.62857 l -2.61792,0.2147 -5.87275,-5.67723 c -3.23001,-3.12248 -7.62825,-6.93931 -9.77387,-8.48185 -7.60965,-5.470771 -25.01379,-15.321327 -27.07001,-15.321327 -1.15696,0 -1.15818,-0.248814 -0.008,-1.710586 1.17461,-1.493275 1.15505,-2.040937 -0.11474,-3.21393 -2.88774,-2.667581 -11.59724,-2.57713 -12.83218,0.133271 -0.37771,0.828992 -0.37187,1.423027 0.0225,2.288585 0.29295,0.642941 0.53263,1.250905 0.53263,1.351031 0,0.100121 -2.11693,1.356281 -4.70429,2.791467 -8.7385,4.847154 -19.83209,11.550255 -22.83303,13.796429 -3.77602,2.82634 -14.227608,12.94342 -14.227608,13.77226 0,0.63468 -3.116616,0.83796 -4.589552,0.29936 z m 6.124766,-38.478901 c 2.4004,-2.331241 3.23679,-4.163927 3.23679,-7.092419 0,-5.958735 -4.607198,-9.353627 -8.382584,-6.176849 -1.692377,1.424042 -3.273749,5.445366 -3.273749,8.324929 0,1.916147 0.208299,2.321946 2.229212,4.342859 2.733352,2.733349 3.880446,2.844807 6.190331,0.60148 z m 98.28127,0.632761 c 2.63993,-2.07657 3.35941,-7.10001 1.55171,-10.834207 -1.01846,-2.10386 -4.05299,-4.693212 -5.50012,-4.693212 -1.32026,0 -3.98399,3.002884 -4.57719,5.159974 -1.05027,3.819136 0.92614,9.162623 3.94232,10.658606 1.90819,0.946435 3.10672,0.870299 4.58328,-0.291161 z M 76.314151,45.355422 c 1.432273,-1.104817 4.004734,-3.37803 5.716581,-5.051586 3.719503,-3.636305 3.705976,-3.720241 -1.185708,-7.357774 -1.816983,-1.351138 -4.503171,-3.513251 -5.969306,-4.804696 -3.160282,-2.783735 -4.859697,-3.088827 -6.158608,-1.10564 -1.541454,2.353503 -0.817552,13.467247 1.129795,17.345244 1.802217,3.588981 2.869351,3.749771 6.467246,0.974452 z M 223.83133,44.151493 c 3.11204,-6.234239 2.4695,-18.358209 -0.97293,-18.358209 -0.4615,0 -1.58249,0.567957 -2.49109,1.262126 -0.9086,0.69417 -3.36603,2.546858 -5.46096,4.117085 -2.09493,1.570227 -4.30535,3.236998 -4.91206,3.703937 -0.88477,0.680951 -1.03998,1.10047 -0.78417,2.119664 0.38528,1.535096 3.66363,4.892 7.62668,7.809432 4.0011,2.945443 5.25632,2.828072 6.99453,-0.654035 z"
     id="path847"
     inkscape:connector-curvature="0" />
  <path
     style="fill:#00112b;fill-opacity:1;stroke-width:0.45895523"
     d="m 156.36698,191.17216 c -0.31553,-0.12732 -0.5737,-0.6879 -0.5737,-1.24573 0,-2.35514 6.21568,-21.85703 6.96632,-21.85703 0.25565,0 1.06888,0.35683 1.80718,0.79295 1.0994,0.64944 1.50566,0.69097 2.24462,0.22948 1.80643,-1.12813 1.96953,-0.78024 1.72612,3.68186 -0.26476,4.85361 -1.83295,10.14115 -4.16434,14.04111 -2.06988,3.4625 -5.54147,5.35191 -8.0062,4.35736 z"
     id="path855"
     inkscape:connector-curvature="0" />
  <path
     style="fill:#00112b;fill-opacity:1;stroke-width:0.45895523"
     d="m 132.56057,190.8168 c -2.92544,-1.27323 -5.57731,-6.4214 -7.10738,-13.79777 -0.86052,-4.14853 -1.12267,-8.08388 -0.57499,-8.63156 0.16164,-0.16164 0.89383,0.0605 1.6271,0.49367 1.25559,0.7417 1.41234,0.74215 2.69181,0.008 1.31653,-0.75559 1.37868,-0.74838 2.00782,0.233 1.04229,1.62585 5.79499,16.22349 6.08826,18.69975 0.41552,3.50842 -1.20164,4.53185 -4.73262,2.99507 z"
     id="path857"
     inkscape:connector-curvature="0" />
  <path
     style="fill:#00112b;fill-opacity:1;stroke-width:0.45895523"
     d="m 142.2541,228.34739 c -4.09569,-0.88178 -10.33528,-4.11831 -12.11297,-6.2831 -0.84795,-1.0326 -0.64631,-1.16971 2.91452,-1.98194 2.7146,-0.61921 3.16437,-0.88453 4.15225,-2.44944 1.84553,-2.9235 1.94884,-2.90651 6.63193,1.09091 1.3695,1.16899 2.66543,2.12543 2.87982,2.12543 0.2144,0 1.81918,-1.34244 3.56617,-2.98321 1.747,-1.64076 3.38847,-2.9832 3.64772,-2.9832 0.25925,0 0.96219,0.77751 1.56209,1.72782 1.5175,2.40387 2.02716,2.74051 5.30758,3.50578 1.58712,0.37025 3.00108,0.7886 3.14215,0.92966 1.03937,1.03938 -6.29366,5.4492 -11.1096,6.68091 -3.29913,0.84378 -8.20743,1.13154 -10.58166,0.62038 z"
     id="path859"
     inkscape:connector-curvature="0" />
  <path
     style="fill:#00112b;fill-opacity:1;stroke-width:0.45895523"
     d="m 143.44576,84.813857 c -1.34674,-1.363685 -2.31019,-2.703415 -2.141,-2.977179 0.49694,-0.804068 5.24931,-2.001094 6.60328,-1.663234 1.69114,0.421999 2.83674,1.552035 2.83674,2.798219 0,1.295586 -2.78052,4.321621 -3.97099,4.321621 -0.48367,0 -1.98128,-1.115743 -3.32803,-2.479427 z"
     id="path861"
     inkscape:connector-curvature="0" />
  <path
     style="fill:#00112b;fill-opacity:1;stroke-width:0.45895523"
     d="m 194.17448,74.88724 c -2.85071,-3.387878 -2.76098,-9.327234 0.15919,-10.536808 1.99502,-0.826367 3.17327,3.41e-4 3.14284,2.205157 -0.0133,0.96229 0.41273,2.605965 0.94669,3.652612 1.21577,2.383109 1.21961,3.335321 0.0196,4.860875 -1.27202,1.617108 -2.80974,1.551599 -4.26833,-0.181836 z"
     id="path863"
     inkscape:connector-curvature="0" />
  <path
     style="fill:#00112b;fill-opacity:1;stroke-width:0.45895523"
     d="m 95.229073,75.273907 c -1.313375,-1.409743 -1.221433,-3.80156 0.211599,-5.504621 0.839576,-0.99778 1.147388,-1.899911 1.147388,-3.362751 0,-1.583248 0.187357,-2.058622 0.900574,-2.284988 3.266416,-1.036721 5.303956,4.747287 3.258956,9.251312 -1.346554,2.965749 -3.753969,3.795067 -5.518517,1.901048 z"
     id="path865"
     inkscape:connector-curvature="0" />
  <path
     style="fill:#00112b;fill-opacity:1;stroke-width:0.45895523"
     d="m 215.39836,41.085228 c -2.23932,-2.191297 -4.07149,-4.124146 -4.07149,-4.295221 0,-0.402977 8.61531,-7.453414 10.03154,-8.209431 1.53966,-0.821897 2.03302,-0.116189 2.27702,3.257031 0.42921,5.9338 -1.45228,13.231796 -3.41129,13.231796 -0.41485,0 -2.58645,-1.792879 -4.82578,-3.984175 z"
     id="path867"
     inkscape:connector-curvature="0" />
  <path
     style="fill:#00112b;fill-opacity:1;stroke-width:0.45895523"
     d="m 71.498994,42.894145 c -1.213426,-2.476124 -1.29575,-3.012244 -1.298221,-8.454488 -0.0015,-3.195894 0.146148,-5.960725 0.327998,-6.144069 0.18185,-0.183344 2.468101,1.216751 5.080559,3.111323 2.612457,1.894571 5.251823,3.706361 5.865259,4.026199 0.613435,0.319838 1.183471,0.638894 1.266747,0.709013 0.57696,0.485807 -6.566662,7.375299 -9.40916,9.074436 -0.344827,0.206124 -1.002173,-0.626651 -1.833182,-2.322414 z"
     id="path869"
     inkscape:connector-curvature="0" />
  <path
     style="fill:#2b1100;fill-opacity:1;stroke-width:0.45895523"
     d="m 189.91822,112.46466 c -2.99213,-2.8734 -7.09247,-6.47598 -9.11188,-8.00574 -11.23142,-8.508149 -25.63591,-16.686163 -29.41674,-16.701078 -2.63096,-0.01038 -4.13709,3.201372 -2.75478,5.874459 1.50369,2.907807 0.60798,4.026741 -2.9435,3.677074 -2.09242,-0.206013 -2.72698,-1.34989 -1.70685,-3.076837 0.94713,-1.603356 1.03794,-4.594236 0.17531,-5.773946 -0.97477,-1.333079 -3.85147,-0.66772 -9.65302,2.232671 -10.64512,5.321849 -21.67299,13.020087 -29.47907,20.578467 -2.80475,2.71575 -5.233129,4.93773 -5.396396,4.93773 -0.611639,0 5.217286,-6.73649 7.579476,-8.7596 6.17817,-5.29133 15.1949,-11.208425 26.4381,-17.349599 7.0739,-3.863851 8.55136,-4.251528 10.90668,-2.861854 2.04113,1.204295 2.4986,1.20917 4.72192,0.05031 2.15213,-1.121752 2.81447,-0.93809 10.47852,2.905576 11.19157,5.612782 20.51556,11.999727 27.93468,19.135287 2.77668,2.67055 5.84078,5.45237 6.80912,6.18181 1.69507,1.2769 1.84027,1.305 3.90112,0.75501 1.17728,-0.31418 4.78679,-1.61284 8.02113,-2.88589 3.23434,-1.27306 5.98352,-2.21176 6.10927,-2.08601 0.31461,0.31461 -13.74142,5.83966 -15.64038,6.14782 -1.4447,0.23445 -1.84412,-0.0506 -6.97271,-4.97566 z"
     id="path887"
     inkscape:connector-curvature="0" />
  <path
     style="fill:#2b1100;fill-opacity:1;stroke-width:0.45895523"
     d="m 95.847679,77.08153 c -3.694771,-2.88363 -4.296371,-4.766084 -2.933403,-9.178859 1.014058,-3.283138 3.290463,-5.8534 5.181358,-5.850209 1.8584,0.0031 3.848296,1.635952 4.694716,3.852265 1.56717,4.103586 -0.0285,9.141254 -3.581666,11.307742 -1.829194,1.115317 -1.760773,1.117983 -3.361005,-0.130939 z m 3.880486,-1.938015 c 1.360235,-1.549225 2.370005,-4.113163 2.354715,-5.978963 -0.0155,-1.895345 -1.71599,-4.774639 -3.011912,-5.099895 -1.840635,-0.46197 -2.690874,0.309352 -2.857656,2.592415 -0.09336,1.278035 -0.544339,2.462855 -1.262127,3.315896 -1.536237,1.825715 -1.456864,3.741215 0.224705,5.422784 1.753355,1.753356 2.844422,1.692901 4.552275,-0.252237 z"
     id="path891"
     inkscape:connector-curvature="0" />
  <path
     style="fill:#2b1100;fill-opacity:1;stroke-width:0.45895523"
     d="m 71.674655,46.44266 c -2.244681,-1.765666 -3.777979,-8.410168 -3.475876,-15.062604 0.139869,-3.079963 0.343493,-3.905413 1.166396,-4.728316 0.898305,-0.898304 1.137248,-0.93883 2.414954,-0.409587 0.779905,0.323047 2.638938,1.676773 4.131185,3.00828 1.492247,1.331506 3.605399,3.038448 4.695894,3.793204 1.090494,0.754756 2.476195,1.902867 3.079334,2.55136 1.044049,1.122555 1.060598,1.234049 0.345215,2.325861 -0.933422,1.424583 -8.322032,7.922081 -9.988551,8.783872 -1.096076,0.566803 -1.350615,0.538639 -2.368551,-0.26207 z m 3.299188,-2.153123 c 5.062983,-3.802065 9.239886,-8.858194 7.317816,-8.858194 -0.29026,0 -2.878792,-1.661372 -5.752295,-3.691938 -2.873503,-2.030566 -5.527435,-3.808166 -5.897629,-3.950222 -0.570038,-0.218744 -0.672686,0.645056 -0.670519,5.642497 0.0014,3.245431 0.231376,6.726902 0.511041,7.736604 0.490676,1.771539 2.017814,4.360074 2.572278,4.360074 0.148304,0 1.011992,-0.557469 1.919308,-1.238821 z"
     id="path893"
     inkscape:connector-curvature="0" />
  <path
     style="fill:#2b1100;fill-opacity:1;stroke-width:0.45895523"
     d="m 193.62036,76.789782 c -2.44245,-1.4894 -3.9301,-6.061483 -3.21411,-9.878067 0.16769,-0.893819 0.98987,-2.348719 1.83173,-3.241359 2.10385,-2.230722 3.43926,-2.147868 5.9567,0.369575 2.54057,2.540568 3.40703,5.562529 2.58152,9.003628 -1.00103,4.172756 -3.93636,5.70946 -7.15584,3.746223 z m 4.64714,-1.178995 c 1.30919,-1.309182 1.47061,-3.30218 0.4304,-5.313729 -0.38287,-0.74039 -0.82769,-2.330741 -0.98849,-3.534111 -0.32302,-2.417411 -0.71195,-2.858969 -2.52741,-2.869352 -1.98156,-0.01133 -3.13125,1.879116 -3.13125,5.148751 0,3.084535 0.9124,5.427179 2.64436,6.78954 1.50721,1.185571 2.20917,1.142127 3.57239,-0.221099 z"
     id="path897"
     inkscape:connector-curvature="0" />
  <path
     style="fill:#2b1100;fill-opacity:1;stroke-width:0.45895523"
     d="m 220.17141,46.498187 c -1.59171,-0.437833 -6.42991,-4.143813 -8.6866,-6.653794 -2.84724,-3.166813 -2.66174,-3.933231 1.72811,-7.139916 1.92081,-1.403115 4.78332,-3.532136 6.36112,-4.731156 1.5778,-1.199021 3.03779,-2.180037 3.24441,-2.180037 0.78286,0 1.81293,1.48853 2.31688,3.348079 0.84938,3.134178 0.30759,10.598814 -1.00269,13.814895 -1.19682,2.93761 -2.36404,3.981269 -3.96123,3.541929 z m 2.18277,-3.415195 c 0.99476,-2.248814 1.99724,-9.882121 1.57506,-11.993056 -0.86213,-4.310613 -1.19593,-4.241416 -8.65827,1.794839 -2.16926,1.754704 -3.9441,3.533377 -3.9441,3.952606 0,0.419229 1.75065,2.442936 3.89035,4.497128 4.71555,4.527121 5.79126,4.790659 7.13696,1.748483 z"
     id="path899"
     inkscape:connector-curvature="0" />
  <path
     style="fill:#2b1100;fill-opacity:1;stroke-width:0.45895523"
     d="m 157.56521,192.35561 c -0.85267,-0.75259 -0.90314,-0.89877 -0.23689,-0.68617 1.25966,0.40197 4.50824,-1.2144 6.01321,-2.99194 2.80242,-3.30996 5.75957,-12.13632 5.75121,-17.16593 -0.005,-3.1095 -0.34917,-3.57324 -2.14716,-2.89458 -1.18236,0.44629 -1.61976,0.40675 -2.59916,-0.23497 -1.66522,-1.0911 -1.98646,-0.98404 -2.59687,0.86552 -0.29716,0.9004 -0.64429,1.53309 -0.77141,1.40598 -0.12711,-0.12712 0.3301,-1.91629 1.01602,-3.97595 l 1.24714,-3.74482 1.12104,1.87989 c 0.61657,1.03395 1.30179,1.8799 1.52272,1.8799 0.22093,0 0.85421,-0.6355 1.40728,-1.41223 1.66139,-2.3332 2.04168,-1.18152 2.0275,6.14003 -0.0136,7.03579 -0.75522,11.06187 -2.76429,15.00727 -3.03339,5.95695 -6.42433,8.19285 -8.99034,5.928 z"
     id="path901"
     inkscape:connector-curvature="0" />
  <path
     style="fill:#2b1100;fill-opacity:1;stroke-width:0.45895523"
     d="m 130.15546,190.75777 c -4.04958,-3.64092 -6.66834,-10.68906 -7.24585,-19.50151 -0.45641,-6.96447 0.17616,-8.04822 3.30479,-5.6619 l 1.56882,1.1966 0.81007,-1.42317 c 0.44554,-0.78275 0.93968,-1.42449 1.09809,-1.42608 0.53521,-0.005 1.18478,1.13413 1.94171,3.40628 0.91768,2.75469 0.96522,4.27446 0.0692,2.21302 -0.70472,-1.62137 -1.15039,-1.78676 -2.51622,-0.93378 -0.7066,0.44128 -1.24454,0.43079 -2.57466,-0.0502 -1.40695,-0.50875 -1.74597,-0.50616 -2.07673,0.0159 -1.33246,2.103 1.75031,14.93861 4.63115,19.2825 2.22334,3.35248 6.0426,4.9094 7.78035,3.17165 0.71254,-0.71254 0.94781,-0.77985 0.94781,-0.27116 0,0.88083 -2.33722,2.07709 -4.05817,2.07709 -0.95659,0 -2.02914,-0.61059 -3.6804,-2.09522 z"
     id="path903"
     inkscape:connector-curvature="0" />
  <path
     style="fill:#2b1100;fill-opacity:1;stroke-width:0.45895523"
     d="m 126.53962,219.04757 -2.40479,-2.16387 3.83898,0.2015 c 4.27033,0.22413 6.90225,-0.3921 7.65114,-1.79143 0.26269,-0.49082 0.43083,-1.91761 0.37365,-3.17064 -0.0572,-1.25303 0.0295,-2.41165 0.19255,-2.57473 0.16308,-0.16308 1.90375,1.22386 3.86816,3.08207 1.96441,1.85821 4.34105,4.0915 5.28141,4.96285 l 1.70976,1.58428 4.80164,-4.67164 c 2.6409,-2.5694 5.00143,-4.67163 5.24564,-4.67163 0.25193,0 0.33909,0.78214 0.20148,1.8081 -0.37707,2.81125 0.14631,4.12846 1.9378,4.87699 1.86718,0.78016 5.93494,0.86085 7.95188,0.15774 2.49871,-0.87105 2.55745,-0.2231 0.2111,2.32865 l -2.27836,2.47782 -1.56624,-0.72172 c -0.86143,-0.39694 -2.31978,-0.8549 -3.24076,-1.01768 -2.00608,-0.35457 -3.82845,-1.7008 -4.77181,-3.52505 -0.38118,-0.73712 -1.0676,-1.33634 -1.5308,-1.33634 -0.46186,0 -2.19209,1.23917 -3.84496,2.75373 -1.65286,1.51455 -3.20545,2.75373 -3.45018,2.75373 -0.24473,0 -1.83077,-1.13592 -3.52452,-2.52426 -1.69375,-1.38833 -3.4435,-2.52425 -3.88834,-2.52425 -0.88495,0 -2.32793,1.36716 -2.32793,2.2056 0,0.85238 -1.89404,1.8494 -4.59553,2.41908 -1.38505,0.29207 -2.72481,0.69168 -2.97723,0.888 -0.2577,0.20043 -1.51347,-0.59191 -2.86374,-1.8069 z"
     id="path905"
     inkscape:connector-curvature="0" />
  <path
     style="fill:#2b1100;fill-opacity:1;stroke-width:0.16226518"
     d="m 94.983175,117.27973 c -0.961974,-0.2455 -3.044122,-1.09361 -13.468009,-5.48583 -10.025249,-4.22425 -12.302802,-5.08692 -14.465235,-5.47905 -1.288374,-0.23362 -1.90649,-0.13554 -3.6226,0.57485 -0.901771,0.37329 -1.626201,0.5653 -2.13281,0.5653 -0.69259,0 -0.831549,-0.0677 -1.429005,-0.69584 -0.363997,-0.38271 -1.059009,-1.34989 -1.544472,-2.14929 -1.522347,-2.50682 -2.875689,-3.64548 -4.332772,-3.64548 -1.145701,0 -1.548442,-0.74362 -1.845515,-3.40757 -0.314215,-2.817666 -0.866345,-4.624922 -1.85073,-6.057886 -0.924791,-1.346213 -1.119323,-3.138398 -0.666632,-6.141557 0.664392,-4.407591 2.614239,-10.070136 5.437592,-15.791299 1.715192,-3.475619 3.330465,-6.189731 5.840625,-9.813895 1.01872,-1.470824 1.841548,-2.785172 1.828508,-2.920773 -0.01304,-0.1356 -0.420118,-1.50613 -0.904619,-3.045621 -0.744531,-2.365733 -0.839114,-2.799074 -0.610935,-2.799074 0.213778,0 0.450169,0.672763 1.135665,3.232078 l 0.865691,3.232079 -2.596869,3.948155 c -3.035097,4.614417 -4.033965,6.312655 -5.662652,9.627437 -2.916527,5.935853 -4.531701,11.166712 -4.709769,15.252927 -0.08761,2.010506 -0.07115,2.166529 0.351015,3.326436 0.677636,1.861829 1.355616,4.281089 1.727997,6.166077 0.545556,2.761597 1.197583,3.894364 2.241617,3.894364 1.099442,0 2.573081,1.451042 3.983438,3.922372 1.489524,2.61004 1.970712,2.86026 4.916489,2.55655 4.606041,-0.47489 6.262078,-0.0291 17.401739,4.68478 5.576151,2.35959 8.928178,3.66707 12.489596,4.87163 3.213354,1.08684 4.168221,1.16839 5.42907,0.46369 0.865399,-0.48368 0.9688,-0.51628 0.806927,-0.25436 -0.06132,0.0992 -0.02068,0.23653 0.09031,0.30513 0.130897,0.0809 -0.16113,0.30261 -0.831103,0.63098 -1.24865,0.61201 -2.584909,0.76131 -3.872551,0.43269 z"
     id="path907"
     inkscape:connector-curvature="0" />
  <path
     style="fill:#2b1100;fill-opacity:1;stroke-width:0.16226518"
     d="m 155.3387,194.4697 c -0.004,-0.42392 -0.12181,-1.06284 -0.26198,-1.41982 -1.02612,-2.61332 -1.07189,-2.83337 -0.97873,-4.70569 0.10422,-2.09482 0.49776,-3.65099 1.83357,-7.25054 4.05144,-10.91729 5.10945,-15.60192 5.5087,-24.39117 0.20903,-4.60165 -0.80639,-18.49788 -2.05718,-28.15301 -0.28153,-2.1732 -0.31203,-2.8041 -0.16197,-3.35032 0.53871,-1.96098 1.88679,-0.40916 3.40382,3.91825 2.25794,6.44092 6.0438,19.13035 6.42728,21.54296 0.51276,3.22591 1.06054,10.56375 1.38379,18.53654 0.55835,13.7716 0.91897,16.54097 2.92834,22.48812 0.62082,1.83746 1.12877,3.39419 1.12877,3.45942 0,0.0652 -0.15218,0.0952 -0.33817,0.0667 -0.26434,-0.0405 -0.51448,-0.47703 -1.14563,-1.99904 -1.89436,-4.56831 -2.29567,-7.69608 -3.06044,-23.85298 -0.76773,-16.21961 -1.06264,-18.42764 -3.43049,-25.68427 -1.97008,-6.03759 -4.56955,-13.05055 -5.09202,-13.73745 -0.17105,-0.22488 -0.29034,-0.26567 -0.41434,-0.14167 -0.1807,0.18069 -0.0974,1.54609 0.74393,12.1974 1.3736,17.38952 0.71675,23.61133 -3.86598,36.61907 -2.52763,7.17447 -2.96283,8.84874 -2.83161,10.89341 0.0613,0.95456 0.19778,1.43811 0.68353,2.42096 0.76146,1.54071 0.92795,2.11832 0.80283,2.78529 -0.0888,0.47307 -0.15688,0.52856 -0.64903,0.52856 -0.54681,0 -0.54991,-0.004 -0.55699,-0.77076 z"
     id="path911"
     inkscape:connector-curvature="0" />
  <path
     style="fill:#2b1100;fill-opacity:1;stroke-width:0.16226518"
     d="m 61.495597,220.7762 c -0.43513,-0.22637 -1.992206,-0.80695 -3.460168,-1.29017 -4.723611,-1.55491 -7.986592,-3.14658 -8.863507,-4.32357 -0.325662,-0.4371 -0.325859,-0.4464 -0.01682,-0.79556 0.616287,-0.69629 2.329994,-1.66917 6.8033,-3.86227 4.645941,-2.27774 5.922679,-2.97928 5.922679,-3.25442 0,-0.24349 -0.746322,-0.57276 -2.763645,-1.21929 -2.991445,-0.95873 -3.578503,-1.22909 -4.410726,-2.03125 -0.675386,-0.65098 -0.776622,-0.83393 -0.776622,-1.40345 0,-0.8367 0.496313,-1.58421 1.54404,-2.32554 1.323215,-0.93626 2.350324,-2.01426 2.350324,-2.46678 0,-0.6772 -0.500088,-0.96057 -1.978749,-1.12125 -3.364699,-0.36563 -5.485449,-1.61282 -5.485449,-3.22593 0,-0.27596 0.322517,-1.46615 0.716705,-2.64487 2.824124,-8.44485 6.01781,-12.70385 13.96219,-18.61956 11.575412,-8.61953 24.401352,-13.52401 39.436541,-15.08007 2.81937,-0.29179 8.10114,-0.48494 13.34322,-0.48796 l 5.06769,-0.003 0.0822,-0.36509 c 0.0452,-0.20081 0.25983,-1.16831 0.47693,-2.15002 0.55119,-2.49241 1.48228,-5.7492 4.66222,-16.30765 3.07403,-10.2068 3.26948,-10.82075 3.73531,-11.73386 0.35199,-0.68995 0.99385,-1.40962 1.25722,-1.40962 0.57953,0 0.63673,2.89003 0.18102,9.1457 -0.96685,13.27224 -1.07333,27.58379 -0.24344,32.71872 0.41646,2.57682 1.26742,5.51521 3.29843,11.38958 3.39096,9.80783 3.84533,11.90232 2.95016,13.59926 -0.1177,0.22311 -0.74339,0.96264 -1.39042,1.64338 -1.29902,1.36672 -1.49532,1.84384 -1.20389,2.92612 0.57495,2.1352 1.56657,3.12366 3.71742,3.70556 1.17803,0.3187 2.29848,1.62646 3.73001,4.35352 0.83912,1.59854 1.29232,2.29981 1.48626,2.29981 0.47579,0 3.42391,-1.57085 4.40102,-2.34501 1.15922,-0.91842 2.51755,-2.5521 3.46525,-4.16769 0.78422,-1.33691 1.69125,-3.63368 1.69125,-4.2826 0,-0.35805 0.0679,-0.40099 0.63386,-0.40099 0.57541,0 0.62571,0.0337 0.54531,0.36509 -0.17793,0.7335 -1.61539,3.8077 -2.38495,5.10052 -1.40653,2.36291 -2.55746,3.68593 -4.07702,4.68664 -0.75473,0.49704 -1.64558,1.24036 -1.97966,1.65184 -0.33407,0.41149 -0.78236,0.91769 -0.9962,1.1249 -0.95261,0.92311 -1.9028,0.16259 -3.25111,-2.60214 -1.19206,-2.44435 -2.24449,-3.67926 -3.80299,-4.46241 -1.4462,-0.72672 -2.8031,-2.21595 -3.75916,-4.12577 -0.90404,-1.8059 -0.94623,-2.48404 -0.22255,-3.5766 0.27604,-0.41674 0.71113,-0.90671 0.96688,-1.08882 0.25576,-0.18211 0.90167,-0.8697 1.43537,-1.52797 l 0.97037,-1.19686 -2.51262,-7.19409 c -2.66099,-7.61893 -3.94408,-11.52962 -4.78273,-14.57715 l -0.51352,-1.86605 0.11839,-17.84917 c 0.0651,-9.81704 0.0845,-17.81266 0.0432,-17.76803 -0.15376,0.16586 -2.76468,7.54799 -3.54275,10.01681 -1.04299,3.3094 -2.30739,7.73057 -3.62665,12.68124 -0.57988,2.17604 -1.08857,3.99067 -1.13042,4.03253 -0.0419,0.0419 -3.16593,0.21136 -6.94239,0.37669 -11.56661,0.50637 -15.19086,0.78936 -19.705074,1.53862 -6.419586,1.0655 -11.605249,2.79269 -18.559517,6.18163 -4.531481,2.20827 -6.503679,3.307 -9.573646,5.33357 -3.35692,2.21599 -5.492772,3.93873 -8.038939,6.48404 -3.441697,3.44054 -5.699053,6.72978 -7.219336,10.51944 -1.824269,4.54742 -1.913169,6.76604 -0.304009,7.58697 0.737699,0.37635 2.363006,0.63333 4.041457,0.63901 1.358946,0.005 2.298766,0.2118 2.598426,0.57287 0.356209,0.42921 -0.147142,1.20254 -2.110615,3.24267 -1.961681,2.03828 -2.689473,3.01435 -2.539334,3.40561 0.145485,0.37912 1.885828,1.1679 3.943812,1.78746 2.638607,0.79435 4.060282,1.35016 4.565872,1.78505 0.384866,0.33105 0.403783,0.39673 0.189438,0.65775 -0.437244,0.53246 -2.153524,1.5358 -5.674008,3.31703 -1.919408,0.97115 -3.964204,2.06931 -4.543991,2.44034 -1.178346,0.75408 -2.271146,1.73907 -2.271146,2.04709 0,0.55361 2.712346,1.92879 6.887675,3.49208 1.432661,0.53641 3.40805,1.364 4.389754,1.83909 l 1.784917,0.86379 -0.973591,0.006 c -0.734368,0.005 -1.167984,-0.0951 -1.764736,-0.40558 z"
     id="path915"
     inkscape:connector-curvature="0" />
  <path
     style="fill:#2b1100;fill-opacity:1;stroke-width:0.16226518"
     d="m 62.85467,232.12303 c -1.358091,-0.23333 -5.300336,-1.22019 -5.775998,-1.4459 -0.617414,-0.29299 -1.039139,-0.94295 -1.039139,-1.60154 0,-1.19617 1.067913,-2.4714 3.561254,-4.25259 1.927529,-1.377 3.253883,-2.58888 3.253883,-2.97307 0,-0.14168 -0.08762,-0.34523 -0.194718,-0.45233 -0.151447,-0.15144 0.02164,-0.19472 0.778873,-0.19472 1.648909,0 1.792791,0.54825 0.462869,1.76373 -0.495087,0.45248 -1.8642,1.49853 -3.042472,2.32455 -1.178273,0.82603 -2.569029,1.91552 -3.09057,2.4211 -0.802606,0.77804 -0.922747,0.9669 -0.782178,1.22956 0.405452,0.75759 3.206132,1.78418 6.197627,2.27174 2.360891,0.38479 9.590696,0.38149 13.219711,-0.006 6.502351,-0.69434 13.860559,-2.09937 21.337871,-4.0744 5.759867,-1.52139 9.145387,-2.5908 20.265157,-6.40132 5.9896,-2.05251 5.47379,-2.00002 7.8607,-0.79991 1.67332,0.84133 3.39188,1.96462 6.23092,4.07265 2.80502,2.08277 3.82508,2.71224 5.74379,3.54443 2.56568,1.11279 3.4677,1.30487 6.56775,1.39851 4.09815,0.12379 7.40397,-0.33241 10.91871,-1.50676 2.03892,-0.68125 3.75007,-1.57537 6.50772,-3.40047 2.57058,-1.70129 4.61414,-3.41733 6.9774,-5.85911 4.81081,-4.97066 6.69376,-8.97453 6.706,-14.25951 0.006,-2.65853 -0.64276,-6.07098 -1.59954,-8.4115 -0.10093,-0.24689 -0.0551,-0.2888 0.26602,-0.2434 0.34371,0.0486 0.42879,0.22134 0.74628,1.51523 1.14981,4.68596 1.12584,10.65919 -0.057,14.19665 -0.77503,2.31789 -2.33182,4.37409 -6.08244,8.03368 -5.09027,4.96674 -9.6905,8.18304 -13.52849,9.45862 -2.65613,0.88277 -4.21618,1.06784 -9.08685,1.07798 -4.03718,0.008 -4.49582,-0.0198 -5.84155,-0.35962 -2.68276,-0.67738 -5.51897,-2.30481 -11.87258,-6.81256 -1.50221,-1.06578 -2.90443,-2.02877 -3.11606,-2.13997 -0.93574,-0.49174 -4.91234,0.4936 -13.00822,3.22322 -14.62245,4.93014 -27.817312,7.92824 -37.8828,8.60764 -2.344735,0.15826 -10.769117,0.1985 -11.60196,0.0554 z"
     id="path917"
     inkscape:connector-curvature="0" />
  <path
     style="fill:#2b1100;fill-opacity:1;stroke-width:0.16226518"
     d="m 60.615438,49.7927 c -1.166814,-4.315413 -1.489169,-7.009397 -1.604589,-13.409851 -0.202864,-11.249541 0.661398,-16.234788 4.229526,-24.396798 0.579428,-1.325427 1.076524,-2.4289167 1.10466,-2.4521997 0.02814,-0.023283 0.88594,-0.00595 1.906232,0.038518 l 1.855078,0.080851 -1.08228,0.2724425 c -1.879762,0.4731922 -3.009666,1.7332522 -4.154014,4.6325202 -2.198473,5.569955 -3.216786,11.204484 -3.372459,18.660495 -0.123737,5.926415 0.283843,10.531721 1.335558,15.090662 0.629071,2.726876 0.61495,2.622002 0.365925,2.717563 -0.167053,0.06411 -0.32011,-0.259561 -0.583637,-1.234203 z"
     id="path925"
     inkscape:connector-curvature="0" />
  <path
     style="fill:#2b1100;fill-opacity:1;stroke-width:0.16226518"
     d="M 97.069279,23.523334 C 91.384674,18.803718 88.798555,16.940271 85.088764,14.890686 81.23926,12.763913 77.348144,11.352479 72.26605,10.239474 l -1.379253,-0.3020639 1.379253,0.079426 c 3.844559,0.221392 9.034046,1.896497 13.369512,4.31552 3.589362,2.002726 6.301334,3.962758 11.781591,8.514949 1.82954,1.519712 3.417327,2.817858 3.528427,2.884768 0.11875,0.07152 2.28481,-0.821863 5.25582,-2.167744 2.77961,-1.259171 6.7778,-2.972375 8.88486,-3.807121 3.71856,-1.473164 5.13587,-1.98996 11.61976,-4.236935 4.2777,-1.482429 8.5796,-3.209614 12.4521,-4.999436 3.7979,-1.7553461 5.12172,-2.2571399 6.91152,-2.6197991 1.71183,-0.3468606 2.55092,-0.1583829 2.75195,0.618148 0.24855,0.960035 1.13574,1.114583 3.92799,0.6842465 2.00465,-0.3089547 3.24172,-0.3089833 3.68273,-8.5e-5 0.19442,0.136176 0.49856,0.6976133 0.69072,1.2750526 0.59296,1.78184 1.05938,2.018122 4.38887,2.22336 3.40025,0.2096 4.31255,0.480306 5.66416,1.680732 1.11614,0.991288 2.38971,1.666202 5.6944,3.017689 3.29564,1.347786 3.64528,1.49523 12.93638,5.455427 l 7.01371,2.989488 3.92581,-3.27054 c 2.1592,-1.798796 4.61723,-3.783435 5.46229,-4.410308 6.46215,-4.793681 13.65388,-7.826922 19.32158,-8.149214 l 1.39904,-0.079557 -1.29813,0.2435929 c -5.41425,1.015983 -13.29566,4.593056 -19.20261,8.715338 -2.09444,1.46165 -3.73012,2.786718 -6.75981,5.476132 -1.42794,1.267557 -2.67633,2.338321 -2.77421,2.379474 -0.0979,0.04116 -2.03289,-0.775658 -4.30003,-1.81514 -8.57854,-3.933266 -13.17917,-5.913113 -16.45421,-7.080955 -2.32935,-0.830616 -3.96817,-1.645341 -4.82539,-2.398898 -1.39088,-1.222687 -3.09434,-1.836186 -6.95195,-2.50373 -3.31872,-0.574292 -4.19635,-1.00002 -4.44155,-2.154561 -0.0603,-0.283882 -0.2142,-0.602936 -0.342,-0.709008 -0.26701,-0.2215956 -2.22854,-0.1495843 -4.93925,0.18133 -1.90367,0.232393 -2.6303,0.07146 -2.72701,-0.6039653 -0.22978,-1.6048655 -3.55161,-1.135981 -7.82023,1.1038473 -3.51466,1.844215 -7.23428,3.34284 -14.03593,5.655052 -6.84968,2.328538 -11.73111,4.314449 -19.70533,8.016714 -2.8058,1.302678 -5.15167,2.368504 -5.21305,2.368504 -0.0614,0 -1.892559,-1.478642 -4.069301,-3.28587 z"
     id="path927"
     inkscape:connector-curvature="0" />
  <path
     style="fill:#2b1100;fill-opacity:1;stroke-width:0.16226518"
     d="m 231.12366,55.162129 c 0,-0.611121 0.52991,-2.686902 1.27847,-5.008034 1.4369,-4.455534 1.86638,-7.65945 1.85692,-13.852378 -0.009,-5.846554 -0.60262,-11.290852 -1.76059,-16.145385 -1.26828,-5.317016 -3.47547,-9.687567 -5.16163,-10.2207958 -0.46364,-0.1466181 -0.44276,-0.1537484 0.21617,-0.073829 1.93348,0.2345068 2.92479,1.6825058 4.65941,6.8059228 1.99119,5.881262 2.58612,10.636109 2.43613,19.470358 -0.1349,7.94628 -0.82668,12.630181 -2.49206,16.873318 -0.92669,2.36107 -1.03282,2.582091 -1.03282,2.150823 z"
     id="path929"
     inkscape:connector-curvature="0" />
  <path
     style="fill:#2b1100;fill-opacity:1;stroke-width:0.16226518"
     d="m 229.82554,106.64367 c -0.66935,-0.25731 -1.38129,-0.4721 -1.58209,-0.47731 -0.2008,-0.005 -0.36515,-0.0643 -0.3652,-0.13118 -6e-5,-0.0669 0.82739,-0.0565 1.83878,0.0232 1.01139,0.0797 2.10829,0.0943 2.43756,0.0326 0.86719,-0.16268 1.57961,-0.8741 2.94309,-2.93893 1.5619,-2.36533 2.8637,-3.485712 4.05012,-3.485712 0.69814,0 1.3442,-0.429026 1.52297,-1.011336 0.0895,-0.2916 0.2086,-1.223867 0.26463,-2.071703 0.12967,-1.962113 0.6077,-3.913943 1.39894,-5.711974 1.04158,-2.366921 1.17051,-4.128234 0.54395,-7.431169 -1.1405,-6.012269 -5.52769,-15.917715 -9.49294,-21.433271 -1.11044,-1.544594 -1.81203,-2.858293 -2.02906,-3.7993 -0.16431,-0.71243 -0.013,-0.512367 2.18346,2.886381 3.47794,5.381753 6.6582,11.095429 7.69616,13.826932 1.56344,4.114391 2.66177,10.337905 2.50662,14.203339 -0.0766,1.907159 -0.18592,2.297991 -0.87475,3.126164 -0.57219,0.687926 -0.87126,1.922733 -1.03176,4.259903 -0.20364,2.965539 -0.76466,4.342626 -1.91077,4.690246 -0.20152,0.0611 -0.77014,0.0208 -1.2636,-0.0896 -0.82002,-0.18352 -0.93399,-0.17332 -1.32484,0.11849 -0.47701,0.35614 -0.51079,0.40869 -1.10691,1.72173 -0.60844,1.3402 -1.75204,2.78545 -2.79506,3.53234 -1.12332,0.8044 -1.84982,0.83666 -3.6093,0.16028 z"
     id="path931"
     inkscape:connector-curvature="0" />
  <path
     style="fill:#2b1100;fill-opacity:1;stroke-width:0.16226518"
     d="m 212.55502,111.33201 c 0.0769,-0.12441 -0.0573,-0.14941 -0.43665,-0.0813 -0.50996,0.0915 -0.4974,0.075 0.18253,-0.24054 3.6497,-1.69351 11.55264,-4.57712 13.06234,-4.76617 0.68888,-0.0863 0.56642,-0.0186 -0.81132,0.44845 -0.89246,0.30253 -3.93486,1.51062 -6.76089,2.68464 -2.82604,1.17401 -5.18522,2.13458 -5.24263,2.13458 -0.0574,0 -0.0544,-0.0808 0.007,-0.17962 z"
     id="path933"
     inkscape:connector-curvature="0" />
  <path
     style="fill:#2b1100;fill-opacity:1;stroke-width:0.16226518"
     d="m 144.02664,86.501904 c -2.02716,-1.025183 -3.01291,-1.875647 -3.6323,-3.133799 -0.44465,-0.903216 -0.50818,-1.175706 -0.42154,-1.807873 0.20973,-1.530093 1.33693,-2.318702 3.82448,-2.675655 3.53664,-0.507493 7.93286,0.389707 9.24778,1.887328 0.91659,1.043932 0.86744,1.78715 -0.19493,2.947393 -1.28242,1.400578 -4.13334,3.452551 -4.79682,3.452551 -0.0814,0 0.41628,-0.5659 1.10595,-1.257555 0.9879,-0.990746 1.31451,-1.441184 1.53941,-2.123057 0.49947,-1.514333 -0.005,-2.650663 -1.5024,-3.386133 -0.80888,-0.397216 -1.10744,-0.45333 -2.38502,-0.448264 -1.58484,0.0063 -2.90327,0.355467 -4.66225,1.234782 -1.75308,0.876366 -1.50883,1.414949 2.14526,4.730476 0.75755,0.687363 1.3052,1.249695 1.21699,1.249626 -0.0882,-6.9e-5 -0.75629,-0.301488 -1.48461,-0.66982 z"
     id="path943"
     inkscape:connector-curvature="0" />
  <path
     style="fill:#e9c6af;fill-opacity:1;stroke-width:0.16226518"
     d="m 53.589911,182.14756 c 0,-0.2198 2.275337,-3.07969 3.599746,-4.52454 2.594654,-2.8306 5.786484,-5.60675 9.112006,-7.92533 6.530982,-4.55344 16.077383,-8.93256 24.978902,-11.4583 5.934358,-1.68384 8.834905,-2.00172 22.915385,-2.51139 3.83758,-0.1389 7.15179,-0.26855 7.36492,-0.2881 0.35961,-0.033 0.4259,-0.19915 0.92044,-2.30726 0.52717,-2.24716 1.22258,-4.65464 3.78701,-13.11047 0.72528,-2.39148 1.69252,-5.78688 2.14944,-7.54533 0.85638,-3.29583 1.81917,-8.3171 1.62677,-8.48422 -0.0599,-0.052 -2.48198,-0.40354 -5.38247,-0.78119 -8.35777,-1.08819 -13.42092,-1.93705 -18.98503,-3.18293 -3.96444,-0.88769 -5.49246,-1.16429 -7.562846,-1.36902 -2.73879,-0.27083 -6.7928,-1.62967 -14.910878,-4.99789 -12.04385,-4.99704 -15.528099,-6.31402 -17.114645,-6.46902 -0.855139,-0.0835 -0.936531,-0.0573 -1.752506,0.56483 -1.931127,1.4724 -3.615336,1.05611 -6.128217,-1.51472 -1.728163,-1.76802 -2.845786,-2.46831 -4.180336,-2.61934 -1.952254,-0.22094 -2.78689,-1.42558 -3.030895,-4.374509 -0.173424,-2.095932 -0.655548,-3.847919 -1.760563,-6.397701 -1.309768,-3.022242 -1.405563,-4.196563 -0.660175,-8.092834 1.669288,-8.725648 4.877661,-16.102682 10.629869,-24.441333 0.985024,-1.427934 1.843776,-2.686073 1.908339,-2.795867 0.06456,-0.109793 -0.356368,-2.044805 -0.935401,-4.300027 -1.502337,-5.851315 -1.974515,-8.631959 -2.301311,-13.55235 L 57.767,38.005501 h 0.588831 0.588831 v 0.866396 c 0,1.307931 0.446175,5.696347 0.737286,7.251678 0.374796,2.00244 0.760925,3.457165 1.940626,7.311235 l 1.053374,3.441359 -2.408161,3.667579 c -2.856905,4.351006 -3.072519,4.705612 -4.454007,7.325223 -2.959306,5.611507 -5.354411,12.155613 -6.143678,16.786269 -0.439666,2.579529 -0.379734,5.207281 0.140665,6.167576 1.5478,2.85616 1.820369,3.665497 2.232885,6.630067 0.438585,3.151927 0.61125,3.456657 2.070819,3.654727 1.569978,0.21305 2.468449,1.00036 4.222589,3.70019 0.569069,0.87586 1.270009,1.82701 1.557644,2.11367 0.888271,0.88525 1.392937,0.85549 4.441222,-0.26182 2.285797,-0.83784 3.749693,-0.39754 16.514535,4.96712 3.703703,1.55654 8.37694,3.50001 10.384971,4.31881 l 3.650967,1.48872 h 1.541519 c 2.327613,0 2.801245,-0.30352 7.220802,-4.62742 5.02317,-4.91445 8.67431,-7.99374 13.87367,-11.70076 9.00826,-6.422665 19.9163,-12.35024 24.13489,-13.115216 2.06005,-0.373557 2.96339,0.515946 2.96339,2.917975 0,1.458915 -0.30401,2.567261 -0.9734,3.548754 -0.68802,1.008821 -0.66802,1.770761 0.0634,2.412913 1.44437,1.26817 5.11801,1.015301 5.7613,-0.396571 0.29162,-0.640037 0.215,-1.01056 -0.51065,-2.469613 -0.61843,-1.243449 -0.68897,-1.504396 -0.68328,-2.527475 0.009,-1.696864 0.69861,-2.836204 2.05954,-3.404834 0.88181,-0.368446 1.43459,-0.314894 3.34367,0.323925 4.1189,1.378269 11.25272,5.310686 19.01135,10.479737 8.02938,5.349435 12.23345,8.773335 18.44117,15.018995 1.32545,1.33354 2.88453,2.73799 3.46463,3.12098 0.99605,0.65761 1.10521,0.69186 1.96228,0.61574 1.61052,-0.14303 5.44154,-1.6024 19.45672,-7.41172 10.61705,-4.40079 10.84951,-4.46052 13.67326,-3.51307 0.96074,0.32235 1.90519,0.58609 2.09879,0.58609 1.25749,0 3.46038,-2.09855 4.50881,-4.29524 0.84623,-1.77302 1.06709,-1.92022 2.66399,-1.77551 l 1.23322,0.11175 0.54181,-0.57451 c 0.70256,-0.74491 1.024,-1.915951 1.23538,-4.500521 0.22,-2.690173 0.2984,-2.947341 1.3454,-4.412787 1.21346,-1.698415 0.31978,-10.146062 -1.69606,-16.032625 -1.1292,-3.297449 -4.46125,-9.356243 -8.75691,-15.923023 l -1.78735,-2.732348 0.0753,-0.854454 c 0.0457,-0.518718 0.40239,-1.641046 0.90778,-2.85634 0.91918,-2.210271 1.30166,-3.563204 1.7965,-6.354771 0.37243,-2.101064 0.82063,-6.502042 0.82063,-8.058188 v -1.028662 h 0.59287 0.59286 l -0.10299,1.915376 c -0.23692,4.406035 -0.86531,7.673599 -2.47743,12.882175 -0.57161,1.84682 -1.03929,3.520769 -1.03929,3.719883 0,0.199116 0.90434,1.718383 2.00962,3.376149 2.42202,3.632637 3.67218,5.790498 5.22457,9.017933 4.04227,8.403955 6.28977,16.771928 5.74104,21.375156 -0.12845,1.077457 -0.29997,1.613831 -0.87018,2.721223 -0.95558,1.8558 -1.21271,2.781895 -1.4705,5.29633 -0.14685,1.43235 -0.33292,2.390994 -0.56694,2.920774 -0.6111,1.38352 -1.77378,2.32495 -2.88217,2.3337 -1.17395,0.009 -2.70879,1.10354 -4.41789,3.14978 -1.11774,1.33821 -1.88033,1.87687 -2.65714,1.87687 -0.22466,0 -1.2236,-0.25557 -2.21986,-0.56793 -3.18151,-0.99751 -3.5149,-0.92048 -13.12435,3.03218 -10.14771,4.17408 -14.82228,5.93156 -18.25864,6.86463 -0.81164,0.22038 -3.99487,0.83989 -7.07385,1.37668 -3.07899,0.53679 -8.00779,1.40961 -10.9529,1.9396 -8.53082,1.53517 -14.50478,2.4455 -16.04835,2.4455 -1.11992,0 -1.71969,0.27654 -1.71969,0.79288 0,0.77211 1.91896,7.61049 4.78626,17.05629 1.63411,5.38327 1.91878,6.41953 2.34024,8.51892 0.73752,3.6738 1.04569,7.76647 1.31347,17.44351 0.20853,7.5355 0.49239,12.94969 0.75078,14.3199 0.0763,0.40457 0.0397,0.44623 -0.39221,0.44623 h -0.47636 l -0.10203,-1.25755 c -0.2123,-2.61653 -0.43488,-6.64056 -0.67539,-12.21046 -0.51751,-11.98482 -1.05416,-17.54035 -2.04225,-21.1421 -1.84087,-6.71028 -5.91099,-19.41613 -6.81083,-21.26166 -0.94206,-1.93209 -1.87181,-2.5437 -2.38686,-1.5701 -0.27494,0.51971 -0.19939,1.9466 0.34366,6.49061 1.09442,9.15778 1.6206,16.57152 1.63535,23.04165 0.0127,5.5823 -0.0908,7.12552 -0.73429,10.9443 -0.64874,3.8501 -2.4008,9.80678 -4.48893,15.26153 l -0.62116,1.62265 h -8.75471 -8.75471 l -1.89882,-5.6653 c -3.28612,-9.80446 -3.28047,-9.76591 -3.285,-22.40658 -0.003,-9.39056 0.0926,-12.31307 0.65806,-20.03975 0.28944,-3.95506 0.36914,-7.90076 0.17781,-8.80288 -0.15804,-0.74521 -0.52481,-0.7983 -1.12086,-0.16227 -0.72636,0.77511 -1.04965,1.64603 -3.03698,8.18152 -4.01738,13.21147 -5.58231,18.66549 -6.19086,21.57613 l -0.36094,1.72635 -7.96753,0.0825 c -8.20828,0.085 -10.24281,0.21248 -14.893976,0.93289 -13.402231,2.07584 -24.94536,6.93268 -35.533332,14.95088 -4.194303,3.17632 -6.855397,5.75869 -8.791254,8.53117 -0.774656,1.10944 -0.856486,1.17642 -1.43725,1.17642 -0.338705,0 -0.615827,-0.0503 -0.615827,-0.11168 z"
     id="path945"
     inkscape:connector-curvature="0" />
  <path
     style="fill:#e9c6af;fill-opacity:1;stroke-width:0.45895523"
     d="M 47.301246,233.32679 C 34.820479,232.76531 29.179583,231.55611 21.829231,227.86655 15.12077,224.49918 11.643644,221.3665 8.3199662,215.69551 5.2414369,210.4428 4.0257654,205.1506 5.897694,205.1506 c 0.3153496,0 1.5960896,0.84513 2.8460888,1.87807 3.1266522,2.58372 5.1508702,3.53092 8.9310382,4.17915 4.291024,0.73583 8.402939,0.0593 11.424637,-1.87974 6.880025,-4.4149 17.531447,-15.92032 23.120214,-24.97391 1.984329,-3.21455 2.724505,-2.70604 1.003794,0.68962 -1.528192,3.01574 -2.939011,7.06817 -2.939011,8.44199 0,1.40575 1.931577,2.83396 4.316446,3.1916 3.31563,0.49721 3.513224,0.91227 1.360743,2.85832 -1.042563,0.94258 -2.012042,2.06203 -2.154391,2.48766 -0.456867,1.36604 1.376127,3.00262 4.543487,4.05666 1.654001,0.55041 2.890252,1.11777 2.747228,1.2608 -0.143029,0.14303 -2.892745,1.63953 -6.110475,3.32556 -4.897943,2.56643 -5.850426,3.23656 -5.850426,4.1161 0,1.25342 3.079699,2.99562 8.538981,4.83055 5.60109,1.88258 5.61277,1.91162 1.950468,4.84841 -3.711938,2.9766 -4.576605,4.67987 -3.016906,5.94284 1.641789,1.32943 5.138399,1.82487 12.858815,1.82197 12.496998,-0.005 23.050398,-2.12316 43.621055,-8.75642 10.18872,-3.28547 12.58168,-3.54995 3.28453,-0.36302 -16.05976,5.50506 -25.786623,8.05925 -35.587166,9.34489 -5.370277,0.70448 -25.553581,1.23194 -33.485598,0.87509 z"
     id="path947"
     inkscape:connector-curvature="0" />
  <path
     style="fill:#e9c6af;fill-opacity:1;stroke-width:0.45895523"
     d="m 143.91132,203.24145 c -1.26799,-2.22372 -2.01385,-2.9991 -3.54099,-3.68111 -3.55605,-1.58809 -4.27421,-4.01381 -1.96647,-6.64217 1.66121,-1.89202 1.78442,-3.81659 0.50708,-7.92071 l -0.86978,-2.79462 h 8.64416 8.64417 l -0.71242,2.09083 c -0.69534,2.04069 -0.66776,4.29094 0.11861,9.67756 0.50111,3.43259 -2.5761,8.647 -6.43878,10.91069 -1.11363,0.65262 -2.19453,1.18435 -2.40201,1.18162 -0.20747,-0.003 -1.10008,-1.27267 -1.98357,-2.82209 z"
     id="path949"
     inkscape:connector-curvature="0" />
  <path
     style="fill:#d38d5f;fill-opacity:1;stroke-width:0.45895523"
     d="m 46.153858,233.10752 c -9.523535,-0.40536 -13.579577,-1.06675 -19.309693,-3.14868 -8.656447,-3.14516 -15.472686,-8.55744 -18.8871014,-14.99689 -2.4548502,-4.62975 -3.607855,-9.81135 -2.183212,-9.81135 0.1979733,0 1.5679619,0.90217 3.0444191,2.00482 3.5722783,2.66785 4.9114673,3.30768 8.3313483,3.9805 3.227925,0.63506 7.333917,0.35933 9.762979,-0.6556 6.103673,-2.55027 17.320452,-14.12959 25.437403,-26.25957 6.972374,-10.41952 16.393904,-17.49571 30.787166,-23.1232 9.745423,-3.81027 14.98068,-4.72007 30.581303,-5.31453 l 8.1299,-0.30979 0.73059,-2.58389 c 0.40182,-1.42114 1.93513,-6.71449 3.40735,-11.76299 2.58216,-8.85465 4.43162,-16.62959 4.0472,-17.01401 -0.10191,-0.10191 -3.78494,-0.70254 -8.18452,-1.33475 -4.39958,-0.63221 -10.99392,-1.75502 -14.65409,-2.49514 -3.66017,-0.74012 -7.480968,-1.47169 -8.490669,-1.62572 -1.009702,-0.15403 -2.455411,-0.41629 -3.212687,-0.58279 -1.238431,-0.27229 -1.133798,-0.33499 1.040672,-0.62358 2.241,-0.29742 2.737484,-0.6177 6.798824,-4.38587 6.80698,-6.31561 11.40384,-10.00621 17.63252,-14.156328 10.16925,-6.775689 18.54002,-10.946866 21.47844,-10.70278 l 1.6988,0.141115 -0.0883,2.753731 c -0.0485,1.514552 -0.15182,3.466475 -0.22948,4.337609 -0.13151,1.475114 -0.0294,1.610694 1.48752,1.974315 1.01688,0.24376 2.11359,0.206089 2.91939,-0.100277 1.15632,-0.439633 1.25839,-0.645121 0.98062,-1.974311 -0.81355,-3.893028 -0.81315,-5.427623 0.002,-6.327946 1.44407,-1.595686 3.74127,-1.158765 9.69584,1.84411 11.0041,5.549342 21.20221,12.689932 30.29376,21.211312 5.82799,5.46249 5.90072,5.51209 7.77559,5.30302 1.04092,-0.11607 8.19378,-2.73935 15.89523,-5.82952 l 14.00266,-5.61848 2.58174,0.75053 c 1.84191,0.53546 2.82945,0.61797 3.44613,0.28793 1.02614,-0.54917 2.73719,-2.58498 3.77009,-4.48562 0.62517,-1.15041 0.96055,-1.33213 2.13924,-1.15913 1.83902,0.26991 2.71999,-1.05565 3.13377,-4.715194 0.17068,-1.509541 0.72143,-3.563856 1.22388,-4.56515 0.77768,-1.549786 0.87111,-2.372532 0.62824,-5.532209 -0.5988,-7.787464 -3.08454,-14.303444 -9.01342,-23.626735 -1.52497,-2.398041 -3.01556,-4.705458 -3.31242,-5.127594 -0.43208,-0.614428 -0.244,-1.667192 0.94295,-5.277985 0.92575,-2.816234 1.70775,-6.492996 2.08187,-9.788451 0.41469,-3.65287 0.71768,-5.00427 0.98401,-4.389023 0.58459,1.350408 -0.49479,8.627389 -2.04404,13.780516 l -1.37468,4.572464 2.78188,4.294322 c 4.96927,7.670931 8.98325,17.433698 10.0835,24.524999 0.54888,3.537576 0.34675,5.307666 -0.94273,8.25582 -0.47396,1.083625 -1.00674,3.160632 -1.18396,4.615566 -0.38727,3.179544 -1.38758,4.583464 -3.77551,5.298904 -1.09328,0.32756 -2.55979,1.35975 -3.77703,2.65846 -1.96959,2.1014 -2.01125,2.11922 -4.09566,1.75207 -4.35207,-0.76657 -5.88884,-0.43193 -14.95658,3.25685 -15.32493,6.23422 -16.05337,6.44581 -31.60177,9.17954 -7.86156,1.38224 -15.6362,2.64511 -17.27696,2.80638 -4.77456,0.46931 -4.71349,0.37664 -3.42384,5.19565 0.60513,2.26118 2.14956,7.57994 3.43207,11.81947 1.28251,4.23953 2.61862,9.67027 2.96913,12.06831 0.62601,4.2829 1.82038,29.31792 1.4179,29.7204 -0.40319,0.4032 -0.70686,-3.02043 -1.19097,-13.42749 -0.81273,-17.4716 -1.14353,-19.28212 -6.47672,-35.44783 -2.41808,-7.32955 -3.57494,-9.49407 -4.55801,-8.52815 -0.43021,0.42271 -0.32093,2.80708 0.49431,10.78545 1.21819,11.92181 1.43882,24.59051 0.51807,29.74837 -0.33796,1.89319 -1.93684,7.44198 -3.55306,12.33066 -3.09101,9.34955 -3.35552,11.0757 -2.30294,15.02863 0.54769,2.05685 0.53287,2.60611 -0.12018,4.45315 -0.40972,1.15879 -1.41426,3.04938 -2.23233,4.2013 -1.42683,2.00914 -5.16372,4.83327 -6.39538,4.83327 -0.32409,0 -0.99663,-0.79854 -1.49455,-1.77453 -1.17681,-2.30675 -3.16161,-4.65084 -3.93797,-4.65084 -1.03014,0 -3.31444,-2.21564 -3.54893,-3.44225 -0.16042,-0.83923 0.22071,-1.72483 1.386,-3.22054 1.46335,-1.87827 1.58377,-2.25797 1.34476,-4.24022 -0.14438,-1.19747 -1.21469,-4.96537 -2.37846,-8.37311 -4.27946,-12.53108 -4.44664,-13.50417 -4.45599,-25.93653 -0.005,-6.06127 0.24254,-14.88752 0.54912,-19.61387 0.30657,-4.72636 0.43741,-8.90608 0.29075,-9.28828 -0.41522,-1.08204 -1.12286,-0.82437 -1.90852,0.69493 -0.73242,1.41634 -7.4393,23.48789 -8.46842,27.86856 l -0.56605,2.40952 -6.26486,3.8e-4 c -15.45809,9.2e-4 -27.150281,2.37648 -38.608328,7.84414 -8.07154,3.85167 -17.403614,10.59307 -20.950264,15.13429 -0.8738,1.11884 -1.840856,2.34404 -2.149017,2.72268 -1.480002,1.81849 -4.644425,10.33604 -4.376927,11.7812 0.188231,1.0169 3.765548,2.90537 5.503644,2.90537 2.010118,0 2.005189,0.86858 -0.01661,2.92865 -3.100486,3.15917 -2.468252,4.45414 3.075275,6.29891 3.415155,1.13649 3.662527,0.82692 -3.611307,4.51928 -5.947797,3.01925 -6.842379,3.75702 -5.91317,4.87665 0.832815,1.00348 4.02618,2.52569 9.02294,4.30104 4.91167,1.74512 4.937473,1.89118 0.886114,5.01679 -2.852631,2.20078 -4.042955,4.31469 -3.007878,5.34172 1.327588,1.31725 5.928839,2.05657 12.785873,2.05439 11.664177,-0.004 22.97288,-2.1943 41.490755,-8.03716 5.26329,-1.66071 9.80572,-2.94046 10.09429,-2.84391 0.69723,0.23328 -15.06484,5.37841 -23.517041,7.67656 -11.868982,3.22716 -16.500382,3.77111 -36.540363,4.29162 -3.28153,0.0852 -9.78722,-0.008 -14.45709,-0.20643 z"
     id="path951"
     inkscape:connector-curvature="0" />
  <path
     style="fill:#00222b;fill-opacity:1;stroke-width:0.45895523"
     d="m 194.41682,74.829187 c -3.44029,-3.682847 -2.57354,-10.938734 1.2532,-10.490903 1.07882,0.126251 1.27599,0.431016 1.72534,2.666795 0.27902,1.388339 0.75105,2.975368 1.04895,3.526731 0.8262,1.529151 0.65328,3.704911 -0.37627,4.734463 -1.26086,1.26086 -2.16635,1.152464 -3.65122,-0.437086 z"
     id="path955"
     inkscape:connector-curvature="0" />
  <path
     style="fill:#00222b;fill-opacity:1;stroke-width:0.45895523"
     d="m 215.55623,41.020199 c -3.59961,-3.388529 -4.11759,-4.057511 -3.61625,-4.670515 1.09821,-1.342834 9.58009,-7.896844 10.21971,-7.896844 1.0687,0 1.27015,0.848749 1.25509,5.287877 -0.0193,5.689979 -1.6621,11.234511 -3.32867,11.234511 -0.18066,0 -2.2191,-1.779763 -4.52988,-3.955029 z"
     id="path957"
     inkscape:connector-curvature="0" />
  <path
     style="fill:#00222b;fill-opacity:1;stroke-width:0.45895523"
     d="m 143.9098,84.988706 c -1.26129,-1.215722 -2.29326,-2.447634 -2.29326,-2.737584 0,-0.814936 1.49556,-1.429377 4.27394,-1.755921 2.31323,-0.271875 2.63777,-0.194766 3.71528,0.882743 0.78223,0.782228 1.08236,1.460275 0.8894,2.009298 -0.40995,1.166417 -2.97234,3.811867 -3.69218,3.811867 -0.32996,0 -1.63189,-0.994682 -2.89318,-2.210403 z"
     id="path959"
     inkscape:connector-curvature="0" />
  <path
     style="fill:#00222b;fill-opacity:1;stroke-width:0.45895523"
     d="m 95.295378,74.974901 c -1.21366,-1.542918 -1.199379,-2.748324 0.05636,-4.757136 0.552283,-0.883488 1.119468,-2.535727 1.260412,-3.671641 0.224728,-1.81116 0.405016,-2.082537 1.465139,-2.205384 1.940921,-0.224916 3.151191,1.715076 3.151191,5.051181 0,5.370329 -3.505594,8.669055 -5.933102,5.58298 z"
     id="path961"
     inkscape:connector-curvature="0" />
  <path
     style="fill:#00222b;fill-opacity:1;stroke-width:0.45895523"
     d="m 71.633604,42.695709 c -1.058503,-2.088855 -1.155119,-2.779837 -1.155119,-8.261194 0,-3.289921 0.154897,-5.975594 0.344216,-5.968161 0.189319,0.0074 2.09972,1.246111 4.245336,2.752618 2.145616,1.506507 4.674015,3.204297 5.618667,3.772866 0.944651,0.56857 1.719137,1.188066 1.721082,1.376657 0.01007,0.976945 -8.138255,8.606733 -9.191666,8.606733 -0.235068,0 -0.9472,-1.025783 -1.582516,-2.279519 z"
     id="path963"
     inkscape:connector-curvature="0" />
  <path
     style="fill:#00222b;fill-opacity:1;stroke-width:0.45895523"
     d="m 156.30342,190.69388 c -0.72582,-0.87456 0.009,-3.91361 3.52961,-14.60308 2.54076,-7.7138 2.5544,-7.74076 3.75539,-7.42155 0.66295,0.17621 2.03148,0.3503 3.04118,0.38687 l 1.83582,0.0665 -0.14834,3.21268 c -0.3859,8.35714 -3.71258,16.00095 -7.89168,18.13297 -2.13796,1.09071 -3.34901,1.15699 -4.12198,0.22561 z"
     id="path965"
     inkscape:connector-curvature="0" />
  <path
     style="fill:#00222b;fill-opacity:1;stroke-width:0.45895523"
     d="m 132.43028,190.5361 c -3.14045,-1.66105 -6.25585,-8.72782 -7.37523,-16.72949 -0.70068,-5.00867 -0.5431,-5.46519 1.65367,-4.79099 1.27866,0.39243 1.88489,0.37819 2.58785,-0.0608 0.68715,-0.42913 1.07548,-0.44264 1.54411,-0.0537 0.96419,0.80021 6.18631,17.21017 6.18631,19.43983 0,3.10958 -1.50714,3.82932 -4.59671,2.19518 z"
     id="path967"
     inkscape:connector-curvature="0" />
  <path
     style="fill:#00222b;fill-opacity:1;stroke-width:0.45895523"
     d="m 141.38794,228.03577 c -3.9721,-0.92938 -12.11933,-5.77879 -11.47101,-6.82779 0.13295,-0.21513 1.40438,-0.63251 2.82538,-0.92751 2.47145,-0.51307 3.31844,-1.08312 5.31284,-3.57571 0.43927,-0.54901 1.06559,-0.99819 1.39182,-0.99819 0.32622,0 1.96164,1.13592 3.63425,2.52426 1.67262,1.38833 3.28407,2.52425 3.58102,2.52425 0.29694,0 1.93419,-1.23918 3.63833,-2.75373 1.70414,-1.51455 3.33587,-2.75373 3.62607,-2.75373 0.29019,0 1.06403,0.81055 1.71963,1.80123 1.22081,1.84478 3.11508,2.89194 6.31848,3.49291 0.93048,0.17455 1.80033,0.493 1.93299,0.70765 0.13266,0.21466 -0.74737,1.11626 -1.95563,2.00357 -5.57316,4.09277 -14.56293,6.18462 -20.55417,4.78279 z"
     id="path969"
     inkscape:connector-curvature="0" />
  <path
     style="fill:#280b0b;fill-opacity:1;stroke-width:0.45895523"
     d="M 40.646395,232.64154 C 26.492626,231.53733 14.053002,225.04251 8.7552204,215.99093 6.1774024,211.58657 4.5108416,205.60956 5.8605982,205.60956 c 0.3045655,0 1.7441859,0.83504 3.1991564,1.85564 4.6426584,3.25664 6.4388654,3.85456 11.6220884,3.86874 4.08529,0.0112 4.866896,-0.12469 7.113806,-1.2366 5.443408,-2.69373 14.138066,-11.42668 21.931225,-22.0278 2.17431,-2.95774 4.011439,-5.31956 4.082513,-5.24848 0.07107,0.0711 -0.482665,1.58556 -1.230532,3.36553 -0.747863,1.77997 -1.590927,4.31424 -1.873479,5.63172 -0.488223,2.27652 -0.460205,2.43335 0.564469,3.15957 1.845592,1.30802 3.208868,1.91153 4.317971,1.91153 1.754053,0 1.758693,0.8474 0.01689,3.08308 -2.563329,3.29015 -2.276721,4.00674 2.355533,5.88943 1.457889,0.59253 2.650709,1.23979 2.650709,1.43835 0,0.19856 -2.353026,1.62091 -5.228945,3.16078 -5.486882,2.93788 -6.810498,4.05808 -5.978925,5.06006 0.701688,0.84548 4.333162,2.66599 8.60134,4.31198 2.055311,0.79261 3.847353,1.61978 3.982308,1.83814 0.134961,0.21837 -0.799963,1.28911 -2.077598,2.37943 -2.666053,2.27518 -4.327434,4.67369 -3.938818,5.68642 0.147214,0.38363 1.04505,1.03945 1.995193,1.45739 1.396674,0.61435 3.353696,0.7642 10.218207,0.78244 4.669869,0.0124 9.72985,-0.13104 11.244403,-0.31879 1.514552,-0.18774 3.683115,-0.45296 4.819029,-0.58937 1.135915,-0.13641 2.375094,-0.36433 2.753732,-0.50649 0.378638,-0.14216 1.308022,-0.35611 2.065298,-0.47545 0.757276,-0.11933 3.855224,-0.84619 6.884329,-1.61523 3.029104,-0.76905 6.023789,-1.48185 6.654849,-1.58399 l 1.14739,-0.18572 -1.14739,0.49804 c -1.96354,0.8523 -12.876391,3.59194 -17.21082,4.32073 -8.694796,1.46195 -32.676556,2.06266 -44.748135,1.1209 z"
     id="path977"
     inkscape:connector-curvature="0" />
  <path
     style="fill:#280b0b;fill-opacity:1;stroke-width:0.45895523"
     d="m 161.12214,219.82339 c -2.4556,-0.88051 -4.0129,-1.74228 -4.70201,-2.60195 -0.5667,-0.70696 -1.0314,-1.41819 -1.03265,-1.5805 -0.001,-0.16232 -0.34117,-0.42516 -0.75538,-0.58411 -0.87112,-0.33428 -2.1996,0.45401 -5.52964,3.28117 l -2.38161,2.02196 -3.39618,-2.55617 c -1.8679,-1.4059 -3.72423,-2.55617 -4.12519,-2.55617 -0.40095,0 -1.1548,0.56795 -1.67523,1.26212 -0.52042,0.69417 -1.14739,1.50342 -1.39325,1.79834 -0.24587,0.29491 -1.64219,0.87456 -3.10294,1.28811 -1.46076,0.41354 -2.99639,0.85074 -3.41252,0.97154 -0.44701,0.12977 -1.61268,-0.52129 -2.84877,-1.59112 l -2.09217,-1.81075 4.75238,-0.15595 c 6.03033,-0.19789 6.6821,-0.64754 6.6821,-4.60996 0,-2.22658 0.11759,-2.6396 0.66441,-2.33359 0.36542,0.2045 2.82692,2.38277 5.47001,4.8406 l 4.8056,4.46878 4.80574,-4.58832 c 2.64316,-2.52357 4.93184,-4.58831 5.08596,-4.58831 0.15412,0 0.28022,1.1039 0.28022,2.45312 0,1.79245 0.22573,2.65741 0.83817,3.21165 1.22558,1.10914 4.90342,1.66698 7.83965,1.1891 1.38054,-0.22469 2.59752,-0.32107 2.7044,-0.21419 0.24192,0.24192 -3.12359,4.38909 -3.52053,4.3382 -0.15891,-0.0204 -1.94117,-0.62949 -3.96057,-1.3536 z"
     id="path985"
     inkscape:connector-curvature="0" />
  <path
     style="fill:#280b0b;fill-opacity:1;stroke-width:0.45895523"
     d="m 164.31394,168.07719 c -0.66132,-0.3465 -1.49511,-0.51767 -1.85288,-0.38038 -0.79892,0.30657 -0.80428,0.43435 0.0921,-2.19643 l 0.7426,-2.17941 0.82655,1.35914 c 1.22831,2.0198 1.7547,2.15145 3.17225,0.79335 l 1.27881,-1.22518 0.28397,1.0603 c 0.15619,0.58317 0.28614,1.57663 0.28879,2.20769 0.004,1.02787 -0.18449,1.14966 -1.8125,1.16916 -0.99951,0.012 -2.35838,-0.26174 -3.0197,-0.60824 z"
     id="path987"
     inkscape:connector-curvature="0" />
  <path
     style="fill:#280b0b;fill-opacity:1;stroke-width:0.45895523"
     d="m 131.19334,191.37339 c -2.9704,-2.18446 -5.37037,-6.34985 -6.8031,-11.80747 -0.9314,-3.54795 -1.68753,-10.95376 -1.3357,-13.0823 0.34084,-2.06207 1.10038,-2.19635 3.23102,-0.57123 l 1.50753,1.14984 0.81479,-1.37932 c 0.44813,-0.75863 0.98732,-1.37932 1.1982,-1.37932 0.36527,0 1.71345,2.78705 1.71345,3.54216 0,0.51429 -3.15111,0.76614 -5.96642,0.47685 -1.06809,-0.10975 -1.15728,0.0383 -1.29052,2.1416 -0.27182,4.291 2.78388,14.81859 5.23331,18.02996 1.53701,2.01513 3.69868,3.34083 5.46579,3.35205 1.05803,0.007 1.21745,0.11177 0.68844,0.45364 -1.19873,0.77468 -2.51593,0.50086 -4.45679,-0.92646 z"
     id="path989"
     inkscape:connector-curvature="0" />
  <path
     style="fill:#280b0b;fill-opacity:1;stroke-width:0.45895523"
     d=""
     id="path991"
     inkscape:connector-curvature="0" />
  <path
     style="fill:#280b0b;fill-opacity:1;stroke-width:0.45895523"
     d="m 141.80013,84.72075 c -1.69781,-1.697805 -2.02016,-3.421741 -0.85726,-4.584636 2.31904,-2.31905 12.00821,-0.982761 12.53028,1.728123 0.0942,0.489152 -0.60795,1.538286 -1.7682,2.642014 -1.91301,1.819799 -3.17996,2.146422 -1.61404,0.416103 1.13689,-1.256255 1.04082,-3.225487 -0.20665,-4.235624 -2.05141,-1.661135 -8.25363,-0.515537 -8.64784,1.597324 -0.0922,0.494391 0.53731,1.454504 1.57994,2.409515 0.95331,0.873196 1.46575,1.587629 1.13875,1.587629 -0.32699,0 -1.29674,-0.702201 -2.15498,-1.560448 z"
     id="path993"
     inkscape:connector-curvature="0" />
  <path
     style="fill:#280b0b;fill-opacity:1;stroke-width:0.45895523"
     d="m 217.45211,44.742136 c -1.32897,-0.89994 -3.54916,-2.769115 -4.93377,-4.153723 -3.94216,-3.942165 -3.82731,-4.255631 3.60343,-9.834712 3.3665,-2.527601 6.4262,-4.595637 6.79933,-4.595637 2.98334,0 2.97333,14.718277 -0.0128,18.817164 -1.23809,1.699465 -2.69419,1.63726 -5.45619,-0.233092 z m 4.77969,-1.276459 c 0.82145,-1.588517 1.95797,-7.445337 1.97811,-10.193807 0.0207,-2.818572 -0.79952,-5.277985 -1.76013,-5.277985 -1.78323,0 -11.07204,7.549468 -11.07204,8.998785 0,0.803345 5.41139,6.281651 7.39873,7.490228 1.73651,1.056033 2.49934,0.831463 3.45533,-1.017221 z"
     id="path995"
     inkscape:connector-curvature="0" />
  <path
     style="fill:#552200;fill-opacity:1;stroke-width:0.45895523"
     d=""
     id="path997"
     inkscape:connector-curvature="0" />
  <path
     style="fill:#552200;fill-opacity:1;stroke-width:0.45895523"
     d="m 132.10948,190.47895 c -1.85352,-1.13015 -3.668,-3.96752 -4.99901,-7.81715 -1.33323,-3.85609 -2.47527,-9.48328 -2.47527,-12.1965 0,-2.0129 0.0605,-2.1181 1.03265,-1.79558 1.30497,0.43293 3.04272,0.43802 4.3118,0.0126 1.10491,-0.37037 1.52327,0.52516 4.60098,9.84886 3.36962,10.20804 3.474,12.85242 0.50716,12.84903 -0.82663,-9.6e-4 -2.16687,-0.40652 -2.97831,-0.90128 z"
     id="path999"
     inkscape:connector-curvature="0" />
  <path
     style="fill:#552200;fill-opacity:1;stroke-width:0.45895523"
     d="m 156.0088,190.69006 c -0.14603,-0.38054 -0.13793,-1.37189 0.018,-2.203 0.4201,-2.23931 4.71197,-15.94608 5.75486,-18.37904 l 0.90215,-2.10463 1.60015,0.66859 c 0.97344,0.40673 2.1762,0.55337 3.07096,0.37442 l 1.47082,-0.29416 -0.32966,3.77918 c -0.77055,8.83344 -4.30331,16.52516 -8.3704,18.2245 -1.97239,0.82412 -3.78648,0.79509 -4.11686,-0.0659 z"
     id="path1001"
     inkscape:connector-curvature="0" />
  <path
     style="fill:#552200;fill-opacity:1;stroke-width:0.45895523"
     d="m 140.23968,227.7234 c -5.01893,-1.68912 -11.20293,-5.63249 -10.23532,-6.52678 0.20228,-0.18696 1.54266,-0.67466 2.97863,-1.0838 2.64484,-0.75357 3.53593,-1.36836 4.81683,-3.32326 0.39028,-0.59564 1.04728,-1.08184 1.45999,-1.08043 0.41272,0.001 2.17196,1.13732 3.90944,2.52425 1.73748,1.38694 3.30133,2.5217 3.47521,2.5217 0.17388,0 1.74699,-1.23847 3.4958,-2.75215 1.7488,-1.51368 3.3737,-2.75286 3.61087,-2.75373 0.23718,-8.7e-4 1.37309,0.99673 2.52426,2.21688 1.75689,1.8622 2.51557,2.30943 4.72419,2.7849 1.44714,0.31153 2.7385,0.74011 2.8697,0.95238 0.59722,0.96633 -4.88565,4.33851 -9.85063,6.05852 -3.78805,1.31229 -10.57554,1.53963 -13.77897,0.46152 z"
     id="path1003"
     inkscape:connector-curvature="0" />
  <path
     style="fill:#552200;fill-opacity:1;stroke-width:0.45895523"
     d="m 143.80241,84.971256 c -2.68116,-2.557654 -2.68769,-3.428701 -0.0312,-4.166383 2.90155,-0.805733 4.91133,-0.614932 6.02653,0.572137 0.54885,0.584226 0.99791,1.306485 0.99791,1.605021 0,0.813528 -3.21919,4.217078 -3.98865,4.217078 -0.36803,0 -1.72009,-1.002534 -3.00459,-2.227853 z"
     id="path1005"
     inkscape:connector-curvature="0" />
  <path
     style="fill:#552200;fill-opacity:1;stroke-width:0.45895523"
     d="m 194.21979,74.786449 c -2.21218,-2.629027 -2.64649,-6.894669 -0.96351,-9.463229 0.57323,-0.874851 1.06387,-1.094226 2.20102,-0.984105 1.29733,0.125633 1.50865,0.349983 1.86264,1.977531 0.21962,1.009701 0.68431,2.614487 1.03265,3.56619 0.82859,2.263764 0.80161,4.021078 -0.0811,5.281317 -1.00973,1.441593 -2.64949,1.288734 -4.0517,-0.377704 z"
     id="path1007"
     inkscape:connector-curvature="0" />
  <path
     style="fill:#552200;fill-opacity:1;stroke-width:0.45895523"
     d="m 95.295378,74.974901 c -1.211691,-1.540415 -1.200078,-2.709593 0.0496,-4.99341 0.55045,-1.005963 1.118407,-2.655144 1.262127,-3.664845 0.236051,-1.658372 0.389608,-1.835821 1.588644,-1.835821 1.974451,0 3.163861,1.846719 3.163861,4.912303 0,5.300354 -3.645891,8.656191 -6.064228,5.581773 z"
     id="path1009"
     inkscape:connector-curvature="0" />
  <path
     style="fill:#552200;fill-opacity:1;stroke-width:0.45895523"
     d="m 72.380316,44.366334 c -1.460568,-1.759878 -1.901831,-4.06438 -1.901831,-9.932335 0,-3.289638 0.154897,-5.982334 0.344216,-5.983769 0.705523,-0.0054 11.558462,7.596088 11.57324,8.10594 0.01997,0.688775 -8.186259,8.419058 -8.937406,8.419058 -0.315084,0 -0.800283,-0.274003 -1.078219,-0.608894 z"
     id="path1011"
     inkscape:connector-curvature="0" />
  <path
     style="fill:#552200;fill-opacity:1;stroke-width:0.45895523"
     d="m 215.4447,40.962687 -4.16237,-4.012541 2.28605,-2.102038 c 3.57095,-3.283489 7.97824,-6.448732 8.76759,-6.296719 2.64701,0.509769 0.71033,16.423839 -1.99873,16.423839 -0.40159,0 -2.60323,-1.805644 -4.89254,-4.012541 z"
     id="path1013"
     inkscape:connector-curvature="0" />
  <path
     style="fill:#28170b;fill-opacity:1;stroke-width:0.02028315"
     d="M 72.184236,10.260991 C 70.510967,9.9078825 68.981565,9.7359875 68.026191,9.7936533 c -0.18407,0.01111 -0.389437,0.025143 -0.456371,0.031185 -0.09837,0.00888 -0.06337,-0.00452 0.182548,-0.069901 l 0.304248,-0.080885 1.622651,0.091764 c 2.425056,0.1371417 3.129224,0.2058044 4.614416,0.4499477 0.251004,0.04126 0.441761,0.07808 0.423905,0.08182 -0.01786,0.0037 -0.168459,-0.0159 -0.334672,-0.04365 -0.592601,-0.09894 -1.152422,-0.170257 -1.68146,-0.214207 -0.365669,-0.03038 -1.599133,-0.1025476 -1.723376,-0.1008343 -0.07317,0.00101 0.127811,0.052439 0.709219,0.1814853 0.905517,0.200983 0.891743,0.197661 0.821467,0.198091 -0.02789,1.7e-4 -0.173928,-0.02569 -0.32453,-0.05748 z"
     id="path1069"
     inkscape:connector-curvature="0" />
  <path
     style="fill:#28170b;fill-opacity:1;stroke-width:0.02028315"
     d="m 229.41802,10.756541 c -0.43896,-0.4457 -0.94769,-0.726358 -1.54042,-0.8498173 -0.24038,-0.050068 -0.83561,-0.1153407 -0.85697,-0.093975 -0.0115,0.01151 0.0687,0.047934 0.2074,0.09414 0.1244,0.041451 0.22162,0.079921 0.21605,0.085489 -0.006,0.00557 -0.0678,-0.00863 -0.13819,-0.031558 -0.70972,-0.2309919 -1.63125,-0.2421166 -3.46464,-0.041825 -0.5975,0.065274 -1.33983,0.1570323 -1.72076,0.2126993 -0.19341,0.02826 -0.36102,0.04827 -0.37246,0.04445 -0.0114,-0.0038 0.24719,-0.05679 0.57476,-0.11773 0.33709,-0.062708 0.56618,-0.1136093 0.52785,-0.1172828 -0.0753,-0.00722 -1.41725,0.066255 -1.79832,0.098457 -0.37776,0.03192 -0.77697,0.07694 -1.18204,0.133298 -0.20389,0.02837 -0.38116,0.04809 -0.39393,0.04383 -0.0281,-0.0094 0.69867,-0.119862 1.23115,-0.187187 0.95637,-0.1209209 1.97931,-0.1990678 3.89437,-0.2975078 0.63135,-0.032453 2.03341,-0.03269 2.39341,-4.047e-4 0.48871,0.043829 0.87395,0.1129544 1.20888,0.2169196 0.24856,0.077155 0.63173,0.2724149 0.82958,0.4227529 0.17528,0.133191 0.56409,0.509806 0.5455,0.528396 -0.006,0.0056 -0.0782,-0.05881 -0.16122,-0.143151 z"
     id="path1073"
     inkscape:connector-curvature="0" />
  <path
     style="fill:#d45500;fill-opacity:1;stroke-width:0.38125399"
     d="m 164.56298,164.65986 c -0.90382,-1.60813 -0.90846,-1.67688 -0.80301,-11.91419 0.0583,-5.6632 0.24595,-10.4414 0.41691,-10.61822 1.0322,-1.06755 4.58066,14.69063 4.5796,20.33733 -1.6e-4,0.88461 -2.30209,3.81254 -2.9974,3.81254 -0.15787,0 -0.69612,-0.72786 -1.1961,-1.61746 z"
     id="path990"
     inkscape:connector-curvature="0" />
  <path
     style="fill:#e6d8d8;fill-opacity:1;stroke-width:0.76250798"
     d="M 0.70615402,122.89281 V -0.63567893 H 131.09733 261.4885 L 261.29557,122.69999 261.10264,246.03566 130.9044,246.22848 0.70615402,246.42128 Z M 78.634739,232.67928 c 9.449731,-0.89611 19.062341,-3.24205 33.016331,-8.05757 5.45193,-1.88146 10.64792,-3.61339 11.54664,-3.84874 1.15741,-0.3031 3.27939,0.69335 7.27472,3.41607 7.39373,5.03863 8.65152,5.4527 16.56311,5.4527 5.93571,0 7.21743,-0.26299 11.35268,-2.3294 6.60019,-3.29816 15.75602,-12.37437 16.96177,-16.81427 1.17717,-4.33467 0.4937,-12.58064 -1.5733,-18.98173 -1.26567,-3.91955 -1.67867,-7.58808 -1.97434,-17.53769 -0.52885,-17.79625 -1.2822,-23.16249 -5.18637,-36.94317 -1.89501,-6.68891 -3.27715,-12.32998 -3.07142,-12.53571 0.20573,-0.20573 7.08889,-1.4981 15.2959,-2.87193 18.92051,-3.16723 21.80452,-3.92416 34.90691,-9.16158 9.07439,-3.62729 11.46975,-4.28959 15.32993,-4.23862 4.00983,0.0529 4.85766,-0.20471 6.86257,-2.08554 1.25814,-1.18027 3.02266,-2.36678 3.92116,-2.63668 0.8985,-0.2699 1.96759,-1.42291 2.37576,-2.56226 1.20384,-3.360404 2.58515,-8.735544 2.98778,-11.626479 0.73795,-5.298584 -3.69005,-17.724207 -10.04313,-28.182498 l -2.72839,-4.491418 1.54224,-6.040375 c 1.31047,-5.132554 1.47562,-7.517273 1.09895,-15.867214 -0.4842,-10.733418 -2.54568,-20.419857 -5.01343,-23.557101 -1.12422,-1.4292085 -2.21301,-1.9011499 -4.38606,-1.9011499 -8.71708,0 -17.62952,3.7038809 -26.87676,11.1695899 l -6.09958,4.924461 -11.17711,-4.670846 c -6.14741,-2.568967 -12.18305,-5.388665 -13.41254,-6.265997 -1.22947,-0.877332 -3.87713,-1.752898 -5.88368,-1.945701 -2.81749,-0.270726 -3.92999,-0.780519 -4.88544,-2.238716 -1.10997,-1.6940327 -1.583,-1.836303 -4.6008,-1.383756 -2.1804,0.3269718 -3.36363,0.2197441 -3.36363,-0.3048218 0,-1.5216365 -4.65492,-0.810825 -10.14502,1.5491548 -3.01752,1.297111 -9.94706,4.009026 -15.39899,6.026479 -5.45194,2.017452 -12.80243,4.914401 -16.33443,6.437665 l -6.42182,2.76957 -2.728281,-2.303611 C 93.092356,18.587036 84.618139,13.212219 80.238537,11.542532 77.16303,10.370022 73.970168,9.8253269 69.770983,9.7567927 l -6.042207,-0.098614 -1.765982,4.5279993 c -2.422219,6.210603 -3.238523,11.431599 -3.464688,22.159781 -0.145453,6.899637 0.158453,10.571786 1.235647,14.930518 l 1.428542,5.780422 -3.901669,6.419706 c -4.258527,7.006872 -7.080006,13.897912 -8.486187,20.72624 -0.806371,3.915684 -0.732772,4.891184 0.676193,8.962504 0.869578,2.512715 1.58105,5.400523 1.58105,6.417343 0,2.036378 1.799877,4.245228 3.459218,4.245228 0.584521,0 2.235171,1.02938 3.668111,2.28752 2.795012,2.45406 4.294774,2.78634 6.463409,1.432 1.113501,-0.69539 4.073081,0.2158 15.811693,4.86809 14.625978,5.79663 21.695987,7.59143 42.273317,10.73155 l 6.48132,0.98906 -0.13705,2.99915 c -0.17094,3.74086 -6.85733,27.15524 -7.94696,27.82867 -0.44037,0.27216 -5.66419,0.70094 -11.60849,0.95283 -15.028833,0.63685 -22.610771,2.62583 -35.575724,9.33264 -9.743134,5.04015 -14.774011,9.56036 -23.425495,21.04765 -7.852418,10.4263 -17.964379,20.8762 -22.441332,23.19133 -1.680688,0.86911 -4.252517,1.29023 -7.746114,1.26836 -4.64192,-0.029 -5.729481,-0.34101 -9.671269,-2.77402 -2.4426674,-1.5077 -4.6468412,-2.74127 -4.8981638,-2.74127 -1.2119376,0 -0.2216632,5.08464 1.751578,8.99361 4.8161978,9.54083 16.4472348,16.75198 29.7998558,18.47567 6.557053,0.84645 32.29383,0.82685 41.345153,-0.0315 z"
     id="path1022"
     inkscape:connector-curvature="0" />
</svg>
