<?xml version="1.0" encoding="UTF-8" standalone="no"?>
<!-- Created with Inkscape (http://www.inkscape.org/) -->

<svg
   xmlns:dc="http://purl.org/dc/elements/1.1/"
   xmlns:cc="http://creativecommons.org/ns#"
   xmlns:rdf="http://www.w3.org/1999/02/22-rdf-syntax-ns#"
   xmlns:svg="http://www.w3.org/2000/svg"
   xmlns="http://www.w3.org/2000/svg"
   xmlns:sodipodi="http://sodipodi.sourceforge.net/DTD/sodipodi-0.dtd"
   xmlns:inkscape="http://www.inkscape.org/namespaces/inkscape"
   version="1.1"
   id="svg9250"
   width="800"
   height="216"
   viewBox="0 0 800 216"
   sodipodi:docname="paint1.svg"
   inkscape:version="0.92.3 (2405546, 2018-03-11)">
  <metadata
     id="metadata9256">
    <rdf:RDF>
      <cc:Work
         rdf:about="">
        <dc:format>image/svg+xml</dc:format>
        <dc:type
           rdf:resource="http://purl.org/dc/dcmitype/StillImage" />
        <dc:title></dc:title>
      </cc:Work>
    </rdf:RDF>
  </metadata>
  <defs
     id="defs9254" />
  <sodipodi:namedview
     pagecolor="#ffffff"
     bordercolor="#666666"
     borderopacity="1"
     objecttolerance="10"
     gridtolerance="10"
     guidetolerance="10"
     inkscape:pageopacity="0"
     inkscape:pageshadow="2"
     inkscape:window-width="1366"
     inkscape:window-height="705"
     id="namedview9252"
     showgrid="false"
     inkscape:zoom="0.49625"
     inkscape:cx="72.544081"
     inkscape:cy="108"
     inkscape:window-x="-8"
     inkscape:window-y="-8"
     inkscape:window-maximized="1"
     inkscape:current-layer="svg9250" />
  <path
     style="fill:#000000;stroke-width:1.33333337"
     d="m 271.37867,207.31821 c -2.3649,-0.75737 -0.50205,-1.10613 6.41203,-1.20042 6.18863,-0.0844 9.4446,0.35372 8.92131,1.20042 -0.95919,1.55199 -10.48724,1.55199 -15.33334,0 z M 226.04534,193.2052 c -33.31495,-3.71815 -55.13852,-7.89815 -83.33333,-15.96133 -29.85054,-8.53668 -44.787067,-13.88784 -59.318191,-21.25131 -16.972478,-8.60061 -3.03579,-4.92952 29.486151,7.76701 38.80305,15.14867 79.08854,21.50666 158.68761,25.04459 49.38632,2.19507 55.05291,1.51188 122.47776,-14.76632 20.9,-5.04584 46.85,-11.11153 57.66667,-13.47933 16.29885,-3.56788 19.66666,-4.70899 19.66666,-6.66364 0,-6.14055 -0.68716,-6.24962 -15.71129,-2.49354 -99.45624,24.86432 -148.08656,31.91462 -208.11699,30.17227 -34.00796,-0.98707 -59.96394,-3.98703 -89.26372,-10.31699 -11.6181,-2.50998 -6.89238,-2.91016 8.09187,-0.68521 57.75713,8.57612 132.00475,9.70528 178.54319,2.71532 7.16141,-1.07564 25.97796,-5.27111 41.81453,-9.32327 15.83659,-4.05217 37.30972,-9.13954 47.71809,-11.30528 10.40838,-2.16572 22.22432,-5.07589 26.25766,-6.46704 8.1361,-2.80625 8.39218,-3.51322 5.35629,-14.78768 -1.48805,-5.52618 -1.6794,-5.68495 -5.78097,-4.79648 -2.3331,0.50538 -14.14199,2.63427 -26.24199,4.73086 -12.1,2.0966 -31,6.33657 -42,9.42217 -37.86965,10.62279 -44.03404,12.04172 -55.33333,12.73669 -6.23334,0.3834 -12.23334,1.02246 -13.33334,1.42014 -3.93516,1.42266 -11.11489,1.05426 -11.66625,-0.59862 -0.36812,-1.10353 0.89567,-1.66666 3.74035,-1.66666 6.86053,0 34.69393,-5.05831 59.25924,-10.76948 27.69262,-6.43826 56.89721,-14.33489 53.50341,-14.46681 -1.94505,-0.0756 -2.16564,-0.49583 -0.99852,-1.90211 1.24901,-1.50499 0.33409,-1.49778 -5.50341,0.0433 -19.12884,5.05 -63.31566,13.22534 -64.5906,11.9504 -0.33086,-0.33086 1.39134,-1.01627 3.8271,-1.52312 2.43578,-0.50686 17.92868,-4.14607 34.42868,-8.08714 16.5,-3.94107 35.4,-8.03671 42,-9.10142 6.6,-1.06471 14.7,-3.18356 18,-4.70855 3.3,-1.525 4.8,-2.50758 3.33334,-2.18353 -49.15063,10.85955 -68.48892,14.73817 -96.17483,19.28949 -46.66435,7.67121 -59.14839,8.70972 -104.49184,8.69237 -37.00477,-0.0141 -44.29939,-0.37521 -61.33333,-3.03565 -26.35247,-4.11585 -63.93919,-13.16131 -67.09022,-16.14565 -1.10769,-1.0491 6.74544,0.24669 36.14898,5.9647 9.01565,1.75325 17.26696,2.852 18.33624,2.44168 1.06928,-0.41032 10.01001,0.59997 19.86829,2.2451 14.49455,2.41881 19.00433,2.71694 23.56956,1.55817 4.0406,-1.02561 6.4132,-1.02207 8.34627,0.012 1.49581,0.80053 16.11257,1.96156 32.76085,2.60223 25.66947,0.98781 31.42325,0.84554 39.39336,-0.97404 5.13333,-1.17195 16.52073,-2.40008 25.30532,-2.72918 18.30467,-0.68573 30.06292,-2.83556 42.31272,-7.73624 5.53168,-2.21302 11.16549,-3.43767 15.81991,-3.43884 10.79925,-0.003 27.64586,-3.30196 48.85741,-9.5682 18.67753,-5.51767 18.94977,-5.65293 18.14576,-9.01584 -1.10172,-4.608157 -0.97795,-4.561177 -5.65055,-2.144877 -7.58978,3.924827 -4.56612,-0.59402 3.57415,-5.34154 0.20059,-0.11699 0.0145,-1.12539 -0.41356,-2.24088 -0.91461,-2.38342 -6.84932,-1.22538 -50.39212,9.832997 -14.54253,3.69331 -32.84253,8.1107 -40.66667,9.81643 -7.82414,1.70572 -12.7257,3.14865 -10.89237,3.20651 1.83333,0.0579 8.13333,-1.02888 14,-2.41497 14.973,-3.53761 22,-4.55536 22,-3.18637 0,1.21229 -21.86167,6.74848 -40.66667,10.29833 -31.40516,5.9284 -77.28092,9.55008 -104.66666,8.26294 -18.92714,-0.8891 -71.37708,-8.02529 -100.561,-13.68156 C 101.11688,106.13158 69.082621,92.370933 41.836808,70.522104 32.675889,63.175834 22.427721,51.824724 23.756497,50.495954 c 1.705296,-1.7053 6.997116,1.53587 15.394718,9.42907 14.807573,13.91814 32.922102,25.01643 55.843868,34.214039 14.181347,5.69042 36.419237,13.179147 39.135667,13.179147 1.22547,0 7.73084,1.81339 14.45639,4.02976 12.35596,4.07184 14.86113,4.35144 63.14472,7.04742 12.53124,0.6997 6.55448,-1.884 -6.94489,-3.00222 -6.71635,-0.55634 -12.9308,-1.7378 -13.80992,-2.62547 -1.24962,-1.26178 -0.14371,-1.45046 5.06829,-0.86474 29.6762,3.335 82.10439,4.73438 78,2.08192 -1.1,-0.71087 -7.30147,-1.30169 -13.78103,-1.31292 -34.80533,-0.0603 -91.62474,-4.70757 -113.55885,-9.28796 -13.37865,-2.79379 -25.99345,-7.515817 -25.99345,-9.729977 0,-1.32166 4.77646,-0.78833 10,1.11659 1.46666,0.53487 2.36666,0.64827 2,0.252 -0.36667,-0.39626 -8.76667,-3.87981 -18.66667,-7.741209 -9.9,-3.8614 -22.199997,-9.09841 -27.333333,-11.63779 -9.903539,-4.89913 -34.309095,-20.46074 -33.44466,-21.32518 0.28206,-0.28206 3.553934,1.02821 7.270833,2.9117 9.064183,4.59317 7.467567,1.38401 -2.516793,-5.0587 -4.386826,-2.83072 -7.97605,-5.53072 -7.976054,-6 -4e-6,-0.46927 9.330566,3.73641 20.734599,9.34594 18.657273,9.17734 50.212418,21.13418 55.774948,21.13418 1.18642,0 2.15713,0.6 2.15713,1.33333 0,0.73334 -0.7,1.33334 -1.55556,1.33334 -0.85555,0 -1.17005,0.3855 -0.69889,0.85666 0.47117,0.47117 1.69401,0.16174 2.71742,-0.68761 1.43226,-1.18867 5.0474,-0.7701 15.69889,1.81766 18.53388,4.50277 44.46876,8.17559 75.1582,10.643679 33.51215,2.69509 39.43368,2.59144 50.20868,-0.87889 7.94084,-2.557509 9.46884,-2.691679 12.45487,-1.0936 2.61487,1.39943 3.76813,1.45701 4.97667,0.24849 0.97224,-0.972249 6.18174,-1.583389 13.63972,-1.600099 9.28344,-0.0208 16.37221,-1.10406 30.73333,-4.6965 10.26667,-2.5682 23.76667,-5.03914 30,-5.49096 6.23333,-0.45183 12.85881,-1.58942 14.72329,-2.52799 1.8645,-0.93857 7.2645,-2.40639 12,-3.26183 4.73552,-0.85544 11.31004,-2.67504 14.61004,-4.04356 3.3,-1.36852 11.4,-3.1262 18,-3.90595 6.6,-0.77976 15,-2.20763 18.66667,-3.17305 6.32919,-1.66645 6.64629,-1.96307 6.26429,-5.85952 -0.2213,-2.25732 0.11734,-4.42544 0.75263,-4.81804 0.63524,-0.39261 17.91631,-4.96757 38.40237,-10.16658 20.48606,-5.19902 49.17499,-12.47797 63.75319,-16.17546 15.25808,-3.86992 27.82956,-6.39046 29.62529,-5.93976 2.80152,0.70314 16.8008,17.7514 18.75198,22.83607 0.40132,1.04584 1.24622,1.58227 1.87757,1.19208 0.63133,-0.39019 3.71847,0.66326 6.86028,2.34099 4.8686,2.59984 7.68191,3.04736 19.04573,3.02961 14.87322,-0.0232 13.54906,0.41602 47.55651,-15.77513 23.84248,-11.35154 46.16884,-20.22416 57.77683,-22.9608197 15.45905,-3.64457 40.63633,-1.14502 54.43852,5.4045397 2.74458,1.3024 4.72446,2.63369 4.39973,2.95843 -0.32475,0.32474 -2.2962,-0.28375 -4.38101,-1.3522 -7.31747,-3.75014 -18.42036,-5.3045 -32.65116,-4.57106 -19.82175,1.02161 -31.42179,4.77551 -91.80608,29.70947 -8.43334,3.4823 -19.23334,7.40749 -24,8.72264 -4.76667,1.31514 -7.33471,2.42728 -5.70676,2.4714 1.62794,0.0441 20.82794,-5.94007 42.66666,-13.2982 21.83872,-7.35813 45.79799,-15.15862 53.24282,-17.33443 23.10166,-6.75162 50.97657,-8.13017 60.95716,-3.01461 3.48988,1.78873 3.76285,2.43608 3.10272,7.35779 -0.79912,5.95782 -6.5597,12.28657 -21.99328,24.16244 -17.13406,13.18434 -31.91638,16.61056 -84.26932,19.53178 -29.27684,1.6336 -41.22248,3.24517 -48.7559,6.57755 -13.19161,5.83528 -21.96252,18.971649 -24.46489,36.641576 -0.70063,4.94736 -2.19132,10.39541 -3.31265,12.10677 -2.5017,3.81807 -3.74559,4.23204 -44.56507,14.83131 -72.11339,18.72509 -88.64188,22.58597 -89.23033,20.84326 -0.31108,-0.92124 -0.96523,-1.42798 -1.45368,-1.1261 -0.48846,0.30188 -21.28722,5.09834 -46.21946,10.65881 -86.23465,19.23229 -107.40065,22.26409 -159.33136,22.82249 -20.16666,0.21684 -38.76666,0.15988 -41.33333,-0.12653 z M 559.9501,129.41345 c -0.49043,-1.95402 -1.14883,-3.29561 -1.46311,-2.98133 -0.31429,0.31429 -0.17017,2.17017 0.32026,4.12419 0.49042,1.95401 1.14882,3.29561 1.4631,2.98133 0.3143,-0.31429 0.17018,-2.17017 -0.32025,-4.12419 z m -109.23809,-6.23896 c 11.24866,-2.10557 12.83452,-2.81352 11.40808,-5.09273 -1.00007,-1.59794 -2.34812,-1.64419 -8.40634,-0.28842 -13.91156,3.11327 -17.00174,4.27828 -17.00174,6.40972 0,1.52204 0.81821,1.87138 3,1.28087 1.65,-0.44658 6.6,-1.48583 11,-2.30944 z m 142.11316,-1.32936 c -0.7026,-1.75647 -1.3155,-2.49266 -1.36198,-1.63597 -0.11293,2.08082 1.44031,6.02868 2.10884,5.36014 0.29183,-0.29183 -0.0443,-1.96771 -0.74686,-3.72417 z m -35.20235,-0.11025 c -0.42563,-1.06364 -0.74157,-0.7477 -0.80555,0.80556 -0.0579,1.40555 0.25724,2.19305 0.7003,1.75 0.44305,-0.44306 0.49041,-1.59306 0.1052,-2.55556 z m -1.33333,-5.33333 c -0.42563,-1.06365 -0.74158,-0.7477 -0.80555,0.80555 -0.0579,1.40556 0.25724,2.19306 0.70029,1.75 0.44306,-0.44305 0.49042,-1.59305 0.1052,-2.55555 z m 34.66666,-1.33334 c -0.42562,-1.06364 -0.74157,-0.7477 -0.80554,0.80556 -0.0579,1.40555 0.25724,2.19305 0.70029,1.75 0.44305,-0.44306 0.49041,-1.59306 0.1052,-2.55556 z m -284.91081,-2.41666 c 2.99412,-0.95889 2.83252,-1.08105 -1.58797,-1.20043 -2.70672,-0.0731 -5.29214,0.46709 -5.74536,1.20043 -0.9532,1.5423 2.51748,1.5423 7.33333,0 z m 248.91081,-1.58334 c -0.42562,-1.06364 -0.74157,-0.7477 -0.80554,0.80556 -0.0579,1.40555 0.25724,2.19305 0.70029,1.75 0.44305,-0.44306 0.49041,-1.59306 0.1052,-2.55556 z m -229.57748,0.25 c 0.49756,-0.80506 -1.18816,-1.2962 -4.25464,-1.23962 -4.05561,0.0748 -4.5415,0.32456 -2.41202,1.23962 3.66464,1.57476 5.69341,1.57476 6.66666,0 z m 264.24415,-1.58333 c -0.42563,-1.06364 -0.74157,-0.7477 -0.80555,0.80556 -0.0579,1.40555 0.25724,2.19305 0.7003,1.75 0.44305,-0.44306 0.49041,-1.59306 0.1052,-2.55556 z m -249.57748,0.25 2.66667,-1.14591 -2.66667,0.0392 c -1.46667,0.0216 -4.16667,0.51958 -6,1.10672 l -3.33333,1.06752 3.33333,0.0392 c 1.83333,0.0216 4.53333,-0.47647 6,-1.10672 z m 213.57748,-4.25 c -0.42563,-1.06364 -0.74157,-0.7477 -0.80555,0.80556 -0.0579,1.40555 0.25724,2.19305 0.7003,1.75 0.44305,-0.44306 0.49041,-1.59306 0.1052,-2.55556 z m -197.27192,0.77778 c -0.44305,-0.44306 -1.59307,-0.49043 -2.55556,-0.10527 -1.06364,0.42564 -0.74771,0.74158 0.80556,0.80556 1.40555,0.0579 2.19305,-0.25724 1.75,-0.7003 z M 585.25522,92.108343 c -1.95916,-7.818619 -3.80656,-13.971229 -4.10532,-13.672459 -0.29876,0.29877 1.05973,6.94026 3.01889,14.758879 1.95916,7.818607 3.80656,13.971217 4.10532,13.672457 0.29876,-0.29877 -1.05973,-6.940267 -3.01889,-14.758877 z M 287.37867,103.31685 c 46.15796,-3.12361 89.55032,-10.931077 142.33334,-25.609666 25.89928,-7.20241 27.41797,-10.38294 2,-4.18851 -46.2739,11.27709 -99.12871,20.614779 -139,24.556669 -18.49682,1.8287 -70.66988,2.404847 -91.33334,1.00859 l -13.33333,-0.90095 11.33333,1.824947 c 26.11426,4.20506 57.38327,5.38082 88,3.30892 z M 440.71201,88.677344 c 9.8675,-2.51351 16.55764,-5.35912 12.5995,-5.35912 -1.41588,0 -16.59285,3.17832 -22.26617,4.66292 -2.01667,0.52772 -3.66667,0.56071 -3.66667,0.0733 0,-1.67574 11.34207,-5.89512 18.33334,-6.82021 3.85,-0.50943 7,-1.44894 7,-2.0878 0,-0.63887 -0.7781,-1.16157 -1.7291,-1.16157 -5.69034,0 -87.72017,19.777449 -89.60424,21.603649 -0.87049,0.843757 -0.17624,1.201337 2,1.030107 6.17779,-0.48607 7.14455,-0.14947 5.44664,1.89639 -1.55554,1.87431 46.58054,-7.391547 71.8867,-13.837686 z m 111.57748,11.724206 c -0.42563,-1.063647 -0.74158,-0.747697 -0.80555,0.80555 -0.0579,1.40556 0.25724,2.19306 0.70029,1.75 0.44306,-0.44305 0.49042,-1.59305 0.1052,-2.55555 z m -1.33334,-5.333327 c -0.42562,-1.06365 -0.74157,-0.74771 -0.80554,0.80555 -0.0579,1.40556 0.25724,2.19305 0.70029,1.75 0.44305,-0.44305 0.49041,-1.59305 0.1052,-2.55555 z m -6.24414,-25.083339 c -2.99571,-11.91541 -5.27122,-21.839 -5.0567,-22.05242 0.21451,-0.21343 3.07323,-0.78779 6.35271,-1.27636 3.27947,-0.48857 8.33917,-1.70708 11.24377,-2.7078 2.9046,-1.00071 5.77139,-1.51645 6.37066,-1.14609 1.48021,0.91482 1.36341,-0.3365 -0.78439,-8.40365 -1.01327,-3.80581 -1.45615,-7.34204 -0.98417,-7.85828 0.47196,-0.51624 -0.64188,-0.0284 -2.47522,1.08409 -1.83333,1.11249 -8.18789,3.0902 -14.12124,4.3949 l -10.78792,2.3722 7.29866,29.17485 c 4.01425,16.04617 7.54433,28.929179 7.84461,28.628899 0.30028,-0.30028 -1.90507,-10.294929 -4.90077,-22.210339 z m 35.57748,3.75 c -0.42563,-1.06364 -0.74158,-0.7477 -0.80555,0.80556 -0.0579,1.40555 0.25724,2.19305 0.70029,1.75 0.44306,-0.44306 0.49042,-1.59306 0.1052,-2.55556 z m -1.33334,-5.33333 c -0.42562,-1.06364 -0.74157,-0.7477 -0.80554,0.80556 -0.0579,1.40555 0.25724,2.19305 0.70029,1.75 0.44305,-0.44306 0.49041,-1.59306 0.1052,-2.55556 z m -1.33333,-5.33333 c -0.42563,-1.06365 -0.74157,-0.74771 -0.80555,0.80555 -0.0579,1.40556 0.25724,2.19306 0.7003,1.75 0.44305,-0.44305 0.49041,-1.59305 0.1052,-2.55555 z m -1.33333,-5.33334 c -0.42563,-1.06364 -0.74158,-0.7477 -0.80555,0.80556 -0.0579,1.40555 0.25724,2.19305 0.70029,1.75 0.44306,-0.44306 0.49042,-1.59306 0.1052,-2.55556 z m -2.1333,-10.03226 c -0.86062,-3.51142 -1.87694,-7.5844 -2.25848,-9.05107 -0.51781,-1.99046 -0.36976,-2.19828 0.58384,-0.81954 0.82103,1.18706 2.47131,1.54752 4.61808,1.00871 3.28147,-0.82359 3.31191,-0.95054 1.72159,-7.18046 -1.55321,-6.08459 -1.81833,-6.34763 -6.53075,-6.47973 -2.70149,-0.0757 -4.9118,0.39254 -4.9118,1.04059 0,2.81668 7.08312,29.12509 7.6806,28.52761 0.36394,-0.36393 -0.0424,-3.53468 -0.90308,-7.04611 z m 50.22248,5.32726 c -2.01666,-0.3055 -5.31666,-0.3055 -7.33333,0 -2.01667,0.3055 -0.36667,0.55545 3.66667,0.55545 4.03333,0 5.68333,-0.24995 3.66666,-0.55545 z m -95.68708,-2.26722 c 0.0107,0.79445 0.92911,1.44445 2.03974,1.44445 1.1821,0 1.79401,-0.87527 1.47589,-2.11112 -3.82592,-14.86309 -3.76405,-14.72772 -6.14869,-13.4515 -1.28108,0.68561 -2.78266,0.81768 -3.33684,0.29348 -0.5542,-0.5242 -0.67134,0.24691 -0.26034,1.71358 3.5317,12.60264 4.1039,13.98572 5.12219,12.38084 0.62079,-0.9784 1.0964,-1.09418 1.10805,-0.26973 z m 80.20602,0.18419 c -2.46459,-0.78786 -7.56459,-4.3559 -11.33334,-7.92898 -7.89804,-7.48798 -14.35753,-11.75769 -9.0459,-5.97931 1.77012,1.92567 2.71525,4.10235 2.16666,4.98997 -0.72626,1.17511 -1.26372,1.11561 -2.11928,-0.23463 -0.84342,-1.33111 -1.15164,-1.36871 -1.16666,-0.14235 -0.0107,0.91667 -1.20159,1.66667 -2.64524,1.66667 -1.8049,0 -2.381,0.63537 -1.84428,2.03403 0.60189,1.56851 1.20261,1.68372 2.62481,0.5034 1.01436,-0.84184 1.84429,-1.172 1.84429,-0.7337 0,0.43831 1.46036,0.2417 3.24526,-0.43691 2.58168,-0.98155 4.27254,-0.5367 8.26934,2.17561 5.78222,3.92391 9.63714,5.64376 12.4854,5.57027 1.1,-0.0284 -0.0165,-0.69621 -2.48106,-1.48407 z m 156.37489,-18.45 c 4.76769,-3.75027 4.32363,-9.25404 -0.89383,-11.07815 -5.21469,-1.82315 -10.64877,0.41673 -12.28272,5.06283 -1.14209,3.24755 -0.88886,4.13985 1.79063,6.30958 4.03489,3.26726 6.95409,3.19181 11.38592,-0.29426 z M 234.71201,174.38996 c -15.78971,-0.68677 -48.2707,-4.25091 -70.57816,-7.74453 -25.07424,-3.92695 -23.53352,-3.83635 -22.57068,-1.32722 1.20502,3.14023 -2.54021,2.49662 -20.09496,-3.45326 -20.78733,-7.04551 -43.859186,-18.13216 -64.756203,-31.11709 -25.185338,-15.6496 -32.916714,-22.91873 -35.457194,-33.337257 -0.869864,-3.56732 0.081,-3.01136 10.918843,6.384087 43.855783,38.01908 90.538734,55.30192 168.538354,62.39582 20.84216,1.89554 81.96805,2.28497 111.96992,0.71333 11.35013,-0.59457 20.27433,-0.71876 19.83154,-0.27599 -1.70606,1.70607 -31.41857,6.03782 -50.16114,7.31292 -18.77931,1.27762 -26.84552,1.35367 -47.64032,0.44919 z m -44.33334,-21.28812 c -3.35622,-1.35427 -1.73294,-4.45029 2.33334,-4.45029 4.26094,0 4.99361,1.13972 2.4,3.73333 -1.7053,1.70529 -2.12603,1.76903 -4.73334,0.71696 z m 58.33334,-7.11696 c -1.34315,-0.86801 4.24008,-1.2992 17,-1.31292 11.79138,-0.0133 19,0.48545 19,1.31292 0,1.74352 -33.3021,1.74352 -36,0 z m 44.66666,0.23133 c 2.863,-2.81185 55.1111,-9.22178 52.59154,-6.45206 -1.4401,1.58308 -19.41542,4.6824 -31.92487,5.50452 -6.96667,0.45785 -14.76667,1.15298 -17.33333,1.54476 -3.06324,0.46756 -4.20855,0.26236 -3.33334,-0.59722 z M 82.378673,123.02422 c -3.338745,-1.61022 -3.996341,-3.70601 -1.162832,-3.70601 2.229672,0 11.496162,3.776 11.496162,4.68456 0,1.18239 -7.282656,0.49274 -10.33333,-0.97855 z m 10.14771,-14.2579 c -1.73124,-1.40354 -2.84771,-2.84294 -2.48104,-3.19865 0.99071,-0.96113 10.666657,3.17518 10.666657,4.55982 0,2.09585 -4.933337,1.2755 -8.185617,-1.36117 z M 60.639715,98.076073 c -8.723579,-5.75244 -12.864339,-9.360809 -10.781011,-9.394869 2.172887,-0.0355 15.500139,6.993049 20.186636,10.646099 l 3.333333,2.598277 -3.405625,0.0297 c -1.873095,0.0163 -6.073095,-1.72932 -9.333333,-3.879157 z M 103.712,91.221883 c -1.65,-0.63309 -3,-1.789229 -3,-2.569209 0,-2.5316 4.14861,-3.09061 6.37959,-0.85964 2.81898,2.818979 0.68192,4.987189 -3.37959,3.428849 z M 93.472043,87.469294 c -0.40187,-0.65024 0.16272,-1.92371 1.25464,-2.82992 1.57605,-1.30801 2.3946,-1.30801 3.97064,0 2.416677,2.00566 1.423807,4.01218 -1.98532,4.01218 -1.3801,0 -2.83809,-0.53202 -3.23996,-1.18226 z"
     id="path9803"
     inkscape:connector-curvature="0" />
</svg>
