<?xml version="1.0" encoding="UTF-8" standalone="no"?>
<!-- Created with Inkscape (http://www.inkscape.org/) -->

<svg
   xmlns:dc="http://purl.org/dc/elements/1.1/"
   xmlns:cc="http://creativecommons.org/ns#"
   xmlns:rdf="http://www.w3.org/1999/02/22-rdf-syntax-ns#"
   xmlns:svg="http://www.w3.org/2000/svg"
   xmlns="http://www.w3.org/2000/svg"
   xmlns:sodipodi="http://sodipodi.sourceforge.net/DTD/sodipodi-0.dtd"
   xmlns:inkscape="http://www.inkscape.org/namespaces/inkscape"
   version="1.1"
   id="svg8128"
   width="1000"
   height="171"
   viewBox="0 0 1000 171"
   sodipodi:docname="paint2.svg"
   inkscape:version="0.92.3 (2405546, 2018-03-11)">
  <metadata
     id="metadata8134">
    <rdf:RDF>
      <cc:Work
         rdf:about="">
        <dc:format>image/svg+xml</dc:format>
        <dc:type
           rdf:resource="http://purl.org/dc/dcmitype/StillImage" />
        <dc:title></dc:title>
      </cc:Work>
    </rdf:RDF>
  </metadata>
  <defs
     id="defs8132" />
  <sodipodi:namedview
     pagecolor="#ffffff"
     bordercolor="#666666"
     borderopacity="1"
     objecttolerance="10"
     gridtolerance="10"
     guidetolerance="10"
     inkscape:pageopacity="0"
     inkscape:pageshadow="2"
     inkscape:window-width="1366"
     inkscape:window-height="705"
     id="namedview8130"
     showgrid="false"
     inkscape:zoom="0.8624385"
     inkscape:cx="501.0719"
     inkscape:cy="-52.591825"
     inkscape:window-x="-8"
     inkscape:window-y="-8"
     inkscape:window-maximized="1"
     inkscape:current-layer="svg8128" />
  <path
     style="fill:#000000"
     d="m 498.5,166.92699 c -19.21155,-1.36011 -49.90086,-4.57826 -76.5,-8.02195 -12.925,-1.67335 -25.85089,-3.2983 -28.7242,-3.61099 -2.99623,-0.32607 -4.96856,-0.98216 -4.62477,-1.53842 0.36022,-0.58286 -0.25074,-0.70006 -1.53102,-0.29372 -2.72309,0.86427 -54.19842,-6.52603 -53.48587,-7.67896 0.29339,-0.47471 -0.51677,-0.60355 -1.80035,-0.2863 -1.28359,0.31724 -15.38379,-1.68792 -31.33379,-4.45592 -39.72222,-6.89348 -47.71278,-8.49462 -46.82471,-9.38269 0.42006,-0.42006 0.0133,-0.47578 -0.90388,-0.12382 -3.01136,1.15557 -75.2812,-15.05256 -78.30427,-17.56149 -0.63314,-0.52546 -1.37242,-0.73411 -1.64286,-0.46368 -0.27043,0.27043 -3.15403,-0.35349 -6.40799,-1.3865 -3.25396,-1.033 -11.99129,-3.75901 -19.41629,-6.05779 -12.87094,-3.98483 -19.24672,-6.298396 -16,-5.80588 0.825,0.12515 1.63642,-0.17821 1.80315,-0.674136 0.27798,-0.82682 -9.48865,-4.46929 -16.05315,-5.98704 -1.5125,-0.34969 -2.75,-0.998 -2.75,-1.44069 0,-1.51927 28.11061,3.12399 54,8.919636 7.425,1.66217 16.65,3.71204 20.5,4.55526 3.85,0.84322 7.675,1.79043 8.5,2.10492 0.825,0.31448 3.3,0.72764 5.5,0.91815 2.2,0.1905 4.15093,0.79887 4.33541,1.35192 0.18448,0.55306 0.73247,0.76017 1.21775,0.46024 0.48529,-0.29992 6.04997,0.16931 12.36594,1.04275 6.31598,0.87344 14.31799,1.45353 17.78225,1.28909 L 244.5,112.5 233,109.77161 c -6.325,-1.50062 -14.875,-3.38176 -19,-4.18032 -51.10075,-9.892596 -105.56538,-21.053526 -105.81461,-21.683596 -0.17303,-0.43744 -0.906,-0.5684 -1.62881,-0.29103 -1.59199,0.6109 -22.64649,-4.47467 -24.05658,-5.8107 -0.638021,-0.60452 -0.09505,-0.75366 1.5,-0.41203 3.07785,0.65924 25.12003,4.05766 26.5,4.08573 0.55,0.0112 0.8875,-0.54216 0.75,-1.22966 -0.15098,-0.75488 0.83927,-1.25607 2.5,-1.26532 2.14294,-0.0119 2.41887,-0.2293 1.25,-0.98468 -2.07855,-1.34327 -0.54641,-1.21846 7,0.5702 18.09335,4.28852 34.33894,7.02143 58.75,9.88321 6.98282,0.81861 6.83188,-0.95597 -0.21545,-2.53309 -3.00599,-0.67272 -5.21829,-1.62303 -4.91621,-2.1118 0.30647,-0.49589 -0.65873,-0.58551 -2.1837,-0.20276 -2.10038,0.52716 -2.54693,0.38495 -1.92928,-0.61443 0.5324,-0.86145 0.41081,-1.05756 -0.36025,-0.58102 -0.64015,0.39564 -8.92218,-1.09115 -18.40451,-3.30397 -21.24503,-4.95779 -32.63432,-6.93832 -72.7406,-12.64914 -17.325,-2.46695 -32.625,-4.91531 -34,-5.44081 -2.508968,-0.95888 32.618403,-0.56886 51.25,0.56903 5.06771,0.30951 8.75,0.14585 8.75,-0.38887 0,-1.42099 -9.684102,-2.92843 -30.329828,-4.72118 -23.575986,-2.0472 -27.824725,-3.36024 -22.920172,-7.08333 1.640936,-1.24565 1.625355,-1.33106 -0.25,-1.37056 -10.678928,-0.2249 -49.946096,-5.13425 -51.2149562,-6.40311 -0.34010743,-0.3401 -0.2802254,-0.95587 0.1330713,-1.36837 0.9004113,-0.89868 33.0237859,-0.70654 43.4505019,0.25989 8.521522,0.78984 9.290019,-0.8848 0.887788,-1.93459 -2.898514,-0.36215 -7.516961,-1.2745 -10.263215,-2.02746 -4.564039,-1.25135 -2.633936,-1.37669 22.45681,-1.45843 15.509631,-0.0505 27.036763,-0.46556 26.5,-0.95414 -0.955371,-0.86962 -14.135626,-4.70714 -26.718427,-7.77924 -3.722635,-0.90888 -6.590907,-1.83003 -6.373937,-2.047 0.68551,-0.68551 26.128173,2.86656 26.440311,3.69136 0.163871,0.43301 1.083393,0.58189 2.043381,0.33085 0.959989,-0.25104 7.090594,0.24455 13.623566,1.10131 6.532972,0.85677 12.047246,1.38864 12.253946,1.18194 0.20669,-0.20669 -2.57049,-1.85632 -6.171517,-3.66584 C 95.946295,25.139134 93,23.519224 93,23.348844 c 0,-0.17038 1.2375,-0.14489 2.75,0.0567 10.52376,1.40228 13.15813,1.93413 12.76122,2.57635 -0.24788,0.40108 0.5606,0.53592 1.79663,0.29964 1.23603,-0.23629 6.95991,0.25988 12.71974,1.10259 15.8177,2.31426 26.38863,3.09839 25.64961,1.90264 -0.34564,-0.55926 -2.32691,-1.26035 -4.40282,-1.55798 -8.75005,-1.2545 -28.89006,-4.86974 -30.27438,-5.4344 -0.825,-0.33652 -1.85816,-0.53352 -2.29591,-0.43779 -0.83857,0.18339 -16.528345,-2.67652 -43.20409,-7.8752 -8.8,-1.71497 -22.3,-4.2526105 -30,-5.6391805 -7.7,-1.38657 -15.0125,-3.00683 -16.25,-3.60058 -2.513456,-1.20595 -3.130959,-3.29362 -0.698062,-2.36003 0.889925,0.3415 1.291322,0.17385 0.940983,-0.39301 -1.664652,-2.69345995 29.436516,0.56804 77.772199,8.1557705 4.27081,0.67043 7.2785,1.51971 6.68375,1.88729 -0.59475,0.36757 0.63438,0.56415 2.7314,0.43683 2.09702,-0.12731 4.93933,0.19758 6.31625,0.72198 3.42621,1.30489 12.00348,1.80943 12.00348,0.70608 0,-0.49307 -0.70156,-0.89649 -1.55902,-0.89649 -0.92379,0 -1.26829,-0.47041 -0.84549,-1.15451 0.44426,-0.71883 0.27408,-0.88292 -0.45095,-0.43483 -1.24518,0.76957 -9.52527,-2.9595605 -11.28838,-5.0839805 -0.63152,-0.76093 1.82992,-0.29394 6.09271,1.15592 9.46638,3.2197305 21.83974,5.7552305 49.05113,10.0513505 50.2494,7.93336 77.1045,11.41909 99.5,12.91484 4.95,0.3306 11.925,0.85422 15.5,1.16359 7.8642,0.68054 7.0714,-0.7451 -1.4266,-2.56538 -8.03155,-1.72036 -14.88329,-4.73657 -14.00138,-6.16354 0.81217,-1.31411 5.7805,-0.99372 31.42798,2.02667 9.625,1.13349 22.45,2.50362 28.5,3.04472 6.05,0.54111 15.725,1.44778 21.5,2.01483 17.9997,1.76739 58.3689,4.91879 85.5,6.67451 38.14747,2.46862 119.59741,2.47248 152,0.007 16.78701,-1.2772 24.31193,-2.22083 25.0379,-3.13976 0.70556,-0.89309 2.49921,-1.14906 5.60145,-0.79939 2.50996,0.2829 13.88084,-0.70179 25.26864,-2.18821 11.38779,-1.48642 23.11272,-2.54991 26.05538,-2.36331 2.94266,0.1866 5.14066,0.002 4.88444,-0.41072 -0.25621,-0.4125 -1.22679,-0.7875 -2.15683,-0.83332 -0.93004,-0.0458 0.95852,-0.72447 4.19679,-1.5081 3.46863,-0.83938 6.34476,-1.06367 7,-0.54587 1.19661,0.94561 18.24867,-0.89456 20.34639,-2.19567 2.23793,-1.38809 47.56502,-6.80099 48.21013,-5.75719 0.37229,0.60238 2.79472,0.68164 6.299,0.2061 6.60069,-0.89573 7.1975,-0.64879 8.1786,3.38405 0.40141,1.65 2.42375,6.6 4.49409,11 5.60098,11.90348 15.50269,20.33164 28.08402,23.90459 7.33487,2.08302 15.08799,1.39344 26.37227,-2.34562 12.1311,-4.01964 35.83943,-9.59172 47.62773,-11.19375 11.62494,-1.57983 74.68705,-1.55402 101.89545,0.0417 22.47095,1.31788 24.43595,2.06832 24.91432,9.51488 0.51233,7.97543 -2.85828,10.24747 -25.31416,17.06349 -24.46307,7.42526 -62.51781,17.39193 -86.49561,22.65349 -9.68139,2.12444 -12.99481,2.31119 -42.5,2.39544 l -32,0.0914 -5.69221,2.73248 c -15.20999,7.301366 -24.74511,23.389836 -24.79301,41.832886 -0.008,3.13004 -0.40273,5.93075 -0.87688,6.22379 -1.24206,0.76764 -54.32067,7.50178 -62.6379,7.94694 -8.98162,0.48073 -60.6336,7.18249 -74.1677,9.62313 -5.79619,1.04526 -11.83561,2.78114 -13.71315,3.94152 -1.84537,1.1405 -4.56993,2.07365 -6.05457,2.07365 -2.7705,0 -2.8285,-0.4065 -0.82036,-5.75 0.59802,-1.59129 0.90418,-1.60621 -14.34838,0.69912 -7.09271,1.07203 -17.84584,2.44523 -23.89584,3.05155 -14.7247,1.47572 -71.7595,2.07608 -88,0.92631 z M 627.2,158.8 c -0.93333,-0.93333 -1.2,-0.66667 -1.2,1.2 0,1.86667 0.26667,2.13333 1.2,1.2 0.93333,-0.93333 0.93333,-1.46667 0,-2.4 z m -1.97928,-8.95433 c 3.70142,-2.36524 4.86092,-3.76392 5.37004,-6.47775 0.80387,-4.28499 -0.15143,-5.64466 -1.05988,-1.50852 -0.84038,3.82621 -2.92889,5.54072 -7.07226,5.80578 -7.24343,0.46339 -33.11572,3.39714 -35.45862,4.02078 -2.34181,0.62335 -2.27854,0.7018 1,1.23975 1.925,0.31586 10.025,0.4308 18,0.25541 14.17073,-0.31163 14.6072,-0.38737 19.22072,-3.33545 z m 80.50845,2.55016 c -0.33229,-0.33229 -1.1948,-0.36781 -1.91667,-0.0789 -0.79773,0.31922 -0.56078,0.55618 0.60417,0.60416 1.05416,0.0434 1.64479,-0.19293 1.3125,-0.52522 z m 8.76539,-3.38981 c 1.74457,-1.92774 1.61485,-3.5309 -3.90425,-48.25 -3.13983,-25.440816 -6.41082,-52.106016 -7.26888,-59.256016 -0.85805,-7.15 -2.14151,-13.61905 -2.85213,-14.37566 -1.02548,-1.09185 -3.11558,-1.20786 -10.13067,-0.56231 -7.2422,0.66645 -8.20646,0.9363 -5.33863,1.49402 1.925,0.37437 2.9375,0.7399 2.25,0.81231 -1.66768,0.17562 -1.59093,2.7343 0.13024,4.34212 0.98167,0.91702 1.11985,1.97419 0.4785,3.66106 -0.59564,1.56665 -0.51342,2.83961 0.24221,3.75009 0.90121,1.08589 0.74663,1.39512 -0.72851,1.45731 -1.05364,0.0444 -1.32583,0.29951 -0.62244,0.58334 0.6875,0.27741 1.25,1.14188 1.25,1.92105 0,0.77917 0.76101,1.41667 1.69113,1.41667 1.47465,0 1.44265,0.18793 -0.25,1.46819 -1.91559,1.44888 -1.91481,1.46954 0.0589,1.57029 1.93995,0.099 1.94215,0.12475 0.0731,0.85694 -1.90251,0.7453 -1.90251,0.76474 0,1.53705 1.8848,0.76511 1.8832,0.80016 -0.0731,1.60458 l -2,0.82238 2,0.14057 2,0.14057 -2.00003,0.85943 c -1.84722,0.79377 -1.80903,0.87241 0.5,1.02939 l 2.5,0.16997 -2.5,0.80064 c -1.87684,0.60107 -2.03327,0.82548 -0.62756,0.90032 1.5486,0.0824 1.65714,0.35911 0.62756,1.59968 -0.68469,0.825 -0.85229,1.50689 -0.37244,1.51531 0.47984,0.008 0.19744,0.45153 -0.62756,0.98469 -1.13489,0.73342 -0.64808,0.99736 2,1.08436 3.22,0.1058 3.3,0.17905 1,0.91564 -2.32363,0.74415 -2.25308,0.81476 1,1.00077 l 3.5,0.20013 -3.94065,0.92353 c -5.47425,1.28295 -5.89803,2.17974 -0.80935,1.71274 2.3375,-0.21451 4.25,-0.0406 4.25,0.3864 0,0.42703 -1.2375,0.82967 -2.75,0.89474 l -2.75,0.11832 3,0.76337 3,0.76337 -3,0.23663 -3,0.23663 3,0.76337 3,0.76337 -2.74373,0.11831 c -3.94907,0.17029 -3.27814,4.35301 0.84214,5.25 2.72119,0.59241 2.74616,0.63999 0.40159,0.76531 -1.375,0.0735 -3.175,0.60622 -4,1.18383 -1.21538,0.85092 -1.12051,0.94529 0.5,0.49737 1.62517,-0.44921 2.03031,-0.0398 2.16171,2.18449 0.0889,1.50553 -0.30366,3.29982 -0.87244,3.98732 -0.775,0.93675 -0.43962,1.2746 1.33829,1.34817 1.6041,0.0664 0.91507,0.53126 -2.12756,1.43543 l -4.5,1.33725 5.5,-0.44031 c 3.025,-0.24217 4.825,-0.17746 4,0.1438 -0.825,0.32126 -2.175,0.85046 -3,1.17599 -0.94493,0.37285 -0.20483,0.84989 2,1.28913 l 3.5,0.69725 -3.25,0.13165 c -3.6372,0.14732 -3.59703,0.0887 -2.33503,3.40799 1.5884,4.177796 2.01709,9.100576 0.90881,10.435976 -0.834,1.00491 -0.32811,1.30747 2.30378,1.37786 l 3.37244,0.0902 -3.5,1.07788 -3.5,1.07789 3,0.6203 c 2.87114,0.59366 2.89903,0.64797 0.64938,1.26462 -3.55276,0.97383 -1.59893,2.76336 3.15964,2.89393 l 4.19098,0.115 -3.76104,0.72938 c -5.44091,1.05515 -5.95005,2.22412 -0.70142,1.61044 L 704.5,118.04807 700,119.1964 c -2.61821,0.66812 -3.76819,1.316 -2.75,1.54929 2.13675,0.48958 2.33245,2.25432 0.25,2.25432 -0.825,0 -1.5,0.45 -1.5,1 0,0.55 0.72314,1 1.60699,1 1.01759,0 1.39587,0.55016 1.03138,1.5 -0.39805,1.03732 0.10874,1.54201 1.64301,1.63618 l 2.21862,0.13618 -2.25,0.43337 c -1.2375,0.23836 -2.25,0.78331 -2.25,1.21101 0,0.4277 1.0125,1.26594 2.25,1.86277 l 2.25,1.08513 -2.5,0.14663 c -1.59238,0.0934 -1.96191,0.35783 -1.01786,0.72839 2.13888,0.83955 4.02566,2.91921 3.30357,3.64129 -0.34047,0.34048 -0.18981,0.61905 0.33482,0.61905 0.52462,0 1.0297,1.00683 1.1224,2.23739 0.13063,1.73411 -0.0371,1.9047 -0.74556,0.75836 -0.69095,-1.11798 -1.19592,-1.1972 -2.0686,-0.32452 -1.24655,1.24655 -0.33734,3.69932 1.05281,2.84015 0.46387,-0.28668 0.72103,0.59344 0.57148,1.95583 -0.14956,1.36239 0.0238,2.2943 0.38526,2.07091 0.36144,-0.22338 1.31069,0.007 2.10943,0.51255 1.08427,0.68592 0.6921,0.95594 -1.54775,1.06566 -2.98427,0.14618 -2.98165,0.15081 0.5,0.88367 6.15231,1.295 8.63593,1.05977 10.49456,-0.99398 z m -9.68206,-3.68913 c 0.72187,-0.28887 1.58438,-0.25335 1.91667,0.0789 0.33229,0.33229 -0.25834,0.56864 -1.3125,0.52522 -1.16495,-0.048 -1.4019,-0.28494 -0.60417,-0.60416 z M 700.75,130.33772 c 0.6875,-0.27741 1.8125,-0.27741 2.5,0 0.6875,0.27741 0.125,0.50439 -1.25,0.50439 -1.375,0 -1.9375,-0.22698 -1.25,-0.50439 z m -4,-16 c 0.6875,-0.27741 1.8125,-0.27741 2.5,0 0.6875,0.27741 0.125,0.50439 -1.25,0.50439 -1.375,0 -1.9375,-0.22698 -1.25,-0.50439 z m 9.32895,-7.92105 c 0.048,-1.16495 0.28494,-1.4019 0.60416,-0.60417 0.28887,0.72187 0.25335,1.58437 -0.0789,1.91667 -0.33229,0.33229 -0.56864,-0.25834 -0.52522,-1.3125 z M 696.75,102.33772 c 0.6875,-0.27741 1.8125,-0.27741 2.5,0 0.6875,0.27741 0.125,0.50439 -1.25,0.50439 -1.375,0 -1.9375,-0.22698 -1.25,-0.50439 z M 696,99.940984 c 0,-0.58246 0.45,-0.7809 1,-0.44098 0.55,0.33992 1,0.816476 1,1.059016 0,0.24254 -0.45,0.44098 -1,0.44098 -0.55,0 -1,-0.47656 -1,-1.059016 z m 0.75,-2.60326 c 0.6875,-0.27742 1.8125,-0.27742 2.5,0 0.6875,0.27741 0.125,0.50438 -1.25,0.50438 -1.375,0 -1.9375,-0.22697 -1.25,-0.50438 z m -8.25,-67.41026 c 2.61077,-1.0272 7.25755,-1.13242 7.83727,-0.17746 0.25041,0.4125 -1.86053,0.79823 -4.69099,0.85717 -3.4391,0.0716 -4.48282,-0.15386 -3.14628,-0.67971 z m 3.3125,-2.61058 c 0.72187,-0.28887 1.58438,-0.25334 1.91667,0.0789 0.33229,0.33229 -0.25834,0.56864 -1.3125,0.52522 -1.16495,-0.048 -1.4019,-0.28494 -0.60417,-0.60416 z m 8.99915,118.748176 c 0.27416,-0.8225 -0.49232,-0.66517 -2.1952,0.45059 -1.43905,0.94291 -2.61645,2.1675 -2.61645,2.72133 0,1.29878 4.2568,-1.50738 4.81165,-3.17192 z M 701,137.53518 c 0,-1.25826 -4.82276,-2.74493 -11.07,-3.41244 -9.24809,-0.98816 -7.35716,0.75975 2.1076,1.94819 4.00449,0.50282 7.50923,1.14256 7.78831,1.42165 0.6338,0.63379 1.17409,0.6534 1.17409,0.0426 z m 26.69299,-5.26615 c -0.25354,-0.97297 -0.47766,-0.41903 -0.49804,1.23097 -0.0204,1.65 0.18706,2.44606 0.46099,1.76903 0.27392,-0.67703 0.29059,-2.02703 0.0371,-3 z M 722.66228,129.75 c -0.27741,-0.6875 -0.50439,-0.125 -0.50439,1.25 0,1.375 0.22698,1.9375 0.50439,1.25 0.27741,-0.6875 0.27741,-1.8125 0,-2.5 z M 696.5,131 c -0.33992,-0.55 -1.15398,-0.99311 -1.80902,-0.98469 -0.71561,0.009 -0.59227,0.40223 0.30902,0.98469 1.92112,1.24153 2.2673,1.24153 1.5,0 z m 30.20726,-6.23834 c -0.23919,-1.24391 -0.44398,-0.46166 -0.45508,1.73834 -0.0111,2.2 0.18461,3.21775 0.4349,2.26166 0.25029,-0.95609 0.25937,-2.75609 0.0202,-4 z m 28.98207,0.48834 c -0.25153,-0.9625 -0.45733,-0.175 -0.45733,1.75 0,1.925 0.2058,2.7125 0.45733,1.75 0.25152,-0.9625 0.25152,-2.5375 0,-3.5 z m -58.96016,3.14583 c -0.33229,-0.33229 -1.1948,-0.36781 -1.91667,-0.0789 -0.79773,0.31922 -0.56078,0.55618 0.60417,0.60416 1.05416,0.0434 1.64479,-0.19293 1.3125,-0.52522 z m 24.96382,-7.1268 c -0.25354,-0.97297 -0.47766,-0.41903 -0.49804,1.23097 -0.0204,1.65 0.18706,2.44606 0.46099,1.76903 0.27392,-0.67703 0.29059,-2.02703 0.0371,-3 z M 685,122.45455 c 0,-1.69156 -4.81457,-6.97331 -5.62121,-6.16667 -0.275,0.275 0.65227,1.65227 2.0606,3.0606 1.40834,1.40834 2.56061,3.03107 2.56061,3.60607 0,0.575 0.225,1.04545 0.5,1.04545 0.275,0 0.5,-0.69545 0.5,-1.54545 z m 74.27572,-3.22744 c 0.75345,-0.95224 0.59367,-1.11422 -0.63428,-0.64301 -0.90279,0.34643 -1.60591,1.59423 -1.56249,2.77289 0.0539,1.46274 0.25522,1.66686 0.63427,0.64301 0.30543,-0.825 1.00855,-2.0728 1.5625,-2.77289 z m -4.58273,-1.95808 c -0.25354,-0.97297 -0.47766,-0.41903 -0.49804,1.23097 -0.0204,1.65 0.18706,2.44606 0.46099,1.76903 0.27392,-0.67703 0.29059,-2.02703 0.0371,-3 z m -29,-1 c -0.25354,-0.97297 -0.47766,-0.41903 -0.49804,1.23097 -0.0204,1.65 0.18706,2.44606 0.46099,1.76903 0.27392,-0.67703 0.29059,-2.02703 0.0371,-3 z M 720.68933,113.25 c -0.25153,-0.9625 -0.45733,-0.175 -0.45733,1.75 0,1.925 0.2058,2.7125 0.45733,1.75 0.25152,-0.9625 0.25152,-2.5375 0,-3.5 z m -3.14943,-5 c -0.3812,-3.7125 -2.2511,-18.899996 -4.15532,-33.749996 -6.19549,-48.31522 -6.20108,-48.41104 -2.7494,-47.0865 0.89007,0.34155 2.22373,0.11855 2.96369,-0.49556 1.12472,-0.93343 1.11564,-1.34629 -0.0553,-2.51725 -1.97462,-1.97462 -2.78584,-1.73944 -2.04555,0.59301 0.48576,1.53049 0.26908,1.85415 -0.93261,1.39302 C 709.70443,26.056334 709,25.159164 709,24.393014 c 0,-0.76616 -0.71069,-1.39301 -1.57932,-1.39301 -1.89747,0 -2.10668,-2.30644 4.66904,51.47418 C 714.79037,95.909994 717,113.79749 717,114.22419 c 0,0.42669 0.27742,0.77581 0.6165,0.77581 0.33907,0 0.3046,-3.0375 -0.0766,-6.75 z M 601,112.97697 c 19.70958,-1.36369 19.74237,-1.37226 19.20742,-5.01709 -0.53805,-3.66598 0.61352,-3.64704 -27.70742,-0.4555 -12.1,1.36358 -27.625,2.7454 -34.5,3.07072 -6.875,0.32532 -13.175,0.86483 -14,1.19892 -4.9532,2.0058 33.62811,2.82004 57,1.20295 z m 123.69299,-3.70794 c -0.25354,-0.97297 -0.47766,-0.41903 -0.49804,1.23097 -0.0204,1.65 0.18706,2.44606 0.46099,1.76903 0.27392,-0.67703 0.29059,-2.02703 0.0371,-3 z m 29,0 c -0.25354,-0.97297 -0.47766,-0.41903 -0.49804,1.23097 -0.0204,1.65 0.18706,2.44606 0.46099,1.76903 0.27392,-0.67703 0.29059,-2.02703 0.0371,-3 z M 671.5,111 c -0.33992,-0.55 -1.82898,-0.95514 -3.30902,-0.90032 l -2.69098,0.0997 2.5,0.80064 c 3.54948,1.13674 4.20255,1.13674 3.5,0 z m 69.591,-0.10412 c 4.62495,-0.60727 8.69623,-1.39477 9.04728,-1.75 0.35106,-0.35524 0.0421,-5.37088 -0.68653,-11.145876 -0.72866,-5.775 -2.05328,-16.35 -2.94361,-23.5 -0.89033,-7.15 -2.26145,-17.5 -3.04694,-23 -0.78549,-5.5 -1.72516,-14.1625 -2.08816,-19.25 -0.64009,-8.97104 -0.59593,-9.25 1.46443,-9.25 2.48528,0 2.66469,0.63942 4.06828,14.5 1.27217,12.56276 7.91976,65.226716 8.61496,68.249996 0.37228,1.61892 1.24172,2.25 3.09983,2.25 h 2.58244 l -0.65387,-7.25 c -0.35962,-3.987496 -1.28803,-11.974996 -2.06313,-17.749996 -0.77509,-5.775 -1.65153,-13.2 -1.94764,-16.5 -0.52789,-5.88296 -1.76362,-16.26865 -2.11197,-17.75 -0.097,-0.4125 -0.23262,-1.89084 -0.30137,-3.28519 -0.10962,-2.22324 -0.37363,-2.40212 -2.14567,-1.45375 -2.24301,1.20042 -3.97933,0.56877 -3.97933,-1.44764 0,-1.92171 2.6594,-3.92354 3.46999,-2.61198 1.76295,2.85252 2.00097,0.0584 0.86901,-10.20144 -0.68266,-6.1875 -1.26321,-11.3625 -1.2901,-11.5 -0.0269,-0.1375 -1.3989,-0.25 -3.0489,-0.25 -2.33333,0 -3,0.44444 -3,2 0,1.45988 -0.66667,2 -2.46862,2 -1.78348,0 -2.30886,-0.41631 -1.89301,-1.5 0.68598,-1.78762 -0.30804,-1.79963 -13.61241,-0.16443 -8.49955,1.04465 -9.59987,1.41756 -10.69738,3.62537 -0.67284,1.35352 -0.8566,2.92852 -0.40837,3.5 0.44823,0.57148 1.32682,4.63906 1.95242,9.03906 1.80599,12.70198 7.21861,56.38121 7.83779,63.25 0.30987,3.437496 0.93767,6.249996 1.39511,6.249996 0.45743,0 0.57268,0.675 0.2561,1.5 -0.93823,2.44497 0.40804,4.5 2.94798,4.5 1.30481,0 6.15643,-0.49686 10.78139,-1.10412 z m 15.36788,-6.96241 c -0.36253,-0.58659 -0.44468,-1.281 -0.18255,-1.54313 0.26212,-0.26213 0.74306,0.21781 1.06875,1.06653 0.67618,1.76211 0.0998,2.07206 -0.8862,0.4766 z m -1.37993,-11.516806 c 0.048,-1.16494 0.28494,-1.4019 0.60416,-0.60416 0.28887,0.72187 0.25335,1.58437 -0.0789,1.91666 -0.33229,0.33229 -0.56864,-0.25833 -0.52522,-1.3125 z m 1,-13 c 0.048,-1.16494 0.28494,-1.4019 0.60416,-0.60416 0.28887,0.72187 0.25335,1.58437 -0.0789,1.91666 -0.33229,0.33229 -0.56864,-0.25833 -0.52522,-1.3125 z m -11,-1 c 0.048,-1.16494 0.28494,-1.4019 0.60416,-0.60416 0.28887,0.72187 0.25335,1.58437 -0.0789,1.91666 -0.33229,0.33229 -0.56864,-0.25833 -0.52522,-1.3125 z m -21,-21 c 0.048,-1.16494 0.28494,-1.4019 0.60416,-0.60416 0.28887,0.72187 0.25335,1.58437 -0.0789,1.91666 -0.33229,0.33229 -0.56864,-0.25833 -0.52522,-1.3125 z m 25.03705,-8.63148 c -0.0638,-0.94315 0.784,-2.19648 1.884,-2.78518 1.35599,-0.72571 2,-0.73704 2,-0.0352 0,0.56934 -0.642,1.03518 -1.42668,1.03518 -0.78467,0 -1.63247,0.7875 -1.88399,1.75 -0.42184,1.61422 -0.46633,1.61695 -0.57333,0.0352 z M 722.68311,107.8125 c -0.31922,-0.79773 -0.55618,-0.56078 -0.60416,0.60417 -0.0434,1.05416 0.19293,1.64479 0.52522,1.3125 0.33229,-0.3323 0.36781,-1.1948 0.0789,-1.91667 z m -2.99012,-2.54347 c -0.25354,-0.97297 -0.47766,-0.41903 -0.49804,1.23097 -0.0204,1.65 0.18706,2.44606 0.46099,1.76903 0.27392,-0.67703 0.29059,-2.02703 0.0371,-3 z m -98.7532,-6.868656 c -0.60104,-4.3452 -1.5507,-9.10826 -2.11036,-10.58458 l -1.01756,-2.6842 -12.65594,0.56001 c -17.27124,0.76422 -17.89696,2.3084 -0.93539,2.3084 h 13.62055 l 0.51512,2.75 c 0.28332,1.5125 0.7947,5 1.13641,7.75 0.71635,5.764936 1.50571,8.834996 2.11498,8.225736 0.23374,-0.23374 -0.0668,-3.98016 -0.66781,-8.325366 z M 752.68933,102.25 c -0.25153,-0.9625 -0.45733,-0.175 -0.45733,1.75 0,1.925 0.2058,2.7125 0.45733,1.75 0.25152,-0.9625 0.25152,-2.5375 0,-3.5 z m -29,-2 c -0.25153,-0.962496 -0.45733,-0.175 -0.45733,1.75 0,1.925 0.2058,2.7125 0.45733,1.75 0.25152,-0.9625 0.25152,-2.5375 0,-3.5 z m -2.02705,0.5 c -0.27741,-0.6875 -0.50439,-0.125 -0.50439,1.25 0,1.375 0.22698,1.9375 0.50439,1.25 0.27741,-0.6875 0.27741,-1.8125 0,-2.5 z m -46.24407,1.64301 c 0.86999,-0.33384 1.58179,-1.32384 1.58179,-2.2 0,-1.239006 -0.26667,-1.326346 -1.2,-0.393006 -0.66,0.659996 -3.4725,1.253236 -6.25,1.318306 -4.38889,0.10283 -4.65726,0.21825 -2.05,0.88169 4.01273,1.02107 6.02168,1.12078 7.91821,0.39301 z m 43.27478,-5.123976 c -0.25354,-0.97297 -0.47766,-0.41903 -0.49804,1.23097 -0.0204,1.649996 0.18706,2.446056 0.46099,1.769026 0.27392,-0.677026 0.29059,-2.027026 0.0371,-2.999996 z m 32.99634,-3.01903 c -0.25153,-0.9625 -0.45733,-0.175 -0.45733,1.75 0,1.925 0.2058,2.7125 0.45733,1.75 0.25152,-0.9625 0.25152,-2.5375 0,-3.5 z m -28.99634,-1.98097 c -0.25354,-0.97297 -0.47766,-0.41903 -0.49804,1.23097 -0.0204,1.65 0.18706,2.44606 0.46099,1.76903 0.27392,-0.67703 0.29059,-2.02703 0.0371,-3 z m -2.03071,-0.51903 c -0.27741,-0.6875 -0.50439,-0.125 -0.50439,1.25 0,1.375 0.22698,1.9375 0.50439,1.25 0.27741,-0.6875 0.27741,-1.8125 0,-2.5 z m -2.96929,-1.48097 c -0.25354,-0.97297 -0.47766,-0.41903 -0.49804,1.23097 -0.0204,1.65 0.18706,2.44606 0.46099,1.76903 0.27392,-0.67703 0.29059,-2.02703 0.0371,-3 z M 676,90.500004 c 0,-0.825 -0.17686,-1.5 -0.39301,-1.5 -0.21616,0 -0.65203,0.675 -0.96862,1.5 -0.31658,0.825 -0.13972,1.5 0.39301,1.5 0.53274,0 0.96862,-0.675 0.96862,-1.5 z m 74.68933,-4.25 c -0.25153,-0.9625 -0.45733,-0.175 -0.45733,1.75 0,1.925 0.2058,2.7125 0.45733,1.75 0.25152,-0.9625 0.25152,-2.5375 0,-3.5 z m -28.99634,-1.98097 c -0.25354,-0.97297 -0.47766,-0.41903 -0.49804,1.23097 -0.0204,1.65 0.18706,2.44606 0.46099,1.76903 0.27392,-0.67703 0.29059,-2.02703 0.0371,-3 z m -2.03071,-0.51903 c -0.27741,-0.6875 -0.50439,-0.125 -0.50439,1.25 0,1.375 0.22698,1.9375 0.50439,1.25 0.27741,-0.6875 0.27741,-1.8125 0,-2.5 z m -43.10048,0.35 c -0.30592,-0.495 -2.19873,-0.9 -4.20623,-0.9 -2.50238,0 -3.21069,0.27816 -2.25278,0.88468 1.83545,1.16218 7.17564,1.17484 6.45901,0.0153 z m 40.10048,-2.35 c -0.27741,-0.6875 -0.50439,-0.125 -0.50439,1.25 0,1.375 0.22698,1.9375 0.50439,1.25 0.27741,-0.6875 0.27741,-1.8125 0,-2.5 z m 33.02705,-3.5 c -0.25153,-0.9625 -0.45733,-0.175 -0.45733,1.75 0,1.925 0.2058,2.7125 0.45733,1.75 0.25152,-0.9625 0.25152,-2.5375 0,-3.5 z m -29,-2 c -0.25153,-0.9625 -0.45733,-0.175 -0.45733,1.75 0,1.925 0.2058,2.7125 0.45733,1.75 0.25152,-0.9625 0.25152,-2.5375 0,-3.5 z m -599.96016,3.14583 c -0.3323,-0.33229 -1.1948,-0.36782 -1.91667,-0.0789 -0.79773,0.31923 -0.56078,0.55618 0.60417,0.60417 1.05416,0.0434 1.64479,-0.19293 1.3125,-0.52522 z m 597.96382,-3.1268 c -0.25354,-0.97297 -0.47766,-0.41903 -0.49804,1.23097 -0.0204,1.65 0.18706,2.44606 0.46099,1.76903 0.27392,-0.67703 0.29059,-2.02703 0.0371,-3 z M 669.5,78.000004 c -0.33992,-0.55 -2.27898,-0.93615 -4.30902,-0.8581 l -3.69098,0.14191 4,0.71619 c 2.2,0.3939 4.13906,0.78004 4.30902,0.85809 0.16996,0.0781 0.0309,-0.30809 -0.30902,-0.85809 z m 46.19299,-3.73097 c -0.25354,-0.97297 -0.47766,-0.41903 -0.49804,1.23097 -0.0204,1.65 0.18706,2.44606 0.46099,1.76903 0.27392,-0.67703 0.29059,-2.02703 0.0371,-3 z m 32.99634,-4.01903 c -0.25153,-0.9625 -0.45733,-0.175 -0.45733,1.75 0,1.925 0.2058,2.7125 0.45733,1.75 0.25152,-0.9625 0.25152,-2.5375 0,-3.5 z m -28.99634,-0.98097 c -0.25354,-0.97297 -0.47766,-0.41903 -0.49804,1.23097 -0.0204,1.65 0.18706,2.44606 0.46099,1.76903 0.27392,-0.67703 0.29059,-2.02703 0.0371,-3 z m -2.03071,-0.51903 c -0.27741,-0.6875 -0.50439,-0.125 -0.50439,1.25 0,1.375 0.22698,1.9375 0.50439,1.25 0.27741,-0.6875 0.27741,-1.8125 0,-2.5 z m -2.96929,-2.48097 c -0.25354,-0.97297 -0.47766,-0.41903 -0.49804,1.23097 -0.0204,1.65 0.18706,2.44606 0.46099,1.76903 0.27392,-0.67703 0.29059,-2.02703 0.0371,-3 z M 666.25,65.325574 c -1.2375,-0.86323 -2.28553,-2.30213 -2.32895,-3.19755 -0.0545,-1.12285 -0.24144,-1.22219 -0.60262,-0.32016 -0.58754,1.46737 2.39668,5.22063 4.08656,5.13968 0.60225,-0.0288 0.0825,-0.75873 -1.15499,-1.62197 z m 81.44299,-2.05654 c -0.25354,-0.97297 -0.47766,-0.41903 -0.49804,1.23097 -0.0204,1.65 0.18706,2.44606 0.46099,1.76903 0.27392,-0.67703 0.29059,-2.02703 0.0371,-3 z m -31,-2 c -0.25354,-0.97297 -0.47766,-0.41903 -0.49804,1.23097 -0.0204,1.65 0.18706,2.44606 0.46099,1.76903 0.27392,-0.67703 0.29059,-2.02703 0.0371,-3 z m 2,0 c -0.25354,-0.97297 -0.47766,-0.41903 -0.49804,1.23097 -0.0204,1.65 0.18706,2.44606 0.46099,1.76903 0.27392,-0.67703 0.29059,-2.02703 0.0371,-3 z m 81.60369,-0.80046 c 1.41648,-1.94618 1.49761,-2.46857 0.38336,-2.46857 -2.03925,0 -11.88218,-4.09268 -13.85838,-5.7623 -1.02466,-0.86571 -2.58256,-1.16261 -4,-0.76233 -1.68973,0.47718 -1.93377,0.38815 -0.89657,-0.3271 1.16443,-0.80298 0.89007,-1.4363 -1.5,-3.46247 -1.6088,-1.36386 -3.99567,-3.41676 -5.30417,-4.56201 -2.8738,-2.51528 -4.56882,-1.83684 -2.96536,1.18689 4.49218,8.47117 14.34083,17.20753 18.50314,16.41342 1.49995,-0.28617 2.00134,-0.002 1.64302,0.93202 -0.36991,0.96397 0.43331,1.33499 2.84129,1.31245 2.39485,-0.0224 3.87194,-0.73894 5.15367,-2.5 z m 15.66597,-0.58561 c 2.45725,-1.35225 2.774,-1.73212 1.03735,-1.24409 -1.375,0.3864 -5.0875,0.66614 -8.25,0.62164 -3.1625,-0.0445 -5.75,0.28655 -5.75,0.73567 0,0.44912 0.9,0.58122 2,0.29357 2.17236,-0.56809 2.78675,1.17548 0.75,2.12842 -0.6875,0.32166 0.53319,0.32082 2.71265,-0.002 2.17946,-0.32269 5.55446,-1.4627 7.5,-2.53334 z m -760.233483,1.51287 c -0.332292,-0.33229 -1.194792,-0.36782 -1.916667,-0.0789 -0.797733,0.31923 -0.560776,0.55618 0.604167,0.60417 1.054166,0.0434 1.644791,-0.19293 1.3125,-0.52522 z m 657.933113,-2.64583 c -0.27741,-0.6875 -0.50439,-0.125 -0.50439,1.25 0,1.375 0.22698,1.9375 0.50439,1.25 0.27741,-0.6875 0.27741,-1.8125 0,-2.5 z m 249.31766,1.72583 c -0.69572,-0.83829 -1.52528,-1.26382 -1.84348,-0.94563 -0.3182,0.3182 0.0834,0.99718 0.8925,1.50886 2.11697,1.33881 2.39358,1.17499 0.95098,-0.56323 z M 975.75,58.406584 c 2.87935,-3.22246 2.8359,-4.91159 -0.20455,-7.95204 -3.46372,-3.46372 -7.89151,-3.26233 -11.68533,0.53149 -2.50539,2.50539 -2.87817,2.6462 -2.31594,0.87477 0.40834,-1.28655 0.28477,-1.87312 -0.31634,-1.50162 -1.31528,0.81289 -2.27671,4.64082 -1.16561,4.64082 0.48125,0 0.58765,0.74882 0.23645,1.66404 -0.39784,1.03674 -0.24023,1.41787 0.41807,1.01101 0.58115,-0.35917 1.6545,0.0674 2.38523,0.94782 3.31227,3.99105 8.97518,3.89421 12.64802,-0.21629 z m -149.48214,-0.23678 c 3.17232,-0.99041 5.42232,-2.17523 5,-2.63293 -0.42232,-0.45769 0.27744,-0.57428 1.55502,-0.25908 1.27759,0.31519 5.97471,-0.51996 10.43805,-1.85589 10.28624,-3.07881 32.77257,-7.41092 38.70824,-7.45734 2.49195,-0.0195 5.65583,-0.68932 7.03083,-1.48851 2.36461,-1.37438 2.22921,-1.42083 -2.5,-0.85755 -2.75,0.32754 -7.29908,0.53035 -10.10906,0.45069 -7.28538,-0.20653 -25.40941,3.72727 -35.39094,7.68156 -0.825,0.32683 -2.55051,0.71758 -3.83447,0.86832 -4.15451,0.48777 -14.9798,4.45221 -16.21229,5.93727 -1.47756,1.78034 -1.6711,1.79442 5.31462,-0.38654 z m -79.57853,-3.9198 c -0.25153,-0.9625 -0.45733,-0.175 -0.45733,1.75 0,1.925 0.2058,2.7125 0.45733,1.75 0.25152,-0.9625 0.25152,-2.5375 0,-3.5 z m -28.99634,-0.98097 c -0.25354,-0.97297 -0.47766,-0.41903 -0.49804,1.23097 -0.0204,1.65 0.18706,2.44606 0.46099,1.76903 0.27392,-0.67703 0.29059,-2.02703 0.0371,-3 z m -2,-1 c -0.25354,-0.97297 -0.47766,-0.41903 -0.49804,1.23097 -0.0204,1.65 0.18706,2.44606 0.46099,1.76903 0.27392,-0.67703 0.29059,-2.02703 0.0371,-3 z M 665.5,54.000004 c -0.33992,-0.55 -1.60398,-0.95515 -2.80902,-0.90032 -2.03959,0.0928 -2.01824,0.155 0.30902,0.90032 1.375,0.44035 2.63906,0.84549 2.80902,0.90032 0.16996,0.0548 0.0309,-0.35032 -0.30902,-0.90032 z m 47.19299,-3.73097 c -0.25354,-0.97297 -0.47766,-0.41903 -0.49804,1.23097 -0.0204,1.65 0.18706,2.44606 0.46099,1.76903 0.27392,-0.67703 0.29059,-2.02703 0.0371,-3 z m -95.74205,-5.67322 c -0.97438,-6.04015 -0.96698,-7.87156 0.0367,-9.08093 1.02898,-1.23984 0.9821,-1.51488 -0.25821,-1.51488 -2.36488,0 -2.86094,2.74237 -1.69736,9.38341 1.31683,7.5157 2.00156,9.91629 2.64497,9.27288 0.27194,-0.27194 -0.0548,-3.89915 -0.7261,-8.06048 z m 128.73839,1.65419 c -0.25153,-0.9625 -0.45733,-0.175 -0.45733,1.75 0,1.925 0.2058,2.7125 0.45733,1.75 0.25152,-0.9625 0.25152,-2.5375 0,-3.5 z M 665.038,45.928994 c 1.09429,-2.0447 1.07251,-2.04854 -1.71482,-0.30266 -1.55275,0.97259 -3.01068,1.90454 -3.23985,2.07101 -0.22916,0.16646 0.5425,0.30266 1.71482,0.30266 1.17232,0 2.63025,-0.93196 3.23985,-2.07101 z m 49.62428,-1.17899 c -0.27741,-0.6875 -0.50439,-0.125 -0.50439,1.25 0,1.375 0.22698,1.9375 0.50439,1.25 0.27741,-0.6875 0.27741,-1.8125 0,-2.5 z m 2,0 c -0.27741,-0.6875 -0.50439,-0.125 -0.50439,1.25 0,1.375 0.22698,1.9375 0.50439,1.25 0.27741,-0.6875 0.27741,-1.8125 0,-2.5 z m -4.96929,-2.48097 c -0.25354,-0.97297 -0.47766,-0.41903 -0.49804,1.23097 -0.0204,1.65 0.18706,2.44606 0.46099,1.76903 0.27392,-0.67703 0.29059,-2.02703 0.0371,-3 z m 184.79906,2.73399 c 1.44224,-0.54834 2.40254,-0.64149 2.13401,-0.207 -0.60273,0.97525 12.11817,0.24761 14.87394,-0.85078 1.14686,-0.45711 -2.56522,-0.7221 -8.70211,-0.6212 -7.01659,0.11536 -11.13185,0.60642 -11.95,1.42596 -1.55299,1.55561 -0.0554,1.65959 3.64416,0.25302 z M 951.5,43.500134 c 0.55,-0.18823 -5.975,-0.34614 -14.5,-0.3509 -8.525,-0.005 -16.4,0.34872 -17.5,0.78552 -1.86835,0.74191 29.81982,0.31152 32,-0.43462 z m -206.79274,-4.73847 c -0.23919,-1.24392 -0.44398,-0.46166 -0.45508,1.73834 -0.0111,2.2 0.18461,3.21774 0.4349,2.26166 0.25029,-0.95609 0.25937,-2.75609 0.0202,-4 z m -29.01427,-1.49263 c -0.25354,-0.97297 -0.47766,-0.41903 -0.49804,1.23097 -0.0204,1.65 0.18706,2.44606 0.46099,1.76903 0.27392,-0.67703 0.29059,-2.02703 0.0371,-3 z m -2.03071,-0.51903 c -0.27741,-0.6875 -0.50439,-0.125 -0.50439,1.25 0,1.375 0.22698,1.9375 0.50439,1.25 0.27741,-0.6875 0.27741,-1.8125 0,-2.5 z m -44.11784,-0.67809 c -0.3607,-0.58364 -1.64326,-1.57465 -2.85013,-2.20225 -2.09205,-1.08792 -2.08151,-1.01846 0.2263,1.49068 2.30293,2.50382 4.01916,2.96926 2.62383,0.71157 z m 41.11784,-1.32191 c -0.27741,-0.6875 -0.50439,-0.125 -0.50439,1.25 0,1.375 0.22698,1.9375 0.50439,1.25 0.27741,-0.6875 0.27741,-1.8125 0,-2.5 z m -626.933113,1.64583 c -0.332292,-0.33229 -1.194792,-0.36782 -1.916667,-0.0789 -0.797733,0.31923 -0.560776,0.55618 0.604167,0.60417 1.054166,0.0434 1.644791,-0.19293 1.3125,-0.52522 z m 659.963823,-5.1268 c -0.25354,-0.97297 -0.47766,-0.41903 -0.49804,1.23097 -0.0204,1.65 0.18706,2.44606 0.46099,1.76903 0.27392,-0.67703 0.29059,-2.02703 0.0371,-3 z m -29,-1 c -0.25354,-0.97297 -0.47766,-0.41903 -0.49804,1.23097 -0.0204,1.65 0.18706,2.44606 0.46099,1.76903 0.27392,-0.67703 0.29059,-2.02703 0.0371,-3 z m -2.03071,-0.51903 c -0.27741,-0.6875 -0.50439,-0.125 -0.50439,1.25 0,1.375 0.22698,1.9375 0.50439,1.25 0.27741,-0.6875 0.27741,-1.8125 0,-2.5 z M 109.8125,76.316884 c 0.72187,-0.28887 1.58437,-0.25334 1.91667,0.0789 0.33229,0.33229 -0.25834,0.56864 -1.3125,0.52522 -1.16495,-0.048 -1.4019,-0.28494 -0.60417,-0.60416 z m -5,-1 c 0.72187,-0.28887 1.58437,-0.25334 1.91667,0.0789 0.33229,0.33229 -0.25834,0.56864 -1.3125,0.52522 -1.16495,-0.048 -1.4019,-0.28494 -0.60417,-0.60416 z m -5,-1 c 0.72187,-0.28887 1.58437,-0.25334 1.91667,0.0789 0.33229,0.33229 -0.25834,0.56864 -1.3125,0.52522 -1.164946,-0.048 -1.401903,-0.28494 -0.60417,-0.60416 z m -5,-1 c 0.721875,-0.28887 1.584375,-0.25334 1.916667,0.0789 0.332291,0.33229 -0.258334,0.56864 -1.3125,0.52522 -1.164943,-0.048 -1.4019,-0.28494 -0.604167,-0.60416 z"
     id="path9248"
     inkscape:connector-curvature="0" />
</svg>
