<?xml version="1.0" encoding="UTF-8" standalone="no"?>
<!-- Created with Inkscape (http://www.inkscape.org/) -->

<svg
   xmlns:dc="http://purl.org/dc/elements/1.1/"
   xmlns:cc="http://creativecommons.org/ns#"
   xmlns:rdf="http://www.w3.org/1999/02/22-rdf-syntax-ns#"
   xmlns:svg="http://www.w3.org/2000/svg"
   xmlns="http://www.w3.org/2000/svg"
   xmlns:sodipodi="http://sodipodi.sourceforge.net/DTD/sodipodi-0.dtd"
   xmlns:inkscape="http://www.inkscape.org/namespaces/inkscape"
   version="1.1"
   id="svg14243"
   width="813"
   height="236"
   viewBox="0 0 813 236"
   sodipodi:docname="paint brush.svg"
   inkscape:version="0.92.3 (2405546, 2018-03-11)">
  <metadata
     id="metadata14249">
    <rdf:RDF>
      <cc:Work
         rdf:about="">
        <dc:format>image/svg+xml</dc:format>
        <dc:type
           rdf:resource="http://purl.org/dc/dcmitype/StillImage" />
        <dc:title></dc:title>
      </cc:Work>
    </rdf:RDF>
  </metadata>
  <defs
     id="defs14247" />
  <sodipodi:namedview
     pagecolor="#ffffff"
     bordercolor="#666666"
     borderopacity="1"
     objecttolerance="10"
     gridtolerance="10"
     guidetolerance="10"
     inkscape:pageopacity="0"
     inkscape:pageshadow="2"
     inkscape:window-width="1366"
     inkscape:window-height="705"
     id="namedview14245"
     showgrid="false"
     inkscape:zoom="0.48831488"
     inkscape:cx="406.5"
     inkscape:cy="118"
     inkscape:window-x="-8"
     inkscape:window-y="-8"
     inkscape:window-maximized="1"
     inkscape:current-layer="svg14243" />
  <path
     style="fill:#000000"
     d="m 400.04786,238.14358 c -1.10525,-0.71427 -0.44734,-0.96937 2.5,-0.96937 2.94734,0 3.60525,0.2551 2.5,0.96937 -0.825,0.53316 -1.95,0.96937 -2.5,0.96937 -0.55,0 -1.675,-0.43621 -2.5,-0.96937 z m 10,-0.96482 c 0,-2.0827 4.29958,-3.2282 9.62125,-2.5633 7.08885,0.8857 7.00697,2.74854 -0.10634,2.41904 -3.01679,-0.13974 -5.79179,0.0526 -6.16666,0.4275 -1.01892,1.01892 -3.34825,0.82187 -3.34825,-0.28324 z m -46.73276,-2.13758 c -0.12827,-1.70277 0.25896,-1.99049 2.0372,-1.51365 1.20756,0.32381 2.58816,0.59489 3.068,0.6024 0.47985,0.008 0.31225,0.68865 -0.37244,1.51365 -1.83018,2.20523 -4.54732,1.85938 -4.73276,-0.6024 z m 20.73276,0.6024 c 0,-0.99782 0.92067,-1.46116 2.75,-1.384 1.6919,0.0714 2.07666,0.29196 1,0.57333 -0.9625,0.25152 -1.75,0.87432 -1.75,1.38399 0,0.50968 -0.45,0.92668 -1,0.92668 -0.55,0 -1,-0.675 -1,-1.5 z m -33.78183,-0.6545 c 0.51903,-1.5571 2.75625,-1.82979 2.83465,-0.3455 0.029,0.55 -0.69777,1.15548 -1.61517,1.3455 -1.04271,0.21599 -1.49986,-0.15888 -1.21948,-1 z m -7.48135,-1.08895 c -0.31334,-0.81656 0.22146,-1.32798 1.3887,-1.32798 1.04406,0 1.75231,0.43795 1.57388,0.97322 -0.52347,1.57041 -2.40943,1.79625 -2.96258,0.35476 z m 89.26318,-1.14231 c 2.88617,-1.56476 5.44273,-2.25556 7.12872,-1.92623 1.4458,0.28241 2.93485,0.0181 3.30902,-0.58727 0.37416,-0.60541 1.13029,-1.10074 1.68029,-1.10074 0.55,0 0.74315,0.41559 0.42922,0.92354 -0.65693,1.06294 -8.40393,3.65515 -13.54725,4.53302 l -3.5,0.59739 z m -114.80902,0.53608 c -3.5076,-0.98789 -2.16383,-2.69745 1.80902,-2.30146 4.20688,0.41932 4.92921,0.95182 2.97104,2.1902 -1.62657,1.02868 -1.53062,1.02644 -4.78006,0.11126 z m 140.61445,0.12957 c -3.11783,-0.7455 -0.78605,-3.27805 3.05156,-3.31431 2.00365,-0.0189 7.01801,-1.36728 11.14301,-2.99633 4.125,-1.62904 8.8725,-2.96355 10.55,-2.96558 1.6775,-0.002 3.51907,-0.47274 4.09238,-1.04605 0.72318,-0.72318 1.44232,-0.56049 2.34839,0.53125 1.09662,1.32135 1.00165,1.79798 -0.59239,2.97292 -3.03472,2.23686 -12.54251,4.53821 -18.74917,4.53821 -3.14577,0 -6.71624,0.60414 -7.93439,1.34254 -1.21815,0.7384 -2.97738,1.1602 -3.90939,0.93735 z m -120.26272,-1.21079 c -0.73955,-1.1966 1.14162,-2.38223 2.4736,-1.55902 1.11836,0.69118 0.38417,2.48992 -1.01631,2.48992 -0.48508,0 -1.14086,-0.41891 -1.45729,-0.9309 z m 44.59056,-2.79545 c -1.39725,-2.49673 -15.07946,-3.1846 -17.3898,-0.87426 -1.00064,1.00064 -3.31417,1.60061 -6.17204,1.60061 -3.96299,0 -4.57143,-0.27677 -4.57143,-2.07946 0,-1.82193 -0.40248,-1.99339 -3.25,-1.38452 -1.7875,0.38221 -3.7,1.05307 -4.25,1.49079 -0.55,0.43773 -2.25039,0.55585 -3.77865,0.26248 -2.16768,-0.41611 -2.64759,-0.94632 -2.18261,-2.41134 0.5021,-1.58198 0.0338,-1.90159 -2.97135,-2.02795 -1.96207,-0.0825 -4.12989,-0.195 -4.81739,-0.25 -0.6875,-0.055 -1.18234,0.71844 -1.09965,1.71875 0.10132,1.22566 -0.33298,1.63328 -1.33179,1.25 -0.81517,-0.31281 -2.12033,-0.56875 -2.90035,-0.56875 -0.78001,0 -1.41821,-0.48032 -1.41821,-1.06739 0,-0.61231 0.85269,-0.79675 2,-0.43261 1.14731,0.36414 2,0.1797 2,-0.43261 0,-0.58707 -0.5625,-1.09322 -1.25,-1.12479 -0.6875,-0.0316 -3.17865,-0.25717 -5.53589,-0.50132 -4.03154,-0.41758 -4.22233,-0.32515 -3.21482,1.5574 0.91707,1.71356 0.76167,2.00132 -1.08074,2.00132 -1.65948,0 -2.03215,-0.45759 -1.6288,-2 0.38568,-1.47485 0.0307,-2 -1.35198,-2 -1.25582,0 -1.68492,0.49534 -1.2994,1.5 0.418,1.08929 -0.11581,1.5 -1.94959,1.5 -1.38886,0 -3.23442,-0.27215 -4.10125,-0.60478 -2.13176,-0.81804 -0.97617,-2.4669 1.1945,-1.70437 1.37898,0.48443 1.47802,0.34438 0.50191,-0.70974 -1.70703,-1.84343 -17.47908,-4.2834 -18.37,-2.84187 -0.76435,1.23675 -4.18452,-0.22576 -3.95856,-1.69274 0.074,-0.48054 -5.62317,-2.0888 -12.6604,-3.57392 -13.31196,-2.80933 -23.76597,-6.20761 -24.94002,-8.10726 -0.45925,-0.74309 -0.0559,-0.86275 1.231,-0.36523 1.05272,0.40699 3.26404,1.00935 4.91404,1.3386 2.71064,0.54088 2.86762,0.43767 1.62756,-1.07004 -0.75485,-0.91776 -2.41579,-1.66865 -3.69099,-1.66865 -1.27519,0 -2.59665,-0.45 -2.93657,-1 -0.8943,-1.44701 2.36443,-1.22943 8.39094,0.56025 4.14824,1.2319 5.02381,1.83755 4.16042,2.87786 -0.836,1.00733 -0.59897,1.44693 1.00655,1.86678 1.47065,0.38459 1.94863,0.15452 1.59478,-0.76759 -0.32249,-0.84039 0.54944,-1.52773 2.41007,-1.89985 4.02806,-0.80561 5.93724,0.14927 5.93724,2.96954 0,1.81951 0.53923,2.38934 2.25,2.3777 1.67002,-0.0114 1.89477,-0.24032 0.87188,-0.8882 -1.84862,-1.1709 -0.53425,-3.0779 2.18714,-3.17329 1.20504,-0.0422 -2.41518,-1.31089 -8.04492,-2.81923 -19.97369,-5.35142 -11.98997,-5.42959 13.07844,-0.12806 15.12491,3.19865 22.25904,3.69072 16.15746,1.11444 -1.65,-0.69668 -8.91603,-2.54416 -16.14674,-4.10552 -7.23071,-1.56135 -14.88071,-3.70776 -17,-4.76979 -2.11929,-1.06203 -5.87826,-2.19876 -8.35326,-2.52608 -2.475,-0.32732 -8.55,-1.76311 -13.5,-3.19065 -10.36128,-2.98811 -44.81317,-16.51847 -44.03694,-17.2947 1.21994,-1.21994 -1.83395,-3.14863 -4.08926,-2.58258 -1.43917,0.36121 -4.69083,-0.31144 -8.13558,-1.68294 -6.36678,-2.5349 -34.03468,-16.34651 -35.96656,-17.95424 -0.67558,-0.56223 -3.93808,-2.19742 -7.25,-3.63375 -3.31191,-1.43634 -6.02166,-3.20731 -6.02166,-3.9355 0,-0.73035 -1.62715,-1.62923 -3.62905,-2.00479 -2.38153,-0.44678 -3.80175,-1.3412 -4.13143,-2.60187 -0.32025,-1.22467 -1.05486,-1.70904 -2.02648,-1.3362 -2.17372,0.83414 -18.38389,-7.40905 -18.96887,-9.64605 -0.49507,-1.89315 -2.24417,-2.56115 -2.24417,-0.85707 0,0.53273 -0.675,0.70959 -1.5,0.39301 -0.825,-0.31659 -1.5,-1.23279 -1.5,-2.03601 0,-1.00532 -0.62322,-1.26259 -2,-0.82562 -1.54493,0.49034 -2,0.1797 -2,-1.36522 0,-1.17486 -0.89657,-2.28457 -2.17312,-2.68973 -1.195225,-0.37935 -3.080085,-1.53467 -4.188575,-2.56739 -1.10849,-1.03271 -2.83058,-1.87766 -3.82687,-1.87766 -0.99629,0 -1.81144,-0.50248 -1.81144,-1.11663 0,-0.63535 -0.88839,-0.88431 -2.061168,-0.57762 -1.25887,0.3292 -2.27277,-0.0124 -2.60478,-0.87763 -0.29899,-0.77915 -1.022937,-1.1204 -1.608772,-0.75833 -0.667961,0.41282 -0.827039,0.0378 -0.4266,-1.00575 0.744989,-1.94141 -0.373908,-2.18881 -2.098676,-0.46404 -0.933333,0.93333 -1.2,0.8638 -1.2,-0.31291 0,-2.14082 -5.607662,-7.33093 -6.449323,-5.96909 -1.137404,1.84036 -2.554141,1.20309 -3.632844,-1.63412 -0.75241,-1.97899 -1.253959,-2.35805 -1.848075,-1.39675 -0.628116,1.01631 -1.297087,1.06157 -2.91246,0.19705 -1.843205,-0.98645 -1.956657,-1.45288 -0.937242,-3.853249 1.723764,-4.05885 3.160409,-5.24961 2.39,-1.98093 -0.538785,2.28594 -0.317018,2.75 1.314188,2.75 1.079291,0 2.590728,0.897129 3.358747,1.993629 0.768019,1.09651 1.682661,1.70738 2.032538,1.3575 0.349876,-0.34987 1.356311,-0.0385 2.23652,0.69206 1.190538,0.98806 1.784121,1.03091 2.317856,0.1673 0.946465,-1.53141 17.270971,7.61223 17.902591,10.02756 0.25019,0.9567 0.79451,1.52956 1.20961,1.27301 0.91973,-0.56842 15.602205,6.59156 26.517895,12.93159 4.4,2.5556 11.24858,6.20094 15.21907,8.10077 5.27365,2.52337 7.06383,3.85877 6.64301,4.9554 -0.63902,1.66526 1.16012,2.08329 2.14032,0.4973 0.3595,-0.58168 9.53155,3.57507 21.80901,9.88379 11.65373,5.98822 23.43859,11.68701 26.18859,12.66398 2.75,0.97697 5.45,2.30457 6,2.95023 0.55,0.64566 2.63704,1.43714 4.63786,1.75884 2.00082,0.3217 7.59616,2.28537 12.43408,4.36372 6.20072,2.6638 8.91814,3.41308 9.20939,2.53933 0.2667,-0.80009 0.82181,-0.90862 1.56592,-0.30613 0.63401,0.51335 3.8057,1.47762 7.0482,2.14283 3.57486,0.7334 5.40254,1.5141 4.64323,1.98338 -1.83277,1.13272 -0.2574,1.76429 7.51242,3.01176 3.8219,0.61362 7.9991,1.33542 9.28269,1.60399 1.40811,0.29464 2.08832,0.0911 1.71492,-0.51303 -0.34038,-0.55074 -2.21357,-1.30051 -4.16266,-1.66616 -2.18885,-0.41064 -3.81805,-1.40623 -4.26112,-2.60396 -0.58143,-1.57177 -1.91342,-2.01557 -7.03097,-2.34263 -3.47251,-0.22192 -6.82672,-0.79693 -7.45381,-1.27779 -0.62708,-0.48086 -4.06515,-2.04509 -7.64015,-3.47606 -3.575,-1.43097 -11.00382,-4.57935 -16.50849,-6.9964 -5.50467,-2.41706 -12.39058,-5.18585 -15.30202,-6.15287 -2.91143,-0.96702 -6.05761,-2.57493 -6.9915,-3.57312 -0.9339,-0.9982 -6.33751,-3.66142 -12.00803,-5.91827 -11.86241,-4.72122 -20.52469,-8.95946 -27.78038,-13.59227 -2.79972,-1.78765 -6.49109,-3.55791 -8.20304,-3.93392 -1.71194,-0.376 -4.25875,-1.58519 -5.65958,-2.68708 -2.77583,-2.18347 -3.51615,-5.16742 -1.04696,-4.21991 0.825,0.31659 1.5,1.22902 1.5,2.02764 0,0.79861 0.43457,1.18345 0.9657,0.85519 0.53114,-0.32826 2.76321,0.32018 4.96017,1.44098 4.40719,2.24838 5.48149,2.50595 4.61684,1.10692 -0.31644,-0.512 -0.12184,-1.21118 0.43242,-1.55373 1.17265,-0.72473 14.02487,6.21296 14.02487,7.5707 0,1.27333 -1.37354,1.14039 -2.78333,-0.2694 -0.65084,-0.65084 -1.46058,-0.90609 -1.79944,-0.56724 -1.33843,1.33843 9.05605,5.46583 12.64115,5.0195 2.66031,-0.3312 4.80556,0.28504 8.5,2.44167 4.86438,2.83958 24.541,11.31841 26.12835,11.25893 0.4473,-0.0168 -12.68673,-6.71506 -29.18673,-14.8851 C 139.4716,120.86955 91.243255,94.614851 92.425105,93.432991 c 0.65456,-0.65455 16.988115,7.768959 44.622755,23.012789 29.87017,16.47698 57.5361,30.08979 59.56811,29.31004 0.84195,-0.32309 1.43189,0.0556 1.43189,0.91914 0,0.85501 0.94009,1.47051 2.25,1.47313 1.2375,0.002 6.525,2.02545 11.75,4.49549 5.225,2.47004 10.36457,4.49301 11.42126,4.49549 1.05669,0.002 2.80994,0.79201 3.8961,1.75451 1.5052,1.33383 2.08275,1.44095 2.4286,0.45042 0.36655,-1.0498 0.86701,-1.03075 2.6039,0.0991 1.18258,0.7693 3.79419,1.70385 5.80359,2.07678 2.0094,0.37294 3.90777,1.34083 4.21861,2.15087 0.32233,0.83998 1.84232,1.4728 3.53754,1.4728 1.6348,0 3.26944,0.48068 3.63253,1.06817 0.3631,0.5875 1.30669,0.82009 2.09687,0.51686 0.79019,-0.30322 1.70347,0.14385 2.0295,0.99349 0.36962,0.96321 1.57917,1.44134 3.21275,1.26999 1.44097,-0.15115 3.19515,0.0807 3.89818,0.51517 0.70303,0.43449 3.01691,0.91383 5.14196,1.06519 2.12505,0.15137 5.37458,1.19195 7.22117,2.3124 3.77971,2.29342 17.09659,3.88531 14.08588,1.68382 -3.17285,-2.32005 9.90737,-0.60764 16.27156,2.1302 4.36151,1.8763 5.09891,2.43011 2.70029,2.028 -2.04165,-0.34227 -3.06762,-0.17765 -2.69098,0.43177 0.72982,1.18087 6.16385,1.32279 6.87048,0.17944 0.27381,-0.44303 4.23787,-0.24256 8.80902,0.44549 10.31513,1.55262 20.16171,1.73618 19.31119,0.36001 -0.33992,-0.55 -2.56833,-1 -4.95203,-1 -3.17825,0 -4.5102,-0.4592 -4.99478,-1.72197 -0.56544,-1.47354 -0.79289,-1.50961 -1.57647,-0.25 -0.75277,1.21007 -1.27456,1.24956 -2.93264,0.22197 -1.10932,-0.6875 -3.7404,-1.25 -5.84685,-1.25 -7.76021,3e-5 -37.19723,-6.50297 -37.19723,-8.2173 0,-0.54816 0.675,-0.73763 1.5,-0.42104 0.825,0.31658 1.5,0.17163 1.5,-0.32212 0,-1.45711 -11.13053,-3.44634 -11.9415,-2.13416 -0.47583,0.7699 -2.3173,0.52045 -6.11957,-0.82896 -4.03579,-1.43229 -4.79398,-1.96999 -2.93893,-2.08427 2.22777,-0.13724 2.06444,-0.36 -1.5,-2.04569 -2.2,-1.04042 -6.5875,-2.41255 -9.75,-3.04916 -3.1625,-0.63661 -5.75,-1.517 -5.75,-1.95642 0,-0.43941 -2.5875,-1.5417 -5.75,-2.44952 -3.1625,-0.90782 -7.64034,-2.69569 -9.95076,-3.97304 -2.31042,-1.27735 -7.03542,-3.27342 -10.5,-4.4357 -3.46458,-1.16229 -6.97424,-2.59061 -7.79924,-3.17405 -1.33333,-0.94294 -1.33333,-1.00415 0,-0.55094 0.825,0.28043 4.65,1.46642 8.5,2.63553 3.85,1.16912 11.25262,3.51607 16.45027,5.21545 6.44129,2.106 9.57224,2.72389 9.83334,1.9406 0.65123,-1.95369 2.21639,-1.26639 2.21639,0.97326 0,1.76574 0.25011,1.91488 1.48817,0.88738 1.20332,-0.99867 1.60388,-0.93352 2.09273,0.3404 0.70265,1.83109 11.09983,5.98627 13.07879,5.22688 1.7793,-0.68279 1.70135,-3.0732 -0.16095,-4.9355 -1.15239,-1.15239 -2.25469,-1.28519 -4.7434,-0.57143 -1.78317,0.51141 -3.35761,0.92983 -3.49874,0.92983 -0.14113,0 -0.2566,-0.95751 -0.2566,-2.12781 0,-1.94118 0.37048,-2.06856 4.22388,-1.45238 2.32313,0.37148 4.91063,1.29693 5.75,2.05655 2.05559,1.86028 3.12259,1.95063 4.24045,0.35905 0.73319,-1.0439 1.04865,-1.06254 1.44513,-0.0854 0.27897,0.6875 1.26958,1.25 2.20137,1.25 2.54847,0 6.34579,3.01917 5.75002,4.57173 -0.28793,0.75032 -0.0858,1.63473 0.44914,1.96534 0.53495,0.33062 0.71321,1.02088 0.39615,1.5339 -0.58291,0.94317 1.76711,2.08522 6.79386,3.30166 2.08517,0.50459 2.75,0.29823 2.75,-0.85358 0,-0.94387 -0.92428,-1.51906 -2.44098,-1.51906 -3.73174,0 -3.89345,-1.58822 -0.33708,-3.31063 l 3.19397,-1.54688 -2.95796,-0.65872 c -5.65674,-1.25972 -7.83515,-2.11537 -8.2042,-3.22252 -0.22341,-0.67022 1.54376,-0.39125 4.4375,0.70052 2.64481,0.99784 8.40875,2.5967 12.80875,3.55303 9.81912,2.13414 12.40562,3.36558 7.5,3.57079 -2.15516,0.0902 -2.73152,0.33126 -1.5,0.62748 3.24215,0.77984 4.18297,2.28342 1.45,2.31734 -2.32384,0.0288 -2.34845,0.0893 -0.47791,1.17398 1.08465,0.62896 3.10965,1.25541 4.5,1.39211 1.39035,0.1367 4.32791,0.93865 6.52791,1.78213 4.6061,1.76596 8.12682,2.03421 8.96202,0.68283 0.31902,-0.5162 -0.21317,-1.38245 -1.18266,-1.925 -2.72184,-1.52322 -1.21633,-2.04299 3.44362,-1.1889 2.32263,0.42571 4.02023,0.44597 3.77244,0.045 -0.24779,-0.40093 -2.71063,-1.02879 -5.47298,-1.39522 -2.76234,-0.36641 -5.02244,-1.01366 -5.02244,-1.4383 0,-0.42464 3.9375,-0.17458 8.75,0.55568 12.39723,1.88119 26.32647,3.19317 27.81941,2.62027 0.69796,-0.26783 2.31787,0.14829 3.5998,0.92472 1.78945,1.08382 6.32474,1.38489 19.52715,1.2963 9.458,-0.0635 17.5205,-0.43954 17.91667,-0.83571 0.39617,-0.39616 -3.1504,-0.7203 -7.88126,-0.7203 -4.73087,0 -9.83103,-0.46744 -11.3337,-1.03875 -1.97157,-0.74959 -2.92926,-0.7198 -3.44026,0.10701 -0.38946,0.63017 -1.5518,0.88888 -2.58296,0.57491 -1.03117,-0.31397 -10.87485,-1.51057 -21.87485,-2.65909 -24.18859,-2.52558 -39.6781,-5.13094 -53,-8.91468 -5.5,-1.56214 -13.15,-3.39322 -17,-4.06908 -3.85,-0.67586 -12.62201,-3.03682 -19.49335,-5.24658 -12.53001,-4.02954 -42.41367,-16.02373 -44.75665,-17.96366 -1.52352,-1.26144 -1.65094,-3.79008 -0.19098,-3.79008 0.58246,0 0.78347,0.44584 0.44669,0.99076 -0.33678,0.54492 1.01326,1.76594 3.00008,2.71339 2.79114,1.331 3.78611,1.44158 4.37646,0.48638 0.5973,-0.96646 1.55157,-0.90722 4.37252,0.27145 1.98466,0.82925 3.85603,1.90829 4.15861,2.39787 0.30258,0.48958 1.57085,0.8919 2.81838,0.89404 1.24753,0.002 8.10024,1.87027 15.22823,4.15141 7.128,2.28113 13.5876,3.90668 14.35467,3.61233 2.34479,-0.89978 9.08769,1.57326 8.49573,3.1159 -0.32695,0.852 0.17479,1.36879 1.33262,1.37263 1.02135,0.003 3.11489,0.66229 4.65233,1.46422 1.53743,0.80193 5.58743,1.96248 9,2.579 3.41256,0.61652 16.10466,3.06533 28.20466,5.44181 27.94414,5.48832 38.1401,6.82744 52.74913,6.92796 9.03248,0.0622 11.74933,0.38651 11.75,1.40281 6.6e-4,1.00805 1.24749,1.1723 5.25087,0.69171 2.8875,-0.34664 12.45,-0.83074 21.25,-1.07579 15.48264,-0.43113 35.84585,-1.968 30.25,-2.28305 -6.4038,-0.36054 -0.82501,-4.16815 6.0651,-4.13952 4.18224,0.0174 8.16348,1.82561 4.6849,2.12782 -1.1,0.0956 -2.7875,0.10776 -3.75,0.0271 -0.9625,-0.0807 -1.75,0.29804 -1.75,0.84156 0,1.12679 3.29684,1.27884 7.875,0.36321 2.16667,-0.43333 3.125,-1.2 3.125,-2.5 0,-2.46287 0.77783,-2.36625 3.01872,0.375 1.47544,1.80488 2.09075,2.00271 3.1103,1 1.02515,-1.00823 0.94217,-1.25 -0.42902,-1.25 -2.48902,0 -2.07575,-1.87321 0.55,-2.49295 6.32198,-1.49215 14.75086,-2.11526 14.76531,-1.09154 0.0109,0.77093 0.22774,0.76816 0.75,-0.01 0.96171,-1.43214 36.78665,-8.41526 42.9611,-8.37413 4.52371,0.0301 4.6689,0.11408 2.77359,1.60343 -1.94282,1.5267 -1.92853,1.55116 0.5,0.8558 2.89136,-0.82788 5.02786,-2.49103 3.2,-2.49103 -2.7481,0 -0.87855,-1.71693 3.55,-3.26019 5.38714,-1.87689 16.41896,-4.73939 18.26679,-4.73939 0.96334,0 0.95972,0.32338 -0.0168,1.5 -1.00382,1.20953 -0.97912,1.49703 0.12756,1.48469 2.10658,-0.0235 4.19975,-1.64607 3.52724,-2.73421 -0.33078,-0.53522 2.42407,-2.24609 6.12189,-3.80193 3.69782,-1.55584 10.43613,-4.52279 14.97402,-6.59322 l 8.25071,-3.76442 -2.50071,-3.685 c -2.97513,-4.3841 -3.00574,-4.65431 -0.75071,-6.62622 1.3381,-1.17011 30.78417,-20.986649 47.75,-32.134669 1.1,-0.7228 8.15843,-5.44405 15.6854,-10.49168 15.32772,-10.27886 18.49264,-11.4753 21.74691,-8.22104 1.17735,1.17736 2.60745,1.85214 3.17799,1.49953 0.57054,-0.35262 0.45709,0.28802 -0.25211,1.42363 -0.94529,1.51366 -1.51913,1.74177 -2.14996,0.85465 -0.66882,-0.94057 -0.97388,-0.93044 -1.36955,0.0455 -0.35321,0.87118 -1.04363,0.59541 -2.25515,-0.90076 -2.12314,-2.62196 -5.48457,-2.07113 -9.86768,1.617 -1.61605,1.35983 -3.11996,2.29074 -3.34201,2.06869 -0.22205,-0.22205 -1.522,0.50455 -2.88878,1.61466 -1.36678,1.11011 -1.81006,1.68832 -0.98506,1.2849 1.13938,-0.55714 1.2309,-0.44113 0.3807,0.48253 -0.97677,1.06115 -2.8983,1.7369 -5.68972,2.00089 -0.44496,0.0421 -0.53905,0.51332 -0.2091,1.04719 0.32995,0.53388 -0.45125,1.23451 -1.73601,1.55697 -1.28476,0.32245 -2.85206,1.41275 -3.4829,2.42288 -0.98321,1.57437 1.02211,5.02955 14.04503,24.199679 12.12322,17.84576 25.72731,38.06452 27.4295,40.76646 0.14438,0.22916 0.48815,0.19102 0.76394,-0.0848 0.27579,-0.27579 -6.73507,-11.26328 -15.5797,-24.41666 -15.19809,-22.601989 -19.20812,-28.862339 -17.41841,-27.193109 0.42583,0.39716 2.00507,-0.27784 3.50943,-1.5 1.50435,-1.22217 4.17106,-3.00542 5.926,-3.96279 1.75494,-0.95737 2.91328,-2.18971 2.57409,-2.73855 -0.35894,-0.58076 0.0427,-0.74484 0.96074,-0.39254 1.28309,0.49237 1.34844,0.91009 0.35016,2.23854 -1.02894,1.36926 -1.00237,1.43283 0.16436,0.39334 2.43775,-2.17189 1.98014,-4.41661 -2.13606,-10.47799 -3.5606,-5.2432 -4.43198,-8.82186 -2.13343,-8.76167 0.42976,0.0113 10.40154,14.2036 22.1595,31.53855 11.75797,17.334939 21.56725,31.328949 21.7984,31.097799 0.23115,-0.23115 -7.09637,-11.56243 -16.28338,-25.18063 -12.91841,-19.149349 -16.48233,-25.111239 -15.72696,-26.308749 1.71667,-2.72148 3.06712,-2.36856 6.93563,1.81256 3.1041,3.35493 3.93577,3.8108 4.64386,2.5455 0.47442,-0.84773 0.57977,-1.99891 0.23412,-2.55819 -0.34565,-0.55927 -0.2575,-0.95241 0.19588,-0.87366 0.45338,0.0788 1.72433,0.083 2.82433,0.01 1.66754,-0.1115 1.75066,-0.29487 0.5,-1.1031 -1.19008,-0.76909 -0.98346,-0.97571 1,-1 1.44557,-0.0177 2.01698,-0.3405 1.35478,-0.76532 -0.62986,-0.40407 1.92274,-0.76823 5.67246,-0.80923 9.75059,-0.10662 16.48358,-3.78104 37.2021,-20.30242 27.15716,-21.6557 43.39788,-33.67942 50.61207,-37.47037 8.74921,-4.59757 20.98561,-8.6526798 26.10967,-8.6526798 3.47346,0 4.24634,0.38903 5.06839,2.5511898 1.36054,3.57848 -1.33722,11.04044 -7.53194,20.83319 -9.36954,14.81158 -19.81742,21.7665 -54.98752,36.60396 -22.18141,9.35783 -27.83135,12.44513 -32.51696,17.76827 -6.84039,7.77109 -8.28012,16.996589 -5.38415,34.500649 0.42612,2.57564 0.13982,4.49257 -0.91038,6.09538 -0.8426,1.28597 -12.70471,9.91805 -26.36025,19.18239 -13.65554,9.26435 -31.02385,21.05116 -38.59623,26.1929 -7.57239,5.14175 -14.46358,9.61556 -15.31377,9.94181 -0.9255,0.35515 -2.12692,-0.23648 -2.99393,-1.47432 -1.41915,-2.02611 -1.65306,-1.9297 -11.68623,4.81721 -5.63096,3.78659 -13.6131,8.28691 -17.7381,10.0007 -4.125,1.71378 -10.01049,4.42222 -13.07887,6.01875 -3.06837,1.59653 -9.66242,4.46112 -14.65345,6.36577 -4.99102,1.90464 -10.93346,4.41132 -13.20543,5.57039 -2.27196,1.15907 -4.48141,1.89074 -4.90987,1.62594 -0.42846,-0.26481 -3.76806,0.60349 -7.42131,1.92955 -7.62687,2.7684 -17.98279,5.48272 -32.06768,8.40503 -8.47576,1.75854 -10.03214,1.84535 -11.25,0.62749 -1.85415,-1.85415 -1.78458,-2.55625 0.25328,-2.55625 0.91666,0 1.3294,-0.3375 0.91719,-0.75 -1.17486,-1.17569 -22.91334,-1.17927 -24.35644,-0.004 -0.69992,0.57001 -1.00709,1.87285 -0.68261,2.8952 0.62727,1.97635 -0.22601,2.34774 -2.32868,1.01356 -0.70776,-0.44909 -0.9963,-1.56404 -0.64301,-2.48469 0.87844,-2.28917 -0.87303,-2.10113 -3.07312,0.32995 -2.14235,2.36727 -3.5,2.57082 -3.5,0.52475 0,-1.19969 -0.51366,-1.27723 -2.75,-0.41514 -1.5125,0.58306 -6.4964,1.88481 -11.07534,2.89277 -6.88989,1.51666 -8.23154,1.58824 -7.78138,0.41513 0.69422,-1.8091 0.71173,-1.81071 -7.52679,0.69166 -3.81919,1.16004 -8.08658,1.89075 -9.48309,1.62379 -1.39651,-0.26696 -4.41657,-0.0628 -6.71125,0.45364 -4.79726,1.07972 -12.59435,0.0951 -9.17215,-1.15819 1.9499,-0.71413 1.94547,-0.74982 -0.1766,-1.42454 -1.2535,-0.39855 -3.74387,-0.0372 -5.87212,0.85204 -4.17209,1.74321 -8.89198,2.06618 -7.95128,0.54409 0.92772,-1.50108 -1.72703,-1.14285 -3.94113,0.5318 -2.55806,1.93483 -4.24322,1.85465 -5.4256,-0.25815 z m 124.36397,-9.81408 c 0.005,-3.21006 -1.67623,-3.46016 -4.61475,-0.68668 -3.37422,3.18473 -2.9631,4.19552 1.34784,3.31384 2.34639,-0.47989 3.26492,-1.21855 3.26691,-2.62716 z m -169.99724,1.54043 c -0.33992,-0.55 -1.04148,-1 -1.55902,-1 -0.51754,0 -0.94098,0.45 -0.94098,1 0,0.55 0.70156,1 1.55902,1 0.85746,0 1.2809,-0.45 0.94098,-1 z m 161.22917,-0.60417 c -0.33229,-0.33229 -1.1948,-0.36781 -1.91667,-0.0789 -0.79773,0.31922 -0.56078,0.55618 0.60417,0.60416 1.05416,0.0434 1.64479,-0.19293 1.3125,-0.52522 z m -168.74448,-3.14583 c -0.0119,-2.14294 -0.22931,-2.41887 -0.98469,-1.25 -1.26441,1.95653 -1.26441,4 0,4 0.55,0 0.99311,-1.2375 0.98469,-2.75 z m -41.8606,-4.51667 c -0.98762,-0.98026 -1.10248,-0.8654 -0.5598,0.5598 0.37553,0.98622 0.93469,1.54122 1.24258,1.23333 0.30789,-0.30789 6.4e-4,-1.11479 -0.68278,-1.79313 z m 108.37591,1.12285 c 3.80774,-0.21049 -12.08983,-1.62471 -19.75,-1.75693 -3.1625,-0.0546 -5.75,0.33182 -5.75,0.85869 0,1.00547 12.99907,1.95904 19,1.39376 1.925,-0.18133 4.85,-0.40431 6.5,-0.49552 z m -39.46957,-1.96857 c -3.07543,-1.22741 -12.17255,-1.93043 -13.52539,-1.04523 -1.0174,0.6657 6.07473,1.76522 12.49496,1.93713 3.2729,0.0876 3.33976,0.0298 1.03043,-0.8919 z m -19.19864,-0.91802 c 3.83136,-0.0698 -1.5666,-1.84027 -7.74063,-2.53879 -5.20823,-0.58924 -6.27109,-0.46751 -5.89485,0.67517 0.44668,1.35663 7.94488,2.93492 10.63548,2.23866 0.73248,-0.18954 2.08248,-0.35831 3,-0.37504 z m 38.16821,-27.96959 c -0.825,-0.53316 -2.85,-0.96937 -4.5,-0.96937 -2.30174,0 -2.65087,0.22562 -1.5,0.96937 0.825,0.53316 2.85,0.96937 4.5,0.96937 2.30174,0 2.65087,-0.22562 1.5,-0.96937 z m 24.72917,0.39583 c -0.33229,-0.33229 -1.1948,-0.36781 -1.91667,-0.0789 -0.79773,0.31922 -0.56078,0.55618 0.60417,0.60416 1.05416,0.0434 1.64479,-0.19293 1.3125,-0.52522 z m -42.72917,-2.39583 c 0,-0.55 -0.42344,-1 -0.94098,-1 -0.51754,0 -1.2191,0.45 -1.55902,1 -0.33992,0.55 0.0835,1 0.94098,1 0.85746,0 1.55902,-0.45 1.55902,-1 z m -12,-0.96862 c 0,-0.53273 -0.675,-0.70959 -1.5,-0.39301 -0.825,0.31659 -1.5,0.75246 -1.5,0.96862 0,0.21615 0.675,0.39301 1.5,0.39301 0.825,0 1.5,-0.43588 1.5,-0.96862 z m 4.5,-0.0314 c 0.33992,-0.55 -0.0835,-1 -0.94098,-1 -0.85746,0 -1.55902,0.45 -1.55902,1 0,0.55 0.42344,1 0.94098,1 0.51754,0 1.2191,-0.45 1.55902,-1 z m 24,0 c -0.33992,-0.55 -1.04148,-1 -1.55902,-1 -0.51754,0 -0.94098,0.45 -0.94098,1 0,0.55 0.70156,1 1.55902,1 0.85746,0 1.2809,-0.45 0.94098,-1 z m -75.25,-2.66228 c -0.6875,-0.27741 -1.8125,-0.27741 -2.5,0 -0.6875,0.27741 -0.125,0.50439 1.25,0.50439 1.375,0 1.9375,-0.22698 1.25,-0.50439 z m 41.75,-3.33772 c 0,-0.55 1.38214,-1 3.07143,-1 2.73707,0 2.9073,-0.16412 1.5638,-1.50763 -1.22222,-1.22222 -1.99299,-1.28649 -4.07143,-0.33948 -2.48487,1.13218 -3.58845,3.84711 -1.5638,3.84711 0.55,0 1,-0.45 1,-1 z m 32.07725,-0.40691 c -0.90447,-1.08982 -2.00264,-1.18923 -4.87244,-0.44106 -6.00086,1.56444 -5.98932,1.68625 0.16763,1.76902 4.93905,0.0664 5.68686,-0.14467 4.70481,-1.32796 z m -60.07725,0.0139 c 0,-0.21616 -0.675,-0.65203 -1.5,-0.96862 -0.825,-0.31658 -1.5,-0.13972 -1.5,0.39301 0,0.53274 0.675,0.96862 1.5,0.96862 0.825,0 1.5,-0.17686 1.5,-0.39301 z m 37.66667,-2.10697 c 0,-0.825 -0.34845,-1.5 -0.77432,-1.5 -1.12631,0 -1.94552,1.61349 -1.1985,2.36052 1.09137,1.09137 1.97282,0.7069 1.97282,-0.86052 z m 67.58333,0.83772 c -0.6875,-0.27741 -1.8125,-0.27741 -2.5,0 -0.6875,0.27741 -0.125,0.50439 1.25,0.50439 1.375,0 1.9375,-0.22698 1.25,-0.50439 z m -83.75,-1.33772 c -2.73138,-1.17371 -3.5,-1.17371 -3.5,0 0,0.55 1.2375,0.96837 2.75,0.92971 2.43684,-0.0623 2.52225,-0.16815 0.75,-0.92971 z m -4.5,-2.55902 c 0,-0.79254 -0.675,-1.44098 -1.5,-1.44098 -1.68232,0 -1.75048,0.18368 -0.89522,2.41247 0.7025,1.83068 2.39522,1.14412 2.39522,-0.97149 z m 96.5,-0.44098 c 1.52206,-0.65405 0.92463,-0.87257 -2.5,-0.9144 -2.475,-0.0302 -5.175,0.38124 -6,0.9144 -1.93588,1.25106 5.58863,1.25106 8.5,0 z M 301.96453,163.8062 c -0.93951,-0.76073 -8.91667,-3.61145 -8.91667,-3.18646 0,0.86275 5.49447,3.44365 7.41667,3.4838 1.05416,0.022 1.72916,-0.11178 1.5,-0.29734 z m -25.2525,-4.22984 c 0.33077,-0.86197 0.0254,-2.09947 -0.67857,-2.75 -1.0135,-0.93655 -1.14654,-0.80486 -0.63907,0.63261 0.51744,1.46573 0.25688,1.69351 -1.35282,1.18261 -2.14331,-0.68026 -2.82286,1.00076 -0.74371,1.83972 2.16539,0.87375 2.79573,0.70668 3.41417,-0.90494 z m 62.33583,0.56722 c 0,-0.55 -0.45,-1 -1,-1 -0.55,0 -1,0.45 -1,1 0,0.55 0.45,1 1,1 0.55,0 1,-0.45 1,-1 z m 7.25,0.33772 c -0.6875,-0.27741 -1.8125,-0.27741 -2.5,0 -0.6875,0.27741 -0.125,0.50439 1.25,0.50439 1.375,0 1.9375,-0.22698 1.25,-0.50439 z m -14.98097,-1.99366 c -0.67703,-0.27392 -2.02703,-0.29059 -3,-0.0371 -0.97297,0.25354 -0.41903,0.47766 1.23097,0.49804 1.65,0.0204 2.44606,-0.18706 1.76903,-0.46099 z m -58.06903,-3.54406 c -0.93333,-0.93333 -1.46667,-0.93333 -2.4,0 -0.93333,0.93333 -0.66667,1.2 1.2,1.2 1.86667,0 2.13333,-0.26667 1.2,-1.2 z m -86.2,-5.27977 c 0,-1.01754 -10.60357,-6.49944 -12.5,-6.46233 -1.16681,0.0228 0.70787,1.4568 4.5,3.4421 6.42019,3.36118 8,3.9576 8,3.02023 z m 318,-0.52023 c 0,-0.55 -0.19844,-1 -0.44098,-1 -0.24254,0 -0.7191,0.45 -1.05902,1 -0.33992,0.55 -0.14148,1 0.44098,1 0.58246,0 1.05902,-0.45 1.05902,-1 z m -368.5,-13 c -0.33992,-0.55 -1.06803,-1 -1.61803,-1 -0.55,0 -0.72189,0.45 -0.38197,1 0.33992,0.55 1.06803,1 1.61803,1 0.55,0 0.72189,-0.45 0.38197,-1 z M 92.483095,112.24836 c 0.3043,-0.49236 -0.11914,-1.15324 -0.94098,-1.46861 -0.90766,-0.3483 -1.49426,0.003 -1.49426,0.89521 0,1.61739 1.56262,1.98533 2.43524,0.5734 z m -4.435238,-2.99779 c 0,-0.49116 -0.73865,-1.17646 -1.64144,-1.52289 -1.372474,-0.52667 -1.434341,-0.38034 -0.37756,0.89301 1.44013,1.73524 2.019,1.91584 2.019,0.62988 z M 632.63782,96.517411 c -0.56397,-1.46967 -0.37535,-1.46324 1.95987,0.0669 l 2.5839,1.69303 -1.40947,-2.31686 c -0.7752,-1.27428 -2.88116,-4.68554 -4.67991,-7.58058 -2.08748,-3.35977 -3.07385,-6.01547 -2.72694,-7.34205 0.53241,-2.03596 0.49904,-2.04078 -1.63696,-0.23629 -1.19925,1.01313 -2.51106,2.29205 -2.91514,2.84205 -0.43852,0.59689 -0.74086,0.42892 -0.75,-0.41667 -0.008,-0.77916 -0.30616,-1.12581 -0.66165,-0.77032 -0.35548,0.35548 0.60228,2.56798 2.12838,4.91666 5.85481,9.01064 9.73668,13.388639 8.10792,9.14416 z m 154.95549,-72.82838 c 3.08698,-3.08698 3.1317,-6.05566 0.12094,-8.02839 -4.73834,-3.10468 -10.96607,1.66334 -9.7738,7.48294 0.759,3.70472 6.18688,4.01143 9.65286,0.54545 z M 322.23953,226.06858 c 0.19708,-0.59125 0.78583,-1.075 1.30833,-1.075 0.5225,0 1.11125,0.48375 1.30833,1.075 0.19709,0.59125 -0.39166,1.075 -1.30833,1.075 -0.91667,0 -1.50542,-0.48375 -1.30833,-1.075 z m -42.19167,-7.925 c 0,-0.55 0.87344,-1 1.94098,-1 1.06754,0 2.2191,0.45 2.55902,1 0.35052,0.56716 -0.48962,1 -1.94098,1 -1.40746,0 -2.55902,-0.45 -2.55902,-1 z m -35.97593,-12.11474 c -1.95495,-0.78008 -2.1767,-1.17289 -1.05388,-1.86684 1.55774,-0.96273 5.02981,0.42943 5.02981,2.01676 0,1.16831 -0.74249,1.14032 -3.97593,-0.14992 z m -9.27407,-3.04754 c -2.55541,-0.93332 -3.82999,-2.83772 -1.89922,-2.83772 1.93042,0 7.14922,2.26136 7.14922,3.09783 0,1.12388 -1.68988,1.04016 -5.25,-0.26011 z m 9.25,-1.83772 c -1.16887,-0.75538 -0.89294,-0.97275 1.25,-0.98469 1.5125,-0.008 2.75,0.43469 2.75,0.98469 0,1.26441 -2.04347,1.26441 -4,0 z m -17.96257,-0.97687 c -2.38905,-1.47651 -0.6924,-2.9631 1.82991,-1.60336 1.79636,0.96839 2.01568,1.41114 0.90932,1.83569 -0.80192,0.30773 -2.03457,0.20318 -2.73923,-0.23233 z m 29.21257,-0.74653 c -3.36011,-0.41698 -4.59974,-2.28713 -1.5,-2.26295 2.8753,0.0224 6.25,1.15795 6.25,2.10298 0,0.48585 -0.3375,0.81135 -0.75,0.72333 -0.4125,-0.088 -2.2125,-0.34153 -4,-0.56336 z m -35.7277,-2.18984 c -1.94133,-0.75847 -1.93876,-0.79351 0.13962,-1.90583 1.79407,-0.96015 2.1962,-0.83146 2.63408,0.84296 0.55731,2.13115 0.25608,2.24658 -2.7737,1.06287 z m -9.0223,-2.81844 c -1.1,-0.27483 -2.225,-0.82359 -2.5,-1.21947 -0.275,-0.39587 -1.4,-1.23013 -2.5,-1.8539 -1.81801,-1.03093 -1.714,-1.1369 1.14301,-1.16454 1.89334,-0.0183 3.37187,0.56599 3.71862,1.46959 0.31658,0.825 1.37722,1.50689 2.35699,1.51531 0.97976,0.008 2.45638,0.45153 3.28138,0.98469 1.17766,0.76106 0.96277,0.94774 -1,0.86869 -1.375,-0.0554 -3.4,-0.32555 -4.5,-0.60037 z m 12.95888,-0.33485 c -0.92034,-1.48915 0.14673,-2.29879 2.06137,-1.56407 0.88358,0.33906 1.32643,1.06965 0.98412,1.62354 -0.81058,1.31154 -2.21511,1.28411 -3.04549,-0.0595 z m 7.79112,-1.96463 c -1.2375,-0.49742 -2.25,-1.19268 -2.25,-1.54502 0,-0.86304 5.25599,0.47902 6.45,1.64694 1.20745,1.18106 -1.15047,1.12384 -4.2,-0.10192 z m -30.58841,-11.58714 c -1.56112,-0.84602 -2.62226,-1.75436 -2.35808,-2.01854 0.57015,-0.57015 7.69649,2.28706 7.69649,3.08581 0,0.99034 -2.44275,0.50198 -5.33841,-1.06727 z m -22.41159,-9.60219 c -1.2375,-0.59683 -2.25,-1.50387 -2.25,-2.01566 0,-0.51178 0.5625,-0.66831 1.25,-0.34783 0.6875,0.32048 2.0375,0.86047 3,1.19997 0.9625,0.3395 1.75,1.01479 1.75,1.50064 0,1.11444 -0.9098,1.03265 -3.75,-0.33712 z m 70.75,-7.38373 c -2.475,-0.82981 -5.12691,-1.71892 -5.89313,-1.9758 -0.76622,-0.25688 -1.14326,-0.71692 -0.83787,-1.02232 0.76576,-0.76575 11.731,2.77214 11.731,3.78496 0,0.44956 -0.1125,0.7959 -0.25,0.76964 -0.1375,-0.0263 -2.275,-0.72667 -4.75,-1.55648 z m 65.98506,-0.44194 -2.48506,-1.90937 2.28138,-0.0222 c 1.25477,-0.0122 2.54786,0.67217 2.87354,1.52089 0.91083,2.37358 0.056,2.50509 -2.66986,0.41071 z m -158.98506,-3.95384 c -1.29269,-0.8354 -1.26629,-0.97149 0.19098,-0.98469 0.93004,-0.008 1.9691,0.43469 2.30902,0.98469 0.78218,1.2656 -0.54163,1.2656 -2.5,0 z m 247,-0.5 c -0.69443,-0.83674 -0.80272,-1.5 -0.24489,-1.5 0.55,0 1.5602,0.675 2.24489,1.5 0.69443,0.83674 0.80272,1.5 0.24489,1.5 -0.55,0 -1.5602,-0.675 -2.24489,-1.5 z m 3.69692,0.10687 c -0.4092,-1.04122 -0.5084,-2.12872 -0.22046,-2.41666 0.91206,-0.91206 1.71456,0.58256 1.33239,2.48152 -0.35024,1.74033 -0.40373,1.73721 -1.11193,-0.0649 z m 3.86946,0.49535 c -2.9775,-1.166 -0.30633,-2.23268 4.9143,-1.96244 4.59657,0.23794 5.79458,1.15688 2.93753,2.25323 -2.05243,0.78759 -5.41618,0.66302 -7.85183,-0.29079 z m 13.43362,-1.10222 c 0,-0.55 0.61875,-1 1.375,-1 0.75625,0 2.78125,-0.28125 4.5,-0.625 2.47436,-0.49487 3.125,-0.28667 3.125,1 0,1.25926 -1.01282,1.625 -4.5,1.625 -2.475,0 -4.5,-0.45 -4.5,-1 z m -53,-1 c 0,-0.55 0.9,-1 2,-1 1.1,0 2,0.45 2,1 0,0.55 -0.9,1 -2,1 -1.1,0 -2,-0.45 -2,-1 z m -224.1852,-2.03484 c -2.02686,-1.07055 -3.98485,-2.43129 -4.35109,-3.02388 -0.36624,-0.59258 1.62961,0.0858 4.4352,1.5075 2.8056,1.4217 5.10109,2.80233 5.10109,3.06807 0,0.86063 -1.42577,0.43396 -5.1852,-1.55169 z m 223.6852,-1.96516 c -0.33992,-0.55 0.30852,-1 1.44098,-1 1.13246,0 2.05902,0.45 2.05902,1 0,0.55 -0.64844,1 -1.44098,1 -0.79254,0 -1.7191,-0.45 -2.05902,-1 z m -57,-2 c -0.731,-1.18278 0.24752,-1.18278 3,0 1.92824,0.82859 1.92138,0.86195 -0.19098,0.92971 -1.20504,0.0387 -2.4691,-0.37971 -2.80902,-0.92971 z m -177.5,-1.5 c -1.60243,-0.91603 -1.94032,-1.44185 -0.94113,-1.46456 0.85738,-0.0195 2.43238,0.62525 3.5,1.43276 2.4859,1.88023 0.71317,1.90227 -2.55887,0.0318 z m 112.3164,-2.37062 c -2.30098,-0.91479 -4.55098,-2.05777 -5,-2.53996 -1.47422,-1.58311 5.93442,0.37232 9.1026,2.40253 3.69505,2.36785 1.67761,2.43543 -4.1026,0.13743 z m 173.60312,0.77675 c 1.60213,-0.64038 2.76764,-0.61897 3.45,0.0634 0.70731,0.70731 -0.0515,1.0106 -2.41952,0.96709 -3.24171,-0.0596 -3.30393,-0.12177 -1.03048,-1.03048 z m 10.58048,0.0939 c 0.33992,-0.55 1.94148,-1 3.55902,-1 1.61754,0 2.94098,0.45 2.94098,1 0,0.55 -1.60156,1 -3.55902,1 -2.11803,0 -3.30878,-0.40488 -2.94098,-1 z m 35,0 c 0.33992,-0.55 1.46492,-1 2.5,-1 1.03508,0 2.16008,0.45 2.5,1 0.36155,0.585 -0.67595,1 -2.5,1 -1.82405,0 -2.86155,-0.415 -2.5,-1 z m -148.5,-1 c 0,-0.55 0.92656,-1 2.05902,-1 1.13246,0 1.7809,0.45 1.44098,1 -0.33992,0.55 -1.26648,1 -2.05902,1 -0.79254,0 -1.44098,-0.45 -1.44098,-1 z m 34.65063,-1.09506 c -0.98661,-1.15228 -1.49983,-2.38908 -1.14047,-2.74843 0.35935,-0.35935 1.22868,0.13343 1.93184,1.09506 0.70317,0.96164 1.79138,1.74843 2.41824,1.74843 0.62687,0 1.13976,0.45 1.13976,1 0,1.71792 -2.47419,1.09498 -4.34937,-1.09506 z m 35.915,0.98886 c 0.66764,-1.08026 4.43466,-1.20244 4.43366,-0.1438 -3.8e-4,0.4125 -1.12241,0.81471 -2.49338,0.8938 -1.37097,0.0791 -2.2441,-0.25841 -1.94028,-0.75 z m -175.00676,-1.4256 c -2.57689,-1.94907 0.0179,-1.92509 3.44113,0.0318 2.2099,1.26329 2.26792,1.42955 0.5,1.43276 -1.1,0.002 -2.87351,-0.65706 -3.94113,-1.46456 z m 276.44113,-1.46823 c 1.95653,-1.26441 4,-1.26441 4,0 0,0.55 -1.2375,0.99311 -2.75,0.98469 -2.14294,-0.0119 -2.41887,-0.22931 -1.25,-0.98469 z m -20,-0.82562 c 0,-0.57178 0.7875,-1.28044 1.75,-1.5748 3.14555,-0.962 20.40127,-2.78164 20.97144,-2.21147 1.18289,1.18289 -5.54332,2.93327 -12.22144,3.18042 -3.85,0.14248 -7.7875,0.57099 -8.75,0.95225 -0.98897,0.39174 -1.75,0.2411 -1.75,-0.3464 z m -369.25,-2.25771 c -1.912535,-2.09469 -0.75249,-2.52356 2.34375,-0.8665 1.07925,0.5776 1.69811,1.4776 1.37524,2 -0.8272,1.33844 -1.70677,1.07036 -3.71899,-1.1335 z m 53.27896,1.12239 c -0.80907,-0.51167 -1.16598,-1.23537 -0.79313,-1.60823 0.9151,-0.91509 3.76417,0.24885 3.76417,1.53779 0,1.2701 -1.03529,1.29465 -2.97104,0.0704 z m 80,0 c -2.62499,-1.66009 -0.29241,-2.24253 2.63263,-0.65736 2.34045,1.26837 2.48754,1.54256 0.83841,1.56295 -1.1,0.0136 -2.66197,-0.39392 -3.47104,-0.90559 z m 271.47104,-1.03906 c 0.33992,-0.55 1.60398,-0.99311 2.80902,-0.98469 1.78123,0.0125 1.91046,0.1966 0.69098,0.98469 -1.97012,1.27319 -4.28687,1.27319 -3.5,0 z m 6.5,-1.13867 c 0,-0.47373 0.4132,-0.86133 0.91821,-0.86133 0.50502,0 1.63002,-0.27314 2.5,-0.60699 0.86999,-0.33384 1.58179,-0.1613 1.58179,0.38342 0,0.54473 -1.125,1.20547 -2.5,1.46832 -1.375,0.26285 -2.5,0.0903 -2.5,-0.38342 z m -14.8,-1.06133 c -1.98046,-1.98046 -1.37951,-2.8 2.05318,-2.8 1.78925,0 6.40032,-0.9 10.24682,-2 7.38578,-2.11214 17.6671,-2.7671 15.91376,-1.01376 -1.98846,1.98846 -16.78128,5.08044 -21.16376,4.42363 -3.5072,-0.52563 -4.25,-0.35495 -4.25,0.97659 0,1.91185 -1.13418,2.07936 -2.8,0.41354 z m -296.2,-2.39382 -4.5,-2.50344 3.83923,0.50024 c 3.84498,0.50099 6.66077,2.07336 6.66077,3.71946 0,1.32919 -1.08212,1.01966 -6,-1.71626 z m -18.20608,-4.23318 c -4.23834,-2.02015 -7.72584,-4.01907 -7.75,-4.44205 -0.0594,-1.04074 5.08798,0.24367 6.95608,1.73571 0.825,0.65892 3.16838,1.96052 5.20752,2.89245 3.45296,1.57807 5.93968,3.73884 4.1015,3.56389 -0.44496,-0.0423 -4.27675,-1.72985 -8.5151,-3.75 z m 6.20608,-1.173 -4.5,-1.88825 3.31574,-0.0559 c 3.58845,-0.0605 7.18426,1.43072 7.18426,2.97931 0,1.29925 -0.74162,1.1713 -6,-1.03518 z m 352.5,0.46389 c 3.51314,-1.60865 5.5,-1.81836 5.5,-0.58052 0,1.01435 -3.55835,2.12113 -6.5,2.02176 -1.5633,-0.0528 -1.34495,-0.36751 1,-1.44124 z m -374.5,-0.46389 c -0.79314,-0.49019 -1.11011,-1.22322 -0.70437,-1.62896 0.40574,-0.40574 1.2627,-0.21271 1.90437,0.42896 1.51091,1.51091 0.66759,2.35423 -1.2,1.2 z m 4,-1 c -1.375,-1.07554 -2.14015,-1.96553 -1.70034,-1.97776 1.08087,-0.0301 6.70034,2.90822 6.70034,3.50344 0,1.10558 -2.68258,0.28703 -5,-1.52568 z m 358,1.62244 c 0,-0.20765 0.675,-0.93775 1.5,-1.62244 1.22851,-1.01957 1.5,-0.95124 1.5,0.37756 0,0.89234 -0.675,1.62244 -1.5,1.62244 -0.825,0 -1.5,-0.1699 -1.5,-0.37756 z m 7,-1.5325 c 0,-1.57322 6.00664,-3.4833 7.20028,-2.28966 0.78535,0.78535 0.28186,1.26716 -1.80564,1.72789 -1.59205,0.35138 -3.45714,0.81217 -4.14464,1.02397 -0.6875,0.2118 -1.25,0.004 -1.25,-0.4622 z m 15,-0.92942 c 0,-0.46172 1.125,-1.35207 2.5,-1.97857 2.88678,-1.3153 3.30749,-0.5154 0.75,1.426 -2.02856,1.5399 -3.25,1.74757 -3.25,0.55257 z m -409,-1.61494 c -1.375,-0.76094 -2.35715,-1.71961 -2.18254,-2.13036 0.25891,-0.6091 -10.045,-5.41522 -11.60978,-5.41522 -0.24891,0 0.11666,0.68587 0.81238,1.52417 0.69572,0.83829 0.97017,1.81894 0.60988,2.17922 -0.87336,0.87336 -7.62994,-2.3918 -7.62994,-3.68721 0,-0.5589 -0.59048,-1.01618 -1.31217,-1.01618 -1.8657,0 -9.6434,-3.8172 -13.18783,-6.47242 -1.65,-1.23606 -5.3625,-3.48259 -8.25,-4.99229 -2.887505,-1.50969 -5.250005,-3.19652 -5.250005,-3.74851 0,-1.47492 4.55968,-0.0898 9.063215,2.75313 2.14338,1.35305 4.51124,2.46009 5.26193,2.46009 0.75069,0 2.22158,0.94664 3.26866,2.10364 2.10107,2.32167 8.38545,6.19967 12.6562,7.80996 4.51807,1.70355 3.12727,0.42942 -2.81637,-2.58012 -5.74587,-2.9094 -12.8768,-8.22364 -12.09029,-9.01015 0.45863,-0.45864 25.79353,12.92082 33.4278,17.65335 2.34913,1.45624 3.96163,2.95722 3.58333,3.33551 -0.93217,0.93218 -1.44939,0.84112 -4.35447,-0.76661 z m 35.91194,-1.45279 c -5.24351,-2.81035 -10.48457,-6.07297 -9.91194,-6.17029 3.51962,-0.5982 6.31997,-0.25225 6.73609,0.83214 0.28082,0.7318 2.25508,2.22053 4.38724,3.30828 2.13217,1.08775 3.87667,2.41858 3.87667,2.9574 0,1.41764 -1.07973,1.2208 -5.08806,-0.92753 z m -8.47081,-0.56099 c -1.06762,-0.8075 -1.41543,-1.4825 -0.77292,-1.5 1.89979,-0.0517 4.33179,1.11336 4.33179,2.07519 0,1.31057 -1.35528,1.09152 -3.55887,-0.57519 z m 377.79936,0.24673 c 0.45236,-1.35708 5.75951,-3.00638 5.75951,-1.78987 0,0.44863 -1.3836,1.29802 -3.07467,1.88753 -2.30486,0.80347 -2.97707,0.77902 -2.68484,-0.0977 z m -416.24049,-1.27853 c 0,-0.825 0.45,-1.5 1,-1.5 0.55,0 1,0.675 1,1.5 0,0.825 -0.45,1.5 -1,1.5 -0.55,0 -1,-0.675 -1,-1.5 z m 23.25,0.27951 c -1.2375,-0.59683 -2.25,-1.46637 -2.25,-1.93232 0,-1.23117 0.58098,-1.07319 4.22583,1.14907 3.41576,2.08259 1.93525,2.66949 -1.97583,0.78325 z m 55.25,-2.77951 c -0.78218,-1.2656 0.54163,-1.2656 2.5,0 1.29269,0.8354 1.26629,0.97149 -0.19098,0.98469 -0.93004,0.008 -1.9691,-0.43469 -2.30902,-0.98469 z m 351.5,-0.96482 c 0,-1.50389 3.86543,-3.20302 6.30158,-2.76998 1.90753,0.33907 1.70647,0.61202 -1.51946,2.06279 -4.31587,1.94094 -4.78212,2.00989 -4.78212,0.70719 z m -410.25,-1.42723 c -2.55749,-1.9414 -2.13678,-2.7413 0.75,-1.426 1.375,0.6265 2.5,1.51685 2.5,1.97857 0,1.195 -1.22144,0.98733 -3.25,-0.55257 z m -2.75,-10.10795 c 0,-1.89289 1.08547,-1.90259 3.55887,-0.0318 1.85929,1.4063 1.82519,1.46953 -0.80887,1.5 -1.79191,0.0207 -2.75,-0.49079 -2.75,-1.4682 z m -20,-3.52144 c 0,-1.24272 -1.05939,-2.49153 -2.75,-3.24172 -2.60029,-1.15385 -8.87625,-6.355659 -6.75,-5.594719 0.55,0.19683 4.375,2.15788 8.5,4.357879 5.80159,3.09418 6.99048,4.07236 5.25,4.31955 -1.2375,0.17575 -2.25,0.73825 -2.25,1.25 0,0.51175 -0.45,0.93045 -1,0.93045 -0.55,0 -1,-0.90965 -1,-2.02144 z m -24,-0.71471 c -3.02326,-1.16546 -9.000005,-5.31628 -9.000005,-6.250449 0,-0.52883 2.2698,0.37681 5.044015,2.012539 2.7742,1.63573 5.4742,2.97406 6,2.97406 0.52579,0 0.95599,0.45 0.95599,1 0,1.09023 -0.69728,1.15155 -3,0.26385 z m 26.5,-3.84024 c -3.3,-2.505449 -7.6875,-5.434859 -9.75,-6.509809 -2.0625,-1.07495 -3.75,-2.44706 -3.75,-3.04914 0,-0.68777 0.83637,-0.55585 2.25,0.35488 5.99423,3.86177 11.74824,6.71302 16.75,8.300009 7.00827,2.22364 8.90876,3.60495 6.34695,4.61307 -3.71217,1.46081 -5.96776,0.75463 -11.84695,-3.70901 z m 23.25,-2.995589 c -1.5125,-0.82054 -2.75,-1.95297 -2.75,-2.5165 0,-0.56353 1.35,-0.22713 3,0.74755 1.65,0.97468 3,2.12512 3,2.55653 0,0.987839 0.0409,0.997739 -3.25,-0.78758 z m -95.773046,-3.48366 c -0.88826,-2.14445 -1.580474,-2.74085 -2.32132,-2 -1.514599,1.5146 -2.655635,1.30132 -2.655635,-0.49638 0,-0.85361 -1.35,-2.02264 -3,-2.59783 -1.869973,-0.65188 -3,-1.74008 -3,-2.88896 0,-1.01374 -0.45734,-2.12581 -1.016312,-2.47128 -0.558971,-0.34546 -0.773861,-1.0204 -0.477533,-1.49987 0.296328,-0.47947 2.553668,1.08648 5.016312,3.4799 4.155339,4.03853 4.968815,4.42381 4.55506,2.15737 -0.228578,-1.25208 2.658053,0.02 5.967662,2.62987 3.368831,2.65656 3.661643,4.29416 1.020552,5.70763 -2.658278,1.42267 -2.663712,1.41998 -4.088786,-2.02045 z m 23.464175,1.58744 c -1.067622,-0.80751 -1.415434,-1.48251 -0.772917,-1.5 1.899789,-0.0517 4.331785,1.11335 4.331785,2.07518 0,1.31057 -1.355279,1.09153 -3.558868,-0.57518 z m 4.017748,-1.59834 c -0.36253,-0.58659 -0.41903,-1.30665 -0.12555,-1.60013 0.71632,-0.71631 2.66667,0.54582 2.66667,1.72568 0,1.27797 -1.72641,1.19268 -2.54112,-0.12555 z m 24.000003,-2 c -1.17263,-1.89735 0.53762,-2.36554 2.27922,-0.62394 1.55894,1.55894 1.56168,1.69048 0.0352,1.69048 -0.9104,0 -1.95188,-0.47994 -2.31442,-1.06654 z m -39.662895,-2.47582 c -2.587207,-1.34708 -5.951566,-4.01275 -7.476354,-5.9237 -1.524787,-1.91096 -3.989387,-3.74177 -5.476888,-4.06848 -3.100938,-0.68108 -6.048769,-3.46546 -3.668892,-3.46546 0.780308,0 4.846998,2.25061 9.037089,5.00136 4.642721,3.0479 8.235324,4.76462 9.19796,4.39522 0.868787,-0.33338 1.287668,-1.07853 0.930847,-1.65588 -0.397645,-0.6434 -0.16239,-0.74912 0.607777,-0.27314 1.094314,0.67633 4.052475,6.51627 4.052475,8.00032 0,1.10009 -2.651131,0.3603 -7.204014,-2.01024 z m 4.204014,-2.51666 c 0,-1.13246 -0.45,-1.7809 -1,-1.44098 -0.55,0.33991 -1,1.26647 -1,2.05901 0,0.79254 0.45,1.44099 1,1.44099 0.55,0 1,-0.92656 1,-2.05902 z m 31.000001,2.55902 c -0.69443,-0.83674 -0.80272,-1.5 -0.24489,-1.5 0.55,0 1.5602,0.675 2.24489,1.5 0.69443,0.83674 0.80272,1.5 0.24489,1.5 -0.55,0 -1.5602,-0.675 -2.24489,-1.5 z m -72.000001,-2 c -1.449902,-0.82884 -1.869941,-1.43066 -1,-1.43277 0.825,-0.002 2.373508,0.65706 3.44113,1.46457 2.469906,1.86814 0.845458,1.84698 -2.44113,-0.0318 z m 6,-7.53457 c -0.825,-0.50432 -3.1875,-1.57989 -5.25,-2.39016 -2.0625,-0.81027 -3.75,-2.07416 -3.75,-2.80864 0,-0.73448 -1.381155,-2.15129 -3.069233,-3.14846 -1.688079,-0.99717 -2.827123,-2.05515 -2.531209,-2.35107 0.295914,-0.29591 1.653491,0.19286 3.016837,1.08616 1.363347,0.8933 3.142227,1.3696 3.953068,1.05845 1.837794,-0.70522 4.160317,0.51805 9.579081,5.0453 4.242206,3.54426 4.60184,4.44309 1.00822,2.51985 -1.542521,-0.82554 -1.798867,-0.72897 -1.32727,0.5 0.661444,1.72369 0.47999,1.7781 -1.629494,0.48857 z m -5.5,-6.96543 c -0.339919,-0.55 -1.068034,-1 -1.618034,-1 -0.55,0 -0.721885,0.45 -0.381966,1 0.339919,0.55 1.068034,1 1.618034,1 0.55,0 0.721885,-0.45 0.381966,-1 z m 31.913702,3.52139 c -6.722538,-4.35477 -7.741528,-6.5209 -1.187872,-2.52513 1.800794,1.09794 4.506629,1.99794 6.012968,2 2.309049,0.003 2.706333,0.39602 2.531893,2.50374 -0.113799,1.375 -0.260092,2.5 -0.325097,2.5 -0.065,0 -3.229356,-2.01538 -7.031892,-4.47861 z m -5.908154,0.48474 c -1.656768,-1.83071 -1.668062,-2.00613 -0.129151,-2.00613 0.927505,0 1.952842,0.6944 2.278526,1.54312 0.93115,2.42654 -0.159738,2.66153 -2.149375,0.46301 z m -16.397211,-6.11722 c -2.536901,-2.05667 -2.442932,-3.33828 0.171216,-2.33513 1.41904,0.54453 3.161876,3.34208 2.493986,4.00326 -0.150447,0.14894 -1.349787,-0.60172 -2.665202,-1.66813 z m 640.141664,0.48533 c 0.9625,-0.28649 1.75,-0.9379 1.75,-1.44757 0,-0.50967 1.6875,-0.93107 3.75,-0.93644 4.30823,-0.0112 13.02787,-3.78923 17.61342,-7.63146 1.72512,-1.44547 7.56145,-6.84253 12.96962,-11.99345 5.40817,-5.15093 10.27223,-9.36532 10.80901,-9.36532 0.53679,0 0.70105,-0.44485 0.36503,-0.98855 -0.34151,-0.55257 0.0304,-0.74244 0.84325,-0.43051 1.06306,0.40793 0.28716,1.63378 -2.88459,4.5574 -2.38634,2.19965 -4.53404,4.03021 -4.77266,4.06791 -0.23862,0.0377 -3.97968,3.42034 -8.31347,7.51698 -12.64511,11.95315 -18.9233,15.61498 -28.47687,16.60949 -2.97151,0.30933 -4.61524,0.32801 -3.65274,0.0415 z M 15.047859,63.643581 c 0,-0.825 -0.45,-1.5 -1,-1.5 -0.55,0 -1,0.45381 -1,1.00847 0,1.16932 -3.4173687,-0.63674 -6.1655777,-3.25847 -1.008932,-0.9625 -2.236277,-1.75 -2.727434,-1.75 -0.491156,0 -1.156028,-0.68542 -1.477494,-1.52314 -0.480959,-1.25336 -0.224555,-1.33052 1.44762,-0.43559 1.117656,0.59815 3.020029,1.00875 4.227494,0.91244 3.6335527,-0.2898 4.8447747,-0.004 4.2266007,0.99579 -0.322754,0.52223 0.775688,1.95685 2.440983,3.18806 3.306111,2.44431 3.867058,3.86244 1.527808,3.86244 -0.825,0 -1.5,-0.675 -1.5,-1.5 z M 733.04786,37.976911 c 0,-0.64167 0.27857,-0.8881 0.61905,-0.54762 0.34047,0.34048 1.22486,0.078 1.96529,-0.58333 3.51358,-3.1381 4.58336,-3.86802 5.02368,-3.4277 0.58834,0.58834 -5.40948,5.72532 -6.68475,5.72532 -0.5078,0 -0.92327,-0.525 -0.92327,-1.16667 z m 47.5,-30.8333298 c 1.65,-0.41986 4.35,-0.76337 6,-0.76337 h 3 l -3,0.76337 c -1.65,0.41985 -4.35,0.76337 -6,0.76337 h -3 z"
     id="path14798"
     inkscape:connector-curvature="0" />
</svg>
