<?xml version="1.0" encoding="UTF-8" standalone="no"?>
<!-- Created with Inkscape (http://www.inkscape.org/) -->

<svg
   xmlns:dc="http://purl.org/dc/elements/1.1/"
   xmlns:cc="http://creativecommons.org/ns#"
   xmlns:rdf="http://www.w3.org/1999/02/22-rdf-syntax-ns#"
   xmlns:svg="http://www.w3.org/2000/svg"
   xmlns="http://www.w3.org/2000/svg"
   xmlns:sodipodi="http://sodipodi.sourceforge.net/DTD/sodipodi-0.dtd"
   xmlns:inkscape="http://www.inkscape.org/namespaces/inkscape"
   version="1.1"
   id="svg14840"
   width="195"
   height="758"
   viewBox="0 0 195 758"
   sodipodi:docname="paint22.svg"
   inkscape:version="0.92.3 (2405546, 2018-03-11)">
  <metadata
     id="metadata14846">
    <rdf:RDF>
      <cc:Work
         rdf:about="">
        <dc:format>image/svg+xml</dc:format>
        <dc:type
           rdf:resource="http://purl.org/dc/dcmitype/StillImage" />
        <dc:title></dc:title>
      </cc:Work>
    </rdf:RDF>
  </metadata>
  <defs
     id="defs14844" />
  <sodipodi:namedview
     pagecolor="#ffffff"
     bordercolor="#666666"
     borderopacity="1"
     objecttolerance="10"
     gridtolerance="10"
     guidetolerance="10"
     inkscape:pageopacity="0"
     inkscape:pageshadow="2"
     inkscape:window-width="1366"
     inkscape:window-height="705"
     id="namedview14842"
     showgrid="false"
     inkscape:zoom="0.31134565"
     inkscape:cx="-424.42797"
     inkscape:cy="379"
     inkscape:window-x="-8"
     inkscape:window-y="-8"
     inkscape:window-maximized="1"
     inkscape:current-layer="svg14840" />
  <path
     style="fill:#000000"
     d="m 53.655222,765.89972 c 0.048,-1.16495 0.28494,-1.4019 0.60416,-0.60417 0.28887,0.72187 0.25335,1.58438 -0.0789,1.91667 -0.33229,0.33229 -0.56864,-0.25834 -0.52522,-1.3125 z m -0.53234,-5.92435 c -0.43551,-1.64578 -0.96427,-6.14232 -1.17502,-9.99232 -0.21075,-3.85 -0.8263,-9.475 -1.3679,-12.5 -0.54159,-3.025 -0.87649,-8.94949 -0.7442,-13.16552 0.25315,-8.06827 -0.32513,-9.85482 -2.58325,-7.98075 -1.10752,0.91916 -1.38808,0.5765 -1.455,-1.77705 -0.0456,-1.60368 0.50535,-3.14152 1.22432,-3.41742 1.2509,-0.48001 1.2351,-2.29494 -0.075,-8.60711 -0.40166,-1.93535 -0.6998,-2.14471 -1.42401,-1 -0.8584,1.35684 -1.35407,-6.67088 -1.42334,-23.05215 -0.0128,-3.025 -0.29617,-5.725 -0.62972,-6 -0.93473,-0.77064 -3.55215,-24.09296 -2.75893,-24.58319 0.82964,-0.51275 0.40993,-7.7267 -0.53886,-9.26188 -0.36289,-0.58717 -1.39851,-0.78411 -2.30139,-0.43765 -1.18215,0.45364 -1.47974,0.20819 -1.06331,-0.877 0.3406,-0.88759 0.019,-1.50695 -0.7824,-1.50695 -0.74837,0 -1.15845,0.32721 -0.91128,0.72714 0.24717,0.39992 -0.60104,0.66242 -1.88491,0.58333 -2.08898,-0.12869 -2.34016,-0.64247 -2.39015,-4.88902 -0.0307,-2.60987 0.34769,-4.49581 0.84092,-4.19098 0.49322,0.30483 0.89677,0.12582 0.89677,-0.39779 0,-1.2127 -2.89158,-2.35105 -4.09024,-1.61024 -0.50037,0.30925 -0.90976,0.0592 -0.90976,-0.55577 0,-0.61492 -0.45734,-0.83538 -1.01631,-0.48992 -0.55897,0.34546 -0.80377,0.97202 -0.54399,1.39235 0.25978,0.42033 -0.18288,0.76424 -0.98369,0.76424 -1.43086,0 -1.8522,-0.9405 -1.53066,-3.41667 0.0893,-0.6875 -0.32713,-1.25 -0.92535,-1.25 -0.59822,0 -0.95545,-0.7875 -0.79384,-1.75 0.19963,-1.1889 -0.30686,-1.69887 -1.57968,-1.59052 -1.7782,0.15136 -1.83851,-0.53551 -1.1855,-13.5 0.87315,-17.33485 0.89273,-19.24762 0.71061,-69.40948 -0.12931,-35.61435 -0.36336,-41.75 -1.59257,-41.75 -2.32773,0 -2.54403,-1.36451 -0.94982,-5.99174 1.20277,-3.49108 1.4855,-9.87485 1.42204,-32.10899 -0.046,-16.1256 0.31044,-27.99241 0.8509,-28.32643 0.51155,-0.31616 0.69486,-1.47438 0.40735,-2.57384 -0.36347,-1.38989 -0.0301,-1.999 1.09388,-1.999 0.90305,0 1.58178,-0.77244 1.53768,-1.75 -0.0472,-1.04544 -0.28202,-1.24674 -0.58333,-0.5 -0.27741,0.6875 -1.00689,1.25 -1.62105,1.25 -0.77593,0 -0.7505,-0.36617 0.0833,-1.2 1.61116,-1.61117 1.52476,-3.1386 -0.14138,-2.49925 -1.09241,0.4192 -1.46325,-4.61847 -1.99806,-27.14301 -0.96868,-40.79826 -0.83545,-67.15774 0.33944,-67.15774 0.57534,0 1,-3.1 1,-7.3 0,-7.94633 0.89855,-9.7 4.9701,-9.7 4.35389,0 17.20127,-3.97726 23.52278,-7.28213 7.04473,-3.68296 17.95242,-14.44538 21.79412,-21.50385 3.27752,-6.02189 5.713,-15.12065 5.713,-21.34335 0,-2.59002 -1.08929,-10.25797 -2.42064,-17.0399 -5.30029,-26.99968 -7.13989,-60.07408 -4.60707,-82.83077 3.67832,-33.04875 8.95248,-70.823337 12.07728,-86.499999 0.54815,-2.75 2.08996,-11.10223 3.42624,-18.560511 1.33628,-7.458281 2.8808,-14.747247 3.43226,-16.197701 1.38258,-3.636451 5.52819,-6.100196 10.31149,-6.128135 3.357148,-0.01961 4.564378,0.574085 7.351438,3.615291 1.91625,2.090992 3.98705,5.900002 4.86841,8.954904 1.92143,6.659897 6.57167,33.860999 10.48249,61.316151 9.57245,67.20155 10.19368,90.63527 3.41985,129 -3.73824,21.17209 -3.98755,27.0152 -1.50185,35.19883 5.84525,19.24421 22.06437,32.5838 45.1601,37.14244 l 9.5,1.87511 -0.0311,44.91027 c -0.0283,40.81259 -0.18795,45.13417 -1.75,47.36431 -1.81552,2.59201 -2.24924,5.56323 -0.93103,6.37793 0.43332,0.26781 0.88459,-0.68191 1.00282,-2.11048 0.39423,-4.76337 1.20932,-3.66209 1.20932,1.63394 0,3.89753 -0.3177,5.04286 -1.25,4.50634 -0.6875,-0.39564 -0.9164,-0.3511 -0.50868,0.099 0.40773,0.45007 0.18273,1.53472 -0.5,2.41032 -1.10375,1.41558 -1.04351,1.4367 0.54358,0.1906 1.67526,-1.31533 1.77349,-1.02148 1.59929,4.78413 -0.10208,3.40204 -0.51689,6.39028 -0.92179,6.64052 -0.40491,0.25024 -0.72273,8.22239 -0.70628,17.71588 0.0194,11.18368 0.27426,15.32444 0.7239,11.76088 0.52996,-4.20002 0.77693,-1.95459 1.04491,9.5 0.51505,22.01558 0.65523,24.03385 1.82041,26.21102 0.76147,1.42282 0.74016,2.30348 -0.0755,3.11912 -0.62509,0.62509 -0.80456,1.46849 -0.39882,1.87423 0.40574,0.40574 1.12758,0.10688 1.6041,-0.66414 0.62237,-1.00702 1.06048,-0.36727 1.5555,2.27143 0.88941,4.74093 0.0316,7.00158 -2.36766,6.24007 -1.74492,-0.55382 -1.88372,0.64296 -2.51441,21.68105 -1.13746,37.94222 -1.90869,51.72449 -2.86146,51.13565 -0.53526,-0.33082 -0.64326,2.51368 -0.26285,6.9235 0.42839,4.96616 0.28056,7.71066 -0.43929,8.15556 -0.59673,0.3688 -1.05334,1.43149 -1.01468,2.36153 0.058,1.39643 0.23536,1.3426 1.01795,-0.30902 0.67023,-1.41449 0.79858,-0.38984 0.43841,3.5 -0.2801,3.025 -0.51318,8.56406 -0.51796,12.30902 -0.005,3.74496 -0.36021,6.59177 -0.78984,6.32624 -0.42963,-0.26553 -0.69391,2.29542 -0.58728,5.69098 0.23022,7.33177 -2.30248,46.19848 -3.21991,49.41251 -0.35147,1.23132 -1.00679,2.01148 -1.45625,1.73369 -0.44947,-0.27778 -1.09987,-0.0477 -1.44533,0.51125 -0.34546,0.55897 -0.15156,1.01631 0.4309,1.01631 0.58246,0 1.05213,1.0125 1.04371,2.25 -0.0124,1.81944 -0.20082,1.96296 -0.98469,0.75 -0.84143,-1.30202 -0.9714,-1.28315 -0.98469,0.14301 -0.008,0.90366 -0.72711,1.91616 -1.5971,2.25 -2.44628,0.93873 -2.7695,0.7352 -1.41821,-0.89301 2.17071,-2.61554 0.18914,-1.61669 -2.45953,1.23978 -1.39726,1.50688 -2.54047,3.26938 -2.54047,3.91667 0,0.64729 -0.5625,1.40386 -1.25,1.68127 -0.85528,0.34511 -0.77634,0.53018 0.25,0.58607 1.2262,0.0668 1.5,1.87827 1.5,9.92424 0,10.09525 -1.22845,13.85389 -4.16021,12.72886 -1.59624,-0.61253 -1.61726,-0.39284 -1.3666,14.2838 0.13571,7.94685 -0.1316,11.15944 -0.88959,10.69098 -0.59598,-0.36834 -1.0836,-0.19315 -1.0836,0.38931 0,0.58246 0.35378,1.05902 0.78617,1.05902 1.35187,0 0.94062,13.89086 -0.42678,14.41558 -1.33372,0.5118 -1.37765,0.26198 -1.68864,-9.60228 -0.23573,-7.4771 -0.85494,-8.73525 -3.30028,-6.7058 -2.07318,1.72059 -1.75758,1.75713 -4.2419,-0.49115 -1.97815,-1.79019 -2.0265,-4.28934 -0.0595,-3.07364 0.51199,0.31643 0.9309,0.0988 0.9309,-0.48369 4e-5,-0.58248 -0.50244,-1.05904 -1.11659,-1.05904 -0.61415,0 -0.89379,-0.85216 -0.62142,-1.8937 0.35046,-1.34018 0.0192,-1.82113 -1.13337,-1.64545 -1.09982,0.16765 -1.79092,-0.69132 -2.12858,-2.64565 -0.275,-1.59165 -0.95,-2.7637 -1.5,-2.60455 -1.14581,0.33154 -1.15875,1.95162 -0.11215,14.03935 0.52236,6.03298 0.42451,8.75 -0.31512,8.75 -0.59,0 -1.07273,0.72 -1.07273,1.6 0,0.88 -1.4625,3.0625 -3.25,4.85 -3.19761,3.19761 -3.25336,3.21212 -3.45833,0.9 -0.11459,-1.2925 -0.25968,-2.9125 -0.32244,-3.6 -0.0628,-0.6875 0.18253,-2.375 0.54508,-3.75 0.44975,-1.70572 0.35816,-2.07628 -0.28828,-1.16635 -0.67433,0.94919 -0.91554,0.44537 -0.83674,-1.74772 0.0609,-1.69475 0.56071,-3.08929 1.11071,-3.09896 0.55,-0.01 0.41444,-0.38901 -0.30123,-0.84296 -0.71568,-0.45396 -1.43852,-2.11301 -1.60631,-3.68679 -0.1678,-1.57379 -0.81974,-3.03298 -1.44877,-3.24266 -0.69982,-0.23327 -1.14369,-2.87156 -1.14369,-6.79789 0,-3.61111 -0.43723,-6.41667 -1,-6.41667 -0.55,0 -1,1.07686 -1,2.39301 0,3.48006 -2.67975,4.12709 -3.25548,0.78605 -0.25392,-1.47348 -0.82678,-3.54038 -1.27303,-4.5931 -0.52591,-1.24064 -0.44873,-1.68993 0.21936,-1.27703 0.67923,0.41979 0.80528,-0.63256 0.36963,-3.08595 -0.3636,-2.04764 -0.59242,-7.19596 -0.50848,-11.44072 0.0918,-4.6413 -0.22489,-7.48442 -0.79444,-7.13243 -0.57006,0.35232 -0.80982,-1.84634 -0.60231,-5.52332 0.23447,-4.15465 -0.0448,-6.25747 -0.87322,-6.5739 -1.68812,-0.64485 -2.4673,0.94571 -2.5793,5.26515 -0.11651,4.49374 -1.9006,6.54291 -4.94966,5.68509 -1.71012,-0.48111 -1.89857,-0.3902 -0.78203,0.37727 1.6632,1.14322 0.76711,2.69411 -0.94519,1.63586 -0.60896,-0.37636 -0.83358,-1.54642 -0.49914,-2.60014 0.38503,-1.21313 0.12486,-1.94162 -0.70932,-1.98613 -0.72457,-0.0387 -0.41739,-0.45702 0.68261,-0.92971 1.1,-0.47269 1.48564,-0.89106 0.85699,-0.92971 -0.62866,-0.0387 -1.411,-0.76866 -1.73855,-1.62223 -0.34149,-0.88992 -0.17385,-1.29132 0.39301,-0.94098 0.5607,0.34653 0.99518,-0.6048 1.00386,-2.19806 0.0123,-2.25789 0.22345,-2.51472 1.07613,-1.30902 0.94295,1.33333 1.01263,1.33333 0.62706,0 -0.23857,-0.825 -1.15518,-1.44044 -2.03691,-1.36765 -0.88174,0.0728 -1.53165,-0.1522 -1.44425,-0.5 0.0874,-0.34779 -0.1709,-1.59863 -0.574,-2.77963 -0.50284,-1.47321 -1.32296,-1.99299 -2.612508,-1.65576 -1.26801,0.33159 -2.27266,-0.27124 -3.08762,-1.85272 -0.99852,-1.93769 -0.97869,-2.12746 0.11438,-1.09424 0.72733,0.6875 1.96251,1.25 2.74485,1.25 1.160518,0 1.189718,-0.28043 0.15856,-1.52289 -1.06821,-1.28712 -0.97105,-1.43715 0.627558,-0.96907 1.24236,0.36377 1.11363,0.14506 -0.375098,-0.63731 -1.39306,-0.73208 -2.07151,-1.80563 -1.76046,-2.78565 1.08545,-3.41997 0.72525,-13.84277 -0.55861,-16.16381 -0.73661,-1.3317 -1.26869,-2.68377 -1.1824,-3.0046 0.3077,-1.14402 -3.23207,-0.55945 -4.54152,0.75 -0.73333,0.73333 -2.20119,1.33333 -3.2619,1.33333 -1.46759,0 -1.92857,0.70298 -1.92857,2.94098 0,1.61754 -0.45734,3.22364 -1.01631,3.5691 -0.55897,0.34546 -0.7506,1.15952 -0.42585,1.80902 0.32476,0.64949 -0.17844,0.2809 -1.11822,-0.8191 -1.60522,-1.8789 -1.66855,-1.88462 -1.04588,-0.0945 0.43159,1.24077 -0.0511,2.66533 -1.38367,4.08382 -1.73831,1.85034 -2.05252,3.52099 -2.08668,11.09454 -0.0512,11.34506 -1.07833,27.30331 -1.65202,25.66618 -0.24092,-0.6875 -1.03557,-1.25 -1.76588,-1.25 -0.90503,0 -1.49839,-1.99014 -1.86342,-6.25 -0.75685,-8.83221 -0.77256,-8.8866 -2.21971,-7.68557 -0.86109,0.71465 -1.45313,0.6948 -1.92236,-0.0644 -0.47192,-0.76359 -1.05897,-0.78099 -1.93104,-0.0572 -0.68914,0.57193 -1.62122,0.70628 -2.0713,0.29855 -0.45007,-0.40772 -0.50675,-0.19847 -0.12596,0.46501 0.38079,0.66348 1.46544,0.96424 2.41032,0.66836 1.59261,-0.4987 1.59027,-0.43274 -0.032,0.90392 -0.9625,0.79303 -1.75,2.17977 -1.75,3.08163 0,1.94524 0.42749,2.00896 3.31574,0.49425 2.11537,-1.10938 2.12906,-1.08324 0.43426,0.82874 -0.9625,1.08584 -1.75,2.52788 -1.75,3.20453 0,0.67665 -0.44484,0.95534 -0.98854,0.61932 -0.5437,-0.33603 -0.74822,0.0153 -0.45449,0.78077 0.29373,0.76545 -0.16143,1.96892 -1.01146,2.67438 -1.2559,1.04231 -1.83453,1.0428 -3.08789,0.003 -1.97546,-1.63949 -3.79227,-0.0403 -2.32164,2.04353 0.87988,1.24677 0.96027,1.20436 0.48974,-0.25836 -0.30962,-0.9625 -0.17955,-1.75 0.28904,-1.75 0.46859,0 1.08734,0.9 1.37499,2 0.28766,1.1 0.11514,2 -0.38337,2 -0.4985,-5e-4 -0.90637,0.92606 -0.90637,2.05852 0,1.13246 -0.42186,1.79829 -0.93748,1.47962 -0.53191,-0.32874 -0.73347,0.54559 -0.46592,2.02106 0.25936,1.43025 0.11872,2.3827 -0.31252,2.11655 -0.43125,-0.26614 -0.82378,3.86032 -0.8723,9.16993 -0.0485,5.3096 0.19791,8.30382 0.54763,6.65382 0.4101,-1.93489 0.89261,1.01212 1.35904,8.3006 0.76502,11.95417 0.68962,12.23281 -4.03581,14.91334 -1.67811,0.95192 -2.24629,0.95192 -2.63238,0 -0.36196,-0.89242 -0.51328,-0.90178 -0.57131,-0.0354 -0.0434,0.64822 0.58716,1.84469 1.4013,2.65883 1.06032,1.06031 1.44278,3.50992 1.34814,8.63472 -0.0727,3.93496 -0.45931,6.62507 -0.85921,5.97802 -0.53557,-0.86658 -0.84609,-0.81942 -1.1789,0.17903 -0.24851,0.74551 -0.80816,0.009 -1.24367,-1.63685 z m 0.1365,-8.67982 c -0.31922,-0.79773 -0.55618,-0.56078 -0.60416,0.60417 -0.0434,1.05416 0.19292,1.64479 0.52522,1.3125 0.33229,-0.33229 0.36781,-1.1948 0.079,-1.91667 z m 2,-11 c -0.31922,-0.79773 -0.55618,-0.56078 -0.60416,0.60417 -0.0434,1.05416 0.19292,1.64479 0.52522,1.3125 0.33229,-0.33229 0.36781,-1.1948 0.079,-1.91667 z m 94.316888,-26.93053 c 0,-0.55 -0.45,-0.72189 -1,-0.38197 -0.55,0.33992 -1,0.0665 -1,-0.60765 0,-0.67413 -0.23559,-0.99009 -0.52354,-0.70214 -0.85182,0.85182 0.65188,3.84851 1.62832,3.24503 0.49237,-0.3043 0.89522,-1.00327 0.89522,-1.55327 z M 49.305442,712.87888 c -0.3323,-0.33229 -1.1948,-0.36781 -1.91667,-0.0789 -0.79773,0.31922 -0.56078,0.55618 0.60417,0.60416 1.05416,0.0434 1.64479,-0.19293 1.3125,-0.52522 z m -0.046,-7.58333 c -0.31923,-0.79773 -0.55619,-0.56078 -0.60417,0.60417 -0.0434,1.05416 0.19293,1.64479 0.52522,1.3125 0.33229,-0.33229 0.36782,-1.1948 0.079,-1.91667 z m 106.979158,-7.0625 c -0.27741,-0.6875 -0.50439,-0.125 -0.50439,1.25 0,1.375 0.22698,1.9375 0.50439,1.25 0.27741,-0.6875 0.27741,-1.8125 0,-2.5 z m -107.979168,-3.9375 c -0.31922,-0.79773 -0.55618,-0.56078 -0.60416,0.60417 -0.0434,1.05416 0.19292,1.64479 0.52522,1.3125 0.33229,-0.33229 0.36781,-1.1948 0.079,-1.91667 z m -2,-8 c -0.31922,-0.79773 -0.55618,-0.56078 -0.60416,0.60417 -0.0434,1.05416 0.19292,1.64479 0.52522,1.3125 0.33229,-0.33229 0.36781,-1.1948 0.079,-1.91667 z m 32,-7 c -0.31922,-0.79773 -0.55618,-0.56078 -0.60416,0.60417 -0.0434,1.05416 0.19292,1.64479 0.52522,1.3125 0.33229,-0.33229 0.36781,-1.1948 0.079,-1.91667 z m 80.316888,-1.20551 c 0,-0.21616 -0.675,-0.65203 -1.5,-0.96862 -0.825,-0.31658 -1.5,-0.13972 -1.5,0.39301 0,0.53274 0.675,0.96862 1.5,0.96862 0.825,0 1.5,-0.17686 1.5,-0.39301 z m 9.68311,-18.79449 c -0.31922,-0.79773 -0.55618,-0.56078 -0.60416,0.60417 -0.0434,1.05416 0.19292,1.64479 0.52522,1.3125 0.33229,-0.33229 0.36781,-1.1948 0.0789,-1.91667 z m 0,-4 c -0.31922,-0.79773 -0.55618,-0.56078 -0.60416,0.60417 -0.0434,1.05416 0.19292,1.64479 0.52522,1.3125 0.33229,-0.33229 0.36781,-1.1948 0.0789,-1.91667 z m -82.683108,-3.8125 c 0,-0.55 -0.47656,-1 -1.05902,-1 -0.58246,0 -0.7809,0.45 -0.44098,1 0.33992,0.55 0.81647,1 1.05902,1 0.24254,0 0.44098,-0.45 0.44098,-1 z m -45,-17.60765 c 0,-0.82763 -1.94173,-1.29565 -2.38691,-0.57533 -0.28881,0.46731 0.13009,0.84965 0.9309,0.84965 0.8008,0 1.45601,-0.12345 1.45601,-0.27432 z m -20.29274,-26.63069 c -0.23919,-1.24391 -0.44398,-0.46166 -0.45508,1.73834 -0.0111,2.2 0.18461,3.21775 0.4349,2.26166 0.25029,-0.95609 0.25937,-2.75609 0.0202,-4 z M 162.57632,501.54207 c 0,-0.51754 -0.45734,-1.22364 -1.01631,-1.5691 -0.55897,-0.34546 -0.71444,-1.11655 -0.34549,-1.71353 0.40038,-0.64782 0.20538,-0.79775 -0.48369,-0.37188 -1.54467,0.95465 -1.47567,-0.68097 0.0955,-2.26376 1.00292,-1.01033 0.85467,-1.11169 -0.75,-0.51276 -1.78646,0.66677 -1.85144,0.56388 -0.60856,-0.96365 1.2086,-1.4854 1.18583,-1.63122 -0.1733,-1.10967 -0.98055,0.37627 -1.97988,-0.17522 -2.67663,-1.47711 -0.61154,-1.14266 -1.95855,-2.07756 -2.99337,-2.07756 -1.03482,0 -2.04084,-0.47808 -2.23561,-1.06239 -0.24369,-0.73107 -1.28324,-0.6865 -3.33334,0.14291 l -2.9792,1.2053 3.02092,0.68394 c 3.84166,0.86975 8.47908,3.88352 8.47908,5.51039 0,0.68757 0.93266,2.43582 2.07258,3.88499 2.08352,2.64877 3.92742,3.44403 3.92742,1.69388 z m 3,-0.059 c 0,-0.55 -0.19844,-1 -0.44098,-1 -0.24254,0 -0.7191,0.45 -1.05902,1 -0.33992,0.55 -0.14148,1 0.44098,1 0.58246,0 1.05902,-0.45 1.05902,-1 z m 11.35047,-5.02833 c 0.46776,-0.42493 -0.43224,-0.76327 -2,-0.75186 -4.50506,0.0328 -7.35047,0.73387 -7.35047,1.81106 0,1.1077 7.95744,0.2063 9.35047,-1.0592 z m -69.85047,-0.97167 c 0.738,-1.19411 -23.398888,-1.22993 -30.999998,-0.046 -3.52765,0.54946 0.20947,0.81813 12.69098,0.9124 10.86377,0.082 17.929488,-0.25231 18.309018,-0.8664 z m -64.082418,-2.86665 c 0.95486,-1.54499 -10.00369,-3.1736 -13.39638,-1.9909 -1.67542,0.58406 -3.8281,0.72193 -4.78371,0.30639 -0.95562,-0.41554 -2.41249,-0.79903 -3.23749,-0.85219 -0.88455,-0.057 -1.36999,-0.85585 -1.18312,-1.947 0.19021,-1.1107 -0.10959,-1.58678 -0.75,-1.19099 -1.17575,0.72666 -1.45463,4.82026 -0.40021,5.87467 0.99328,0.99329 23.12862,0.80691 23.75091,-0.19998 z m 6.31159,0.26248 c -0.3323,-0.33229 -1.1948,-0.36781 -1.91667,-0.0789 -0.79773,0.31922 -0.56078,0.55618 0.60417,0.60416 1.05416,0.0434 1.64479,-0.19293 1.3125,-0.52522 z m 109.652388,-1.94777 c 0.34149,-0.88992 0.17385,-1.29132 -0.39301,-0.94098 -0.5437,0.33602 -0.98855,1.0344 -0.98855,1.55194 0,1.43843 0.71677,1.12146 1.38156,-0.61096 z M 46.076322,445.48307 c 0.33992,-0.55 -0.30853,-1 -1.44098,-1 -1.13246,0 -2.38527,-0.0337 -2.78402,-0.075 -0.39875,-0.0412 -0.88625,0.40875 -1.08333,1 -0.45221,1.35661 4.47324,1.4262 5.30833,0.075 z M 109.5022,432.35551 c 0.089,-4.3577 -2.11271,-6.7922 -4.41487,-4.88158 -1.84698,1.53286 -1.02324,3.14293 1.17617,2.29894 1.43787,-0.55176 1.54467,0.14298 0.93569,6.08693 -0.79057,7.71649 0.47975,11.53264 1.539,4.62327 0.37944,-2.475 0.72324,-6.1324 0.76401,-8.12756 z m -60.498078,9.80001 c -0.84147,-2.19284 1.38799,-6.66382 3.80765,-7.63591 2.24807,-0.90315 2.246,-0.91023 -0.28545,-0.97315 -1.4025,-0.0349 -3.09,0.47661 -3.75,1.13661 -1.4287,1.4287 -1.62252,8.8 -0.23139,8.8 0.53274,0 0.73938,-0.5974 0.45919,-1.32755 z m 20.98467,0.72277 c 1.95547,-0.75039 1.07321,-2.42341 -1.22149,-2.31627 -1.21033,0.0565 -1.30351,0.23303 -0.32783,0.62105 1.15087,0.45768 1.15087,0.6766 0,1.40574 -1.58524,1.00434 -0.73001,1.16413 1.54932,0.28948 z m 8.58753,-3.07668 c 0,-0.79012 0.40803,-1.1844 0.90674,-0.87618 0.49871,0.30822 0.6706,-0.34262 0.38198,-1.44631 -0.28863,-1.10368 0.0335,-2.67931 0.7157,-3.50138 1.01295,-1.22053 0.94639,-1.49467 -0.36292,-1.49467 -0.94202,0 -1.84241,1.13434 -2.18285,2.75 -0.3187,1.5125 -1.00228,3.53139 -1.51905,4.48643 -1.49143,2.75624 -1.19458,4.22008 0.5604,2.76357 0.825,-0.68469 1.5,-1.89135 1.5,-2.68146 z m 40.999998,0.68146 c 0,-1.03508 0.45734,-2.16462 1.01631,-2.51008 0.55897,-0.34546 0.71444,-1.11655 0.34549,-1.71353 -0.36895,-0.59697 -0.2423,-0.82057 0.28144,-0.49688 0.52374,0.32369 1.60577,0.17511 2.40451,-0.33018 1.08483,-0.68627 0.74359,-0.92258 -1.34878,-0.93402 -2.26881,-0.0124 -3.08238,0.65808 -4.28181,3.52871 -1.46887,3.5155 -1.13672,6.01872 0.65194,4.91327 0.51199,-0.31643 0.9309,-1.42221 0.9309,-2.45729 z m -78.002978,-5.5 c -0.54388,-1.49232 -1.63854,-2 -4.31242,-2 -3.90986,0 -3.69618,1.12829 0.3154,1.66532 1.375,0.18408 2.55625,0.89718 2.625,1.58468 0.48583,4.85835 0.47863,4.84321 1.30825,2.75 0.43597,-1.1 0.46467,-2.9 0.0638,-4 z m 73.563348,-1.5 c 1.2722,0 1.85249,-1.14709 1.59224,-3.14744 -0.0463,-0.35609 0.80038,-0.41611 1.88158,-0.13337 1.08119,0.28274 1.96581,0.93815 1.96581,1.45646 0,0.51831 0.48068,0.64531 1.06817,0.28222 0.5875,-0.3631 0.85413,-1.21796 0.59252,-1.8997 -0.61853,-1.61189 0.90795,-4.05192 2.55284,-4.08061 0.70756,-0.0123 1.14387,-0.845 0.96959,-1.85035 -0.19095,-1.10147 0.10992,-1.56413 0.75706,-1.16418 0.59067,0.36505 1.33922,-0.0276 1.66343,-0.87245 0.93587,-2.43882 7.07686,-3.11338 11.05839,-1.21472 2.4287,1.15817 3.97073,1.35588 5.24713,0.67277 2.39811,-1.28343 5.09087,-5.49084 5.09087,-7.95443 0,-1.08689 0.49821,-2.28408 1.10713,-2.66041 0.7176,-0.4435 0.91228,-0.0245 0.55332,1.19098 -0.3046,1.03138 -0.8707,3.67523 -1.258,5.87523 -0.3873,2.2 -1.27659,4.9 -1.97619,6 -1.04566,1.64412 -1.01882,2.22944 0.15087,3.28943 0.91768,0.83161 1.42287,0.89942 1.42287,0.19098 0,-0.60414 0.45,-0.82033 1,-0.48041 0.55,0.33992 1,0.0933 1,-0.54797 0,-0.6413 -0.6765,-0.90641 -1.50332,-0.58913 -1.283,0.49234 -1.26697,0.21616 0.10938,-1.88442 0.88699,-1.35372 1.92772,-2.26662 2.31274,-2.02866 0.38502,0.23795 0.71891,-1.00341 0.74198,-2.75859 0.10483,-7.97438 0.31262,-8.91542 1.83922,-8.3296 0.825,0.31658 1.5,0.13972 1.5,-0.39301 0,-0.53274 -0.43588,-0.96862 -0.96862,-0.96862 -0.53273,0 -0.71505,-0.66077 -0.40514,-1.46838 0.30991,-0.80761 0.85829,-1.37011 1.21862,-1.25 0.36033,0.12011 0.79141,-0.23162 0.95796,-0.78162 0.71192,-2.35094 -2.81772,-1.37555 -4.30257,1.18898 -0.89515,1.54606 -1.37391,1.98672 -1.0639,0.97923 0.31001,-1.00748 0.56365,-2.22915 0.56365,-2.71481 0,-0.48567 0.94246,-1.38742 2.09435,-2.00389 1.71742,-0.91914 2.4939,-0.7455 4.31445,0.96481 2.68021,2.51793 3.3969,2.5715 5.76246,0.43069 1.70166,-1.53998 1.95582,-1.53998 3.65748,0 1.00581,0.91025 2.07901,1.65499 2.3849,1.65499 0.84744,0 3.78636,-9.54944 3.78636,-12.30304 0,-1.33498 -0.93266,-3.61293 -2.07258,-5.0621 l -2.07258,-2.63486 H 96.529422 22.627682 l -1.52568,2.95034 c -1.11993,2.16571 -1.52568,6.15491 -1.52568,15 0,10.71633 0.2213,12.27097 2,14.04966 1.14172,1.14172 2,3.33333 2,5.10699 0,2.57476 0.29977,2.98001 1.75,2.36571 3.50576,-1.485 10.26975,-2.19569 10.13921,-1.06533 -0.35585,3.08139 0.41698,4.31472 3.61079,5.76234 3.21605,1.45771 3.50514,1.45433 3.56338,-0.0417 0.0397,-1.01993 0.42673,-0.71862 1.03611,0.80666 0.535,1.33909 0.73663,3.04996 0.44807,3.80193 -0.28856,0.75198 -0.0798,1.0923 0.46389,0.75627 0.5437,-0.33602 1.01707,-2.2719 1.05193,-4.30194 0.057,-3.32029 0.15765,-3.45573 1.00194,-1.34863 0.51621,1.2883 0.64316,2.82033 0.28211,3.40451 -0.39941,0.64626 -0.17769,0.76627 0.56623,0.3065 0.67248,-0.41561 0.98113,-1.38514 0.6859,-2.15451 -0.29524,-0.76932 -0.0744,-1.3988 0.49084,-1.3988 0.5652,0 0.70655,-0.51953 0.31411,-1.15451 -0.44563,-0.72104 -0.27394,-0.88282 0.45729,-0.4309 0.64395,0.39798 0.94669,1.08626 0.67275,1.52951 -0.27394,0.44324 0.61872,0.8059 1.98369,0.8059 1.36497,0 2.4977,-0.50625 2.51719,-1.125 0.0195,-0.61875 0.71919,0 1.55488,1.375 l 1.51943,2.5 -0.4162,-2.75 c -0.22891,-1.5125 -0.0286,-2.75 0.44513,-2.75 0.87014,0 1.23376,1.45683 0.93597,3.75 -0.0893,0.6875 0.3599,1.25 0.99815,1.25 0.65523,0 0.94012,-0.84263 0.65435,-1.93542 -0.64214,-2.45553 2.29469,-3.7552 3.80824,-1.6853 0.59848,0.81847 2.29786,1.79175 3.77638,2.16283 1.69426,0.42523 2.68824,1.35231 2.68824,2.50728 0,1.00792 0.40803,2.08475 0.90674,2.39297 0.49871,0.30822 0.67122,-0.34022 0.38337,-1.44098 -0.40176,-1.53632 -0.0315,-2.00138 1.59326,-2.00138 1.16414,0 2.12352,0.5625 2.13194,1.25 0.0102,0.83333 0.33844,0.75 0.98469,-0.25 0.53315,-0.825 0.96937,-2.175 0.96937,-3 0,-1.20233 -0.16779,-1.2353 -0.84552,-0.16615 -0.68077,1.07393 -0.96395,1.02522 -1.4533,-0.25 -0.33428,-0.87112 -1.12005,-1.58385 -1.74616,-1.58385 -0.6261,0 -0.87935,0.675 -0.56277,1.5 0.31659,0.825 0.13973,1.5 -0.39301,1.5 -0.53273,0 -0.96861,-1.17675 -0.96861,-2.61501 0,-2.54464 0.0659,-2.57185 2.44785,-1.01112 1.50084,0.98339 2.6843,1.22132 3.05902,0.61501 0.33614,-0.54388 1.06116,-0.98888 1.61116,-0.98888 0.55,0 0.72189,0.45 0.38197,1 -0.33992,0.55 -0.35198,1 -0.0268,1 0.32518,0 0.99822,-1.0125 1.49563,-2.25 0.9016,-2.24307 0.9047,-2.2423 1.00374,0.25 l 0.0993,2.5 2.45907,-3 c 2.65773,-3.24237 3.22365,-5.05231 1.219,-3.89869 -0.6875,0.39564 -0.9009,0.3356 -0.47423,-0.13342 1.45212,-1.59624 5.20079,-1.53664 6.3988,0.10173 1.30714,1.78763 3.71861,1.01327 2.76758,-0.88872 -0.32475,-0.64949 0.005,-0.4669 0.73369,0.40576 2.38357,2.85609 8.887728,5.44326 7.324158,2.91334 -0.33992,-0.55 0.0467,-1 0.8592,-1 0.81247,0 2.10582,-0.24122 2.87411,-0.53603 0.76828,-0.29482 2.60509,0.58369 4.08179,1.95225 2.26365,2.09788 2.71127,3.39792 2.853,8.28603 0.12351,4.25973 0.27216,4.80296 0.56037,2.04775 0.25263,-2.41513 0.90472,-3.75 1.8319,-3.75 z m -1.54506,-3.25 c 0.0124,-1.81944 0.20082,-1.96296 0.98469,-0.75 1.25292,1.93876 1.25292,3 0,3 -0.55,0 -0.99311,-1.0125 -0.98469,-2.25 z m -44.945028,-1.5 c 0.0623,-2.43684 0.16816,-2.52225 0.92972,-0.75 1.17371,2.73138 1.17371,3.5 0,3.5 -0.55,0 -0.96837,-1.2375 -0.92972,-2.75 z m -28.07028,0.94805 c 0,-0.6244 -0.62948,-0.89373 -1.39885,-0.59849 -1.87141,0.71812 -2.71994,-0.84093 -1.44084,-2.64731 0.81993,-1.15792 0.9056,-1.07501 0.42268,0.40909 -0.4444,1.36571 -0.21176,1.71018 0.87364,1.29367 1.53485,-0.58897 3.1981,1.02359 2.1435,2.07819 -0.33007,0.33007 -0.60013,0.0893 -0.60013,-0.53515 z m 11,-2.19805 c 0,-1.1 0.17251,-2 0.38337,-2 0.21085,0 0.61872,0.9 0.90638,2 0.28765,1.1 0.11514,2 -0.38337,2 -0.49851,0 -0.90638,-0.9 -0.90638,-2 z m -8.84211,-1 c 0,-1.375 0.22698,-1.9375 0.50439,-1.25 0.27741,0.6875 0.27741,1.8125 0,2.5 -0.27741,0.6875 -0.50439,0.125 -0.50439,-1.25 z m 20.40377,11.90023 c -0.91317,1.47754 0.73434,1.40377 2.23834,-0.10023 1.53233,-1.53233 1.56559,-3.14398 0.0455,-2.20451 -0.72104,0.44563 -0.88283,0.27393 -0.4309,-0.45729 0.39798,-0.64395 1.11141,-0.93114 1.58541,-0.6382 0.47399,0.29294 1.14445,0.0753 1.48992,-0.48369 0.36372,-0.58851 -0.46228,-1.01631 -1.96229,-1.01631 -1.42472,0 -2.85935,0.70086 -3.18806,1.55747 -0.32871,0.85661 -1.23796,1.31176 -2.02055,1.01146 -0.78817,-0.30246 -1.15036,-0.10505 -0.81194,0.44252 0.78711,1.27357 -0.0931,1.25239 -2.82282,-0.0679 -2.07306,-1.00268 -2.06498,-0.95251 0.1586,0.98548 1.87879,1.63749 2.74453,1.82699 4.37068,0.9567 1.46949,-0.78645 1.84067,-0.78246 1.34812,0.0145 z m 18.78342,-2.44336 c -0.32569,-0.84872 -0.80663,-1.32866 -1.06876,-1.06653 -0.26212,0.26213 -0.17997,0.95654 0.18256,1.54313 0.98605,1.59546 1.56238,1.28551 0.8862,-0.4766 z m 6.59167,-2.03309 c -1.07884,-1.29991 -1.07476,-1.72045 0.0233,-2.39907 0.74079,-0.45784 1.05005,-1.55607 0.69715,-2.47572 -0.4395,-1.14533 -0.25395,-1.42444 0.60428,-0.90897 0.70091,0.42098 0.58741,-0.0739 -0.26145,-1.14002 -0.87422,-1.09798 -0.97852,-1.57062 -0.25,-1.13294 0.6875,0.41304 1.25,0.30097 1.25,-0.24903 0,-2.15761 -2.03922,-2.10367 -2.85726,0.0756 -2.72158,7.25026 -3.05512,8.98674 -1.62041,8.4362 0.77749,-0.29836 1.67959,-0.11212 2.00466,0.41386 0.32507,0.52598 0.84458,0.95633 1.15447,0.95633 0.30989,0 -0.0252,-0.7093 -0.74471,-1.57622 z m -25.32962,-2.95272 c 0.11874,-0.80908 -0.16631,-1.47106 -0.63347,-1.47106 -0.46715,0 -0.78302,0.88069 -0.70194,1.95709 0.16175,2.14729 0.99334,1.84462 1.33541,-0.48603 z m 56.392868,1.52894 c 0,-0.55 -0.19844,-1 -0.44098,-1 -0.24254,0 -0.7191,0.45 -1.05902,1 -0.33992,0.55 -0.14148,1 0.44098,1 0.58246,0 1.05902,-0.45 1.05902,-1 z m -92.605028,-1.16994 c -0.4816,-0.77924 -0.18437,-0.96322 0.89006,-0.55093 1.09246,0.41922 1.44616,0.18395 1.09587,-0.72891 -0.28449,-0.74135 0.033,-1.68797 0.70543,-2.10358 0.78187,-0.48322 0.96544,-0.33942 0.50916,0.39885 -0.39244,0.63498 -0.28511,1.15451 0.2385,1.15451 1.16902,0 2.25344,-2.57924 1.43044,-3.40223 -1.09064,-1.09065 -2.15906,-0.62412 -4.60046,2.00882 -1.77439,1.9136 -2.98537,2.42618 -4.55499,1.928 -1.31206,-0.41643 -1.85354,-1.13367 -1.40162,-1.85659 1.1621,-1.85899 1.21016,-3.678 0.0972,-3.678 -0.56018,0 -0.76502,0.66059 -0.45519,1.46797 0.30982,0.80739 0.15262,1.7218 -0.34934,2.03203 -1.31595,0.8133 -0.11897,3.30954 1.83514,3.82707 3.37799,0.89464 5.29105,0.68612 4.55983,-0.49701 z m 66.60503,-0.43771 c 0,-0.82763 -1.94173,-1.29565 -2.38691,-0.57533 -0.28881,0.46731 0.13009,0.84965 0.9309,0.84965 0.8008,0 1.45601,-0.12345 1.45601,-0.27432 z m 3.161,-3.63135 c -1.27135,-1.27135 -4.52565,-0.16003 -3.65529,1.24825 0.34787,0.56286 1.05457,0.76251 1.57045,0.44368 0.51588,-0.31883 1.25899,0.23633 1.65136,1.23369 0.68274,1.73548 0.72943,1.73364 1.08672,-0.0428 0.20532,-1.02092 -0.0886,-2.31817 -0.65324,-2.88278 z m 27.501278,-0.011 c -0.27741,-0.6875 -0.50439,-0.125 -0.50439,1.25 0,1.375 0.22698,1.9375 0.50439,1.25 0.27741,-0.6875 0.27741,-1.8125 0,-2.5 z m 7.64471,-0.75 c 1.35729,0 1.72542,-0.47315 1.27711,-1.64144 -0.53036,-1.3821 -0.38565,-1.43875 0.9159,-0.35856 1.29766,1.07696 1.44713,1.02579 0.93116,-0.31881 -0.46611,-1.21466 -0.10919,-1.50435 1.47711,-1.19886 2.63597,0.50764 2.67731,-0.0986 0.10076,-1.4775 -2.16658,-1.15951 -6.51643,0.49178 -8.91795,3.38543 -1.54886,1.86626 -0.42603,4.34469 1.22179,2.69687 0.59792,-0.59792 1.94527,-1.08713 2.99412,-1.08713 z m 12.69301,0 c 0,-0.55 -1.0125,-0.99311 -2.25,-0.98469 -1.81944,0.0124 -1.96296,0.20082 -0.75,0.98469 1.93876,1.25292 3,1.25292 3,0 z M 172.9184,412.034 c 0.36987,-0.96386 0.0755,-1.26467 -0.87911,-0.89835 -0.90513,0.34733 -1.78685,-0.37424 -2.38739,-1.95379 -1.10942,-2.918 -2.63841,-4.08701 -4.13542,-3.16181 -0.67291,0.41588 -0.39909,1.19468 0.75,2.13318 0.99541,0.81298 1.24734,1.19323 0.55984,0.84498 -1.93068,-0.97797 -1.48229,0.19054 0.93856,2.4459 2.57458,2.39859 4.38015,2.60526 5.15352,0.58989 z m -11.84208,-0.55093 c 0.33992,-0.55 0.14148,-1 -0.44098,-1 -0.58246,0 -1.05902,0.45 -1.05902,1 0,0.55 0.19844,1 0.44098,1 0.24254,0 0.7191,-0.45 1.05902,-1 z m -28.99117,-31.97219 c -0.60015,-1.8909 -0.0362,-1.98486 13.68261,-2.27973 7.86971,-0.16916 -15.84144,-0.37505 -52.691438,-0.45753 -38.09505,-0.0853 -66.13717,0.22079 -65,0.70945 1.92823,0.82859 1.92138,0.86195 -0.19098,0.92971 -1.20505,0.0387 -2.43759,-0.32872 -2.73899,-0.8164 -1.72331,-2.78837 3.30262,-3.10129 54.02149,-3.36342 l 51.908478,-0.26829 -52.690978,-0.2408 c -36.62138,-0.16736 -52.8959,-0.57235 -53.36287,-1.32793 -1.91669,-3.10126 1.66751,-3.32273 50.30901,-3.10866 26.809658,0.118 50.094838,-0.159 51.744838,-0.61554 l 3,-0.83007 0.27746,-14.1793 0.27745,-14.1793 -42.027448,-0.0714 c -70.14726,-0.11922 -64.02746,0.17092 -64.02746,-3.03556 0,-1.83305 1.64537,-1.89301 51.95031,-1.89301 46.518058,0 52.043668,-0.16682 52.843098,-1.59533 1.41002,-2.51957 0.21165,-6.36745 -2.16204,-6.94215 -1.17225,-0.28381 -25.98137,-0.39149 -55.131368,-0.23927 l -53,0.27675 -0.30259,3.61962 c -0.24652,2.94884 0.0778,3.71908 1.75,4.15638 2.62846,0.68735 2.6631,3.33108 0.0526,4.01375 -1.88447,0.4928 -2,1.36401 -2,15.08145 0,13.53498 0.1406,14.63368 2,15.6288 2.58054,1.38106 2.5428,2.62479 -0.10062,3.31606 -2.2512,0.5887 -1.73625,2.68394 0.65964,2.68394 0.79254,0 1.44098,0.45 1.44098,1 0,0.55 -0.9,1 -2,1 -1.46667,0 -2,0.66667 -2,2.5 v 2.5 h 57.06739 c 56.344038,0 57.059448,-0.025 56.441438,-1.97219 z m -76.758828,-1.77702 c 13.8875,-0.15682 36.6125,-0.15682 50.499998,0 13.8875,0.15682 2.525,0.28513 -25.249998,0.28513 -27.775,0 -39.1375,-0.12831 -25.25,-0.28513 z m -8.73943,-45.73806 c -1.62381,-1.95656 -0.57531,-4.51273 1.85105,-4.51273 2.36524,0 3.5796,2.76343 2.03319,4.62675 -1.45948,1.75857 -2.35188,1.73237 -3.88424,-0.11402 z m 112.989428,39.48727 c 0,-0.65664 -22.83333,-1 -66.499998,-1 -43.66667,0 -66.5,0.34336 -66.5,1 0,0.65664 22.83333,1 66.5,1 43.666668,0 66.499998,-0.34336 66.499998,-1 z m -19.5,-34.27445 c 11,-0.14814 -10.15,-0.28304 -46.999998,-0.29978 -36.85,-0.0167 -62.05,0.21812 -56,0.5219 10.20902,0.51261 55.73361,0.41444 102.999998,-0.22212 z m 6.5,-3.41953 c -0.825,-0.29485 -2.05785,-1.23897 -2.73967,-2.09805 -0.68181,-0.85908 -1.53344,-1.26819 -1.8925,-0.90914 -1.11013,1.11014 1.75926,3.70554 4.00461,3.62222 1.43683,-0.0533 1.64057,-0.25299 0.62756,-0.61503 z M 44.843342,307.08345 c 0.68634,0.68634 11.52877,-3.00542 17.15955,-5.84269 6.51022,-3.28041 14.03318,-11.17719 17.18158,-18.03534 2.65,-5.77248 2.85317,-7.08999 2.81011,-18.22237 -0.0305,-7.89427 -0.97761,-17.98752 -2.76805,-29.5 -1.49689,-9.625 -3.23463,-20.875 -3.86164,-25 -1.72855,-11.37189 -1.5,-43.08732 0.45761,-63.5 4.95322,-51.649165 5.8242,-61.762897 5.35903,-62.228075 -0.86438,-0.864372 -0.98233,-0.118086 -7.14829,45.228075 -5.07871,37.35012 -6.03685,58.54184 -3.45882,76.5 0.51322,3.575 1.18352,8.75 1.48956,11.5 0.30604,2.75 1.73122,11.06966 3.16708,18.48813 2.12113,10.95905 2.50642,15.23508 2.0548,22.80492 -0.30572,5.12423 -0.98537,9.85457 -1.51033,10.51186 -0.52497,0.6573 -1.28401,2.26786 -1.68677,3.57902 -2.96151,9.64112 -15.95961,24.27916 -25.79487,29.04936 -3.41969,1.65858 -5.82502,3.02711 -5.34518,3.04116 0.47985,0.014 0.25485,0.81305 -0.5,1.77555 -1.21432,1.54837 -1.18902,1.60698 0.21957,0.50868 0.8756,-0.68273 1.85438,-0.97895 2.17506,-0.65828 z M 101.42705,79.385226 c 1.73207,-0.603804 3.14922,-1.739178 3.14922,-2.523053 0,-1.152751 -0.52575,-1.088961 -2.75,0.333657 -2.676978,1.712183 -2.663698,1.658766 0.5,-2.011743 3.61087,-4.189302 4.15981,-8.040981 1.79716,-12.609842 -1.79057,-3.462585 -6.579178,-5.679607 -9.217618,-4.267558 -6.20499,3.320808 -7.77182,9.788059 -3.79794,15.676364 l 2.69951,4 -2.61555,-2.424314 c -2.6748,-2.479224 -3.61746,-1.713768 -1.36556,1.108861 2.91756,3.657001 6.4992,4.496046 11.600778,2.717628 z m 15.14922,648.712134 c 0,-1.31213 0.67223,-3.67463 1.49384,-5.25 l 1.49384,-2.86431 0.006,4.25 c 0.003,2.3375 -0.4704,4.25 -1.05286,4.25 -0.58246,0 -0.7809,0.45 -0.44098,1 0.33992,0.55 0.14148,1 -0.44098,1 -0.5823,0 -1.05886,-1.07356 -1.05886,-2.38569 z M 44.655222,704.89972 c 0.048,-1.16495 0.28494,-1.4019 0.60416,-0.60417 0.28887,0.72187 0.25335,1.58438 -0.0789,1.91667 -0.33229,0.33229 -0.56864,-0.25834 -0.52522,-1.3125 z m 29.50596,-7.3628 c -2.92925,-1.06436 -2.9162,-3.83986 0.0154,-3.27944 1.307,0.24985 2.1538,0.81438 1.88179,1.25451 -0.27202,0.44013 0.0486,0.98129 0.7124,1.20257 0.6823,0.22743 0.79368,0.64487 0.25623,0.96027 -0.52291,0.30688 -1.81254,0.24482 -2.86584,-0.13791 z M 175.84863,442.48305 c 0,-2.475 0.19502,-3.4875 0.43337,-2.25 0.23836,1.2375 0.23836,3.2625 0,4.5 -0.23835,1.2375 -0.43337,0.225 -0.43337,-2.25 z"
     id="path15393"
     inkscape:connector-curvature="0" />
</svg>
