<?xml version="1.0" encoding="UTF-8" standalone="no"?>
<!-- Created with Inkscape (http://www.inkscape.org/) -->

<svg
   xmlns:dc="http://purl.org/dc/elements/1.1/"
   xmlns:cc="http://creativecommons.org/ns#"
   xmlns:rdf="http://www.w3.org/1999/02/22-rdf-syntax-ns#"
   xmlns:svg="http://www.w3.org/2000/svg"
   xmlns="http://www.w3.org/2000/svg"
   xmlns:sodipodi="http://sodipodi.sourceforge.net/DTD/sodipodi-0.dtd"
   xmlns:inkscape="http://www.inkscape.org/namespaces/inkscape"
   version="1.1"
   id="svg8687"
   width="386"
   height="756"
   viewBox="0 0 386 756"
   sodipodi:docname="paint3.svg"
   inkscape:version="0.92.3 (2405546, 2018-03-11)">
  <metadata
     id="metadata8693">
    <rdf:RDF>
      <cc:Work
         rdf:about="">
        <dc:format>image/svg+xml</dc:format>
        <dc:type
           rdf:resource="http://purl.org/dc/dcmitype/StillImage" />
        <dc:title></dc:title>
      </cc:Work>
    </rdf:RDF>
  </metadata>
  <defs
     id="defs8691" />
  <sodipodi:namedview
     pagecolor="#ffffff"
     bordercolor="#666666"
     borderopacity="1"
     objecttolerance="10"
     gridtolerance="10"
     guidetolerance="10"
     inkscape:pageopacity="0"
     inkscape:pageshadow="2"
     inkscape:window-width="1366"
     inkscape:window-height="705"
     id="namedview8689"
     showgrid="false"
     inkscape:zoom="0.31216931"
     inkscape:cx="193"
     inkscape:cy="378"
     inkscape:window-x="-8"
     inkscape:window-y="-8"
     inkscape:window-maximized="1"
     inkscape:current-layer="svg8687" />
  <path
     style="fill:#000000"
     d="m 128.51921,746.76554 c 0.32936,-0.53291 -0.0539,-0.96893 -0.85177,-0.96893 -0.79784,0 -1.73297,-1.125 -2.07807,-2.5 -0.46538,-1.8542 -1.33292,-2.53331 -3.35841,-2.62895 -6.82264,-0.32215 -7.94918,-0.56028 -10.23955,-2.16452 -1.34003,-0.93859 -1.97229,-1.70653 -1.40504,-1.70653 0.56726,0 1.90489,0.66069 2.97251,1.4682 2.44428,1.84876 4.04723,1.96703 2.57225,0.18979 -0.61257,-0.7381 -0.84816,-1.60762 -0.52353,-1.93225 0.32463,-0.32463 -0.42464,-0.32484 -1.66505,-4.6e-4 -1.7648,0.4615 -2.06428,0.28365 -1.37703,-0.81776 1.38669,-2.22237 1.3252,-3.57419 -0.16258,-3.57419 -0.93711,0 -1.06238,0.37208 -0.39573,1.17535 0.99884,1.20353 0.36155,2.49132 -1.23288,2.49132 -0.4908,0 -0.64338,-0.40285 -0.33908,-0.89522 0.3043,-0.49236 -0.15595,-1.16736 -1.02277,-1.5 -2.25956,-0.86707 -2.62439,-0.75669 -1.81698,0.54973 0.47697,0.77175 0.27,0.88039 -0.62429,0.32769 -1.04017,-0.64286 -0.85206,-1.14935 0.84549,-2.27648 2.52547,-1.67685 2.85135,-3.20572 0.68331,-3.20572 -0.825,0 -1.5,-0.42416 -1.5,-0.94258 0,-0.51842 0.92238,-0.76495 2.04974,-0.54784 1.16648,0.22464 2.28987,-0.23101 2.60699,-1.05742 0.6502,-1.69438 3.46321,-1.99191 3.09327,-0.32716 -0.1375,0.61875 0.32375,1.26 1.025,1.425 0.70125,0.165 0.85936,0.0865 0.35136,-0.17455 -0.87236,-0.4482 1.45737,-6.37545 2.5059,-6.37545 0.26718,0 0.20766,0.45 -0.13226,1 -0.33992,0.55 -0.029,1.03443 0.69098,1.07651 0.71996,0.0421 2.20902,0.2375 3.30902,0.43426 1.75601,0.3141 1.69501,0.10671 -0.5,-1.69998 l -2.5,-2.05772 4.5,0.82846 c 2.475,0.45565 5.625,0.77043 7,0.6995 1.375,-0.0709 7,-0.42023 12.5,-0.7762 7.70631,-0.49878 9.65595,-0.3799 8.5,0.5183 -1.24504,0.96743 -1.16006,1.04448 0.5,0.45331 5.06098,-1.80229 16.03464,-1.17777 13.33121,0.75869 -0.97594,0.69906 -0.84178,0.7947 0.50271,0.35838 1.00865,-0.32733 4.87842,-0.8781 8.59947,-1.22394 6.432,-0.59779 6.79469,-0.51739 7.35643,1.6307 0.34193,1.30755 1.14264,2.05491 1.90052,1.77391 0.72032,-0.26707 2.17589,0.34948 3.23463,1.37012 1.05873,1.02063 1.39623,1.8557 0.75,1.8557 -0.64624,0 -1.17497,0.49793 -1.17497,1.10651 0,0.73883 2.37844,0.98805 7.15766,0.75 5.45569,-0.27174 7.26991,-0.0262 7.62973,1.03269 0.28709,0.84483 0.0294,1.11559 -0.65766,0.69098 -0.62135,-0.38402 -1.12973,-0.13166 -1.12973,0.5608 0,0.97924 -0.26667,0.99235 -1.2,0.059 -0.66,-0.66 -2.1225,-1.15514 -3.25,-1.10032 -1.75718,0.0854 -1.6929,0.21404 0.45,0.90032 2.07256,0.66375 1.7306,0.81506 -2,0.88501 -3.25164,0.061 -4.08388,-0.18497 -3,-0.8865 1.08601,-0.70291 0.33842,-0.92989 -2.7087,-0.82237 -2.31479,0.0817 -3.97573,0.52545 -3.69098,0.98618 0.28474,0.46072 0.0412,0.83768 -0.5413,0.83768 -0.58246,2e-5 -1.05902,-0.447 -1.05902,-0.99337 0,-0.54636 -1.09106,-0.0447 -2.42458,1.11476 -1.33352,1.15948 -2.18537,2.7315 -1.89301,3.49339 0.29236,0.76188 0.0709,1.38524 -0.49209,1.38524 -0.56301,0 -1.24029,-0.5625 -1.50507,-1.25 -0.26477,-0.6875 -0.43386,-0.26868 -0.37574,0.93072 0.0581,1.1994 0.45868,1.96254 0.89016,1.69588 0.43147,-0.26666 1.57555,-0.0242 2.54241,0.53887 1.41024,0.82124 1.46125,1.0525 0.25792,1.16928 -0.825,0.0801 -2.28432,0.066 -3.24292,-0.0313 -0.95861,-0.0972 -2.74624,0.52594 -3.97251,1.38485 -1.22627,0.85891 -3.07931,1.56166 -4.11786,1.56166 -1.69087,0 -1.64147,-0.20561 0.47251,-1.96673 1.29843,-1.0817 1.82484,-1.9817 1.1698,-2 -0.65504,-0.0183 -1.4691,0.41673 -1.80902,0.96673 -0.33992,0.55 -2.58433,1 -4.98759,1 -2.40325,0 -4.9642,0.5625 -5.69098,1.25 -1.65085,1.56162 -7.49601,2.08556 -8.32382,0.74613 -0.33861,-0.54783 -1.06564,-0.99609 -1.61564,-0.99609 -0.55,0 -0.67463,0.52647 -0.27694,1.16994 0.5054,0.81776 0.14689,0.94788 -1.19099,0.43227 -5.77543,-2.22585 -10.43807,-2.97818 -11.55225,-1.864 -0.86652,0.86652 -0.63452,1.01512 0.94143,0.603 1.15023,-0.30079 4.10548,0.22231 6.56721,1.16246 2.46173,0.94014 4.88652,1.45556 5.38841,1.14538 0.50189,-0.31019 2.22397,-0.18183 3.82684,0.28523 2.6369,0.76837 2.48595,0.84687 -1.58568,0.82461 -2.475,-0.0135 -6.57323,-0.59648 -9.10718,-1.29543 -4.07406,-1.12378 -5.09118,-1.05414 -8.78982,0.60179 -2.30045,1.02994 -3.91316,1.4366 -3.5838,0.90368 z m 0.9235,-2.38717 c -1.06675,-0.78003 -2.15223,-1.20556 -2.41217,-0.94563 -0.55036,0.55036 2.02834,2.32607 3.4106,2.34856 0.51762,0.008 0.0683,-0.6229 -0.99843,-1.40293 z m 3.5573,-0.58176 c 0,-0.55 -0.7875,-0.99311 -1.75,-0.98469 -1.49555,0.0131 -1.5319,0.15626 -0.25,0.98469 1.88721,1.21961 2,1.21961 2,0 z m -4,-2.44098 c 0,-0.24254 -0.45,-0.7191 -1,-1.05902 -0.55,-0.33992 -1,-0.14148 -1,0.44098 0,0.58246 0.45,1.05902 1,1.05902 0.55,0 1,-0.19844 1,-0.44098 z m -6,-1.94239 c 0,-0.21085 -0.90062,-0.61888 -2.00138,-0.90674 -1.10076,-0.28785 -1.7492,-0.11534 -1.44098,0.38337 0.53825,0.87091 3.44236,1.31244 3.44236,0.52337 z m 46.78943,-2.01577 c -0.70919,-0.76953 -1.44699,-1.24947 -1.63957,-1.06653 -0.59314,0.56346 0.91014,2.46567 1.94858,2.46567 0.53923,0 0.40017,-0.62961 -0.30901,-1.39914 z m -51.42187,-3.38657 c 0.26708,-0.43215 -0.34832,-0.78572 -1.36756,-0.78572 -1.01924,0 -1.63464,0.35357 -1.36756,0.78572 0.26707,0.43214 0.88248,0.78571 1.36756,0.78571 0.48508,0 1.10049,-0.35357 1.36756,-0.78571 z m -4.91027,-4.14519 c 0.31644,-0.512 0.11799,-1.21356 -0.44098,-1.55902 -0.55897,-0.34546 -1.01631,0.0734 -1.01631,0.9309 0,1.75653 0.60006,2.01516 1.45729,0.62812 z m 20.27188,-6.67327 c -0.3323,-0.33229 -1.1948,-0.36781 -1.91667,-0.0789 -0.79773,0.31922 -0.56078,0.55618 0.60417,0.60416 1.05416,0.0434 1.64479,-0.19293 1.3125,-0.52522 z m 43,-1 c -0.3323,-0.33229 -1.1948,-0.36781 -1.91667,-0.0789 -0.79773,0.31922 -0.56078,0.55618 0.60417,0.60416 1.05416,0.0434 1.64479,-0.19293 1.3125,-0.52522 z m -30.97917,-1.08516 c -0.9625,-0.25152 -2.5375,-0.25152 -3.5,0 -0.9625,0.25153 -0.175,0.45733 1.75,0.45733 1.925,0 2.7125,-0.2058 1.75,-0.45733 z m 15.97917,0.0852 c -0.3323,-0.33229 -1.1948,-0.36781 -1.91667,-0.0789 -0.79773,0.31922 -0.56078,0.55618 0.60417,0.60416 1.05416,0.0434 1.64479,-0.19293 1.3125,-0.52522 z m -57.72917,5.21112 c 0,-0.21616 0.675,-0.65203 1.5,-0.96862 0.825,-0.31658 1.5,-0.13972 1.5,0.39301 0,0.53274 -0.675,0.96862 -1.5,0.96862 -0.825,0 -1.5,-0.17686 -1.5,-0.39301 z m 4,-0.77366 c 0,-0.45833 0.42344,-0.83333 0.94098,-0.83333 0.51754,0 1.17275,0.375 1.45601,0.83333 0.28327,0.45834 -0.14017,0.83334 -0.94098,0.83334 -0.8008,0 -1.45601,-0.375 -1.45601,-0.83334 z m 33,-27.37539 c -1.925,-0.86255 -4.79442,-2.78094 -6.37648,-4.2631 -4.95094,-4.63831 -9.76208,-17.19484 -6.58834,-17.19484 0.69255,0 0.67108,-0.68034 -0.0648,-2.05544 -0.60502,-1.13049 -0.88138,-2.59299 -0.61413,-3.25 0.34359,-0.84469 0.50903,-0.80753 0.56485,0.12687 0.0434,0.72678 0.65371,1.89619 1.3562,2.59868 1.03634,1.03634 1.27211,0.4727 1.25,-2.98818 -0.015,-2.34599 -0.36475,-4.6029 -0.77725,-5.01535 -0.4125,-0.41245 -0.69676,-2.58741 -0.63169,-4.83325 0.11312,-3.90379 0.15188,-3.95142 0.88169,-1.08333 0.67865,2.66704 0.78775,2.44506 0.983,-2 0.1208,-2.75 0.18251,-6.575 0.13714,-8.5 -0.0543,-2.30446 0.16726,-2.91936 0.64868,-1.80015 0.40215,0.93491 0.79473,-1.885 0.8724,-6.26647 0.0824,-4.65057 0.65559,-8.58609 1.37703,-9.45537 0.71163,-0.85746 1.38257,-5.32615 1.58181,-10.53539 0.1903,-4.97548 0.53724,-9.36049 0.77097,-9.74447 1.0216,-1.67829 2.01077,-14.76471 2.06747,-27.35205 0.0346,-7.68727 0.44973,-13.41423 0.94991,-13.10544 0.50353,0.31085 0.5842,-1.07311 0.18622,-3.19454 -0.51476,-2.74392 -0.38971,-3.54986 0.46852,-3.01945 0.85287,0.5271 0.9769,-0.15888 0.45685,-2.52667 -0.52005,-2.36779 -0.39602,-3.05377 0.45685,-2.52667 0.85255,0.52691 0.99119,-0.23338 0.51014,-2.79757 -0.36331,-1.93662 -0.70619,-5.13091 -0.76196,-7.09844 -0.0558,-1.96753 -0.39932,-3.57732 -0.76337,-3.57732 -0.36405,0 -0.90966,-2.3625 -1.21247,-5.25 -1.23135,-11.74171 -7.65909,-22.50687 -17.22924,-28.85549 -2.75,-1.82429 -9.5235,-5.18927 -15.05223,-7.47775 -5.52873,-2.28847 -11.542689,-4.9316 -13.364359,-5.87363 -5.42553,-2.80565 -11.926887,-9.4523 -19.113627,-19.5408 -10.74372,-15.08165 -15.22082,-18.88204 -43.65522,-37.0568 -8.90199,-5.68999 -15.94629,-10.73239 -15.654,-11.20533 0.29229,-0.47293 1.12645,-0.0462 1.85368,0.94839 0.72723,0.99454 1.62153,1.50897 1.98733,1.14317 0.3658,-0.3658 -0.27241,-1.60259 -1.41824,-2.74843 -1.14583,-1.14583 -2.08333,-1.54333 -2.08333,-0.88333 0,0.93333 -0.26667,0.93333 -1.2,0 -1.85975,-1.85974 -3.21322,-1.41464 -1.67245,0.55 1.26812,1.61697 1.22041,1.63958 -0.62755,0.29745 -3.8256502,-2.77846 -6.5000002,-5.4021 -6.5000002,-6.37675 0,-0.53937 0.9,-0.16619 2,0.8293 1.44643,1.30901 2,1.43739 2,0.46386 0,-0.85798 0.53241,-0.64221 1.4681902,0.59501 0.80751,1.06762 1.48251,1.40519 1.5,0.75015 0.0175,-0.65504 -0.44887,-1.48806 -1.03637,-1.85115 -0.58749,-0.3631 -0.8554,-1.21465 -0.59534,-1.89235 0.26006,-0.6777 -0.11636,-1.23219 -0.8364802,-1.23219 -0.77702,0 -1.06869,0.64371 -0.71743,1.58334 0.51476,1.37702 0.3691,1.40206 -1.11792,0.19215 -1.11257,-0.90524 -1.49114,-2.1278 -1.0838,-3.5 0.62255,-2.09719 0.61686,-2.09779 -1.03259,-0.10882 -1.61931,1.95263 -1.63172,1.94475 -0.52384,-0.33296 1.05223,-2.16333 1.26396,-2.21603 2.91178,-0.72478 1.63657,1.48108 1.88717,1.46788 3.1704102,-0.16703 1.25097,-1.59379 1.22363,-1.64251 -0.26759,-0.47667 -1.3131202,1.02661 -1.8214002,1.03897 -2.4270502,0.059 -0.42849,-0.69332 -0.24739,-1.41244 0.41098,-1.6319 0.64737,-0.21577 1.1770502,-0.83138 1.1770502,-1.36801 0,-0.53663 -0.5625002,-0.65198 -1.2500002,-0.25634 -0.72625,0.41793 -0.90083,0.33791 -0.41667,-0.19098 0.45833,-0.50068 1.35833,-0.93078 2.0000002,-0.95578 0.64167,-0.025 1.07775,-0.51675 0.96908,-1.09278 -0.10868,-0.57602 1.01632,-0.96341 2.5,-0.86087 2.79091,0.19289 5.19759,-1.04915 5.19759,-2.68236 0,-0.51512 -0.40285,-0.6876 -0.89522,-0.3833 -1.35975,0.84037 -2.3268,-2.61455 -1.07832,-3.85246 0.78736,-0.78069 0.92847,-0.52479 0.50579,0.91722 -0.32243,1.1 0.30745,0.0875 1.39975,-2.25 1.09229,-2.3375 2.256,-4.25 2.58601,-4.25 0.33001,0 0.27893,0.51953 -0.11351,1.15451 -0.42093,0.68108 -0.2764,0.88435 0.35246,0.4957 0.58629,-0.36235 0.94283,-1.78068 0.79231,-3.15184 -0.32754,-2.98386 1.68471,-6.08983 3.29902,-5.09213 0.63344,0.39149 1.15171,1.19034 1.15171,1.77522 0,0.71049 -0.45907,0.68244 -1.38322,-0.0845 -1.05659,-0.87689 -1.50565,-0.82891 -1.90171,0.2032 -0.33092,0.86238 0.16208,1.30102 1.36285,1.21256 2.90243,-0.21383 3.40601,-1.32046 1.53944,-3.38299 -1.57244,-1.73753 -1.57682,-1.93127 -0.0568,-2.51456 0.91857,-0.35249 1.40244,-1.26912 1.0941,-2.07263 -0.36985,-0.96381 -0.0695,-1.25515 0.90759,-0.88023 1.02877,0.39477 1.27765,0.0842 0.84208,-1.05093 -0.34008,-0.88628 -0.13431,-1.61138 0.45727,-1.61138 0.59159,0 0.81659,-0.675 0.5,-1.5 -0.35235,-0.91821 1.9e-4,-1.5 0.90894,-1.5 0.8165,0 2.08044,-0.7875 2.80876,-1.75 1.12655,-1.48877 1.11498,-1.56341 -0.0775,-0.5 -2.20581,1.96699 -3.16103,1.45886 -1.3136,-0.69877 0.91772,-1.07183 2.15082,-1.66045 2.74021,-1.30804 0.58939,0.3524 0.39662,-0.20704 -0.42838,-1.24319 -1.2035,-1.51152 -1.21932,-1.71471 -0.0801,-1.02791 1.06335,0.64103 1.26038,0.44022 0.7846,-0.79966 -0.40836,-1.06416 0.28032,-2.50471 1.92764,-4.03219 1.40963,-1.30709 2.63156,-3.5223 2.71539,-4.92271 0.12392,-2.07004 0.41679,-2.32845 1.56615,-1.38185 1.19462,0.98387 1.23295,0.82502 0.24729,-1.02499 -0.90466,-1.69801 -0.8853,-2.36475 0.0863,-2.97107 2.01585,-1.258 4.75271,-1.41597 4.75271,-0.27433 0,0.57901 -0.4949,0.74688 -1.09977,0.37305 -0.77269,-0.47755 -0.81288,-0.12335 -0.13513,1.19098 0.53055,1.02888 0.74018,2.5015 0.46583,3.2725 -0.41073,1.15428 0.67733,1.28132 6.16186,0.71941 l 6.66066,-0.68241 -0.54751,2.78059 c -0.51259,2.60323 -0.47423,2.6406 0.60145,0.5858 0.63193,-1.20713 0.90325,-2.8351 0.60293,-3.61771 -0.59805,-1.5585 -5.47874,-2.87122 -6.21941,-1.67279 -0.25375,0.41057 -1.59301,0.96281 -2.97614,1.22722 -2.21245,0.42293 -2.51477,0.13674 -2.51477,-2.3806 0,-1.57373 0.35297,-2.86133 0.78439,-2.86133 1.09825,0 4.21561,-5.47533 4.21561,-7.40429 0,-0.87764 -0.62956,-1.59571 -1.39902,-1.59571 -0.84827,0 2.82598,-6.99013 9.33333,-17.75636 5.9028,-9.76599 10.73235,-18.44857 10.73235,-19.29462 0,-1.6071 6.91294,-13.62864 10.3215,-17.94902 l 1.97238,-2.5 -1.20754,3.27127 c -0.95461,2.5861 -0.94339,3.69423 0.0536,5.29067 1.653297,2.64735 0.83914,3.78416 -2.28274,3.18737 -2.83799,-0.54251 -3.41991,1.14986 -0.88347,2.56932 2.4972,1.39751 0.74612,3.45859 -1.78673,2.10305 -2.25713,-1.20797 -2.14664,-1.26054 -3.72297,1.77147 -0.99167,1.90743 -0.81188,2.36341 1.38004,3.5 1.38615,0.71877 5.77579,3.38262 9.754757,5.91968 3.97898,2.53706 10.55807,6.58706 14.62021,9 4.062139,2.41294 8.787139,5.22561 10.500009,6.25038 1.71286,1.02476 11.43929,6.82192 21.61429,12.88257 10.175,6.06064 20.075,12.03505 22,13.27646 4.15957,2.68246 21.73248,13.11479 27.73881,16.46743 4.2105,2.35023 5.97146,2.28105 5.00258,-0.19654 -0.3912,-1.00036 -33.08087,-21.08973 -66.53992,-40.89196 -1.48581,-0.87935 -10.26767,-6.16685 -19.51526,-11.75 -9.247579,-5.58314 -17.235076,-10.15117 -17.749996,-10.15117 -0.51492,0 -0.93622,-0.9 -0.93622,-2 0,-1.32157 0.66666,-2 1.96532,-2 1.794567,0 15.436167,7.5972 30.534676,17.00519 8.8017,5.4844 25.61299,15.59568 32.2341,19.38744 3.17125,1.8161 13.33359,7.89641 22.58298,13.51181 18.84809,11.44286 20.31631,12.18853 19.42484,9.86539 -0.34828,-0.90759 3.50573,0.90363 9.07639,4.26552 12.86515,7.76412 21.26012,12.21955 21.87177,11.60791 0.27438,-0.27439 -1.23114,-1.57827 -3.3456,-2.89751 -11.2675,-7.02996 -126.335029,-75.80489 -127.715999,-76.33482 -0.89567,-0.3437 -1.61692,-0.23926 -1.60279,0.23208 0.0141,0.47135 4.51413,3.47844 10,6.68242 5.485869,3.20399 9.974309,6.04952 9.974309,6.3234 0,0.57703 -9.126399,-4.53081 -16.749999,-9.3746 -2.8875,-1.83463 -5.25,-3.99686 -5.25,-4.80496 0,-1.95848 3.78768,-1.77142 7.16434,0.35382 1.46539,0.9223 9.340389,5.67994 17.499999,10.57253 8.15961,4.89259 18.88566,11.37975 23.83566,14.41591 4.95,3.03615 15.975,9.64425 24.5,14.68465 8.525,5.04041 18.94207,11.303 23.14904,13.91688 4.71475,2.92937 8.51979,4.62484 9.9189,4.41972 1.68232,-0.24664 4.28786,-3.56837 10.06592,-12.83278 4.28784,-6.875 7.81183,-13.0396 7.8311,-13.69911 0.0405,-1.38548 -4.86578,-5.30764 -10.70001,-8.55378 -2.22129,-1.23591 -9.15211,-5.30517 -15.40183,-9.04279 -14.24676,-8.52024 -14.48726,-8.66651 -19.34662,-11.76711 -2.20908,-1.40953 -10.0915,-6.1042 -17.5165,-10.4326 -7.425,-4.32841 -13.65,-8.23765 -13.83333,-8.68722 -0.18334,-0.44956 -0.86638,-0.81739 -1.51787,-0.81739 -0.65149,0 -2.79157,-1.09201 -4.75572,-2.42669 -1.96416,-1.33468 -5.33112,-3.40275 -7.48214,-4.59572 -9.75433,-5.40983 -12.40737,-7.48956 -12.40915,-9.72759 -0.002,-2.94746 2.0492,-2.87417 6.99821,0.25 2.17814,1.375 4.17164,2.5 4.43,2.5 0.25835,0 2.4048,1.2375 4.76987,2.75 6.92104,4.42611 8.18867,5.19806 10.30013,6.27247 1.1,0.55973 4.025,2.33317 6.5,3.94097 2.475,1.60781 7.16967,4.33369 10.4326,6.05752 3.26294,1.72383 7.76294,4.38773 10,5.91979 2.23707,1.53206 5.8674,3.75797 8.0674,4.94647 2.2,1.1885 6.7,3.92639 10,6.08421 5.90138,3.85881 9.18125,5.7967 14.87589,8.78933 1.58174,0.83123 6.06104,3.47511 9.95401,5.87528 8.23976,5.08015 11.28334,5.51143 12.69485,1.79886 1.43388,-3.77139 1.26843,-4.286 -2.02116,-6.28652 -1.64802,-1.00223 -2.66052,-2.19276 -2.25,-2.64563 0.41053,-0.45287 0.15555,-0.48217 -0.5666,-0.0651 -0.73422,0.42402 -2.05667,0.12294 -3,-0.683 -2.00382,-1.71196 -42.19771,-26.29216 -52.68699,-32.22023 -8.8553,-5.00462 -12.06878,-6.93432 -13.5,-8.10675 -0.825,-0.67583 -3.525,-2.35381 -6,-3.72884 -2.475,-1.37504 -7.425,-4.34741 -11,-6.60527 -3.575,-2.25786 -7.9625,-4.86093 -9.75,-5.78459 -1.7875,-0.92366 -3.24752,-1.93354 -3.24448,-2.24417 0.003,-0.31064 2.96393,-4.27391 6.57977,-8.80728 5.37928,-6.74428 6.88661,-8.07532 8.29269,-7.32281 0.94514,0.50582 5.52174,1.92901 10.17023,3.16265 11.96778,3.17606 25.93919,3.16518 35.45179,-0.0276 11.22622,-3.76796 18.51876,-7.91149 24.24289,-13.7745 7.43151,-7.61181 9.77608,-11.69946 14.74557,-25.70814 7.61953,-21.47898 19.38644,-46.85519 29.25339,-63.08708 7.9875,-13.14005 27.11644,-38.79461 45.48372,-60.999999 0.45494,-0.55 4.91923,-6.175 9.92064,-12.5 5.00141,-6.325 11.45834,-14.2 14.34872,-17.5 2.89039,-3.3 11.93809,-13.65 20.106,-23 17.01288,-19.4750298 17.6406,-20.0776498 22.4988,-21.5991598 3.06119,-0.9587096 4.30049,-0.8174 8.28377,0.9446 7.36565,3.2581798 9.26046,10.0398798 6.14968,22.0102098 -4.51077,17.35751 -39.5081,100.187719 -57.42993,135.922739 -11.23336,22.39861 -26.87951,44.29708 -49.98471,69.95897 -12.70761,14.11376 -16.57589,23.53857 -16.52524,40.26264 0.0517,17.06105 6.20755,29.78264 22.15584,45.78671 5.63797,5.65765 10.25086,10.53614 10.25086,10.84105 0,1.13663 -43.38121,72.93885 -45.04691,74.5592 -0.95382,0.92785 -3.18614,4.22469 -4.9607,7.3263 -1.77456,3.10161 -3.84622,5.87712 -4.60369,6.16778 -0.75747,0.29067 -1.13143,0.92618 -0.83102,1.41225 0.30041,0.48607 -0.10952,0.63214 -0.91094,0.32461 -0.83626,-0.32091 -2.88233,0.80478 -4.80194,2.64187 -1.83964,1.76057 -2.47092,2.57984 -1.40284,1.82061 1.4638,-1.04053 1.75038,-1.06185 1.16391,-0.0866 -0.42793,0.7116 -0.27782,1.89655 0.33356,2.63322 0.84132,1.01373 0.72526,1.48767 -0.47729,1.94913 -0.89274,0.34258 -1.27437,1.11866 -0.87101,1.7713 0.47921,0.77538 0.27755,0.88942 -0.60656,0.34301 -0.95328,-0.58916 -1.15098,-0.36649 -0.70544,0.79457 0.40908,1.06603 0.18191,1.44538 -0.66984,1.11853 -0.70888,-0.27202 -1.92346,0.28728 -2.69908,1.24289 -0.77561,0.95561 -0.8788,1.41875 -0.22931,1.0292 0.6495,-0.38955 1.50653,-0.1814 1.90451,0.46255 0.45192,0.73122 0.29014,0.90292 -0.4309,0.45729 -0.63498,-0.39246 -1.15451,-0.21043 -1.15451,0.40449 0,0.61492 -0.52089,0.79611 -1.15752,0.40265 -0.79026,-0.48841 -0.98166,-0.0429 -0.60324,1.40421 0.31511,1.20498 -0.0437,2.61587 -0.83146,3.26968 -0.76217,0.63254 -1.19541,1.45807 -0.96275,1.83451 0.23265,0.37644 -0.0397,1.33796 -0.60535,2.1367 -0.8037,1.135 -0.88696,1.022 -0.38116,-0.51727 0.35595,-1.08323 0.32242,-1.64475 -0.0745,-1.24782 -0.39693,0.39694 -1.65822,-0.0668 -2.80285,-1.03048 -2.05055,-1.72642 -2.05542,-1.72162 -0.33115,0.32656 0.9625,1.14331 1.74311,2.71831 1.73469,3.5 -0.0127,1.17422 -0.16416,1.18638 -0.87163,0.07 -0.60809,-0.9596 -0.98724,-0.45934 -1.30794,1.72575 -0.38579,2.62853 -0.23531,2.89839 1.03229,1.85131 1.29829,-1.07243 1.31382,-0.95262 0.12415,0.95788 -0.74787,1.201 -1.83267,2.101 -2.41066,2 -0.578,-0.101 -0.9384,0.37887 -0.8009,1.06637 0.1375,0.6875 -0.3125,1.1375 -1,1 -0.71303,-0.14261 -1.21819,0.69519 -1.17594,1.95028 0.041,1.21732 -0.37,1.92583 -0.91994,1.58595 -0.58107,-0.35911 -0.73684,0.0558 -0.37499,0.9988 0.45559,1.18725 0.19315,1.44969 -0.9941,0.9941 -1.02806,-0.3945 -1.36629,-0.21962 -0.93255,0.48217 0.37431,0.60565 -0.44546,2.76047 -1.82171,4.78849 -1.37625,2.02802 -2.34123,3.97146 -2.1444,4.31876 0.19683,0.3473 -0.55372,1.53145 -1.66788,2.63145 -1.11417,1.1 -1.6621,1.36797 -1.21762,0.59549 0.53056,-0.92208 0.42659,-1.16869 -0.30269,-0.71797 -0.61096,0.37759 -0.85734,1.34712 -0.54752,2.15451 0.30983,0.80738 0.0652,1.46797 -0.54367,1.46797 -0.60885,0 -1.10699,0.8687 -1.10699,1.93045 0,1.21655 -0.8031,2.04862 -2.17167,2.25 -1.19442,0.17575 -2.3778,0.94469 -2.62973,1.70875 -0.25448,0.77178 -0.003,1.10766 0.56688,0.75574 2.03691,-1.25888 1.89116,1.94764 -0.28277,6.22127 -1.46182,2.87373 -2.48046,3.94644 -2.97999,3.1382 -0.42749,-0.6917 -0.15708,-1.60923 0.61916,-2.1009 1.08172,-0.68515 1.09658,-0.87618 0.0691,-0.8882 -0.71996,-0.008 -1.0331,-0.46175 -0.69587,-1.00739 0.33722,-0.54564 0.15661,-1.78314 -0.40136,-2.75 -0.80477,-1.39452 -0.93438,-1.08608 -0.62694,1.49208 0.23535,1.97368 -0.0551,3.25 -0.73963,3.25 -0.83308,0 -0.83447,0.29271 -0.005,1.12186 0.61702,0.61702 0.85554,1.81584 0.53006,2.66404 -0.38585,1.00549 -0.18863,1.29302 0.56669,0.82621 1.62092,-1.00179 0.62248,1.34706 -4.53934,10.67895 -2.37986,4.30247 -4.06472,8.24708 -3.74413,8.7658 0.32059,0.51873 -0.006,0.95942 -0.72612,0.97931 -2.48335,0.0686 -10.85828,14.83652 -12.86627,22.68766 -6.49324,25.38834 -4.32986,61.97014 6.43945,108.8882 4.33582,18.88962 5.1,25.74824 3.64811,32.74198 -2.63663,12.70057 -12.4218,19.40926 -22.03031,15.10393 z m 6.73648,-2.14874 c 0.22276,-0.6789 -1.34924,-1.71211 -3.65677,-2.40347 -2.22612,-0.66696 -4.79949,-2.0436 -5.71859,-3.05919 -0.9191,-1.0156 -2.05135,-1.84654 -2.51611,-1.84654 -1.38709,0 -0.95759,2.66168 0.64398,3.99086 0.81894,0.67967 1.26614,1.59633 0.99377,2.03704 -0.66785,1.0806 4.42527,2.90488 7.44012,2.66493 1.33259,-0.10606 2.59871,-0.72869 2.8136,-1.38363 z M 134.00001,679.9036 c 0,-1.04828 -2.45933,-2.11321 -4.83179,-2.09225 -1.16762,0.0103 -0.91802,0.43101 0.83179,1.40195 3.05129,1.69311 4,1.85684 4,0.6903 z m 4,-0.71398 c 0,-0.21615 -0.675,-0.39301 -1.5,-0.39301 -0.825,0 -1.5,0.43588 -1.5,0.96862 0,0.53273 0.675,0.70959 1.5,0.39301 0.825,-0.31659 1.5,-0.75246 1.5,-0.96862 z m -5.31689,-20.58051 c -0.31922,-0.79773 -0.55618,-0.56078 -0.60416,0.60417 -0.0434,1.05416 0.19292,1.64479 0.52522,1.3125 0.33229,-0.33229 0.36781,-1.1948 0.0789,-1.91667 z m 2,-22 c -0.31922,-0.79773 -0.55618,-0.56078 -0.60416,0.60417 -0.0434,1.05416 0.19292,1.64479 0.52522,1.3125 0.33229,-0.33229 0.36781,-1.1948 0.0789,-1.91667 z m 13.97917,-18.0625 c -0.27741,-0.6875 -0.50439,-0.125 -0.50439,1.25 0,1.375 0.22698,1.9375 0.50439,1.25 0.27741,-0.6875 0.27741,-1.8125 0,-2.5 z m -10,-1 c -0.27741,-0.6875 -0.50439,-0.125 -0.50439,1.25 0,1.375 0.22698,1.9375 0.50439,1.25 0.27741,-0.6875 0.27741,-1.8125 0,-2.5 z m -0.97917,-3.9375 c -0.31922,-0.79773 -0.55618,-0.56078 -0.60416,0.60417 -0.0434,1.05416 0.19292,1.64479 0.52522,1.3125 0.33229,-0.33229 0.36781,-1.1948 0.0789,-1.91667 z m 5,-4 c -0.31922,-0.79773 -0.55618,-0.56078 -0.60416,0.60417 -0.0434,1.05416 0.19292,1.64479 0.52522,1.3125 0.33229,-0.33229 0.36781,-1.1948 0.0789,-1.91667 z m -3,-9 c -0.31922,-0.79773 -0.55618,-0.56078 -0.60416,0.60417 -0.0434,1.05416 0.19292,1.64479 0.52522,1.3125 0.33229,-0.33229 0.36781,-1.1948 0.0789,-1.91667 z m 6,0 c -0.31922,-0.79773 -0.55618,-0.56078 -0.60416,0.60417 -0.0434,1.05416 0.19292,1.64479 0.52522,1.3125 0.33229,-0.33229 0.36781,-1.1948 0.0789,-1.91667 z m -0.0208,-46.0625 c -0.27741,-0.6875 -0.50439,-0.125 -0.50439,1.25 0,1.375 0.22698,1.9375 0.50439,1.25 0.27741,-0.6875 0.27741,-1.8125 0,-2.5 z m 5.33769,-14.30902 c 0,-0.85746 -0.45734,-1.27636 -1.01631,-0.9309 -0.55897,0.34546 -0.75742,1.04702 -0.44098,1.55902 0.85723,1.38704 1.45729,1.12841 1.45729,-0.62812 z m 2,-5.44098 c 0.5887,-1.1 0.84537,-2 0.57037,-2 -0.275,0 -0.98167,0.9 -1.57037,2 -0.5887,1.1 -0.84537,2 -0.57037,2 0.275,0 0.98167,-0.9 1.57037,-2 z m -10.73271,-6.75023 c 0.29835,-2.33762 0.22339,-4.05303 -0.16659,-3.81201 -0.38997,0.24102 -1.20926,-0.88701 -1.82063,-2.50673 -0.61138,-1.61972 -0.6995,-2.69025 -0.19583,-2.37897 0.50367,0.31129 0.91576,0.0894 0.91576,-0.49304 0,-0.58246 -0.47158,-1.05902 -1.04797,-1.05902 -0.57638,0 -2.10908,-1.23362 -3.406,-2.74138 -1.81053,-2.10486 -2.1301,-3.16728 -1.37634,-4.57569 0.8602,-1.60729 0.73779,-1.70378 -0.98899,-0.77964 -1.4745,0.78913 -2.25726,0.70939 -3.10885,-0.31672 -0.62599,-0.75427 -2.47324,-1.9244 -4.10501,-2.6003 -1.63176,-0.6759 -2.96684,-1.84932 -2.96684,-2.60759 0,-0.75827 -0.47656,-1.37868 -1.05902,-1.37868 -0.58246,0 -0.80684,0.40803 -0.49862,0.90674 0.30822,0.49871 -0.37826,0.66128 -1.52551,0.36126 -1.36366,-0.3566 -1.68136,-0.79551 -0.91754,-1.26757 0.81439,-0.50332 0.66117,-0.91674 -0.50571,-1.36451 -0.92074,-0.35333 -2.08348,-0.38939 -2.58384,-0.0802 -0.50037,0.3093 -0.90976,0.0858 -0.90976,-0.4967 0,-0.58246 -1.125,-1.05902 -2.5,-1.05902 -1.375,0 -2.5,-0.45 -2.5,-1 0,-0.55 -1.0125,-1.00689 -2.25,-1.01531 -2.90161,-0.0197 -5.18362,-1.47406 -4.37246,-2.78654 0.40302,-0.65211 -0.4993,-0.84688 -2.47839,-0.53498 -2.049839,0.32306 -2.887399,0.12683 -2.453709,-0.57489 0.40343,-0.65277 0.0574,-0.83473 -0.89351,-0.46984 -0.85356,0.32755 -1.55193,0.0974 -1.55193,-0.51145 0,-0.60885 -1.0125,-1.1213 -2.25,-1.13879 -1.9912,-0.0282 -2.06414,-0.17332 -0.63417,-1.26214 1.4471,-1.10186 1.34268,-1.43073 -1,-3.14953 l -2.61583,-1.91919 1.79317,2.05777 c 1.70806,1.96011 1.70951,2.08988 0.0305,2.73419 -0.96948,0.37202 -1.44281,0.35653 -1.05185,-0.0344 0.91564,-0.91564 -1.22934,-3.53914 -2.33494,-2.85584 -0.46008,0.28431 -1.33167,-0.40825 -1.93686,-1.53906 -0.60519,-1.13081 -1.5973,-1.74888 -2.20469,-1.3735 -0.60738,0.37538 -0.849277,0.26984 -0.53756,-0.23454 0.31173,-0.50438 -0.0998,-2.03641 -0.914557,-3.40451 -0.9922,-1.66609 -1.27509,-1.83482 -0.85674,-0.51098 0.5498,1.73982 0.30133,1.67995 -2.07514,-0.5 l -2.69974,-2.47647 1.64772,2.57983 c 0.90625,1.4189 1.41838,2.80916 1.13808,3.08946 -0.2803,0.2803 0.39312,1.32662 1.4965,2.32516 1.10337,0.99854 2.006127,2.61922 2.006127,3.60152 0,0.9823 0.44484,2.06093 0.98854,2.39695 0.5761,0.35605 0.75589,-0.14087 0.43093,-1.19098 -0.30669,-0.99107 0.13252,-0.67694 0.97602,0.69806 0.8435,1.375 1.54958,2.1625 1.56907,1.75 0.0195,-0.4125 0.95185,0.16641 2.07191,1.28647 1.12006,1.12007 2.53959,1.72554 3.15451,1.3455 0.66156,-0.40887 0.83937,-0.2401 0.43552,0.41335 -0.54175,0.87657 3.17348,3.95285 4.11063,3.40368 0.13042,-0.0764 2.380419,0.79302 4.999999,1.93209 2.61958,1.13908 7.01287,2.7479 9.76287,3.57515 8.24956,2.48162 16.77539,7.13405 20.64912,11.26796 2.00702,2.14182 3.39452,4.14882 3.08334,4.46001 -0.31119,0.31118 -0.0993,0.56579 0.47091,0.56579 0.57019,0 1.58916,2.1375 2.26438,4.75 2.33096,9.01871 2.45548,9.11304 3.29954,2.49977 z m 12.13241,1.17015 c -0.34374,-1.89563 -0.12721,-2.38727 0.81622,-1.85329 1.03343,0.58491 1.03195,0.45577 -0.008,-0.66157 -1.10003,-1.18238 -1.42906,-1.16706 -2.21795,0.1033 -0.55423,0.89247 -0.56007,1.61801 -0.0145,1.80625 0.50148,0.17303 0.66391,0.96053 0.36096,1.75 -0.30294,0.78946 -0.0825,1.43539 0.48996,1.43539 0.57299,0 0.83049,-1.15963 0.57291,-2.58008 z m 2.94538,-4.96305 c -0.32569,-0.84872 -0.80663,-1.32866 -1.06875,-1.06653 -0.26213,0.26213 -0.17998,0.95654 0.18255,1.54313 0.98605,1.59546 1.56238,1.28551 0.8862,-0.4766 z m -18.68917,-9.94907 c -0.63575,-1.37071 -1.79685,-2.49571 -2.58022,-2.5 -0.98331,-0.005 -0.69711,0.76628 0.92431,2.4922 2.92369,3.11213 3.09612,3.11294 1.65591,0.008 z m -6.29428,-6.0078 c -0.31659,-0.825 -1.03256,-1.5 -1.59106,-1.5 -0.58531,0 -0.48812,0.63541 0.22943,1.5 0.68469,0.825 1.40067,1.5 1.59106,1.5 0.19039,0 0.0872,-0.675 -0.22943,-1.5 z m -3.36163,-2.5 c 0,-0.55 -0.47656,-1 -1.05902,-1 -0.58246,0 -0.7809,0.45 -0.44098,1 0.33992,0.55 0.81648,1 1.05902,1 0.24254,0 0.44098,-0.45 0.44098,-1 z m 41.08541,-0.44721 c 0.50302,0.31088 0.91459,-0.0812 0.91459,-0.87133 0,-0.79011 0.68587,-2.0058 1.52417,-2.70152 0.83829,-0.69572 1.29276,-1.49635 1.00993,-1.77918 -0.7311,-0.73109 -5.55017,4.65832 -5.45515,6.10076 0.0573,0.87027 0.21764,0.85445 0.58541,-0.0577 0.27855,-0.69093 0.91803,-1.00187 1.42105,-0.69098 z m -42.74039,-3.30279 c 0.25469,-0.4125 -0.68774,-0.81919 -2.09427,-0.90376 -1.84381,-0.11085 -2.1658,0.0941 -1.15404,0.73469 1.73174,1.09639 2.64638,1.144 3.24831,0.16907 z m 51.56578,-12.08333 c 0.70459,-1.31654 0.63397,-1.83334 -0.25053,-1.83334 -0.67743,0 -1.2317,0.825 -1.2317,1.83334 0,1.00833 0.11274,1.83333 0.25053,1.83333 0.13779,0 0.69206,-0.825 1.2317,-1.83333 z m -97.745636,-4.49086 c -1.2009,-1.2783 -1.84934,-2.7408 -1.44098,-3.25 0.40837,-0.50919 0.075,-0.33137 -0.74085,0.39517 -1.29523,1.15347 -1.18396,1.56561 0.87745,3.25 3.23549,2.64375 3.95463,2.42589 1.30438,-0.39517 z m -3.16516,-4.67581 c 0,-0.55 -0.49815,-1 -1.10699,-1 -0.60885,0 -0.839,-0.69837 -0.51146,-1.55194 0.32755,-0.85356 0.19454,-1.30411 -0.29557,-1.0012 -0.49011,0.3029 -1.80807,-0.89751 -2.9288,-2.66759 -1.62296,-2.56329 -1.79544,-3.52982 -0.84744,-4.74879 1.04186,-1.33966 0.97207,-1.35937 -0.55974,-0.15804 -1.14545,0.89833 -1.75,0.98469 -1.75,0.25 0,-0.61734 -0.50341,-1.12244 -1.11869,-1.12244 -0.61528,0 0.0597,1.54498 1.5,3.43328 1.44028,1.8883 2.61869,3.9133 2.61869,4.5 0,0.5867 0.41967,1.06672 0.93261,1.06672 0.51294,0 1.21826,0.9 1.56739,2 0.65139,2.05237 2.5,2.79181 2.5,1 z m 107.796326,-7.95452 c -0.67134,-1.07499 -1.36075,-1.8144 -1.53201,-1.64313 -0.59277,0.59277 0.95337,3.59765 1.85114,3.59765 0.49582,0 0.35221,-0.87953 -0.31913,-1.95452 z M 74.969384,469.29661 c 0,-0.55 -0.43622,-0.325 -0.96937,0.5 -0.53316,0.825 -0.96938,1.95 -0.96938,2.5 0,0.55 0.43622,0.325 0.96938,-0.5 0.53315,-0.825 0.96937,-1.95 0.96937,-2.5 z m 112.713736,0.3125 c -0.31922,-0.79773 -0.55618,-0.56078 -0.60416,0.60417 -0.0434,1.05416 0.19292,1.64479 0.52522,1.3125 0.33229,-0.33229 0.36781,-1.1948 0.0789,-1.91667 z M 67.858834,466.37994 c -0.77319,-0.59583 -2.41003,-2.38445 -3.63743,-3.9747 -1.84685,-2.39282 -2.01522,-3.16873 -0.97651,-4.5 1.13,-1.44828 1.06988,-1.46287 -0.6031,-0.14638 -1.6597,1.30605 -2.01027,1.25264 -3.28164,-0.5 -4.43789,-6.11778 -6.6867,-8.38063 -7.71583,-7.76399 -0.62937,0.37711 -0.46931,-0.1494 0.35569,-1.17002 1.40081,-1.73298 1.35816,-1.78012 -0.645,-0.71297 -1.74846,0.93146 -2.39549,0.82308 -3.5,-0.58628 -1.25282,-1.5986 -1.20418,-1.61587 0.645,-0.22899 1.83842,1.37882 1.89311,1.36343 0.67688,-0.19056 -0.76975,-0.98352 -2.02443,-1.43967 -3,-1.09067 -0.92228,0.32994 -1.36081,0.24962 -0.9745,-0.17849 0.38631,-0.42811 0.081,-1.3998 -0.67857,-2.15933 -1.59891,-1.5989 -2.93159,-1.84976 -2.02381,-0.38095 0.33992,0.55 0.38231,1 0.0942,1 -0.28811,0 -1.03457,-0.9543 -1.65879,-2.12068 -0.91936,-1.71785 -0.87856,-1.96631 0.21482,-1.30804 1.09645,0.66013 1.1168,0.52475 0.10844,-0.72133 -0.68273,-0.84368 -0.90773,-1.90221 -0.5,-2.35228 0.40773,-0.45008 0.17149,-0.49008 -0.52499,-0.0889 -0.69647,0.40119 -0.96685,1.21396 -0.60084,1.80617 0.4519,0.7312 -0.26492,0.84833 -2.23369,0.36496 -2.78439,-0.68361 -2.81998,-0.64915 -0.89915,0.87041 1.89872,1.50207 1.86233,1.52332 -0.71865,0.41971 -1.49525,-0.63936 -2.48119,-1.54667 -2.19098,-2.01625 0.61886,-1.00134 -0.36728,-0.99791 -2.9275,0.0102 -1.49688,0.5894 -0.84865,1.25034 3.5,3.56867 6.37584,3.39901 19.83713,13.24511 19.83713,14.50959 0,0.49206 1.4625,1.813 3.25,2.93544 1.7875,1.12243 4.59931,3.33413 6.24848,4.91489 1.64916,1.58076 3.6212,2.87411 4.38231,2.87411 1.16492,0 1.16145,-0.17138 -0.022,-1.08334 z m 0.44167,-3.92401 c 0.28296,-0.73738 0.0636,-1.97488 -0.48735,-2.75 -0.7933,-1.116 -0.88464,-1.04509 -0.43886,0.34068 0.64979,2.01995 -0.43095,2.29333 -2.17428,0.55 -1.59243,-1.59243 -1.549,-0.11198 0.05,1.70417 1.58678,1.80228 2.4025,1.84376 3.05049,0.15515 z m -7.36713,-8.07903 c 1.11032,-1.33786 0.55015,-1.47202 -2.74238,-0.6568 -0.38292,0.0948 0.8058,2.07651 1.24559,2.07651 0.17519,0 0.84875,-0.63887 1.49679,-1.41971 z m -37.33787,-18.7348 c 0.42587,-0.68907 0.27594,-0.88407 -0.37189,-0.48369 -0.59697,0.36895 -1.36806,0.21348 -1.71352,-0.34549 -0.34547,-0.55897 -1.13757,-1.01631 -1.76023,-1.01631 -0.62266,0 -0.2586,0.66069 0.80902,1.4682 2.37555,1.79677 2.17475,1.77182 3.03662,0.37729 z m 102.505056,-2.96794 c -1.1553,-1.24007 -2.10055,-1.86775 -2.10055,-1.39485 0,1.15769 3.20646,4.64418 3.76109,4.08955 0.24201,-0.24201 -0.50524,-1.45462 -1.66054,-2.6947 z m 9.13391,1.74177 c 0.95395,-0.72439 1.49744,-1.55408 1.20776,-1.84377 -0.28968,-0.28968 0.84022,-1.67687 2.5109,-3.08265 2.53568,-2.13364 3.53722,-2.41266 6.06153,-1.6887 3.76115,1.07868 3.03152,-0.44385 -0.86337,-1.80162 -2.29358,-0.79954 -3.46941,-0.60368 -6.00184,0.99974 -1.73219,1.09674 -3.14944,2.42645 -3.14944,2.9549 0,0.52845 -0.44485,0.68588 -0.98855,0.34986 -0.56686,-0.35034 -0.7345,0.0511 -0.39301,0.94098 0.40247,1.04882 -0.006,1.57473 -1.26145,1.62223 -1.70517,0.0645 -1.69348,0.1361 0.14301,0.87539 1.86677,0.75148 1.83347,0.83765 -0.5,1.29353 -1.86189,0.36376 -1.98952,0.51507 -0.5,0.5928 1.1,0.0574 2.78051,-0.4883 3.73446,-1.21269 z m 36.8931,-0.36932 c 1.24387,-1.58606 1.2085,-1.62143 -0.37756,-0.37756 -1.66575,1.30637 -2.19548,2.12756 -1.37244,2.12756 0.20765,0 0.99515,-0.7875 1.75,-1.75 z m -28.12756,0.14235 c 0,-0.82763 -1.94173,-1.29565 -2.38691,-0.57533 -0.28881,0.46731 0.13009,0.84965 0.9309,0.84965 0.8008,0 1.45601,-0.12345 1.45601,-0.27432 z m 32.39699,-0.55902 c -0.28326,-0.45833 -0.0385,-0.83333 0.54399,-0.83333 0.58246,0 1.09455,0.5625 1.13797,1.25 0.0484,0.76622 0.30077,0.66946 0.6521,-0.25 0.57773,-1.51199 4.95778,-6 5.85566,-6 0.26601,0 -0.0124,1.0125 -0.61864,2.25 -0.99479,2.03054 -0.90285,2.00616 0.94258,-0.25 l 2.04488,-2.5 0.15842,3 c 0.12127,2.29665 0.25843,2.48458 0.58502,0.80158 0.23464,-1.20912 -0.11712,-3.23412 -0.78169,-4.5 l -1.2083,-2.30158 2.28716,2 2.28717,2 -1.33862,-2.18021 c -1.19467,-1.94576 -1.07548,-2.40462 1.10834,-4.26687 4.64667,-3.96244 5.94697,-4.37527 5.94697,-1.8881 0,1.66479 0.28907,1.94611 1.13278,1.1024 1.94349,-1.94349 0.18186,-4.26722 -3.23501,-4.26722 -2.46544,0 -4.22851,1.08042 -7.97661,4.88811 -2.64639,2.68845 -4.58759,5.11212 -4.31379,5.38593 0.27381,0.2738 -1.05619,1.45826 -2.95555,2.63213 -3.70927,2.29245 -5.31668,4.7605 -3.10047,4.7605 0.74837,0 1.12891,-0.375 0.84564,-0.83334 z m 33.2238,-0.6957 c 0.13727,-0.71126 0.0197,-0.75975 -0.29304,-0.12089 -0.36447,0.74448 -0.93342,0.72549 -1.8833,-0.0628 -0.91021,-0.75541 -1.18466,-2.39074 -0.82853,-4.93685 0.60214,-4.30499 -0.58747,-5.63783 -3.59525,-4.02811 -2.14283,1.1468 -2.73822,3.01106 -0.96165,3.01106 0.58246,0 0.73793,-0.51953 0.34549,-1.15451 -0.44208,-0.7153 -0.27432,-0.88306 0.44098,-0.44098 1.41802,0.87638 1.52036,4.25135 0.15451,5.09549 -0.55,0.33992 -1,1.11648 -1,1.72568 0,0.60921 0.27857,0.82908 0.61905,0.48861 0.34047,-0.34048 1.23378,-0.004 1.98513,0.74703 1.59478,1.59478 4.68483,1.3954 5.01661,-0.32369 z m -39.38821,-3.15038 c -1.18114,-0.95643 -1.90849,-1.97801 -1.61632,-2.27018 1.08229,-1.08229 -2.79735,-6.83542 -5.23428,-7.76194 -3.09049,-1.175 -8.36976,-0.36089 -10.34627,1.59549 -0.96691,0.95707 -1.06249,1.44938 -0.28138,1.44938 0.65458,0 0.91881,0.68822 0.5916,1.54089 -0.32521,0.8475 -0.19859,1.46921 0.28139,1.38158 2.03872,-0.37218 2.76404,0.17684 1.38529,1.04858 -1.17364,0.74204 -1.02286,0.90542 0.7148,0.77453 1.96384,-0.14793 2.04365,-0.34107 0.73739,-1.78447 -2.24931,-2.48546 -1.73729,-3.51303 0.68071,-1.3661 2.12047,1.88276 2.13302,1.88115 1.07557,-0.13806 -0.95355,-1.82081 -0.75182,-2.06729 1.85449,-2.26589 1.60844,-0.12255 2.92443,0.26088 2.92443,0.85207 0,0.5912 0.39901,0.8283 0.88669,0.5269 1.72344,-1.06515 4.10014,3.54678 4.43214,8.60047 0.0885,1.34769 0.49154,1.46617 2.08551,0.61311 1.94926,-1.04322 1.94695,-1.08073 -0.17176,-2.79636 z m -30.19961,0.51275 c 1.35701,-1.85001 1.33579,-1.89707 -0.28297,-0.62756 -0.9625,0.75485 -1.75,1.84235 -1.75,2.41667 0,0.57432 0.12734,0.85672 0.28297,0.62756 0.15563,-0.22917 0.94313,-1.31667 1.75,-2.41667 z m 60.96703,-2 c -0.68469,-0.825 -1.7258,-1.5 -2.31357,-1.5 -0.58778,0 -0.19518,0.66069 0.87244,1.4682 2.50847,1.89731 2.99833,1.90812 1.44113,0.0318 z m -189.999996,0.059 c 0,-0.24252 -0.45,-0.71908 -1,-1.059 -0.5500002,-0.33992 -1.0000002,-0.14148 -1.0000002,0.44098 0,0.58246 0.45,1.05902 1.0000002,1.05902 0.55,0 1,-0.19844 1,-0.44098 z m 115.468606,-3.49832 c 0.83598,-1.61661 2.38325,-3.54396 3.43838,-4.283 2.53967,-1.77885 5.53559,-8.18196 4.76626,-10.18681 -0.33576,-0.87497 -1.2996,-1.59087 -2.14187,-1.59087 -1.73222,0 -2.05234,1.56 -0.51507,2.51008 1.24175,0.76744 0.31614,2.49571 -1.32533,2.47461 -0.87477,-0.0113 -0.88848,-0.21038 -0.0516,-0.75 0.83024,-0.53537 0.77675,-1.07111 -0.19714,-1.97473 -0.84116,-0.78047 -1.56324,-0.87312 -1.94835,-0.25 -0.33654,0.54452 -0.0802,0.99004 0.56958,0.99004 0.86599,0 0.83967,0.41183 -0.0986,1.54238 -1.00534,1.21136 -1.01891,1.80156 -0.0632,2.75 0.95206,0.94483 1.13083,0.8812 0.82151,-0.29238 -0.21744,-0.825 -0.20567,-1.1597 0.0262,-0.74377 0.23183,0.41593 0.94558,0.45107 1.5861,0.0781 0.96481,-0.5618 0.0581,0.74624 -3.23408,4.66566 -0.231,0.275 -0.12845,-0.31087 0.22789,-1.30194 0.38634,-1.07454 0.24882,-1.55531 -0.34067,-1.19098 -0.5437,0.33602 -1.00684,1.5969 -1.02919,2.80194 -0.0374,2.01794 -0.25744,1.93782 -2.78571,-1.01457 -2.21901,-2.59122 -2.74508,-2.84485 -2.74508,-1.32341 0,1.03517 0.30258,1.69512 0.67241,1.46655 0.36982,-0.22856 1.23955,0.2678 1.93274,1.10303 0.97106,1.17006 0.99706,2.09641 0.1133,4.03605 -1.39694,3.06594 -1.41497,3.42333 -0.1727,3.42333 0.53588,0 1.65831,-1.32268 2.49429,-2.9393 z m 24.89895,2.15359 c 0.26708,-0.43215 -0.34832,-0.78572 -1.36756,-0.78572 -1.01924,0 -1.63464,0.35357 -1.36756,0.78572 0.26707,0.43216 0.88248,0.78573 1.36756,0.78573 0.48508,0 1.10049,-0.35357 1.36756,-0.78571 z M 193.561,422.7292 c 1.19224,-1.31742 1.27625,-1.91517 0.34964,-2.48784 -0.7789,-0.48139 -0.9618,-0.33658 -0.50612,0.40072 0.41287,0.66803 0.10819,1.15451 -0.72305,1.15451 -0.79011,0 -1.93453,0.6 -2.54314,1.33333 -1.72911,2.08345 1.51864,1.70321 3.42267,-0.40072 z M 13.019014,415.2737 c 1.05678,-1.27335 0.99491,-1.41968 -0.37756,-0.89301 -0.90279,0.34645 -1.64144,1.03175 -1.64144,1.52291 0,1.28596 0.57887,1.10536 2.019,-0.62988 z m 113.410966,-2.5904 c -0.74936,-1.21249 -3.42997,-1.12393 -3.42997,0.11331 0,0.55 0.47656,1 1.05902,1 0.58246,0 0.72108,0.5625 0.30804,1.25 -0.5165,0.85971 -0.22613,0.82433 0.92997,-0.11331 0.92452,-0.74982 1.43435,-1.76232 1.13294,-2.25 z m -28.660349,-6.88669 c 2.21722,-2.06565 3.767749,-2.6785 2.795139,-1.10478 -0.3043,0.49236 0.12956,1.15724 0.96412,1.47749 1.22286,0.46925 1.3188,0.21119 0.49426,-1.32947 -1.2748,-2.38199 -1.43041,-5.23337 -0.17788,-3.25937 1.07105,1.68797 4.18772,0.46564 3.48461,-1.36663 -0.29912,-0.77948 -1.22866,-1.41724 -2.06566,-1.41724 -1.43609,0 -9.379599,6.44205 -10.097549,8.18894 -0.6533,1.5896 2.49281,0.77696 4.60296,-1.18894 z m 25.230379,-0.44098 c 0,-3.2197 -1.78623,-4.20585 -3.84596,-2.12331 -1.54029,1.55735 -1.52263,1.62266 0.2567,0.94966 1.59598,-0.60366 1.81732,-0.36546 1.34362,1.44596 -0.38329,1.46571 -0.11125,2.16867 0.83926,2.16867 0.8244,0 1.40638,-1.01011 1.40638,-2.44098 z m -11,-2.95455 c 0,-0.50295 1.00475,-0.0572 2.23277,0.99054 1.81765,1.55082 1.98081,1.57963 0.87755,0.15499 -1.16505,-1.50445 -1.12755,-1.75 0.26724,-1.75 1.93928,0 2.08677,-1.13224 0.37244,-2.85925 -1.00225,-1.00966 -0.90315,-1.12719 0.5,-0.59301 1.21706,0.46335 1.75,0.17685 1.75,-0.94075 0,-2.72314 -2.76355,-1.78355 -5.5678,1.89301 -1.83141,2.40111 -3.47724,3.5 -5.24202,3.5 -2.43515,0 -2.47148,0.0738 -0.68076,1.38323 1.44265,1.05489 2.31881,1.11648 3.69113,0.25945 0.9897,-0.61807 1.79945,-1.53527 1.79945,-2.03821 z m -23.349759,-1.07354 c -0.31005,-0.80798 0.0668,-2.68435 0.83737,-4.1697 2.25172,-4.34018 0.48034,-6.45564 -4.79963,-5.73194 -4.640977,0.63612 -6.800307,-0.81416 -7.410047,-4.97682 -0.3003,-2.0501 -2.78061,-4.65247 -4.43427,-4.65247 -1.62632,0 -7.83994,6.28475 -7.76472,7.85359 0.0657,1.36945 0.175,1.39408 0.64995,0.14641 0.88475,-2.32423 2.55909,-3.00314 4.1748,-1.6928 1.20548,0.97765 1.356,0.88634 0.83446,-0.50627 -0.47776,-1.27573 -0.23199,-1.54393 0.98638,-1.07639 1.14963,0.44115 1.45834,0.1944 1.05894,-0.8464 -0.37256,-0.9709 0.11954,-1.52055 1.45115,-1.62086 1.93027,-0.1454 1.91833,-0.049 -0.28418,2.29547 -1.28149,1.36408 -1.75319,2.44725 -1.06574,2.44725 0.70365,0 0.92439,0.53684 0.51399,1.25 -0.41794,0.72624 -0.33791,0.90083 0.19098,0.41667 0.50068,-0.45834 0.91033,-1.32084 0.91033,-1.91667 0,-0.59583 0.5628,-1.27094 1.25068,-1.50023 0.79397,-0.26465 1.02877,0.16138 0.64301,1.16667 -0.34029,0.88678 -0.0946,1.58356 0.55833,1.58356 0.64131,0 0.90711,0.41891 0.59068,0.9309 -0.31643,0.512 -0.11065,1.21809 0.4573,1.5691 0.56794,0.35101 0.77691,1.05195 0.46437,1.55764 -0.31254,0.5057 0.13523,0.6495 0.99503,0.31957 1.06347,-0.4081 1.39188,-0.15323 1.02718,0.79716 -0.34622,0.90224 0.15575,1.39706 1.41723,1.39706 1.07433,0 1.87297,-0.44562 1.77476,-0.99026 -0.0982,-0.54464 0.346427,-1.01072 0.988087,-1.03572 0.64167,-0.025 1.50417,-0.38295 1.91667,-0.79545 1.42931,-1.42931 2.41667,-0.73844 2.41667,1.69098 0,1.34254 -0.45,2.7191 -1,3.05902 -1.35957,0.84026 -1.27256,4.5 0.10699,4.5 0.60884,0 0.8533,-0.66108 0.54325,-1.46907 z m -1.88315,-3.61426 c 0.94524,-1.246 0.92762,-1.58334 -0.0827,-1.58334 -0.70613,0 -1.34985,0.87587 -1.43049,1.94637 -0.0806,1.0705 -0.0434,1.783 0.0827,1.58333 0.12613,-0.19967 0.76985,-1.07553 1.43049,-1.94636 z m -57.422017,-5.4598 c -0.32568,-0.84872 -0.80662,-1.32866 -1.06875,-1.06653 -0.26213,0.26213 -0.17998,0.95654 0.18256,1.54313 0.98605,1.59546 1.56238,1.28551 0.88619,-0.4766 z m 33.60436,-1.28972 c -1.75531,-0.56411 -5.96752,-3.74947 -5.66552,-4.2844 0.11885,-0.21051 0.0194,-0.26108 -0.22095,-0.11238 -0.24037,0.14871 -0.50265,1.16099 -0.58285,2.24951 -0.0802,1.08853 0.0631,1.77025 0.3184,1.51494 0.25532,-0.25532 1.35676,0.16096 2.44765,0.92505 1.09089,0.76409 2.69653,1.11562 3.56808,0.78117 1.32415,-0.50812 1.34637,-0.68465 0.13519,-1.07389 z m 153.967236,0.46818 C 216.58139,391.1385 87.724831,313.79151 84.620271,312.02016 c -0.48385,-0.27607 -0.672047,0.12108 -0.41823,0.88255 0.37735,1.13206 30.558329,20.17078 35.797969,22.58201 0.825,0.37966 3.84088,2.18015 6.70196,4.00109 2.86108,1.82094 5.47861,3.3108 5.81673,3.3108 0.33811,0 2.15973,1.17841 4.04803,2.61869 1.8883,1.44028 3.44017,2.22778 3.44859,1.75 0.008,-0.47778 0.34592,-0.3556 0.75,0.2715 0.40408,0.62711 3.65969,2.83558 7.23469,4.90772 3.575,2.07214 12.125,7.18283 19,11.35711 6.875,4.17427 12.725,7.60995 13,7.63483 0.275,0.0249 2.975,1.64935 6,3.60993 3.025,1.96059 6.93114,4.29928 8.68032,5.19711 1.74917,0.89782 6.69917,3.887 11,6.64262 4.30082,2.75562 8.68218,5.01028 9.73635,5.01036 1.05416,7e-5 1.72916,-0.16397 1.5,-0.36454 z M 34.969384,382.29661 c 0,-0.55 -0.43622,-0.325 -0.96937,0.5 -0.53316,0.825 -0.96938,1.95 -0.96938,2.5 0,0.55 0.43622,0.325 0.96938,-0.5 0.53315,-0.825 0.96937,-1.95 0.96937,-2.5 z m 27.84774,-1.78705 c 1.84541,-3.0414 0.90006,-5.84365 -2.12095,-6.28704 -2.04469,-0.3001 -2.09992,0.45694 -0.21492,2.94608 1.22554,1.61832 1.22123,2.06839 -0.0318,3.32143 -0.79719,0.79719 -1.44944,1.90479 -1.44944,2.46134 0,1.74461 2.08701,0.40954 3.81711,-2.44181 z m -10.08795,-12.31712 c -0.33229,-0.33229 -1.19479,-0.36781 -1.91666,-0.0789 -0.79774,0.31922 -0.56078,0.55618 0.60416,0.60416 1.05417,0.0434 1.64479,-0.19293 1.3125,-0.52522 z M 239.33169,350.72829 c -1.94203,-1.94203 -130.74297,-78.85372 -131.23284,-78.36386 -0.86545,0.86545 2.2646,3.17504 11.40116,8.41266 11.94433,6.84719 12.91497,7.42697 13.5,8.06375 0.49319,0.53681 24.7799,14.97667 34.5,20.51225 2.75,1.56612 5.225,3.11421 5.5,3.44019 0.46161,0.54718 11.13505,6.91519 27,16.10879 7.36032,4.26524 8.70879,5.06295 26,15.3806 11.65692,6.95569 15.88683,9.00077 13.33168,6.44562 z m -10.19522,-10.54865 c -1.48731,-1.04176 -2.13337,-2.28683 -1.81612,-3.5 0.565,-2.16057 -0.83641,-2.58652 -1.63791,-0.49783 -0.7151,1.86352 2.02198,5.6148 4.09678,5.6148 1.2894,0 1.14417,-0.36537 -0.64275,-1.61697 z M 343.38513,55.708311 c 5.57006,-4.3814 7.19802,-11.62935 3.6307,-16.16446 -5.85964,-7.44933 -18.00168,-1.01282 -18.01208,9.54822 -0.007,7.58626 8.29333,11.4051 14.38138,6.61624 z M 125.00001,667.85563 c 0,-2.41457 0.55611,-2.65816 1.34934,-0.59105 0.30982,0.80739 0.13297,1.73395 -0.39301,2.05902 -0.52598,0.32508 -0.95633,-0.33551 -0.95633,-1.46797 z m 4.15789,-41.05902 c 0,-1.375 0.22698,-1.9375 0.50439,-1.25 0.27741,0.6875 0.27741,1.8125 0,2.5 -0.27741,0.6875 -0.50439,0.125 -0.50439,-1.25 z m 7.92106,-48.58333 c 0.048,-1.16495 0.28494,-1.4019 0.60416,-0.60417 0.28887,0.72187 0.25335,1.58438 -0.0789,1.91667 -0.3323,0.33229 -0.56864,-0.25834 -0.52522,-1.3125 z M 13.301514,410.47543 c -0.36946,-0.59779 -0.0876,-0.66463 0.71393,-0.16928 0.98248,0.60721 1.14556,0.35239 0.63161,-0.98694 -0.58568,-1.52626 -0.45731,-1.61002 0.83006,-0.5416 0.8376,0.69514 1.5229,1.58379 1.5229,1.97478 0,1.07586 -3.00131,0.85112 -3.6985,-0.27696 z M 184.2323,367.34752 c -3.23727,-1.78872 -3.75492,-2.50034 -1.36396,-1.87509 1.13638,0.29717 2.58599,1.16668 3.22136,1.93224 1.34854,1.6249 1.17729,1.61963 -1.8574,-0.0572 z m -16.50447,-9.73685 c -6.4747,-3.90666 -11.60334,-7.27188 -11.39697,-7.47825 0.37783,-0.37783 21.3491,12.11701 23.11915,13.77457 1.91307,1.79148 -0.1906,0.66154 -11.72218,-6.29632 z M 46.000014,357.25239 c 0,-0.11599 0.6,-0.70885 1.33333,-1.31746 0.99636,-0.82691 1.33333,-0.77361 1.33333,0.21089 0,0.7246 -0.6,1.31746 -1.33333,1.31746 -0.73333,0 -1.33333,-0.0949 -1.33333,-0.21089 z m 105.249996,-9.44482 c -1.7875,-1.08986 -3.25,-2.198 -3.25,-2.46254 0,-0.26453 1.575,0.4483 3.5,1.58408 1.925,1.13578 3.5,2.2456 3.5,2.46628 0,0.63971 -0.31609,0.50588 -3.75,-1.58782 z m -11.5,-7.07184 c -3.7125,-2.22747 -6.75,-4.30176 -6.75,-4.60954 0,-0.30778 1.0125,0.0927 2.25,0.88996 1.2375,0.79726 4.3875,2.69177 7,4.21003 4.02374,2.33841 5.60244,3.58907 4.5,3.56496 -0.1375,-0.003 -3.2875,-1.82794 -7,-4.05541 z m -16.5,-9.6704 c -1.2375,-0.83197 -2.25,-1.93992 -2.25,-2.46212 0,-0.5222 0.66696,-0.28249 1.48214,0.53269 0.81518,0.81517 2.05268,1.68571 2.75,1.93452 0.69732,0.24881 1.04286,0.6898 0.76786,0.97997 -0.275,0.29018 -1.5125,-0.1531 -2.75,-0.98506 z m -8.58851,-5.20761 c -7.04307,-4.13126 -8.09671,-5.64609 -1.40692,-2.02275 3.13916,1.70024 5.96764,3.51216 6.28551,4.02649 0.79761,1.29056 0.59753,1.20838 -4.87859,-2.00374 z m 16.37834,-44.51312 c -1.81872,-2.19142 -0.3303,-5.54799 2.46017,-5.54799 1.50544,0 2.60151,0.74447 3.01523,2.04799 0.69971,2.20459 -0.97316,4.95201 -3.01523,4.95201 -0.69031,0 -1.79739,-0.65341 -2.46017,-1.45201 z m -29.03983,-11.92555 c 0,-0.20765 0.675,-0.93775 1.5,-1.62244 1.22851,-1.01957 1.5,-0.95124 1.5,0.37756 0,0.89234 -0.675,1.62244 -1.5,1.62244 -0.825,0 -1.5,-0.1699 -1.5,-0.37756 z"
     id="path9244"
     inkscape:connector-curvature="0" />
</svg>
