<?xml version="1.0" encoding="UTF-8" standalone="no"?>
<!-- Created with Inkscape (http://www.inkscape.org/) -->

<svg
   xmlns:dc="http://purl.org/dc/elements/1.1/"
   xmlns:cc="http://creativecommons.org/ns#"
   xmlns:rdf="http://www.w3.org/1999/02/22-rdf-syntax-ns#"
   xmlns:svg="http://www.w3.org/2000/svg"
   xmlns="http://www.w3.org/2000/svg"
   xmlns:sodipodi="http://sodipodi.sourceforge.net/DTD/sodipodi-0.dtd"
   xmlns:inkscape="http://www.inkscape.org/namespaces/inkscape"
   version="1.1"
   id="svg10915"
   width="208"
   height="289"
   viewBox="0 0 208 289"
   sodipodi:docname="paint4.svg"
   inkscape:version="0.92.3 (2405546, 2018-03-11)">
  <metadata
     id="metadata10921">
    <rdf:RDF>
      <cc:Work
         rdf:about="">
        <dc:format>image/svg+xml</dc:format>
        <dc:type
           rdf:resource="http://purl.org/dc/dcmitype/StillImage" />
        <dc:title></dc:title>
      </cc:Work>
    </rdf:RDF>
  </metadata>
  <defs
     id="defs10919" />
  <sodipodi:namedview
     pagecolor="#ffffff"
     bordercolor="#666666"
     borderopacity="1"
     objecttolerance="10"
     gridtolerance="10"
     guidetolerance="10"
     inkscape:pageopacity="0"
     inkscape:pageshadow="2"
     inkscape:window-width="1366"
     inkscape:window-height="705"
     id="namedview10917"
     showgrid="false"
     inkscape:zoom="0.816609"
     inkscape:cx="104"
     inkscape:cy="144.5"
     inkscape:window-x="-8"
     inkscape:window-y="-8"
     inkscape:window-maximized="1"
     inkscape:current-layer="svg10915" />
  <path
     style="fill:#000000"
     d="m 40.847459,284.41145 c -4.17501,-1.92193 -7.16605,-5.43805 -8.9662,-10.54022 -3.40477,-9.65014 -1.4077,-17.07914 9.23746,-34.36292 9.61806,-15.61617 13.84453,-24.07165 15.75002,-31.50951 2.5529,-9.96491 1.59446,-11.93076 -14.1564,-29.03611 -16.45866,-17.87403 -22.28311,-25.41343 -27.14232,-35.13413 -3.3198,-6.64116 -3.72256,-8.27152 -3.72256,-15.06887 0,-6.58032 0.36411,-8.17279 2.66423,-11.65208 1.46532,-2.21655 4.8104,-5.45165 7.43349,-7.18911 2.6231,-1.73747 14.79315,-13.055452 27.04455,-25.151062 12.25141,-12.09561 22.76177,-21.99201 23.35635,-21.99201 1.82458,0 9.23428,4.10043 8.58428,4.75042 -0.336,0.336 0.5573,1.83025 1.9851,3.32055 1.6474,1.71952 2.20063,2.95399 1.514,3.37835 -1.45687,0.90039 -3.27931,-0.32105 -2.45912,-1.64815 0.37434,-0.6057 0.0689,-0.8651 -0.71211,-0.60476 -0.7522,0.25073 -2.27733,-0.40268 -3.3892,-1.45201 -3.34747,-3.15921 -5.09637,-3.7758 -6.92241,-2.44057 -1.47176,1.07617 2.35776,5.29614 31.272751,34.461262 18.12244,18.2792 33.32436,33.23491 33.78204,33.23491 0.45769,0 -11.15812,-12.0375 -25.8129,-26.75 C 89.237149,87.991548 83.689769,81.889488 84.228209,80.469348 c 0.61452,-1.62081 1.16258,-1.44124 5.34268,1.7505 3.16231,2.41461 4.88711,3.18573 5.37175,2.40157 0.41455,-0.67076 0.27747,-0.88532 -0.32698,-0.51175 -0.57245,0.35379 -1.2918,-0.3165 -1.59856,-1.48954 -0.41865,-1.6009 -0.27243,-1.84749 0.58631,-0.98875 1.66896,1.66896 3.20281,1.40174 1.78183,-0.31043 -1.03764,-1.25028 -0.73987,-1.32047 2.12095,-0.5 6.543601,1.87668 15.028081,1.16373 20.894931,-1.75579 8.88892,-4.4234 20.08013,-16.53735 32.38361,-35.053735 13.32583,-20.054966 18.79014,-25.787933 29.78596,-31.250384 9.39515,-4.6672812 5.58687,-4.6941332 -4.72323,-0.0333 -8.37968,3.788154 -15.90305,11.154847 -23.5,23.010601 -15.50586,24.198348 -18.13506,27.858708 -24.17012,33.649518 -3.50364,3.36184 -8.20838,7.05018 -10.45499,8.19631 -5.01424,2.55808 -13.01534,3.69831 -16.37489,2.33359 -2.106561,-0.85573 -1.541531,-1.02553 3.59028,-1.07895 4.69439,-0.0489 7.48015,-0.75791 12.15431,-3.09362 7.67705,-3.83626 7.72249,-3.89197 31.69146,-38.856817 11.32854,-16.525561 20.49778,-24.069266 35.2824,-29.0274982 12.40781,-4.161131 18.01016,-1.885197 16.97037,6.8941522 -0.80941,6.834259 -7.00862,21.484325 -11.31491,26.73958 -4.87049,5.943793 -15.18225,14.055253 -33.72904,26.532013 -8.32968,5.60352 -17.24261,12.32853 -19.80651,14.94446 -5.8033,5.92105 -8.24068,12.56554 -7.64258,20.834222 0.37944,5.24571 0.98278,6.56978 5.99278,13.15155 5.58553,7.33784 9.81144,14.65364 9.81144,16.98531 0,0.68553 -11.7,12.977 -26,27.31438 -21.040091,21.09509 -26.000001,26.57891 -26.000001,28.74637 0,5.31273 -2.08348,7.71566 -10.43016,12.02934 -10.84209,5.60336 -18.82696,13.50254 -20.98094,20.75578 -2.11051,7.10684 -2.00465,11.83199 0.52933,23.62732 1.16502,5.42304 2.17752,13.91008 2.25,18.86008 0.11514,7.8641 -0.15309,9.39935 -2.12521,12.16417 -4.21333,5.90688 -15.10455,9.56748 -20.74302,6.97185 z m 0.50765,-6.62172 c -2.16274,-4.04111 -2.81899,-11.05643 -1.53015,-16.35709 0.68969,-2.83647 4.42705,-11.68221 8.30526,-19.65721 9.35865,-19.24477 15.21724,-37.23215 15.21724,-46.72083 0,-6.64496 -8.8509,-17.62488 -19.07662,-23.66536 -2.45557,-1.45054 -1.45435,0.11321 4.488,7.00957 9.34563,10.84601 11.58862,15.20301 11.58862,22.51084 0,8.65955 -2.53436,15.24954 -12.08226,31.417 -4.88877,8.27817 -9.82975,17.72817 -10.97994,21 -2.8238,8.03257 -2.24837,16.86998 1.46368,22.47928 2.73268,4.12935 4.45681,5.44175 2.60617,1.9838 z m 54.84072,-152.7643 c -14.10046,-14.1625 -26.13594,-26.735192 -26.74549,-27.939322 -0.82165,-1.62308 -0.809,-2.37428 0.0489,-2.9045 0.76669,-0.47384 0.8842,-0.27345 0.3482,0.59382 -0.52397,0.8478 -0.41763,1.06712 0.30182,0.62248 0.61096,-0.37759 0.87962,-1.28905 0.59703,-2.02547 -0.28258,-0.73641 0.21044,-1.61684 1.09562,-1.95652 1.07406,-0.41216 1.40175,-0.2056 0.98513,0.62096 -0.34335,0.6812 0.52739,-0.11145 1.93497,-1.76145 1.40758,-1.65 2.97764,-3 3.489,-3 2.38527,0 1.48418,-1.52663 -4.73087,-8.01503 -3.67989,-3.84174 -6.57052,-6.79385 -6.42364,-6.56025 0.14688,0.2336 -0.7733,1.1336 -2.04484,2 -1.27154,0.8664 -4.14269,3.37528 -6.38032,5.57528 l -4.06843,4 33.11667,33.250002 c 18.214161,18.2875 33.340941,33.25 33.615051,33.25 0.27411,0 -11.03836,-11.5875 -25.138821,-25.75 z m -73.45766,14.20711 c -1.9646,-6.18275 -2.45731,-9.57431 -2.20956,-15.20944 0.17537,-3.98878 0.19973,-7.25128 0.0541,-7.25 -0.14558,0.001 -1.1564,1.46483 -2.24626,3.25233 -2.45373,4.02442 -2.66927,13.18582 -0.43599,18.53212 1.39878,3.34858 6.38037,9.61779 7.08361,8.91456 0.15535,-0.15536 -0.85532,-3.86316 -2.24595,-8.23957 z m 40.20494,-37.06845 c -0.45033,-1.17354 -0.1906,-1.4472 0.95595,-1.00723 2.27551,0.87319 -1.15676,-3.674092 -7.30788,-9.681952 -4.38821,-4.286 -5.05782,-4.6284 -6.24768,-3.19472 -1.16006,1.39779 -0.43998,2.5054 5.55882,8.55052 3.79032,3.819602 7.06421,6.944722 7.27531,6.944722 0.21109,0 0.10556,-0.7251 -0.23452,-1.61134 z m 17.40435,-34.781682 c 0,-0.21615 -0.69837,-0.661 -1.55194,-0.98854 -0.88992,-0.3415 -1.29132,-0.17385 -0.94098,0.39301 0.58726,0.9502 2.49292,1.40545 2.49292,0.59553 z M 189.70821,23.578193 c 0.71711,-1.145557 0.74402,-2.608253 0.0828,-4.5 -1.33522,-3.820054 -6.50288,-4.483838 -8.84748,-1.136457 -2.01752,2.880418 -2.01103,4.27586 0.0294,6.316263 2.03908,2.039076 7.28909,1.630506 8.73532,-0.679806 z M 86.219899,71.025428 c -1.24387,-1.58606 -1.2085,-1.62143 0.37756,-0.37756 0.9625,0.75484 1.75,1.54234 1.75,1.75 0,0.82303 -0.82119,0.2933 -2.12756,-1.37244 z"
     id="path11468"
     inkscape:connector-curvature="0" />
</svg>
