<?xml version="1.0" encoding="UTF-8" standalone="no"?>
<!-- Created with Inkscape (http://www.inkscape.org/) -->

<svg
   xmlns:dc="http://purl.org/dc/elements/1.1/"
   xmlns:cc="http://creativecommons.org/ns#"
   xmlns:rdf="http://www.w3.org/1999/02/22-rdf-syntax-ns#"
   xmlns:svg="http://www.w3.org/2000/svg"
   xmlns="http://www.w3.org/2000/svg"
   xmlns:sodipodi="http://sodipodi.sourceforge.net/DTD/sodipodi-0.dtd"
   xmlns:inkscape="http://www.inkscape.org/namespaces/inkscape"
   version="1.1"
   id="svg11470"
   width="488"
   height="221.33333"
   viewBox="0 0 488 221.33333"
   sodipodi:docname="spot2.svg"
   inkscape:version="0.92.3 (2405546, 2018-03-11)">
  <metadata
     id="metadata11476">
    <rdf:RDF>
      <cc:Work
         rdf:about="">
        <dc:format>image/svg+xml</dc:format>
        <dc:type
           rdf:resource="http://purl.org/dc/dcmitype/StillImage" />
        <dc:title></dc:title>
      </cc:Work>
    </rdf:RDF>
  </metadata>
  <defs
     id="defs11474" />
  <sodipodi:namedview
     pagecolor="#ffffff"
     bordercolor="#666666"
     borderopacity="1"
     objecttolerance="10"
     gridtolerance="10"
     guidetolerance="10"
     inkscape:pageopacity="0"
     inkscape:pageshadow="2"
     inkscape:window-width="1366"
     inkscape:window-height="705"
     id="namedview11472"
     showgrid="false"
     inkscape:zoom="0.81352459"
     inkscape:cx="244"
     inkscape:cy="110.66666"
     inkscape:window-x="-8"
     inkscape:window-y="-8"
     inkscape:window-maximized="1"
     inkscape:current-layer="svg11470" />
  <path
     style="fill:#000000;stroke-width:1.33333337"
     d="m 337.54156,222.50139 c -20.78232,-1.07871 -51.20024,-3.55336 -72.05353,-5.86192 -58.37239,-6.4621 -123.26964,-7.68984 -162.94647,-3.08267 -5.120454,0.59457 -6.333331,0.34408 -6.333331,-1.30801 0,-1.40551 1.769013,-2.26159 5.666661,-2.7423 3.11667,-0.38437 7.76667,-1.03172 10.33334,-1.43854 21.1502,-3.35239 82.25781,-3.81899 101.74606,-0.77692 4.26034,0.66502 18.06034,1.58884 30.66667,2.0529 12.60633,0.46407 24.2706,1.1224 25.9206,1.46298 4.17273,0.86126 3.76508,3.23506 -0.55556,3.23506 -1.95555,0 -3.30555,0.24055 -3,0.53455 0.30556,0.29401 18.70556,1.90643 40.88889,3.58315 22.18334,1.67672 40.33334,3.53617 40.33334,4.13212 0,0.59593 -0.75,0.97253 -1.66667,0.83688 -0.91667,-0.13566 -4.96667,-0.41794 -9,-0.62728 z m -78.33333,-9.34246 c -0.91667,-0.36988 -2.41667,-0.36988 -3.33334,0 -0.91666,0.36988 -0.16666,0.67252 1.66667,0.67252 1.83333,0 2.58333,-0.30264 1.66667,-0.67252 z m -193.213571,1.47395 c -0.538654,-1.40371 -0.03268,-2.72017 1.340914,-3.48888 1.213294,-0.679 2.205989,-2.09329 2.205989,-3.14288 0,-1.04959 1.65,-2.27967 3.666667,-2.73351 2.016666,-0.45384 6.666666,-1.934 10.333333,-3.28925 l 6.666667,-2.46411 -12.066667,-0.0695 c -7.046237,-0.0405 -12.673056,0.5369 -13.524131,1.38798 -1.054396,1.0544 -2.383626,0.85062 -4.806402,-0.73685 -5.843828,-3.82901 -6.218058,-12.56048 -0.665702,-15.53201 3.943607,-2.11055 0.461576,-4.09187 -5.603765,-3.1886 -6.161969,0.91765 -9.531655,-1.08646 -5.476121,-3.25692 1.586278,-0.84895 2.517065,-2.1375 2.068413,-2.86342 -0.506676,-0.81982 0.615776,-1.0062 2.962656,-0.49193 2.892585,0.63385 3.309508,0.49488 1.778385,-0.5928 -2.054594,-1.45955 -1.097429,-1.94812 3,-1.53133 1.283334,0.13053 2.333334,-0.40036 2.333334,-1.17979 0,-0.77943 -1.2,-1.41715 -2.666667,-1.41715 -1.466667,0 -2.666667,-0.6 -2.666667,-1.33333 0,-0.73333 1.65,-1.34252 3.666667,-1.35375 2.016667,-0.0107 4.47994,-0.53574 5.47394,-1.16558 2.889656,-1.83103 -22.470028,-0.77732 -28.850068,1.19872 -7.915581,2.45164 -10.526387,-0.0227 -4.135216,-3.91908 2.48124,-1.51268 3.761344,-2.75259 2.844677,-2.75532 -0.916666,-0.003 -1.666666,-0.60499 -1.666666,-1.33832 0,-0.73334 0.879032,-1.33334 1.953404,-1.33334 2.978068,0 14.538652,-4.0777 16.046596,-5.66004 0.916326,-0.96152 0.593758,-1.13854 -1.031374,-0.566 -3.066189,1.08023 -14.30196,-0.45578 -14.30196,-1.95518 0,-0.63367 1.85,-1.15211 4.111111,-1.15211 7.040999,0 3.739484,-3.29049 -3.744037,-3.73155 -4.914778,-0.28965 -6.97639,-1.01658 -7.562722,-2.66666 -0.443337,-1.24766 -1.155681,-3.01846 -1.582988,-3.93512 -0.568253,-1.21903 1.312044,-1.72923 7.000859,-1.89961 7.001016,-0.20968 7.178561,-0.28053 1.777777,-0.7094 -9.368261,-0.74393 -10.544368,-1.47823 -7,-4.37044 1.65,-1.3464 3,-2.65615 3,-2.91055 0,-0.2544 -2.7,-0.24781 -6,0.0147 -3.766069,0.29953 -6,-0.0692 -6,-0.99039 0,-0.80717 1.05,-1.57022 2.333334,-1.69565 6.24498,-0.61038 8.145902,-0.75244 14.333333,-1.07118 3.666667,-0.18889 5.498544,-0.64057 4.070839,-1.00375 -3.610691,-0.91847 6.110052,-4.24854 13.262494,-4.54338 4.039166,-0.16651 4.443592,-0.35464 1.666667,-0.77531 -2.016667,-0.3055 -3.666667,-1.1156 -3.666667,-1.80022 0,-0.68462 -1.2,-1.24477 -2.666666,-1.24477 -2.369666,0 -3.273307,-1.35902 -2.843515,-4.27647 0.270021,-1.83293 -9.660445,-2.74487 -20.672508,-1.89841 -6.666172,0.51235 -11.150644,0.35383 -11.150644,-0.39421 0,-1.44249 1.670012,-1.98826 12.666667,-4.13953 4.4,-0.86077 9.2,-2.12319 10.666666,-2.80537 1.466667,-0.68218 6.266667,-2.391537 10.666667,-3.798567 l 8,-2.55824 -8.542955,0.81389 c -5.769901,0.54971 -8.264526,0.36339 -7.685202,-0.57397 0.471764,-0.76333 4.858261,-1.81629 9.747772,-2.33991 6.021217,-0.64482 8.286094,-1.33825 7.018537,-2.14884 -2.240233,-1.43261 -24.828344,-0.46324 -27.009364,1.15911 -1.977619,1.47105 -15.528788,0.42281 -15.528788,-1.20121 0,-1.69886 4.621281,-3.29856 13.333333,-4.61547 l 7.333334,-1.1085 -5.333334,-0.75751 c -2.933333,-0.41663 -7.433333,-0.31573 -10,0.22422 -4.844346,1.01911 -14.6666662,-0.85221 -14.6666662,-2.79425 0,-0.61072 6.6999042,-1.54464 14.8886742,-2.07538 9.906303,-0.64205 15.515536,-1.59183 16.761906,-2.8382 1.110409,-1.11041 4.594506,-1.87323 8.555769,-1.87323 4.750533,0 6.523496,-0.48185 6.132432,-1.66667 -0.346309,-1.04921 -4.339035,-1.93821 -10.777412,-2.39963 -5.625017,-0.40313 -10.947468,-1.45313 -11.827669,-2.33333 -1.244934,-1.24494 -0.874856,-1.63447 1.6663,-1.75391 1.796666,-0.0845 4.316666,-0.0467 5.6,0.0838 1.283333,0.13055 2.333333,-0.40036 2.333333,-1.17979 0,-0.77943 -1.65,-1.45932 -3.666667,-1.51086 -2.016666,-0.0515 -4.866666,-0.60937 -6.333333,-1.23962 -2.012751,-0.86491 -1.132913,-1.16888 3.587977,-1.23962 3.440055,-0.0515 6.619592,-0.68421 7.06564,-1.40593 0.446048,-0.72172 2.731459,-1.86761 5.07869,-2.54642 4.138296,-1.19677 4.065558,-1.24505 -2.398974,-1.59215 -3.666666,-0.19688 -7.719533,-0.35304 -9.00637,-0.34703 -1.390099,0.007 -2.201831,-0.84405 -2,-2.09563 0.24063,-1.49218 -0.9241,-2.2284 -3.99363,-2.52436 -4.469993,-0.43099 -6.151652,-2.89961 -2,-2.93594 1.994063,-0.0174 2.04253,-0.20835 0.333334,-1.31292 -1.1,-0.71087 -3.35,-1.30168 -5,-1.31291 -1.65,-0.0112 -3,-0.47609 -3,-1.03303 0,-1.59306 5.605318,-4.89777 10,-5.89567 2.2,-0.49956 0.1,-0.58881 -4.666667,-0.19835 -18.4772172,1.51356 0.967107,-4.72536 22,-7.05894 9.249967,-1.02628 9.288673,-1.04715 4.333333,-2.3368 -6.289498,-1.63687 -6.466834,-3.49763 -0.333333,-3.49763 2.566667,0 4.666667,-0.6 4.666667,-1.33333 0,-0.73334 -1.65,-1.34253 -3.666667,-1.35376 -4.002515,-0.0223 -8.074561,-2.01613 -6.773905,-3.31678 0.448544,-0.44855 7.10817,0.11883 14.79917,1.26083 19.312518,2.86763 23.296818,2.38025 6.317779,-0.77282 -13.024751,-2.41875 -17.525732,-4.07923 -15.782541,-5.82242 0.393832,-0.39383 9.302445,-0.07 19.796917,0.71967 28.1863,2.12087 70.162828,2.19793 90.642578,0.1664 26.69661,-2.64823 115.40211,-4.07626 153.33333,-2.46846 7.7,0.32639 12.95,0.32306 11.66667,-0.007 -1.28333,-0.33044 -2.33333,-1.07361 -2.33333,-1.65148 0,-1.35984 6.48008,-0.1344 7.43172,1.4054 0.39912,0.64578 2.82565,1.17414 5.39232,1.17414 3.01669,0 4.3504,-0.51174 3.77214,-1.44737 -0.63085,-1.02074 2.39176,-1.20728 10.25466,-0.63284 19.48596,1.42357 40.43904,3.66036 41.74216,4.45606 0.69282,0.42304 -0.80718,1.46714 -3.33334,2.32023 -3.99836,1.35026 -1.65845,1.6739 18.07367,2.49979 25.67343,1.07457 32.66667,1.89303 32.66667,3.82316 0,0.87928 -4.89514,1.01698 -14.13959,0.39773 -9.17316,-0.61447 -13.85481,-0.48639 -13.32884,0.36464 0.49433,0.79986 -3.74405,1.64568 -10.86043,2.16733 -15.84089,1.16119 -18.36966,1.65255 -9.67114,1.87917 13.323,0.3471 25.33333,1.87048 25.33333,3.21325 0,0.82664 -4.87237,1.08649 -13,0.6933 -7.15,-0.3459 -11.5,-0.18746 -9.66667,0.35208 1.83334,0.53954 6.74792,1.04079 10.92131,1.11389 4.17339,0.0731 7.935,0.6944 8.35915,1.38068 1.12105,1.81391 -10.24715,3.20593 -19.75422,2.41887 -8.04512,-0.66604 -8.11236,-0.64405 -3.7274,1.21863 2.45602,1.0433 8.33446,2.09935 13.0632,2.34679 14.03824,0.73458 11.37102,2.09405 -4.30648,2.19499 -8.00556,0.0515 -15.75556,0.60937 -17.22222,1.23962 -2.2803,0.97987 -2.32859,1.15948 -0.33334,1.23962 1.28334,0.0515 2.33334,0.69371 2.33334,1.42704 0,0.73334 1.2,1.33334 2.66666,1.33334 1.46667,0 2.68552,0.75 2.70856,1.66666 0.0864,3.43639 6.22754,6.06859 16.37758,7.01973 15.54145,1.45635 14.81697,3.89849 -0.87872,2.96207 -8.49642,-0.5069 -12.87408,-0.29776 -12.87408,0.61505 0,1.30647 -14.156,0.70617 -24.66667,-1.04601 -2.76384,-0.46075 -3.38192,-0.29138 -2,0.54806 1.1,0.66819 7.1,1.6181 13.33333,2.11092 9.81986,0.77637 15.38627,1.78628 23.96263,4.34752 1.72796,0.51603 1.72796,0.73453 0,1.8273 -1.66197,1.05106 -1.61724,1.24432 0.29201,1.26161 1.24006,0.0112 2.62547,-0.57958 3.0787,-1.31291 1.07178,-1.73419 6,-1.73419 6,0 0,0.73333 -0.75,1.39907 -1.66667,1.47941 -4.25008,0.37253 62.87273,9.18725 69.95953,9.18725 1.30559,0 2.3738,0.68358 2.3738,1.51906 0,1.05474 -2.13961,1.25158 -7,0.64398 -5.4778,-0.68477 -46.82442,-5.05687 -57,-6.02732 -10.53969,-1.00518 -18.53988,-1.00926 -17.92177,-0.009 0.4102,0.66377 3.71041,1.20682 7.3338,1.20682 5.96671,0 8.86909,1.68406 5.07947,2.94728 -0.82968,0.27656 6.02029,0.42313 15.22214,0.32571 22.44531,-0.23762 24.52794,0.13389 25.3718,4.5259 0.3735,1.94394 0.55832,3.65818 0.41074,3.80942 -0.1476,0.15124 -4.40323,-0.59015 -9.45696,-1.64753 -9.05188,-1.8939 -12.46726,-1.61878 -8.71244,0.70182 3.29802,2.0383 -4.86378,4.24296 -18.66011,5.04045 -9.54503,0.55175 -11.71141,0.99254 -8.79052,1.78861 2.13188,0.58104 8.37407,0.48615 13.87152,-0.21086 6.68056,-0.84702 10.53907,-0.81607 11.63481,0.0933 1.1606,0.96321 1.8674,0.76653 2.41996,-0.67343 1.06176,-2.76687 4.86423,-2.58501 4.86423,0.23264 0,1.76296 0.35556,1.91111 1.6,0.66667 2.32644,-2.32644 5.65895,-1.96216 8.25091,0.90192 2.13334,2.35732 2.12602,2.55771 -0.12667,3.466877 -2.14128,0.86421 -2.06477,1.09051 0.73272,2.1675 1.71797,0.6614 4.75199,1.48943 6.74224,1.84006 4.80572,0.84665 12.13415,4.56354 12.13415,6.15429 0,0.69778 1.5,1.83898 3.33333,2.53601 5.98895,2.277 3.4976,3.78878 -3,1.82044 -6.66533,-2.01915 -17.6576,-1.27804 -15.34499,1.03458 0.76988,0.76988 2.55802,0.74452 4.69126,-0.0665 2.61089,-0.99266 3.83529,-0.84294 5.04704,0.61712 0.87992,1.06026 3.09986,1.92774 4.9332,1.92774 2.67332,0 3.03277,0.36215 1.81534,1.82905 -1.21865,1.4684 -0.67574,1.9975 2.75342,2.68333 3.39404,0.67881 3.93249,1.19319 2.62146,2.50428 -1.44545,1.44553 -4.9475,1.9491 -17.18341,2.47085 -1.65,0.0704 -3,0.66444 -3,1.3202 0,1.09382 4.54209,1.61712 15.55345,1.79195 2.32106,0.0369 4.67106,0.517 5.22222,1.067 0.55116,0.55 0.003,1 -1.22011,1 -1.22223,0 -2.22223,0.6 -2.22223,1.33333 0,0.73334 0.86459,1.33334 1.92131,1.33334 2.60081,0 4.02904,2.58298 2.35428,4.25774 -0.92275,0.92275 -4.28673,0.90172 -10.48383,-0.0655 -15.91797,-2.48448 -23.70109,-2.91253 -25.79176,-1.41847 -1.5057,1.07603 -1.58809,1.5964 -0.33333,2.10553 2.46921,1.00192 2.02019,3.11762 -0.66667,3.14113 -1.99756,0.0175 -2.04553,0.20935 -0.33333,1.33333 1.66419,1.09247 1.69481,1.5097 0.18247,2.48486 -1.5345,0.98942 -1.5345,1.28449 0,1.89473 1.33956,0.53272 1.24685,0.75049 -0.35255,0.82807 -1.19353,0.0579 -2.917,1.00526 -3.82992,2.10526 -0.91292,1.1 -2.93639,2.0696 -4.49659,2.15467 -2.25316,0.1228 -2.35673,0.28011 -0.50341,0.76444 1.28333,0.33536 2.33333,0.90863 2.33333,1.27389 0,1.83756 -4.81822,5.10102 -7.86961,5.3302 -1.90505,0.14308 -3.91372,0.30891 -4.46372,0.36848 -2.86001,0.3098 -0.41525,2.74383 3.33333,3.31871 2.38334,0.36549 6.56404,1.01625 9.29047,1.44612 2.72643,0.42987 5.72643,1.53383 6.66667,2.45325 2.03284,1.98783 12.30984,2.94024 11.13016,1.03148 -0.4386,-0.70966 -0.2053,-1.65629 0.51846,-2.1036 1.6927,-1.04613 9.7006,3.05464 8.80256,4.50771 -0.37338,0.60415 -8.4951,1.38068 -18.04825,1.72564 -16.18492,0.58444 -20.25287,1.28065 -18.38668,3.14685 0.41315,0.41315 7.19407,0.99407 15.06872,1.29094 14.70239,0.55426 17.33103,1.18565 13.91928,3.3433 -1.63104,1.03151 -1.55515,1.24386 0.45064,1.26084 1.32661,0.0107 2.09781,0.52882 1.71379,1.15019 -0.38404,0.62137 -7.07095,1.49065 -14.85983,1.93173 -7.78887,0.44108 -14.86007,1.31723 -15.71377,1.947 -0.87099,0.64252 -12.6704,0.46443 -26.88555,-0.40577 -13.93333,-0.85295 -25.81677,-1.12405 -26.40765,-0.60245 -0.59088,0.5216 5.40912,1.27586 13.33333,1.67613 14.04681,0.70955 22.20108,2.39115 19.54748,4.03116 -0.72385,0.44736 -9.16551,0.99617 -18.75924,1.21957 -9.59372,0.2234 -16.75407,0.847 -15.91187,1.38578 0.8422,0.53877 3.00128,0.98877 4.79795,1 1.92859,0.012 2.74783,0.49358 2,1.17556 -0.71943,0.65609 -10.19537,0.0947 -21.93333,-1.29942 -11.36667,-1.35001 -21.26667,-2.2172 -22,-1.92708 -0.73334,0.29012 0.31666,0.57486 2.33333,0.63275 6.89164,0.19785 3.68272,2.63801 -4,3.04172 -4.3692,0.22959 1.36555,0.90116 13.33333,1.5614 11.55,0.6372 21,1.62165 21,2.18769 0,1.87546 -3.78306,2.52304 -11.60482,1.9865 -4.25068,-0.29158 -29.92851,-1.15039 -57.06184,-1.90847 -51.95808,-1.45167 -80.96271,-2.71991 -81.8889,-3.58063 -0.30554,-0.28394 8.99446,-0.59994 20.66667,-0.70218 21.17075,-0.18547 21.19312,-0.18888 9.22223,-1.40672 -6.6,-0.67144 -36.9,-1.32242 -67.33334,-1.4466 -47.84204,-0.19523 -56.76938,0.0839 -65.94054,2.06154 -5.83396,1.25803 -11.533956,3.23215 -12.66666,4.38691 -1.865401,1.90175 -1.745367,2.02853 1.273872,1.34559 8.795478,-1.98954 35.638588,-3.41796 63.999998,-3.4057 29.98295,0.0133 41.33304,0.69728 41.33359,2.492 1.3e-4,0.45406 -19.04987,0.82555 -42.33334,0.82555 -33.82567,0 -45.9511,0.496 -60.33358,2.46799 -22.696029,3.11185 -24.413692,3.62892 -25.349285,7.63086 -0.941446,4.02698 -7.501106,5.37778 -8.864286,1.82539 z M 263.20823,198.43433 c -1.65,-0.31781 -4.35,-0.31781 -6,0 -1.65,0.3178 -0.3,0.57783 3,0.57783 3.3,0 4.65,-0.26003 3,-0.57783 z M 66.874895,188.70864 c 0,-0.73333 -0.864589,-1.33333 -1.92131,-1.33333 -1.056722,0 -2.292131,0.6 -2.745356,1.33333 -0.453226,0.73333 0.411365,1.33333 1.92131,1.33333 1.509946,0 2.745356,-0.6 2.745356,-1.33333 z m 356.972225,-4.80556 c -0.44305,-0.44305 -1.59307,-0.49041 -2.55556,-0.1052 -1.06364,0.42563 -0.74771,0.74157 0.80556,0.80555 1.40555,0.0579 2.19305,-0.25724 1.75,-0.7003 z m 12.04332,-0.11053 c -1.27479,-0.33372 -3.67479,-0.34583 -5.33333,-0.0269 -1.65855,0.31892 -0.61555,0.59198 2.31778,0.60678 2.93334,0.0148 4.29034,-0.24615 3.01555,-0.57987 z m -37.37665,-5.22279 c -0.44306,-0.44305 -1.59307,-0.49041 -2.55556,-0.1052 -1.06364,0.42563 -0.74771,0.74157 0.80556,0.80555 1.40554,0.0579 2.19305,-0.25724 1.75,-0.7003 z m 6.66666,0 c -0.44305,-0.44305 -1.59306,-0.49041 -2.55556,-0.1052 -1.06364,0.42563 -0.7477,0.74157 0.80556,0.80555 1.40555,0.0579 2.19306,-0.25724 1.75,-0.7003 z m 10.36111,-8.52779 c -1.46667,-0.63025 -4.46667,-1.1459 -6.66667,-1.1459 -3.41016,0 -3.60677,0.16897 -1.33333,1.1459 1.46667,0.63026 4.46667,1.14591 6.66667,1.14591 3.41016,0 3.60677,-0.16897 1.33333,-1.14591 z m -5.64129,-7.54125 c -0.90271,-0.36523 -2.70271,-0.38745 -4,-0.0493 -1.2973,0.33805 -0.55871,0.63688 1.64129,0.66405 2.2,0.0272 3.26141,-0.24941 2.35871,-0.61465 z m 17.38665,-11.11989 c 0.59328,-0.003 0.73065,-0.56864 0.30528,-1.25691 -0.42536,-0.68827 0.28923,-1.8578 1.58799,-2.59896 1.68858,-0.96364 -2.13575,-1.33705 -13.42284,-1.31061 -8.68132,0.0204 -16.18132,-0.36178 -16.66667,-0.84914 -0.48535,-0.48736 0.50185,-2.00842 2.19379,-3.38013 l 3.07622,-2.49402 -4.40956,-1.1666 c -2.42526,-0.64163 -4.60957,-0.66768 -4.85401,-0.0579 -0.24445,0.6098 -6.49445,1.10873 -13.88889,1.10873 -15.97519,0 -16.53852,1.61792 -0.69086,1.9842 12.80967,0.29606 17.78995,1.48654 15.87444,3.7946 -0.70958,0.85498 -1.19117,2.15453 -1.0702,2.88786 0.12094,0.73336 -2.48005,1.60796 -5.78005,1.94357 -5.83125,0.59305 -5.75625,0.63221 2.66667,1.39249 4.76666,0.43026 14.36666,0.60815 21.33333,0.39531 6.96667,-0.21284 13.15208,-0.38945 13.74536,-0.39249 z m -69.41203,-2.2219 c -0.91666,-0.36988 -2.41666,-0.36988 -3.33333,0 -0.91667,0.36988 -0.16667,0.67252 1.66667,0.67252 1.83333,0 2.58333,-0.30264 1.66666,-0.67252 z m 20,-0.0932 c -3.11666,-0.2807 -8.21666,-0.2807 -11.33333,0 -3.11667,0.28072 -0.56667,0.5104 5.66667,0.5104 6.23333,0 8.78333,-0.22968 5.66666,-0.5104 z M 57.180451,147.90308 c -0.443056,-0.44305 -1.593056,-0.49041 -2.555556,-0.1052 -1.063644,0.42563 -0.747701,0.74157 0.805556,0.80555 1.405555,0.0579 2.193055,-0.25723 1.75,-0.7003 z m -12,-13.33333 c -0.443056,-0.44305 -1.593056,-0.49042 -2.555556,-0.10526 -1.063644,0.42563 -0.747701,0.74157 0.805556,0.80555 1.405555,0.0579 2.193055,-0.25724 1.75,-0.70029 z M 446.54835,112.39567 c -0.67579,-2.02736 -6.77207,-2.70109 -13.00679,-1.43743 l -4.66667,0.94584 6,0.86869 c 10.085,1.46012 12.26242,1.38978 11.67346,-0.3771 z m -53.85163,-7.03685 c 0.58792,-1.53208 0.0616,-1.84858 -2.19068,-1.31752 -1.63047,0.38443 -6.26448,0.15408 -10.29781,-0.51189 -4.03334,-0.66596 -7.93334,-0.82307 -8.66667,-0.34914 -0.73333,0.47394 3.46667,1.53621 9.33333,2.3606 5.86667,0.82439 10.75248,1.57439 10.85735,1.66666 0.10493,0.0923 0.53889,-0.73964 0.96448,-1.84871 z m 44.62056,0.58944 c 3.29249,-0.13872 -2.22392,-2.35835 -6.16163,-2.47924 -2.57696,-0.0791 -2.7847,0.21074 -1.33333,1.86031 0.94559,1.07472 2.51831,1.67472 3.49496,1.33334 0.97664,-0.34138 2.77664,-0.66286 4,-0.71441 z m -14.08368,-3.44753 c -0.90271,-0.36523 -2.70271,-0.38746 -4,-0.0494 -1.29729,0.33806 -0.55871,0.63688 1.64129,0.66405 2.2,0.0272 3.26142,-0.24942 2.35871,-0.61465 z m -42.66667,-2.666667 c -0.9027,-0.36523 -2.7027,-0.38746 -4,-0.0494 -1.29729,0.338057 -0.5587,0.636887 1.6413,0.664057 2.2,0.0272 3.26141,-0.24942 2.3587,-0.614647 z m 10.66667,0 c -0.90271,-0.36523 -2.70271,-0.38746 -4,-0.0494 -1.29729,0.338057 -0.55871,0.636887 1.64129,0.664057 2.2,0.0272 3.26142,-0.24942 2.35871,-0.614647 z m 4.86352,-15.6152 c -0.30556,-0.26938 -2.95556,-0.89164 -5.88889,-1.3828 -3.82142,-0.63986 -4.76636,-0.5068 -3.33334,0.46937 1.79882,1.22533 10.56034,2.09313 9.22223,0.91343 z m 5.08333,-0.31577 c -0.44305,-0.44306 -1.59306,-0.49043 -2.55556,-0.10527 -1.06364,0.42564 -0.7477,0.74158 0.80556,0.80556 1.40555,0.0579 2.19306,-0.25724 1.75,-0.7003 z m -17.33333,-24 c -0.44305,-0.44306 -1.59307,-0.49042 -2.55556,-0.10527 -1.06364,0.42564 -0.74771,0.74158 0.80556,0.80556 1.40555,0.0579 2.19305,-0.25724 1.75,-0.70029 z m -13.63889,-11.40844 c -4.4,-0.58378 -10.1,-0.66666 -12.66667,-0.18417 l -4.66667,0.87725 4.64003,0.76046 c 2.55201,0.41825 8.25201,0.50113 12.66667,0.18417 l 8.02664,-0.57628 z m -45.66667,-2.08387 c -2.38333,-0.29576 -6.28333,-0.29576 -8.66667,0 -2.38333,0.29577 -0.43333,0.53777 4.33334,0.53777 4.76666,0 6.71666,-0.242 4.33333,-0.53777 z m 18.33333,-0.3688 c 0,-0.73333 -0.6,-1.33333 -1.33333,-1.33333 -0.73333,0 -1.33333,0.6 -1.33333,1.33333 0,0.73333 0.6,1.33333 1.33333,1.33333 0.73333,0 1.33333,-0.6 1.33333,-1.33333 z M 47.874895,43.789543 c -1.283333,-0.33537 -3.383333,-0.33537 -4.666666,0 -1.283334,0.33537 -0.233334,0.60977 2.333333,0.60977 2.566667,0 3.616667,-0.2744 2.333333,-0.60977 z m 71.972225,0.11355 c -0.44306,-0.44305 -1.59306,-0.49042 -2.55556,-0.10527 -1.06364,0.42564 -0.7477,0.74158 0.80556,0.80556 1.40555,0.0579 2.19305,-0.25724 1.75,-0.70029 z m 9.36111,-0.11355 c -1.28334,-0.33537 -3.38334,-0.33537 -4.66667,0 -1.28333,0.33537 -0.23333,0.60977 2.33333,0.60977 2.56667,0 3.61667,-0.2744 2.33334,-0.60977 z m -79.333335,-3.96394 c -0.916666,-0.36988 -2.416666,-0.36988 -3.333333,0 -0.916667,0.36989 -0.166667,0.67252 1.666667,0.67252 1.833333,0 2.583333,-0.30263 1.666666,-0.67252 z m 19.348879,-2.69973 c -1.274783,-0.33372 -3.674783,-0.34583 -5.333333,-0.0269 -1.65855,0.31893 -0.615546,0.59197 2.317788,0.60677 2.933333,0.0148 4.290329,-0.24614 3.015545,-0.57986 z m 10.651121,-1.33633 c -1.283333,-0.33537 -3.383333,-0.33537 -4.666666,0 -1.283334,0.33537 -0.233334,0.60977 2.333333,0.60977 2.566667,0 3.616667,-0.2744 2.333333,-0.60977 z m 20.827785,-4.13557 c 0.3585,-0.58008 -1.556088,-0.84549 -4.254646,-0.58981 -8.245065,0.78119 -9.217409,1.32746 -2.651828,1.48982 3.440055,0.0851 6.547964,-0.31994 6.906474,-0.90001 z m 11.18776,-1.19476 c -1.27478,-0.33373 -3.67478,-0.34584 -5.33333,-0.0269 -1.65855,0.31892 -0.61555,0.59197 2.31778,0.60677 2.93334,0.0148 4.29033,-0.24614 3.01555,-0.57987 z m 38.62335,-2.55612 c -0.44307,-0.44306 -1.59307,-0.49042 -2.55556,-0.10527 -1.06364,0.42564 -0.74771,0.74158 0.80556,0.80556 1.40554,0.0579 2.19305,-0.25724 1.75,-0.70029 z m 108.94489,-1.99521 c -0.65391,-1.05804 6.85679,-1.27536 26.92131,-0.77896 18.52522,0.45833 24.03949,0.32453 16.4949,-0.40023 -6.23333,-0.59879 -20.2568,-1.14826 -31.16325,-1.22104 -17.48465,-0.11669 -19.63363,0.1042 -18.17008,1.86766 1.91404,2.30628 7.31369,2.79227 5.91712,0.53257 z m 115.41621,0.20924 10,-0.4506 -7.33333,-1.01374 c -10.62781,-1.46916 -33.33333,-1.49427 -33.33333,-0.0369 0,2.14017 7.902,2.52699 30.66666,1.50121 z m -128,-1.46939 c 1.46062,-0.98841 0.92123,-1.11212 -2,-0.45868 -4.90257,1.09662 -5.96681,1.85976 -2.55556,1.83251 1.40556,-0.0112 3.45556,-0.62945 4.55556,-1.37383 z m 80.66667,185.808497 c -17.66384,-0.63331 -73.20217,-4.50532 -73.84519,-5.14834 -1.43634,-1.43633 1.47731,-1.51724 17.17852,-0.477 9.16667,0.60732 29.10083,1.81119 44.29814,2.67527 15.19729,0.86408 27.31189,2.08812 26.9213,2.72009 -0.39058,0.63199 -1.42474,1.02831 -2.29813,0.88074 -0.87339,-0.14759 -6.38797,-0.44043 -12.25464,-0.65076 z m 116,-52.41426 c 0.45323,-0.73333 1.68864,-1.33333 2.74536,-1.33333 1.05672,0 1.92131,0.6 1.92131,1.33333 0,0.73334 -1.23542,1.33334 -2.74536,1.33334 -1.50995,0 -2.37454,-0.6 -1.92131,-1.33334 z m 14.97735,-9.74053 c -3.64927,-1.44103 -4.3493,-4.70528 -0.81068,-3.78017 1.00833,0.2636 4.66136,0.59162 8.11782,0.72893 7.89339,0.31356 9.06519,1.39373 3.5846,3.30428 -4.95964,1.72895 -5.92965,1.70641 -10.89174,-0.25304 z M 447.48673,95.286603 c -0.48337,-0.78212 -0.54466,-1.75624 -0.13618,-2.16472 1.09685,-1.09685 4.85768,0.61536 4.85768,2.21158 0,1.80968 -3.59615,1.77398 -4.7215,-0.0469 z m -6.61184,-3.91129 c 0.45323,-0.73333 1.38864,-1.33333 2.0787,-1.33333 0.69005,0 1.25464,0.6 1.25464,1.33333 0,0.73333 -0.93542,1.33333 -2.0787,1.33333 -1.14328,0 -1.70786,-0.6 -1.25464,-1.33333 z m -19.66666,-18.30462 c -5.78758,-0.6054 -6.04126,-1.14618 -2.12932,-4.53899 3.39113,-2.94111 4.20992,-3.02382 8.14741,-0.82306 1.64005,0.91667 3.14603,1.73079 3.34663,1.80917 1.11154,0.43428 -1.5661,4.48749 -2.84071,4.30003 -0.8382,-0.12328 -3.77401,-0.45949 -6.52401,-0.74715 z m 12.33333,-9.69538 c 0,-0.73333 1.8,-1.33333 4,-1.33333 2.2,0 4,0.6 4,1.33333 0,0.73333 -1.8,1.33333 -4,1.33333 -2.2,0 -4,-0.6 -4,-1.33333 z m -1.33333,-4.05587 c -4.03334,-0.55755 -11.38334,-1.07307 -16.33334,-1.1456 -5.13512,-0.0752 -9,-0.71516 -9,-1.49016 0,-0.89057 4.93574,-1.06612 14.33334,-0.50981 7.88333,0.46668 15.68333,0.78464 17.33333,0.70658 1.83131,-0.0866 3,0.63138 3,1.84313 0,1.09179 -0.45,1.90059 -1,1.79733 -0.55,-0.10325 -4.3,-0.64391 -8.33333,-1.20147 z m -37.33334,-7.94413 c 0,-0.73333 2.06459,-1.33333 4.58798,-1.33333 2.52338,0 4.9588,0.6 5.41202,1.33333 0.49767,0.80524 -1.31949,1.33334 -4.58797,1.33334 -2.97661,0 -5.41203,-0.6 -5.41203,-1.33334 z M 9.5415618,46.041983 c 0,-0.73333 1.2000002,-1.33333 2.6666672,-1.33333 1.466666,0 2.666666,0.6 2.666666,1.33333 0,0.73333 -1.2,1.33333 -2.666666,1.33333 -1.466667,0 -2.6666672,-0.6 -2.6666672,-1.33333 z M 418.87489,38.661733 c 0,-1.92144 4.5307,-7.28642 6.15335,-7.28642 2.36935,0 2.32388,0.69882 -0.30669,4.71358 -1.87272,2.85814 -5.84666,4.60688 -5.84666,2.57284 z m 11.33334,-8.61975 c -0.45323,-0.73333 0.11133,-1.33333 1.25464,-1.33333 1.14328,0 2.07869,0.6 2.07869,1.33333 0,0.73333 -0.56459,1.33333 -1.25464,1.33333 -0.69005,0 -1.62547,-0.6 -2.07869,-1.33333 z"
     id="path12023"
     inkscape:connector-curvature="0" />
</svg>
